<?xml version="1.0" encoding="utf-8"?>
<!-- Generator: Adobe Illustrator 24.2.0, SVG Export Plug-In . SVG Version: 6.00 Build 0)  -->
<svg version="1.1" id="Ebene_1" xmlns="http://www.w3.org/2000/svg" xmlns:xlink="http://www.w3.org/1999/xlink" x="0px" y="0px"
	 viewBox="0 0 1140 1080" style="enable-background:new 0 0 1140 1080;" xml:space="preserve">
<style type="text/css">
	.st0{fill:#000010;stroke:#E5E5E5;stroke-miterlimit:10;}
	.st1{fill:#FFFFFF;stroke:#E5E5E5;stroke-miterlimit:10;}
	.st2{fill:none;stroke:#000000;stroke-miterlimit:10;}
	.st3{fill:#000010;stroke:#000000;stroke-miterlimit:10;}
	.st4{fill:#52637F;}
	.st5{fill:#000010;}
	.st6{fill:#FFFFFF;}
	.st7{stroke:#000000;stroke-miterlimit:10;}
	.st8{clip-path:url(#SVGID_2_);}
	.st9{font-family:'PTSerif-BoldItalic';}
	.st10{font-size:22px;}
	.st11{fill:#E5E5E5;}
	.st12{fill:none;}
	.st13{font-family:'Lato-Black';}
	.st14{font-size:14px;}
	.st15{letter-spacing:2;}
	.st16{font-family:'PTSans-Regular';}
	.st17{font-size:16px;}
	.st18{font-family:'PTSans-Bold';}
	.st19{letter-spacing:-1;}
	.st20{font-size:12px;}
	.st21{font-size:33px;}
	.st22{font-size:11px;}
	.st23{fill:none;stroke:#000000;stroke-width:0.5;stroke-miterlimit:10;}
	.st24{fill:none;stroke:#000000;stroke-width:3;stroke-linecap:round;stroke-miterlimit:10;}
	.st25{opacity:0.98;fill:#52637F;}
	.st26{fill:none;stroke:#FFFFFF;stroke-width:3;stroke-linecap:round;stroke-miterlimit:10;}
	.st27{fill:#FFFFFF;stroke:#000000;stroke-miterlimit:10;}
</style>
<rect x="-85.9" y="-629" width="510" height="510"/>
<line class="st0" x1="-523.5" y1="1192" x2="-523.5" y2="2102.5"/>
<circle class="st1" cx="-523" cy="1997" r="64.4"/>
<g>
	<rect x="-502.5" y="1310" class="st12" width="313.5" height="652"/>
	<text transform="matrix(1 0 0 1 -502.5 1320.4858)" class="st13 st14 st15">1. Bücher</text>
	<text transform="matrix(1 0 0 1 -502.5 1345.4858)" class="st16 st17">„Das zerstörte Ich. Heroinsüchtige zwischen </text>
	<text transform="matrix(1 0 0 1 -502.5 1370.4858)" class="st16 st17">Bestrafung und Betreuung.“</text>
	<text transform="matrix(1 0 0 1 -502.5 1395.4858)" class="st16 st17">Beltz Verlag 1996</text>
	<text transform="matrix(1 0 0 1 -502.5 1420.4858)" class="st16 st17">„Das zerstörte Ich“ ist eine Analyse der ge</text>
	<text transform="matrix(1 0 0 1 -217.8325 1420.4858)" class="st16 st17">-</text>
	<text transform="matrix(1 0 0 1 -502.5 1445.4858)" class="st16 st17">sellschaftlichen und individuellen Mechanis</text>
	<text transform="matrix(1 0 0 1 -202.5376 1445.4858)" class="st16 st17">-</text>
	<text transform="matrix(1 0 0 1 -502.5 1470.4858)" class="st16 st17">me er ist das Drogenproblem kein Projekt. ... </text>
	<text transform="matrix(1 0 0 1 -502.5 1495.4858)" class="st16 st17">Er zeigt, dass es trotz aller Kritik am vorherr</text>
	<text transform="matrix(1 0 0 1 -202.5845 1495.4858)" class="st16 st17">-</text>
	<text transform="matrix(1 0 0 1 -502.5 1520.4858)" class="st16 st17">schenden klaren humanistischen Standpunkt </text>
	<text transform="matrix(1 0 0 1 -502.5 1545.4863)" class="st16 st17">durchzuhalten und das Abrutschen in die </text>
	<text transform="matrix(1 0 0 1 -502.5 1570.4863)" class="st16 st17">Beliebigkeit zu vermeiden.“</text>
	<text transform="matrix(1 0 0 1 -502.5 1620.4863)" class="st18 st17">Als Herausgeber:  </text>
	<text transform="matrix(1 0 0 1 -502.5 1645.4863)" class="st16 st17">„Das Heisse und das Kalte. Kunst und Gesell</text>
	<text transform="matrix(1 0 0 1 -201.2407 1645.4863)" class="st16 st17">-</text>
	<text transform="matrix(1 0 0 1 -502.5 1670.4863)" class="st16 st17">schaft.“ </text>
	<text transform="matrix(0.583 0 0 0.583 -448.1973 1665.8242)" class="st18 st14">[1]</text>
	<text transform="matrix(1 0 0 1 -502.5 1695.4863)" class="st16 st17">Peter Lang Verlag 1997</text>
	<text transform="matrix(1 0 0 1 -502.5 1720.4863)" class="st16 st17">Mit Beiträgen von Urs Jaeggi, Axel Honneth, </text>
	<text transform="matrix(1 0 0 1 -502.5 1745.4863)" class="st16 st17">Jean Ziegesellschaftliche Entwicklungen im </text>
	<text transform="matrix(1 0 0 1 -502.5 1770.4863)" class="st16 st17">Interesse der Menschen voranzutreiben.  </text>
	<text transform="matrix(1 0 0 1 -502.5 1795.4863)" class="st16 st17"> </text>
	<text transform="matrix(1 0 0 1 -502.5 1819.4863)" class="st16 st17"> </text>
	<text transform="matrix(1 0 0 1 -502.5 1843.4863)" class="st16 st17 st19">-------------------- </text>
	<text transform="matrix(1 0 0 1 -502.5 1864.4863)" class="st18 st20">[1] </text>
	<text transform="matrix(1 0 0 1 -484.8848 1864.4863)" class="st16 st20">Zitatquelle, URL, Seitenabrufdatum  </text>
	<text transform="matrix(1 0 0 1 -502.5 1885.4863)" class="st18 st20">[2]</text>
	<text transform="matrix(1 0 0 1 -487.9209 1885.4863)" class="st16 st20"> Zitatquelle, URL, Seitenabrufdatum</text>
</g>
<g>
	<rect x="-2135.5" y="205" class="st12" width="522" height="652"/>
	<text transform="matrix(1 0 0 1 -2135.5 216.6558)"><tspan x="0" y="0" class="st17" style="font-family:'Lato-Light';">Lorem ipsum dolor sit amet, consetetur sadipscing elitr, sed diam nonumy </tspan><tspan x="0" y="27" class="st17" style="font-family:'Lato-Light';">eirmod tempor invidunt ut labore et dolore magna aliquyam erat, sed diam </tspan><tspan x="0" y="54" class="st17" style="font-family:'Lato-Light';">voluptua. At vero eos et accusam et justo duo dolores et ea rebum. Stet clita </tspan><tspan x="0" y="81" class="st17" style="font-family:'Lato-Light';">kasd gubergren, no sea takimata sanctus est Lorem ipsum dolor sit amet. </tspan><tspan x="0" y="108" class="st17" style="font-family:'Lato-Light';">Lorem ipsum dolor sit amet, consetetur sadipscing elitr, sed diam nonumy </tspan><tspan x="0" y="135" class="st17" style="font-family:'Lato-Light';">eirmod tempor invidunt ut labore et dolore magna aliquyam erat, sed diam </tspan><tspan x="0" y="162" class="st17" style="font-family:'Lato-Light';">voluptua. At vero eos et accusam et justo duo dolores et ea rebum. Stet clita </tspan><tspan x="0" y="189" class="st17" style="font-family:'Lato-Light';">kasd gubergren, no sea takimata sanctus est Lorem ipsum dolor sit amet.</tspan></text>
</g>
<g>
	<rect x="-2852.5" y="205" class="st12" width="522" height="652"/>
	<text transform="matrix(1 0 0 1 -2852.5 216.2002)"><tspan x="0" y="0" class="st16 st17">Lorem ipsum dolor sit amet, consetetur sadipscing elitr, sed diam nonumy </tspan><tspan x="0" y="25" class="st16 st17">eirmod tempor invidunt ut labore et dolore magna aliquyam erat, sed diam </tspan><tspan x="0" y="50" class="st16 st17">voluptua. At vero eos et accusam et justo duo dolores et ea rebum. Stet clita </tspan><tspan x="0" y="75" class="st16 st17">kasd gubergren, no sea takimata sanctus est Lorem ipsum dolor sit amet. </tspan><tspan x="0" y="100" class="st16 st17">Lorem ipsum dolor sit amet, consetetur sadipscing elitr, sed diam nonumy </tspan><tspan x="0" y="125" class="st16 st17">eirmod tempor invidunt ut labore et dolore magna aliquyam erat, sed diam </tspan><tspan x="0" y="150" class="st16 st17">voluptua. At vero eos et accusam et justo duo dolores et ea rebum. Stet clita </tspan><tspan x="0" y="175" class="st16 st17">kasd gubergren, no sea takimata sanctus est Lorem ipsum dolor sit amet.</tspan></text>
</g>
<text transform="matrix(1 0 0 1 1747.4453 2262.043)" style="font-family:'AkzidenzGroteskBE-XBd'; font-size:67.1981px;">P</text>
<text transform="matrix(1 0 0 1 1815.4458 2262.1982)" style="font-family:'Walbaum-RomanSC'; font-size:93px;">t</text>
<g>
	<text transform="matrix(1 0 0 1 1747.4453 2469.043)" style="font-family:'Walbaum-RomanSC'; font-size:93px;">P</text>
</g>
<g>
	<text transform="matrix(1 0 0 1 1815.4458 2469.1982)" style="font-family:'AkzidenzGroteskBE-XBd'; font-size:67.1981px;">T</text>
</g>
<line class="st2" x1="1796" y1="2194" x2="1796" y2="2288"/>
<text transform="matrix(1 0 0 1 2119.9453 2262.043)" style="font-family:'AkzidenzGroteskBE-XBd'; font-size:67.1981px;">P</text>
<text transform="matrix(1 0 0 1 2187.9458 2262.1982)" style="font-family:'BankGothicBT-Medium'; font-size:93px;">t</text>
<text transform="matrix(1 0 0 1 2598.9458 2889.1982)" style="font-family:'Walbaum-ItalicOsF'; font-size:93px;">pt</text>
<text transform="matrix(1 0 0 1 2300.9458 2477.1982)" style="font-family:'Rockwell-Regular'; font-size:93px;">pt</text>
<text transform="matrix(1 0 0 1 2536.9458 2634.1982)" style="font-family:'Rockwell-Regular'; font-size:93px;">P T</text>
<text transform="matrix(1 0 0 1 2553.9458 2477.1982)" class="st13" style="font-size:93px;">pt</text>
<text transform="matrix(1 0 0 1 1920.9458 2358.1982)" style="font-family:'Disturbance'; font-size:93px;">pt</text>
<text transform="matrix(1 0 0 1 1987.9458 2674.1982)" style="font-family:'Disturbance'; font-size:93px;">peter trübner</text>
<text transform="matrix(1 0 0 1 1987.9458 2837.1982)"><tspan x="0" y="0" style="font-family:'Disturbance'; font-size:93px;">Prof. </tspan><tspan x="0" y="111.6" style="font-family:'Disturbance'; font-size:93px;">Dr. </tspan><tspan x="0" y="223.2" style="font-family:'Disturbance'; font-size:93px;">Peter </tspan><tspan x="0" y="334.8" style="font-family:'Disturbance'; font-size:93px;">Trübner</tspan></text>
<g>
	<text transform="matrix(1 0 0 1 2724.9453 2851.0742)"><tspan x="0" y="0" style="font-family:'Rockwell-Regular'; font-size:10.8109px;">Prof. </tspan><tspan x="0" y="13" style="font-family:'Rockwell-Regular'; font-size:10.8109px;">Dr. </tspan><tspan x="0" y="25.9" style="font-family:'Rockwell-Regular'; font-size:10.8109px;">Peter </tspan><tspan x="0" y="38.9" style="font-family:'Rockwell-Regular'; font-size:10.8109px;">Trübner</tspan></text>
</g>
<text transform="matrix(1 0 0 1 2114.9458 2485.1982)"><tspan x="0" y="0" style="font-family:'BankGothicBT-Medium'; font-size:93px;">p</tspan><tspan x="58.4" y="0" style="font-family:'BankGothicBT-Medium'; font-size:50px;"> </tspan><tspan x="77.8" y="0" style="font-family:'BankGothicBT-Medium'; font-size:93px;">t</tspan></text>
<line class="st2" x1="2168.5" y1="2194" x2="2168.5" y2="2288"/>
<line class="st2" x1="2178.5" y1="2418" x2="2178.5" y2="2512"/>
<line class="st2" x1="2603.5" y1="2551" x2="2603.5" y2="2645"/>
<circle cx="1773" cy="2693" r="33"/>
<text transform="matrix(1 0 0 1 1744.9458 2716.1982)"><tspan x="0" y="0" class="st6" style="font-family:'BankGothicBT-Medium'; font-size:93px;">p</tspan><tspan x="58.4" y="0" class="st6" style="font-family:'BankGothicBT-Medium'; font-size:50px;"> </tspan></text>
<line class="st3" x1="2705.5" y1="2835" x2="2705.5" y2="2900.5"/>
<text transform="matrix(1 0 0 1 2801.9458 2343.1982)" style="font-family:'Walbaum-ItalicOsF'; font-size:93px;">pt</text>
<g>
	<text transform="matrix(1 0 0 1 2927.9453 2305.0742)"><tspan x="0" y="0" style="font-family:'AkzidenzGroteskBE-Md'; font-size:10.8109px;">Prof. </tspan><tspan x="0" y="13" style="font-family:'AkzidenzGroteskBE-Md'; font-size:10.8109px;">Dr. </tspan><tspan x="0" y="25.9" style="font-family:'AkzidenzGroteskBE-Md'; font-size:10.8109px;">Peter </tspan><tspan x="0" y="38.9" style="font-family:'AkzidenzGroteskBE-Md'; font-size:10.8109px;">Trübner</tspan></text>
</g>
<line class="st3" x1="2908.5" y1="2289" x2="2908.5" y2="2354.5"/>
<text transform="matrix(1 0 0 1 1512.9458 -134.8018)" style="font-family:'Walbaum-ItalicOsF'; font-size:93px;">pt</text>
<g>
	<text transform="matrix(1 0 0 1 1641.9453 -172.9258)"><tspan x="0" y="0" style="font-family:'AkzidenzGroteskBE-Md'; font-size:10.8109px; letter-spacing:1;">Prof. </tspan><tspan x="0" y="13" style="font-family:'AkzidenzGroteskBE-Md'; font-size:10.8109px; letter-spacing:1;">Dr. </tspan><tspan x="0" y="25.9" style="font-family:'AkzidenzGroteskBE-Md'; font-size:10.8109px; letter-spacing:1;">Peter </tspan><tspan x="0" y="38.9" style="font-family:'AkzidenzGroteskBE-Md'; font-size:10.8109px; letter-spacing:1;">Trübner</tspan></text>
</g>
<line class="st3" x1="1619.5" y1="-189" x2="1619.5" y2="-123.5"/>
<g>
	<path d="M-602.6,1192.7h5.5v3.7H-611l11.2-49.9h-5.1v-4h13.3l-1.9,7.7h0.3c0.8-1.1,1.7-2.1,2.7-3.2c1-1,2.1-1.9,3.3-2.7
		c1.2-0.8,2.5-1.4,3.9-1.9c1.4-0.4,2.9-0.7,4.5-0.7c2.8,0,5,0.9,6.8,2.8c1.8,1.9,2.7,4.8,2.7,8.9c0,3.8-0.6,7.4-1.9,10.9
		c-1.2,3.5-2.9,6.5-5.1,9.2c-2.1,2.7-4.7,4.8-7.6,6.4c-2.9,1.6-6,2.4-9.3,2.4c-0.9,0-1.7,0-2.3-0.1c-0.6,0-1.2-0.1-1.7-0.3
		c-0.5-0.1-1-0.3-1.4-0.4c-0.5-0.1-1-0.3-1.5-0.6L-602.6,1192.7z M-582.7,1146.5c-1.4,0-2.7,0.3-3.9,0.9c-1.3,0.6-2.4,1.3-3.4,2.2
		c-1,0.9-1.9,1.8-2.6,2.8c-0.7,1-1.3,2-1.6,2.9l-4.8,21.9c0.3,0.3,0.7,0.6,1.1,0.8c0.4,0.2,0.8,0.4,1.3,0.5c0.5,0.1,1,0.2,1.7,0.2
		c0.6,0,1.4,0.1,2.4,0.1c2.1,0,4.1-0.7,6-2.2c1.9-1.5,3.6-3.4,5-5.8c1.4-2.4,2.6-5,3.4-7.9c0.9-2.9,1.3-5.8,1.3-8.6
		c0-2.5-0.5-4.4-1.4-5.7C-579.4,1147.2-580.8,1146.5-582.7,1146.5z"/>
	<path d="M-562.1,1142.5h7.9l2.2-8.6h6.9l-2,8.6h10.1v4H-548l-5.8,22.5c-0.2,1-0.4,1.9-0.5,2.7c-0.1,0.8-0.1,1.6-0.1,2.5
		c0,2.3,1.3,3.4,3.9,3.4c1.3,0,2.9-0.3,4.6-0.9c1.7-0.6,3.2-1.5,4.5-2.6l1.6,3c-0.5,0.6-1.3,1.2-2.3,1.9c-1,0.6-2.1,1.2-3.3,1.7
		c-1.2,0.5-2.6,0.9-4.1,1.3c-1.5,0.3-3,0.5-4.6,0.5c-2.4,0-4.3-0.6-5.7-1.8c-1.3-1.2-2-2.7-2-4.5c0-0.8,0-1.6,0.1-2.5
		c0-0.9,0.2-1.8,0.4-2.7l6.1-24.3h-6.8V1142.5z"/>
</g>
<g>
	<g>
		<path class="st4" d="M-507.4,1146.5v2.1h-1.5v-6.4h2.3c0.5,0,0.8,0.1,1.2,0.2s0.6,0.3,0.8,0.4c0.2,0.2,0.4,0.4,0.5,0.7
			c0.1,0.3,0.1,0.5,0.1,0.8c0,0.3-0.1,0.6-0.2,0.9c-0.1,0.3-0.3,0.5-0.5,0.7c-0.2,0.2-0.5,0.3-0.8,0.4c-0.3,0.1-0.7,0.2-1.2,0.2
			H-507.4z M-507.4,1145.4h0.8c0.4,0,0.7-0.1,0.8-0.3c0.2-0.2,0.3-0.4,0.3-0.8c0-0.1,0-0.3-0.1-0.4c0-0.1-0.1-0.2-0.2-0.3
			c-0.1-0.1-0.2-0.2-0.3-0.2s-0.3-0.1-0.5-0.1h-0.8V1145.4z"/>
		<path class="st4" d="M-501.3,1146.3v2.4h-1.5v-6.4h2.1c0.5,0,0.9,0,1.2,0.1c0.3,0.1,0.6,0.2,0.8,0.4c0.2,0.2,0.4,0.4,0.5,0.6
			c0.1,0.2,0.1,0.5,0.1,0.8c0,0.2,0,0.4-0.1,0.6c-0.1,0.2-0.1,0.4-0.2,0.5c-0.1,0.2-0.2,0.3-0.4,0.4c-0.2,0.1-0.3,0.2-0.6,0.3
			c0.1,0,0.2,0.1,0.3,0.2c0.1,0.1,0.2,0.2,0.2,0.3l1.4,2.2h-1.3c-0.2,0-0.4-0.1-0.5-0.3l-1.1-1.9c0-0.1-0.1-0.1-0.2-0.2
			c-0.1,0-0.2-0.1-0.3-0.1H-501.3z M-501.3,1145.3h0.6c0.2,0,0.4,0,0.5-0.1c0.1-0.1,0.3-0.1,0.4-0.2c0.1-0.1,0.2-0.2,0.2-0.3
			c0-0.1,0.1-0.3,0.1-0.4c0-0.3-0.1-0.5-0.3-0.7c-0.2-0.2-0.5-0.2-0.9-0.2h-0.6V1145.3z"/>
		<path class="st4" d="M-490.4,1145.5c0,0.5-0.1,0.9-0.2,1.3c-0.2,0.4-0.4,0.7-0.7,1s-0.6,0.5-1,0.7c-0.4,0.2-0.9,0.3-1.4,0.3
			s-1-0.1-1.4-0.3c-0.4-0.2-0.8-0.4-1.1-0.7c-0.3-0.3-0.5-0.6-0.7-1c-0.2-0.4-0.2-0.8-0.2-1.3c0-0.5,0.1-0.9,0.2-1.3
			c0.2-0.4,0.4-0.7,0.7-1c0.3-0.3,0.6-0.5,1.1-0.7c0.4-0.2,0.9-0.3,1.4-0.3s1,0.1,1.4,0.3c0.4,0.2,0.8,0.4,1,0.7s0.5,0.6,0.7,1
			C-490.5,1144.6-490.4,1145-490.4,1145.5z M-491.9,1145.5c0-0.3,0-0.6-0.1-0.9s-0.2-0.5-0.4-0.6c-0.2-0.2-0.3-0.3-0.6-0.4
			c-0.2-0.1-0.5-0.1-0.8-0.1c-0.3,0-0.5,0-0.8,0.1c-0.2,0.1-0.4,0.2-0.6,0.4c-0.2,0.2-0.3,0.4-0.4,0.6s-0.1,0.5-0.1,0.9
			c0,0.3,0,0.6,0.1,0.9c0.1,0.3,0.2,0.5,0.4,0.6c0.2,0.2,0.3,0.3,0.6,0.4c0.2,0.1,0.5,0.1,0.8,0.1c0.3,0,0.5,0,0.8-0.1
			c0.2-0.1,0.4-0.2,0.6-0.4c0.2-0.2,0.3-0.4,0.4-0.6C-492,1146.1-491.9,1145.8-491.9,1145.5z"/>
		<path class="st4" d="M-485.1,1142.3v1.1h-2.6v1.6h2.2v1.1h-2.2v2.5h-1.5v-6.4H-485.1z"/>
		<path class="st4" d="M-485,1148c0-0.1,0-0.2,0.1-0.3c0-0.1,0.1-0.2,0.2-0.2c0.1-0.1,0.2-0.1,0.2-0.2c0.1,0,0.2-0.1,0.3-0.1
			c0.1,0,0.2,0,0.3,0.1c0.1,0,0.2,0.1,0.2,0.2c0.1,0.1,0.1,0.1,0.2,0.2c0,0.1,0.1,0.2,0.1,0.3s0,0.2-0.1,0.3c0,0.1-0.1,0.2-0.2,0.2
			c-0.1,0.1-0.2,0.1-0.2,0.2c-0.1,0-0.2,0.1-0.3,0.1c-0.1,0-0.2,0-0.3-0.1c-0.1,0-0.2-0.1-0.2-0.2c-0.1-0.1-0.1-0.1-0.2-0.2
			C-484.9,1148.2-485,1148.1-485,1148z"/>
		<path class="st4" d="M-503,1156.7c0,0.5-0.1,0.9-0.2,1.3c-0.2,0.4-0.4,0.7-0.7,1c-0.3,0.3-0.6,0.5-1,0.7c-0.4,0.2-0.9,0.2-1.4,0.2
			h-2.5v-6.4h2.5c0.5,0,1,0.1,1.4,0.2c0.4,0.2,0.8,0.4,1,0.7c0.3,0.3,0.5,0.6,0.7,1C-503.1,1155.8-503,1156.2-503,1156.7z
			 M-504.5,1156.7c0-0.3,0-0.6-0.1-0.9s-0.2-0.5-0.4-0.6c-0.2-0.2-0.3-0.3-0.6-0.4s-0.5-0.1-0.8-0.1h-1v4.1h1c0.3,0,0.5,0,0.8-0.1
			c0.2-0.1,0.4-0.2,0.6-0.4c0.2-0.2,0.3-0.4,0.4-0.6C-504.6,1157.3-504.5,1157-504.5,1156.7z"/>
		<path class="st4" d="M-500.4,1157.5v2.4h-1.5v-6.4h2.1c0.5,0,0.9,0,1.2,0.1c0.3,0.1,0.6,0.2,0.8,0.4c0.2,0.2,0.4,0.4,0.5,0.6
			c0.1,0.2,0.1,0.5,0.1,0.8c0,0.2,0,0.4-0.1,0.6c-0.1,0.2-0.1,0.4-0.2,0.5c-0.1,0.2-0.2,0.3-0.4,0.4c-0.2,0.1-0.3,0.2-0.6,0.3
			c0.1,0.1,0.2,0.1,0.3,0.2c0.1,0.1,0.2,0.2,0.2,0.3l1.4,2.2h-1.3c-0.2,0-0.4-0.1-0.5-0.3l-1.1-1.9c0-0.1-0.1-0.1-0.2-0.2
			c-0.1,0-0.2-0.1-0.3-0.1H-500.4z M-500.4,1156.5h0.6c0.2,0,0.4,0,0.5-0.1c0.1-0.1,0.3-0.1,0.3-0.2c0.1-0.1,0.2-0.2,0.2-0.3
			c0-0.1,0.1-0.3,0.1-0.4c0-0.3-0.1-0.5-0.3-0.7c-0.2-0.2-0.5-0.2-0.9-0.2h-0.6V1156.5z"/>
		<path class="st4" d="M-495.8,1159.2c0-0.1,0-0.2,0.1-0.3c0-0.1,0.1-0.2,0.2-0.2c0.1-0.1,0.2-0.1,0.2-0.2c0.1,0,0.2-0.1,0.3-0.1
			c0.1,0,0.2,0,0.3,0.1c0.1,0,0.2,0.1,0.2,0.2c0.1,0.1,0.1,0.1,0.2,0.2c0,0.1,0.1,0.2,0.1,0.3s0,0.2-0.1,0.3c0,0.1-0.1,0.2-0.2,0.2
			c-0.1,0.1-0.2,0.1-0.2,0.2c-0.1,0-0.2,0.1-0.3,0.1c-0.1,0-0.2,0-0.3-0.1c-0.1,0-0.2-0.1-0.2-0.2c-0.1-0.1-0.1-0.1-0.2-0.2
			C-495.8,1159.4-495.8,1159.3-495.8,1159.2z"/>
		<path class="st4" d="M-507.4,1168.9v2.1h-1.5v-6.4h2.3c0.5,0,0.8,0.1,1.2,0.2s0.6,0.3,0.8,0.4c0.2,0.2,0.4,0.4,0.5,0.7
			c0.1,0.3,0.1,0.5,0.1,0.8c0,0.3-0.1,0.6-0.2,0.9c-0.1,0.3-0.3,0.5-0.5,0.7c-0.2,0.2-0.5,0.3-0.8,0.4c-0.3,0.1-0.7,0.2-1.2,0.2
			H-507.4z M-507.4,1167.8h0.8c0.4,0,0.7-0.1,0.8-0.3c0.2-0.2,0.3-0.4,0.3-0.8c0-0.1,0-0.3-0.1-0.4c0-0.1-0.1-0.2-0.2-0.3
			c-0.1-0.1-0.2-0.2-0.3-0.2s-0.3-0.1-0.5-0.1h-0.8V1167.8z"/>
		<path class="st4" d="M-498.7,1164.7v1.1h-2.6v1.5h2v1.1h-2v1.5h2.6v1.1h-4.1v-6.4H-498.7z"/>
		<path class="st4" d="M-492.7,1164.7v1.2h-1.8v5.2h-1.5v-5.2h-1.8v-1.2H-492.7z"/>
		<path class="st4" d="M-487.5,1164.7v1.1h-2.6v1.5h2v1.1h-2v1.5h2.6v1.1h-4.1v-6.4H-487.5z"/>
		<path class="st4" d="M-484.8,1168.7v2.4h-1.5v-6.4h2.1c0.5,0,0.9,0,1.2,0.1c0.3,0.1,0.6,0.2,0.8,0.4c0.2,0.2,0.4,0.4,0.5,0.6
			c0.1,0.2,0.1,0.5,0.1,0.8c0,0.2,0,0.4-0.1,0.6c-0.1,0.2-0.1,0.4-0.2,0.5c-0.1,0.2-0.2,0.3-0.4,0.4c-0.2,0.1-0.3,0.2-0.6,0.3
			c0.1,0.1,0.2,0.1,0.3,0.2c0.1,0.1,0.2,0.2,0.2,0.3l1.4,2.2h-1.3c-0.2,0-0.4-0.1-0.5-0.3l-1.1-1.9c0-0.1-0.1-0.1-0.2-0.2
			c-0.1,0-0.2-0.1-0.3-0.1H-484.8z M-484.8,1167.7h0.6c0.2,0,0.4,0,0.5-0.1c0.1-0.1,0.3-0.1,0.4-0.2c0.1-0.1,0.2-0.2,0.2-0.3
			c0-0.1,0.1-0.3,0.1-0.4c0-0.3-0.1-0.5-0.3-0.7c-0.2-0.2-0.5-0.2-0.9-0.2h-0.6V1167.7z"/>
		<path class="st4" d="M-504.2,1175.9v1.2h-1.8v5.2h-1.5v-5.2h-1.8v-1.2H-504.2z"/>
		<path class="st4" d="M-501.6,1179.9v2.4h-1.5v-6.4h2.1c0.5,0,0.9,0,1.2,0.1c0.3,0.1,0.6,0.2,0.8,0.4c0.2,0.2,0.4,0.4,0.5,0.6
			c0.1,0.2,0.1,0.5,0.1,0.8c0,0.2,0,0.4-0.1,0.6c-0.1,0.2-0.1,0.4-0.2,0.5c-0.1,0.2-0.2,0.3-0.4,0.4c-0.2,0.1-0.3,0.2-0.6,0.3
			c0.1,0,0.2,0.1,0.3,0.2c0.1,0.1,0.2,0.2,0.2,0.3l1.4,2.2h-1.3c-0.2,0-0.4-0.1-0.5-0.3l-1.1-1.9c0-0.1-0.1-0.1-0.2-0.2
			c-0.1,0-0.2-0.1-0.3-0.1H-501.6z M-501.6,1178.9h0.6c0.2,0,0.4,0,0.5-0.1c0.1-0.1,0.3-0.1,0.4-0.2c0.1-0.1,0.2-0.2,0.2-0.3
			c0-0.1,0.1-0.3,0.1-0.4c0-0.3-0.1-0.5-0.3-0.7c-0.2-0.2-0.5-0.2-0.9-0.2h-0.6V1178.9z"/>
		<path class="st4" d="M-494.4,1181.1c0.2,0,0.4,0,0.5-0.1c0.2-0.1,0.3-0.2,0.4-0.3c0.1-0.1,0.2-0.3,0.2-0.5s0.1-0.4,0.1-0.6v-3.8
			h1.5v3.8c0,0.4-0.1,0.8-0.2,1.1c-0.1,0.3-0.3,0.6-0.5,0.8c-0.2,0.2-0.5,0.4-0.9,0.6c-0.3,0.1-0.7,0.2-1.1,0.2
			c-0.4,0-0.8-0.1-1.2-0.2c-0.3-0.1-0.6-0.3-0.9-0.6c-0.2-0.2-0.4-0.5-0.5-0.8c-0.1-0.3-0.2-0.7-0.2-1.1v-3.8h1.5v3.8
			c0,0.2,0,0.4,0.1,0.6c0.1,0.2,0.1,0.3,0.2,0.5c0.1,0.1,0.2,0.2,0.4,0.3C-494.8,1181.1-494.6,1181.1-494.4,1181.1z M-494.7,1175
			c0,0.1,0,0.2-0.1,0.3c0,0.1-0.1,0.1-0.2,0.2c-0.1,0.1-0.1,0.1-0.2,0.1c-0.1,0-0.2,0.1-0.3,0.1c-0.1,0-0.2,0-0.3-0.1
			c-0.1,0-0.2-0.1-0.2-0.1c-0.1-0.1-0.1-0.1-0.1-0.2c0-0.1-0.1-0.2-0.1-0.3c0-0.1,0-0.2,0.1-0.3c0-0.1,0.1-0.2,0.1-0.2
			c0.1-0.1,0.1-0.1,0.2-0.1c0.1,0,0.2-0.1,0.3-0.1c0.1,0,0.2,0,0.3,0.1c0.1,0,0.2,0.1,0.2,0.1c0.1,0.1,0.1,0.1,0.2,0.2
			C-494.7,1174.8-494.7,1174.9-494.7,1175z M-492.8,1175c0,0.1,0,0.2-0.1,0.3c0,0.1-0.1,0.1-0.1,0.2c-0.1,0.1-0.1,0.1-0.2,0.1
			c-0.1,0-0.2,0.1-0.3,0.1s-0.2,0-0.3-0.1c-0.1,0-0.2-0.1-0.2-0.1c-0.1-0.1-0.1-0.1-0.1-0.2c0-0.1-0.1-0.2-0.1-0.3
			c0-0.1,0-0.2,0.1-0.3c0-0.1,0.1-0.2,0.1-0.2c0.1-0.1,0.1-0.1,0.2-0.1c0.1,0,0.2-0.1,0.3-0.1s0.2,0,0.3,0.1s0.2,0.1,0.2,0.1
			c0.1,0.1,0.1,0.1,0.1,0.2C-492.8,1174.8-492.8,1174.9-492.8,1175z"/>
		<path class="st4" d="M-490.3,1182.3v-6.4h2.4c0.4,0,0.8,0,1.1,0.1s0.6,0.2,0.8,0.3c0.2,0.1,0.3,0.3,0.4,0.5
			c0.1,0.2,0.1,0.5,0.1,0.7c0,0.1,0,0.3-0.1,0.4c0,0.1-0.1,0.3-0.2,0.4c-0.1,0.1-0.2,0.2-0.3,0.3c-0.1,0.1-0.3,0.2-0.5,0.2
			c0.4,0.1,0.7,0.3,0.9,0.5s0.3,0.5,0.3,0.9c0,0.3-0.1,0.5-0.2,0.8s-0.3,0.4-0.5,0.6c-0.2,0.2-0.5,0.3-0.8,0.4
			c-0.3,0.1-0.6,0.1-1,0.1H-490.3z M-488.8,1178.6h0.8c0.2,0,0.3,0,0.4,0c0.1,0,0.2-0.1,0.3-0.1c0.1-0.1,0.2-0.1,0.2-0.2
			c0-0.1,0.1-0.2,0.1-0.4c0-0.2,0-0.3-0.1-0.4c0-0.1-0.1-0.2-0.2-0.2c-0.1-0.1-0.2-0.1-0.3-0.1c-0.1,0-0.3,0-0.4,0h-0.9V1178.6z
			 M-488.8,1179.6v1.6h1c0.2,0,0.4,0,0.5-0.1c0.1,0,0.2-0.1,0.3-0.2c0.1-0.1,0.1-0.2,0.1-0.3c0-0.1,0-0.2,0-0.3c0-0.1,0-0.2,0-0.3
			c0-0.1-0.1-0.2-0.2-0.2c-0.1-0.1-0.2-0.1-0.3-0.1c-0.1,0-0.3-0.1-0.5-0.1H-488.8z"/>
		<path class="st4" d="M-483.1,1175.9c0,0,0.1,0,0.1,0c0,0,0.1,0,0.1,0.1c0,0,0.1,0.1,0.1,0.1l3,3.8c0-0.1,0-0.2,0-0.4
			c0-0.1,0-0.2,0-0.3v-3.4h1.3v6.4h-0.8c-0.1,0-0.2,0-0.3-0.1c-0.1,0-0.2-0.1-0.2-0.2l-3-3.8c0,0.1,0,0.2,0,0.3c0,0.1,0,0.2,0,0.3
			v3.4h-1.3v-6.4h0.8C-483.2,1175.9-483.2,1175.9-483.1,1175.9z"/>
		<path class="st4" d="M-472.8,1175.9v1.1h-2.6v1.5h2v1.1h-2v1.5h2.6v1.1h-4.1v-6.4H-472.8z"/>
		<path class="st4" d="M-470.1,1179.9v2.4h-1.5v-6.4h2.1c0.5,0,0.9,0,1.2,0.1c0.3,0.1,0.6,0.2,0.8,0.4c0.2,0.2,0.4,0.4,0.5,0.6
			c0.1,0.2,0.1,0.5,0.1,0.8c0,0.2,0,0.4-0.1,0.6c-0.1,0.2-0.1,0.4-0.2,0.5c-0.1,0.2-0.2,0.3-0.4,0.4c-0.2,0.1-0.3,0.2-0.6,0.3
			c0.1,0,0.2,0.1,0.3,0.2c0.1,0.1,0.2,0.2,0.2,0.3l1.4,2.2h-1.3c-0.2,0-0.4-0.1-0.5-0.3l-1.1-1.9c0-0.1-0.1-0.1-0.2-0.2
			c-0.1,0-0.2-0.1-0.3-0.1H-470.1z M-470.1,1178.9h0.6c0.2,0,0.4,0,0.5-0.1c0.1-0.1,0.3-0.1,0.4-0.2c0.1-0.1,0.2-0.2,0.2-0.3
			c0-0.1,0.1-0.3,0.1-0.4c0-0.3-0.1-0.5-0.3-0.7c-0.2-0.2-0.5-0.2-0.9-0.2h-0.6V1178.9z"/>
	</g>
</g>
<g>
	<line class="st5" x1="-524.1" y1="1133.8" x2="-524.1" y2="1190.6"/>
	<rect x="-524.5" y="1133.8" width="0.8" height="56.8"/>
</g>
<line class="st0" x1="-319.5" y1="124" x2="-319.5" y2="1034.5"/>
<line class="st2" x1="-319.5" y1="221" x2="-319.5" y2="245"/>
<g>
	<text transform="matrix(1 0 0 1 -302.0547 208.0742)"><tspan x="0" y="0" class="st9 st10">Start</tspan><tspan x="0" y="33" class="st9 st10" style="fill:#3366CC;">Publikationsliste</tspan><tspan x="0" y="66" class="st9 st10">Lebenslauf</tspan><tspan x="0" y="99" class="st9 st10" style="fill:#6A81A5;">Beispiel hover</tspan><tspan x="0" y="132" class="st9 st10">Kontakt</tspan></text>
</g>
<g>
	<path d="M-417.6,129.6h6.9v4.6h-17.3l14-62.4h-6.3v-5h16.6l-2.4,9.6h0.4c1-1.4,2.1-2.7,3.3-4c1.2-1.3,2.6-2.4,4.1-3.4
		c1.5-1,3.1-1.8,4.9-2.3c1.8-0.6,3.6-0.8,5.7-0.8c3.4,0,6.3,1.2,8.5,3.5c2.2,2.3,3.3,6,3.3,11.1c0,4.7-0.8,9.2-2.3,13.6
		c-1.5,4.3-3.7,8.2-6.3,11.5c-2.7,3.3-5.8,6-9.4,8c-3.6,2-7.5,3-11.6,3c-1.1,0-2.1,0-2.9-0.1c-0.8-0.1-1.5-0.2-2.1-0.3
		c-0.6-0.2-1.2-0.3-1.8-0.5c-0.6-0.2-1.2-0.4-1.9-0.7L-417.6,129.6z M-392.7,71.9c-1.7,0-3.4,0.4-4.9,1.1c-1.6,0.7-3,1.7-4.2,2.7
		c-1.3,1.1-2.4,2.3-3.3,3.5c-0.9,1.3-1.6,2.5-2,3.6l-6,27.4c0.4,0.4,0.9,0.7,1.3,1s1,0.5,1.6,0.6c0.6,0.1,1.3,0.2,2.1,0.3
		c0.8,0.1,1.8,0.1,3,0.1c2.6,0,5.2-0.9,7.5-2.8s4.4-4.3,6.2-7.2c1.8-2.9,3.2-6.2,4.3-9.9c1.1-3.7,1.6-7.3,1.6-10.8
		c0-3.1-0.6-5.5-1.8-7.2S-390.3,71.9-392.7,71.9z"/>
	<path d="M-367,66.9h9.9l2.7-10.7h8.6l-2.5,10.7h12.6v5h-13.7l-7.3,28.1c-0.3,1.2-0.5,2.4-0.7,3.3c-0.1,1-0.2,2-0.2,3.1
		c0,2.9,1.6,4.3,4.9,4.3c1.7,0,3.6-0.4,5.7-1.2c2.1-0.8,4-1.9,5.6-3.3l2,3.7c-0.7,0.7-1.6,1.5-2.8,2.3c-1.2,0.8-2.6,1.5-4.1,2.2
		c-1.6,0.7-3.3,1.2-5.1,1.6c-1.9,0.4-3.8,0.6-5.8,0.6c-3,0-5.4-0.7-7.1-2.2c-1.7-1.5-2.5-3.4-2.5-5.7c0-1,0-2,0.1-3.1
		c0.1-1.1,0.2-2.2,0.6-3.4l7.6-30.3h-8.6V66.9z"/>
</g>
<g>
	<g>
		<path class="st4" d="M-298.5,71.9v2.7h-1.9v-8h2.8c0.6,0,1,0.1,1.5,0.2s0.7,0.3,1,0.6c0.3,0.2,0.5,0.5,0.6,0.8
			c0.1,0.3,0.2,0.7,0.2,1c0,0.4-0.1,0.8-0.2,1.1c-0.1,0.3-0.3,0.6-0.6,0.9c-0.3,0.2-0.6,0.4-1,0.6c-0.4,0.1-0.9,0.2-1.4,0.2H-298.5z
			 M-298.5,70.5h1c0.5,0,0.8-0.1,1-0.3c0.2-0.2,0.3-0.6,0.3-1c0-0.2,0-0.4-0.1-0.5c-0.1-0.1-0.1-0.3-0.2-0.4
			c-0.1-0.1-0.3-0.2-0.4-0.2s-0.4-0.1-0.6-0.1h-1V70.5z"/>
		<path class="st4" d="M-291,71.6v3h-1.9v-8h2.6c0.6,0,1.1,0.1,1.5,0.2c0.4,0.1,0.7,0.3,1,0.5c0.3,0.2,0.4,0.5,0.6,0.8
			c0.1,0.3,0.2,0.6,0.2,0.9c0,0.3,0,0.5-0.1,0.7c-0.1,0.2-0.2,0.4-0.3,0.6c-0.1,0.2-0.3,0.4-0.5,0.5c-0.2,0.2-0.4,0.3-0.7,0.4
			c0.1,0.1,0.2,0.1,0.3,0.2s0.2,0.2,0.3,0.3l1.7,2.8h-1.7c-0.3,0-0.5-0.1-0.7-0.4l-1.3-2.3c-0.1-0.1-0.1-0.2-0.2-0.2
			c-0.1,0-0.2-0.1-0.3-0.1H-291z M-291,70.3h0.7c0.3,0,0.5,0,0.6-0.1c0.2-0.1,0.3-0.2,0.4-0.3c0.1-0.1,0.2-0.2,0.2-0.4
			c0.1-0.2,0.1-0.3,0.1-0.5c0-0.4-0.1-0.6-0.3-0.8c-0.2-0.2-0.6-0.3-1.1-0.3h-0.7V70.3z"/>
		<path class="st4" d="M-277.3,70.6c0,0.6-0.1,1.1-0.3,1.6c-0.2,0.5-0.5,0.9-0.8,1.3s-0.8,0.7-1.3,0.9s-1.1,0.3-1.7,0.3
			s-1.2-0.1-1.7-0.3s-1-0.5-1.3-0.9s-0.6-0.8-0.8-1.3c-0.2-0.5-0.3-1-0.3-1.6c0-0.6,0.1-1.1,0.3-1.6c0.2-0.5,0.5-0.9,0.8-1.3
			c0.4-0.4,0.8-0.7,1.3-0.9s1.1-0.3,1.7-0.3s1.2,0.1,1.7,0.3s0.9,0.5,1.3,0.9s0.6,0.8,0.8,1.3C-277.4,69.5-277.3,70-277.3,70.6z
			 M-279.2,70.6c0-0.4-0.1-0.8-0.2-1.1s-0.2-0.6-0.4-0.8c-0.2-0.2-0.4-0.4-0.7-0.5c-0.3-0.1-0.6-0.2-1-0.2c-0.4,0-0.7,0.1-1,0.2
			c-0.3,0.1-0.5,0.3-0.7,0.5c-0.2,0.2-0.3,0.5-0.4,0.8s-0.2,0.7-0.2,1.1c0,0.4,0.1,0.8,0.2,1.1c0.1,0.3,0.2,0.6,0.4,0.8
			c0.2,0.2,0.4,0.4,0.7,0.5c0.3,0.1,0.6,0.2,1,0.2c0.4,0,0.7-0.1,1-0.2c0.3-0.1,0.5-0.3,0.7-0.5c0.2-0.2,0.3-0.5,0.4-0.8
			C-279.3,71.3-279.2,71-279.2,70.6z"/>
		<path class="st4" d="M-270.7,66.6V68h-3.3v2h2.7v1.4h-2.7v3.1h-1.9v-8H-270.7z"/>
		<path class="st4" d="M-270.5,73.7c0-0.1,0-0.3,0.1-0.4c0-0.1,0.1-0.2,0.2-0.3c0.1-0.1,0.2-0.2,0.3-0.2c0.1,0,0.2-0.1,0.4-0.1
			c0.1,0,0.3,0,0.4,0.1c0.1,0,0.2,0.1,0.3,0.2c0.1,0.1,0.2,0.2,0.2,0.3c0,0.1,0.1,0.2,0.1,0.4s0,0.3-0.1,0.4c0,0.1-0.1,0.2-0.2,0.3
			s-0.2,0.2-0.3,0.2c-0.1,0-0.2,0.1-0.4,0.1c-0.1,0-0.3,0-0.4-0.1c-0.1,0-0.2-0.1-0.3-0.2c-0.1-0.1-0.2-0.2-0.2-0.3
			S-270.5,73.8-270.5,73.7z"/>
		<path class="st4" d="M-293.1,84.6c0,0.6-0.1,1.1-0.3,1.6c-0.2,0.5-0.5,0.9-0.8,1.3s-0.8,0.6-1.3,0.8c-0.5,0.2-1.1,0.3-1.7,0.3
			h-3.1v-8h3.1c0.6,0,1.2,0.1,1.7,0.3c0.5,0.2,0.9,0.5,1.3,0.8s0.6,0.8,0.8,1.3C-293.2,83.5-293.1,84-293.1,84.6z M-295,84.6
			c0-0.4-0.1-0.8-0.2-1.1s-0.2-0.6-0.4-0.8c-0.2-0.2-0.4-0.4-0.7-0.5s-0.6-0.2-1-0.2h-1.2v5.2h1.2c0.4,0,0.7-0.1,1-0.2
			s0.5-0.3,0.7-0.5c0.2-0.2,0.3-0.5,0.4-0.8S-295,85-295,84.6z"/>
		<path class="st4" d="M-289.8,85.6v3h-1.9v-8h2.6c0.6,0,1.1,0.1,1.5,0.2c0.4,0.1,0.7,0.3,1,0.5c0.3,0.2,0.4,0.5,0.6,0.8
			c0.1,0.3,0.2,0.6,0.2,0.9c0,0.3,0,0.5-0.1,0.7c-0.1,0.2-0.2,0.4-0.3,0.6c-0.1,0.2-0.3,0.4-0.5,0.5c-0.2,0.2-0.4,0.3-0.7,0.4
			c0.1,0.1,0.2,0.1,0.3,0.2s0.2,0.2,0.3,0.3l1.7,2.8h-1.7c-0.3,0-0.5-0.1-0.7-0.4l-1.3-2.3c-0.1-0.1-0.1-0.2-0.2-0.2
			c-0.1,0-0.2-0.1-0.3-0.1H-289.8z M-289.8,84.3h0.7c0.3,0,0.5,0,0.6-0.1c0.2-0.1,0.3-0.2,0.4-0.3c0.1-0.1,0.2-0.2,0.2-0.4
			c0.1-0.2,0.1-0.3,0.1-0.5c0-0.4-0.1-0.6-0.3-0.8c-0.2-0.2-0.6-0.3-1.1-0.3h-0.7V84.3z"/>
		<path class="st4" d="M-284.1,87.7c0-0.1,0-0.3,0.1-0.4c0-0.1,0.1-0.2,0.2-0.3c0.1-0.1,0.2-0.2,0.3-0.2c0.1,0,0.2-0.1,0.4-0.1
			c0.1,0,0.3,0,0.4,0.1c0.1,0,0.2,0.1,0.3,0.2c0.1,0.1,0.2,0.2,0.2,0.3c0,0.1,0.1,0.2,0.1,0.4s0,0.3-0.1,0.4c0,0.1-0.1,0.2-0.2,0.3
			s-0.2,0.2-0.3,0.2c-0.1,0-0.2,0.1-0.4,0.1c-0.1,0-0.3,0-0.4-0.1c-0.1,0-0.2-0.1-0.3-0.2c-0.1-0.1-0.2-0.2-0.2-0.3
			S-284.1,87.8-284.1,87.7z"/>
		<path class="st4" d="M-298.5,99.9v2.7h-1.9v-8h2.8c0.6,0,1,0.1,1.5,0.2s0.7,0.3,1,0.6c0.3,0.2,0.5,0.5,0.6,0.8
			c0.1,0.3,0.2,0.7,0.2,1c0,0.4-0.1,0.8-0.2,1.1c-0.1,0.3-0.3,0.6-0.6,0.9c-0.3,0.2-0.6,0.4-1,0.6c-0.4,0.1-0.9,0.2-1.4,0.2H-298.5z
			 M-298.5,98.5h1c0.5,0,0.8-0.1,1-0.3c0.2-0.2,0.3-0.6,0.3-1c0-0.2,0-0.4-0.1-0.5c-0.1-0.1-0.1-0.3-0.2-0.4
			c-0.1-0.1-0.3-0.2-0.4-0.2s-0.4-0.1-0.6-0.1h-1V98.5z"/>
		<path class="st4" d="M-287.7,94.6V96h-3.3v1.9h2.5v1.4h-2.5v1.9h3.3v1.4h-5.2v-8H-287.7z"/>
		<path class="st4" d="M-280.2,94.6V96h-2.3v6.5h-1.9V96h-2.3v-1.5H-280.2z"/>
		<path class="st4" d="M-273.8,94.6V96h-3.3v1.9h2.5v1.4h-2.5v1.9h3.3v1.4h-5.2v-8H-273.8z"/>
		<path class="st4" d="M-270.3,99.6v3h-1.9v-8h2.6c0.6,0,1.1,0.1,1.5,0.2c0.4,0.1,0.7,0.3,1,0.5c0.3,0.2,0.4,0.5,0.6,0.8
			c0.1,0.3,0.2,0.6,0.2,0.9c0,0.3,0,0.5-0.1,0.7c-0.1,0.2-0.2,0.4-0.3,0.6c-0.1,0.2-0.3,0.4-0.5,0.5c-0.2,0.2-0.4,0.3-0.7,0.4
			c0.1,0.1,0.2,0.1,0.3,0.2s0.2,0.2,0.3,0.3l1.7,2.8h-1.7c-0.3,0-0.5-0.1-0.7-0.4l-1.3-2.3c-0.1-0.1-0.1-0.2-0.2-0.2
			c-0.1,0-0.2-0.1-0.3-0.1H-270.3z M-270.3,98.3h0.7c0.3,0,0.5,0,0.6-0.1c0.2-0.1,0.3-0.2,0.4-0.3c0.1-0.1,0.2-0.2,0.2-0.4
			c0.1-0.2,0.1-0.3,0.1-0.5c0-0.4-0.1-0.6-0.3-0.8c-0.2-0.2-0.6-0.3-1.1-0.3h-0.7V98.3z"/>
		<path class="st4" d="M-294.6,108.6v1.5h-2.3v6.5h-1.9V110h-2.3v-1.5H-294.6z"/>
		<path class="st4" d="M-291.4,113.6v3h-1.9v-8h2.6c0.6,0,1.1,0.1,1.5,0.2c0.4,0.1,0.7,0.3,1,0.5c0.3,0.2,0.4,0.5,0.6,0.8
			c0.1,0.3,0.2,0.6,0.2,0.9c0,0.3,0,0.5-0.1,0.7c-0.1,0.2-0.2,0.4-0.3,0.6c-0.1,0.2-0.3,0.4-0.5,0.5c-0.2,0.2-0.4,0.3-0.7,0.4
			c0.1,0.1,0.2,0.1,0.3,0.2s0.2,0.2,0.3,0.3l1.7,2.8h-1.7c-0.3,0-0.5-0.1-0.7-0.4l-1.3-2.3c-0.1-0.1-0.1-0.2-0.2-0.2
			c-0.1,0-0.2-0.1-0.3-0.1H-291.4z M-291.4,112.3h0.7c0.3,0,0.5,0,0.6-0.1c0.2-0.1,0.3-0.2,0.4-0.3c0.1-0.1,0.2-0.2,0.2-0.4
			c0.1-0.2,0.1-0.3,0.1-0.5c0-0.4-0.1-0.6-0.3-0.8c-0.2-0.2-0.6-0.3-1.1-0.3h-0.7V112.3z"/>
		<path class="st4" d="M-282.4,115.1c0.2,0,0.5,0,0.7-0.1c0.2-0.1,0.4-0.2,0.5-0.4c0.1-0.2,0.2-0.3,0.3-0.6s0.1-0.5,0.1-0.8v-4.7
			h1.9v4.7c0,0.5-0.1,0.9-0.2,1.4c-0.2,0.4-0.4,0.8-0.7,1.1s-0.7,0.5-1.1,0.7c-0.4,0.2-0.9,0.2-1.4,0.2c-0.5,0-1-0.1-1.4-0.2
			c-0.4-0.2-0.8-0.4-1.1-0.7s-0.5-0.7-0.7-1.1c-0.2-0.4-0.2-0.9-0.2-1.4v-4.7h1.9v4.7c0,0.3,0,0.5,0.1,0.8c0.1,0.2,0.2,0.4,0.3,0.6
			c0.1,0.2,0.3,0.3,0.5,0.4C-282.9,115.1-282.6,115.1-282.4,115.1z M-282.7,107.4c0,0.1,0,0.2-0.1,0.3s-0.1,0.2-0.2,0.3
			c-0.1,0.1-0.2,0.1-0.3,0.2c-0.1,0-0.2,0.1-0.3,0.1c-0.1,0-0.2,0-0.3-0.1c-0.1,0-0.2-0.1-0.3-0.2s-0.1-0.2-0.2-0.3
			s-0.1-0.2-0.1-0.3c0-0.1,0-0.2,0.1-0.3c0-0.1,0.1-0.2,0.2-0.3c0.1-0.1,0.2-0.1,0.3-0.2c0.1,0,0.2-0.1,0.3-0.1c0.1,0,0.2,0,0.3,0.1
			c0.1,0,0.2,0.1,0.3,0.2c0.1,0.1,0.1,0.2,0.2,0.3C-282.8,107.2-282.7,107.3-282.7,107.4z M-280.3,107.4c0,0.1,0,0.2-0.1,0.3
			s-0.1,0.2-0.2,0.3c-0.1,0.1-0.2,0.1-0.3,0.2s-0.2,0.1-0.3,0.1s-0.2,0-0.3-0.1s-0.2-0.1-0.3-0.2c-0.1-0.1-0.1-0.2-0.2-0.3
			s-0.1-0.2-0.1-0.3c0-0.1,0-0.2,0.1-0.3c0-0.1,0.1-0.2,0.2-0.3c0.1-0.1,0.2-0.1,0.3-0.2s0.2-0.1,0.3-0.1s0.2,0,0.3,0.1
			s0.2,0.1,0.3,0.2c0.1,0.1,0.1,0.2,0.2,0.3C-280.3,107.2-280.3,107.3-280.3,107.4z"/>
		<path class="st4" d="M-277.2,116.6v-8h2.9c0.6,0,1,0.1,1.4,0.2s0.7,0.2,1,0.4c0.2,0.2,0.4,0.4,0.5,0.7c0.1,0.3,0.2,0.6,0.2,0.9
			c0,0.2,0,0.4-0.1,0.5c-0.1,0.2-0.1,0.3-0.2,0.5c-0.1,0.1-0.3,0.3-0.4,0.4c-0.2,0.1-0.4,0.2-0.6,0.3c0.5,0.1,0.9,0.3,1.2,0.6
			s0.4,0.7,0.4,1.1c0,0.3-0.1,0.7-0.2,1s-0.3,0.5-0.6,0.8c-0.3,0.2-0.6,0.4-0.9,0.5c-0.4,0.1-0.8,0.2-1.3,0.2H-277.2z M-275.3,111.9
			h1c0.2,0,0.4,0,0.6,0c0.2,0,0.3-0.1,0.4-0.2c0.1-0.1,0.2-0.2,0.3-0.3c0.1-0.1,0.1-0.3,0.1-0.5c0-0.2,0-0.3-0.1-0.5
			c0-0.1-0.1-0.2-0.2-0.3c-0.1-0.1-0.2-0.1-0.4-0.2s-0.3,0-0.5,0h-1.1V111.9z M-275.3,113.2v2h1.3c0.2,0,0.4,0,0.6-0.1
			c0.2-0.1,0.3-0.1,0.4-0.2c0.1-0.1,0.1-0.2,0.2-0.3c0-0.1,0-0.3,0-0.4c0-0.1,0-0.3-0.1-0.4c0-0.1-0.1-0.2-0.2-0.3
			c-0.1-0.1-0.2-0.1-0.4-0.2c-0.2,0-0.3-0.1-0.6-0.1H-275.3z"/>
		<path class="st4" d="M-268.2,108.6c0.1,0,0.1,0,0.1,0c0,0,0.1,0,0.1,0.1c0,0,0.1,0.1,0.1,0.1l3.8,4.8c0-0.2,0-0.3,0-0.4
			c0-0.1,0-0.3,0-0.4v-4.2h1.6v8h-1c-0.1,0-0.3,0-0.4-0.1c-0.1,0-0.2-0.1-0.3-0.2l-3.8-4.8c0,0.1,0,0.3,0,0.4c0,0.1,0,0.3,0,0.4v4.3
			h-1.6v-8h1C-268.4,108.6-268.3,108.6-268.2,108.6z"/>
		<path class="st4" d="M-255.4,108.6v1.4h-3.3v1.9h2.5v1.4h-2.5v1.9h3.3v1.4h-5.2v-8H-255.4z"/>
		<path class="st4" d="M-251.9,113.6v3h-1.9v-8h2.6c0.6,0,1.1,0.1,1.5,0.2c0.4,0.1,0.7,0.3,1,0.5c0.3,0.2,0.4,0.5,0.6,0.8
			c0.1,0.3,0.2,0.6,0.2,0.9c0,0.3,0,0.5-0.1,0.7c-0.1,0.2-0.2,0.4-0.3,0.6c-0.1,0.2-0.3,0.4-0.5,0.5c-0.2,0.2-0.4,0.3-0.7,0.4
			c0.1,0.1,0.2,0.1,0.3,0.2s0.2,0.2,0.3,0.3l1.7,2.8h-1.7c-0.3,0-0.5-0.1-0.7-0.4l-1.3-2.3c-0.1-0.1-0.1-0.2-0.2-0.2
			c-0.1,0-0.2-0.1-0.3-0.1H-251.9z M-251.9,112.3h0.7c0.3,0,0.5,0,0.6-0.1c0.2-0.1,0.3-0.2,0.4-0.3c0.1-0.1,0.2-0.2,0.2-0.4
			c0.1-0.2,0.1-0.3,0.1-0.5c0-0.4-0.1-0.6-0.3-0.8c-0.2-0.2-0.6-0.3-1.1-0.3h-0.7V112.3z"/>
	</g>
</g>
<g>
	<line class="st5" x1="-319.5" y1="56" x2="-319.5" y2="127"/>
	<rect x="-320" y="56" width="1" height="71"/>
</g>
<text transform="matrix(1 0 0 1 476.9458 -134.3018)" style="font-family:'PTSerif-CaptionItalic'; font-size:93px;">pt</text>
<text transform="matrix(1 0 0 1 -125.0542 -19.3018)" style="font-family:'PTSerif-Italic'; font-size:93px;">pt</text>
<g>
	<text transform="matrix(1 0 0 1 603.9453 -175.4258)"><tspan x="0" y="0" class="st13 st22">Prof. em. </tspan><tspan x="0" y="14" class="st13 st22">Dr. </tspan><tspan x="0" y="28" class="st13 st22">Peter </tspan><tspan x="0" y="42" class="st13 st22">Trübner</tspan></text>
</g>
<line class="st3" x1="585.5" y1="-194" x2="585.5" y2="-123"/>
<g>
	<path d="M484.4-266.4h6.9v4.6h-17.3l14-62.4h-6.3v-5h16.6l-2.4,9.6h0.4c1-1.4,2.1-2.7,3.3-4c1.2-1.3,2.6-2.4,4.1-3.4
		c1.5-1,3.1-1.8,4.9-2.3c1.8-0.6,3.6-0.8,5.7-0.8c3.4,0,6.3,1.2,8.5,3.5c2.2,2.3,3.3,6,3.3,11.1c0,4.7-0.8,9.2-2.3,13.6
		c-1.5,4.3-3.7,8.2-6.3,11.5c-2.7,3.3-5.8,6-9.4,8c-3.6,2-7.5,3-11.6,3c-1.1,0-2.1,0-2.9-0.1c-0.8-0.1-1.5-0.2-2.1-0.3
		c-0.6-0.2-1.2-0.3-1.8-0.5c-0.6-0.2-1.2-0.4-1.9-0.7L484.4-266.4z M509.3-324.1c-1.7,0-3.4,0.4-4.9,1.1c-1.6,0.7-3,1.7-4.2,2.7
		c-1.3,1.1-2.4,2.3-3.3,3.5c-0.9,1.3-1.6,2.5-2,3.6l-6,27.4c0.4,0.4,0.9,0.7,1.3,1s1,0.5,1.6,0.6c0.6,0.1,1.3,0.2,2.1,0.3
		c0.8,0.1,1.8,0.1,3,0.1c2.6,0,5.2-0.9,7.5-2.8s4.4-4.3,6.2-7.2c1.8-2.9,3.2-6.2,4.3-9.9c1.1-3.7,1.6-7.3,1.6-10.8
		c0-3.1-0.6-5.5-1.8-7.2S511.7-324.1,509.3-324.1z"/>
	<path d="M535-329.1h9.9l2.7-10.7h8.6l-2.5,10.7h12.6v5h-13.7l-7.3,28.1c-0.3,1.2-0.5,2.4-0.7,3.3c-0.1,1-0.2,2-0.2,3.1
		c0,2.9,1.6,4.3,4.9,4.3c1.7,0,3.6-0.4,5.7-1.2c2.1-0.8,4-1.9,5.6-3.3l2,3.7c-0.7,0.7-1.6,1.5-2.8,2.3c-1.2,0.8-2.6,1.5-4.1,2.2
		c-1.6,0.7-3.3,1.2-5.1,1.6c-1.9,0.4-3.8,0.6-5.8,0.6c-3,0-5.4-0.7-7.1-2.2c-1.7-1.5-2.5-3.4-2.5-5.7c0-1,0-2,0.1-3.1
		c0.1-1.1,0.2-2.2,0.6-3.4l7.6-30.3H535V-329.1z"/>
</g>
<g>
	<path class="st6" d="M35.2-245.3h25.7v17.4H-3.7l52.5-233.3H25.1v-18.8h62.2l-9,35.8h1.4c3.7-5.1,7.8-10,12.4-14.8
		c4.6-4.7,9.7-9,15.4-12.7c5.6-3.7,11.7-6.6,18.3-8.7c6.6-2.1,13.6-3.1,21.3-3.1c12.9,0,23.5,4.3,31.8,13
		c8.3,8.7,12.4,22.6,12.4,41.6c0,17.6-2.9,34.5-8.7,50.8c-5.8,16.2-13.7,30.6-23.7,43.1c-10,12.5-21.8,22.5-35.3,29.9
		c-13.5,7.4-28,11.1-43.4,11.1c-4.2,0-7.7-0.1-10.7-0.3c-3-0.2-5.7-0.6-8-1.2c-2.3-0.6-4.6-1.2-6.8-1.9c-2.2-0.7-4.6-1.6-7.1-2.8
		L35.2-245.3z M128.6-461.3c-6.4,0-12.6,1.4-18.4,4.2c-5.9,2.8-11.2,6.2-15.9,10.3c-4.7,4.1-8.8,8.5-12.2,13.2
		c-3.5,4.8-6,9.2-7.6,13.4L51.9-317.7c1.6,1.4,3.3,2.6,5,3.7c1.7,1,3.7,1.8,5.9,2.3c2.2,0.5,4.8,0.8,7.8,1c3,0.2,6.7,0.3,11.1,0.3
		c9.9,0,19.3-3.5,28.2-10.4s16.6-15.9,23.3-27c6.7-11,12-23.4,16.1-37c4-13.7,6-27.1,6-40.3c0-11.6-2.2-20.5-6.7-26.8
		S137.4-461.3,128.6-461.3z"/>
	<path class="st6" d="M224.7-480.1h36.9l10.1-40H304l-9.4,40h47.3v18.8h-51.1l-27.1,105c-1.2,4.6-2,8.8-2.4,12.5
		c-0.5,3.7-0.7,7.5-0.7,11.5c0,10.7,6.1,16,18.2,16c6.3,0,13.4-1.4,21.3-4.3c7.9-2.9,14.9-7,21-12.3l7.3,13.9
		c-2.6,2.8-6.1,5.7-10.6,8.7c-4.5,3-9.7,5.7-15.5,8.2c-5.8,2.4-12.2,4.4-19.1,5.9c-7,1.5-14.1,2.3-21.6,2.3
		c-11.4,0-20.2-2.8-26.4-8.3c-6.3-5.6-9.4-12.6-9.4-21.2c0-3.7,0.1-7.6,0.3-11.6c0.2-4.1,0.9-8.3,2.1-12.7l28.5-113.4h-32V-480.1z"
		/>
</g>
<g>
	<path class="st4" d="M603.5-324.1v2.7h-1.9v-8h2.8c0.6,0,1,0.1,1.5,0.2s0.7,0.3,1,0.6c0.3,0.2,0.5,0.5,0.6,0.8
		c0.1,0.3,0.2,0.7,0.2,1c0,0.4-0.1,0.8-0.2,1.1c-0.1,0.3-0.3,0.6-0.6,0.9c-0.3,0.2-0.6,0.4-1,0.6c-0.4,0.1-0.9,0.2-1.4,0.2H603.5z
		 M603.5-325.5h1c0.5,0,0.8-0.1,1-0.3c0.2-0.2,0.3-0.6,0.3-1c0-0.2,0-0.4-0.1-0.5c-0.1-0.1-0.1-0.3-0.2-0.4
		c-0.1-0.1-0.3-0.2-0.4-0.2s-0.4-0.1-0.6-0.1h-1V-325.5z"/>
	<path class="st4" d="M611-324.4v3h-1.9v-8h2.6c0.6,0,1.1,0.1,1.5,0.2c0.4,0.1,0.7,0.3,1,0.5c0.3,0.2,0.4,0.5,0.6,0.8
		c0.1,0.3,0.2,0.6,0.2,0.9c0,0.3,0,0.5-0.1,0.7c-0.1,0.2-0.2,0.4-0.3,0.6c-0.1,0.2-0.3,0.4-0.5,0.5c-0.2,0.2-0.4,0.3-0.7,0.4
		c0.1,0.1,0.2,0.1,0.3,0.2s0.2,0.2,0.3,0.3l1.7,2.8H614c-0.3,0-0.5-0.1-0.7-0.4l-1.3-2.3c-0.1-0.1-0.1-0.2-0.2-0.2
		c-0.1,0-0.2-0.1-0.3-0.1H611z M611-325.7h0.7c0.3,0,0.5,0,0.6-0.1c0.2-0.1,0.3-0.2,0.4-0.3c0.1-0.1,0.2-0.2,0.2-0.4
		c0.1-0.2,0.1-0.3,0.1-0.5c0-0.4-0.1-0.6-0.3-0.8c-0.2-0.2-0.6-0.3-1.1-0.3H611V-325.7z"/>
	<path class="st4" d="M624.7-325.4c0,0.6-0.1,1.1-0.3,1.6c-0.2,0.5-0.5,0.9-0.8,1.3s-0.8,0.7-1.3,0.9s-1.1,0.3-1.7,0.3
		s-1.2-0.1-1.7-0.3s-1-0.5-1.3-0.9s-0.6-0.8-0.8-1.3c-0.2-0.5-0.3-1-0.3-1.6c0-0.6,0.1-1.1,0.3-1.6c0.2-0.5,0.5-0.9,0.8-1.3
		c0.4-0.4,0.8-0.7,1.3-0.9s1.1-0.3,1.7-0.3s1.2,0.1,1.7,0.3s0.9,0.5,1.3,0.9s0.6,0.8,0.8,1.3C624.6-326.5,624.7-326,624.7-325.4z
		 M622.8-325.4c0-0.4-0.1-0.8-0.2-1.1s-0.2-0.6-0.4-0.8c-0.2-0.2-0.4-0.4-0.7-0.5c-0.3-0.1-0.6-0.2-1-0.2c-0.4,0-0.7,0.1-1,0.2
		c-0.3,0.1-0.5,0.3-0.7,0.5c-0.2,0.2-0.3,0.5-0.4,0.8s-0.2,0.7-0.2,1.1c0,0.4,0.1,0.8,0.2,1.1c0.1,0.3,0.2,0.6,0.4,0.8
		c0.2,0.2,0.4,0.4,0.7,0.5c0.3,0.1,0.6,0.2,1,0.2c0.4,0,0.7-0.1,1-0.2c0.3-0.1,0.5-0.3,0.7-0.5c0.2-0.2,0.3-0.5,0.4-0.8
		C622.7-324.7,622.8-325,622.8-325.4z"/>
	<path class="st4" d="M631.3-329.4v1.4H628v2h2.7v1.4H628v3.1h-1.9v-8H631.3z"/>
	<path class="st4" d="M631.5-322.3c0-0.1,0-0.3,0.1-0.4c0-0.1,0.1-0.2,0.2-0.3c0.1-0.1,0.2-0.2,0.3-0.2c0.1,0,0.2-0.1,0.4-0.1
		c0.1,0,0.3,0,0.4,0.1c0.1,0,0.2,0.1,0.3,0.2c0.1,0.1,0.2,0.2,0.2,0.3c0,0.1,0.1,0.2,0.1,0.4s0,0.3-0.1,0.4c0,0.1-0.1,0.2-0.2,0.3
		s-0.2,0.2-0.3,0.2c-0.1,0-0.2,0.1-0.4,0.1c-0.1,0-0.3,0-0.4-0.1c-0.1,0-0.2-0.1-0.3-0.2c-0.1-0.1-0.2-0.2-0.2-0.3
		S631.5-322.2,631.5-322.3z"/>
	<path class="st4" d="M642.8-329.4v1.4h-3.3v1.9h2.5v1.4h-2.5v1.9h3.3v1.4h-5.2v-8H642.8z"/>
	<path class="st4" d="M648.7-324.7c0.1,0.2,0.1,0.3,0.2,0.5c0.1-0.2,0.1-0.3,0.2-0.5s0.1-0.3,0.2-0.4l2.1-4.1c0-0.1,0.1-0.1,0.1-0.2
		c0,0,0.1-0.1,0.1-0.1s0.1,0,0.2,0s0.1,0,0.2,0h1.4v8h-1.6v-4.6c0-0.2,0-0.5,0-0.7l-2.1,4.1c-0.1,0.1-0.2,0.2-0.3,0.3
		c-0.1,0.1-0.2,0.1-0.4,0.1h-0.3c-0.1,0-0.3,0-0.4-0.1c-0.1-0.1-0.2-0.2-0.3-0.3l-2.1-4.1c0,0.1,0,0.3,0,0.4c0,0.1,0,0.2,0,0.3v4.6
		h-1.6v-8h1.4c0.1,0,0.2,0,0.2,0s0.1,0,0.2,0s0.1,0,0.1,0.1c0,0,0.1,0.1,0.1,0.2l2.1,4.1C648.6-325,648.6-324.8,648.7-324.7z"/>
	<path class="st4" d="M654.9-322.3c0-0.1,0-0.3,0.1-0.4c0-0.1,0.1-0.2,0.2-0.3c0.1-0.1,0.2-0.2,0.3-0.2c0.1,0,0.2-0.1,0.4-0.1
		c0.1,0,0.3,0,0.4,0.1c0.1,0,0.2,0.1,0.3,0.2c0.1,0.1,0.2,0.2,0.2,0.3c0,0.1,0.1,0.2,0.1,0.4s0,0.3-0.1,0.4c0,0.1-0.1,0.2-0.2,0.3
		s-0.2,0.2-0.3,0.2c-0.1,0-0.2,0.1-0.4,0.1c-0.1,0-0.3,0-0.4-0.1c-0.1,0-0.2-0.1-0.3-0.2c-0.1-0.1-0.2-0.2-0.2-0.3
		S654.9-322.2,654.9-322.3z"/>
	<path class="st4" d="M608.9-311.4c0,0.6-0.1,1.1-0.3,1.6c-0.2,0.5-0.5,0.9-0.8,1.3s-0.8,0.6-1.3,0.8c-0.5,0.2-1.1,0.3-1.7,0.3h-3.1
		v-8h3.1c0.6,0,1.2,0.1,1.7,0.3c0.5,0.2,0.9,0.5,1.3,0.8s0.6,0.8,0.8,1.3C608.8-312.5,608.9-312,608.9-311.4z M607-311.4
		c0-0.4-0.1-0.8-0.2-1.1s-0.2-0.6-0.4-0.8c-0.2-0.2-0.4-0.4-0.7-0.5s-0.6-0.2-1-0.2h-1.2v5.2h1.2c0.4,0,0.7-0.1,1-0.2
		s0.5-0.3,0.7-0.5c0.2-0.2,0.3-0.5,0.4-0.8S607-311,607-311.4z"/>
	<path class="st4" d="M612.2-310.4v3h-1.9v-8h2.6c0.6,0,1.1,0.1,1.5,0.2c0.4,0.1,0.7,0.3,1,0.5c0.3,0.2,0.4,0.5,0.6,0.8
		c0.1,0.3,0.2,0.6,0.2,0.9c0,0.3,0,0.5-0.1,0.7c-0.1,0.2-0.2,0.4-0.3,0.6c-0.1,0.2-0.3,0.4-0.5,0.5c-0.2,0.2-0.4,0.3-0.7,0.4
		c0.1,0.1,0.2,0.1,0.3,0.2s0.2,0.2,0.3,0.3l1.7,2.8h-1.7c-0.3,0-0.5-0.1-0.7-0.4l-1.3-2.3c-0.1-0.1-0.1-0.2-0.2-0.2
		c-0.1,0-0.2-0.1-0.3-0.1H612.2z M612.2-311.7h0.7c0.3,0,0.5,0,0.6-0.1c0.2-0.1,0.3-0.2,0.4-0.3c0.1-0.1,0.2-0.2,0.2-0.4
		c0.1-0.2,0.1-0.3,0.1-0.5c0-0.4-0.1-0.6-0.3-0.8c-0.2-0.2-0.6-0.3-1.1-0.3h-0.7V-311.7z"/>
	<path class="st4" d="M617.9-308.3c0-0.1,0-0.3,0.1-0.4c0-0.1,0.1-0.2,0.2-0.3c0.1-0.1,0.2-0.2,0.3-0.2c0.1,0,0.2-0.1,0.4-0.1
		c0.1,0,0.3,0,0.4,0.1c0.1,0,0.2,0.1,0.3,0.2c0.1,0.1,0.2,0.2,0.2,0.3c0,0.1,0.1,0.2,0.1,0.4s0,0.3-0.1,0.4c0,0.1-0.1,0.2-0.2,0.3
		s-0.2,0.2-0.3,0.2c-0.1,0-0.2,0.1-0.4,0.1c-0.1,0-0.3,0-0.4-0.1c-0.1,0-0.2-0.1-0.3-0.2c-0.1-0.1-0.2-0.2-0.2-0.3
		S617.9-308.2,617.9-308.3z"/>
	<path class="st4" d="M603.5-296.1v2.7h-1.9v-8h2.8c0.6,0,1,0.1,1.5,0.2s0.7,0.3,1,0.6c0.3,0.2,0.5,0.5,0.6,0.8
		c0.1,0.3,0.2,0.7,0.2,1c0,0.4-0.1,0.8-0.2,1.1c-0.1,0.3-0.3,0.6-0.6,0.9c-0.3,0.2-0.6,0.4-1,0.6c-0.4,0.1-0.9,0.2-1.4,0.2H603.5z
		 M603.5-297.5h1c0.5,0,0.8-0.1,1-0.3c0.2-0.2,0.3-0.6,0.3-1c0-0.2,0-0.4-0.1-0.5c-0.1-0.1-0.1-0.3-0.2-0.4
		c-0.1-0.1-0.3-0.2-0.4-0.2s-0.4-0.1-0.6-0.1h-1V-297.5z"/>
	<path class="st4" d="M614.3-301.4v1.4H611v1.9h2.5v1.4H611v1.9h3.3v1.4h-5.2v-8H614.3z"/>
	<path class="st4" d="M621.8-301.4v1.5h-2.3v6.5h-1.9v-6.5h-2.3v-1.5H621.8z"/>
	<path class="st4" d="M628.2-301.4v1.4h-3.3v1.9h2.5v1.4h-2.5v1.9h3.3v1.4h-5.2v-8H628.2z"/>
	<path class="st4" d="M631.7-296.4v3h-1.9v-8h2.6c0.6,0,1.1,0.1,1.5,0.2c0.4,0.1,0.7,0.3,1,0.5c0.3,0.2,0.4,0.5,0.6,0.8
		c0.1,0.3,0.2,0.6,0.2,0.9c0,0.3,0,0.5-0.1,0.7c-0.1,0.2-0.2,0.4-0.3,0.6c-0.1,0.2-0.3,0.4-0.5,0.5c-0.2,0.2-0.4,0.3-0.7,0.4
		c0.1,0.1,0.2,0.1,0.3,0.2s0.2,0.2,0.3,0.3l1.7,2.8h-1.7c-0.3,0-0.5-0.1-0.7-0.4l-1.3-2.3c-0.1-0.1-0.1-0.2-0.2-0.2
		c-0.1,0-0.2-0.1-0.3-0.1H631.7z M631.7-297.7h0.7c0.3,0,0.5,0,0.6-0.1c0.2-0.1,0.3-0.2,0.4-0.3c0.1-0.1,0.2-0.2,0.2-0.4
		c0.1-0.2,0.1-0.3,0.1-0.5c0-0.4-0.1-0.6-0.3-0.8c-0.2-0.2-0.6-0.3-1.1-0.3h-0.7V-297.7z"/>
	<path class="st4" d="M607.4-287.4v1.5h-2.3v6.5h-1.9v-6.5h-2.3v-1.5H607.4z"/>
	<path class="st4" d="M610.6-282.4v3h-1.9v-8h2.6c0.6,0,1.1,0.1,1.5,0.2c0.4,0.1,0.7,0.3,1,0.5c0.3,0.2,0.4,0.5,0.6,0.8
		c0.1,0.3,0.2,0.6,0.2,0.9c0,0.3,0,0.5-0.1,0.7c-0.1,0.2-0.2,0.4-0.3,0.6c-0.1,0.2-0.3,0.4-0.5,0.5c-0.2,0.2-0.4,0.3-0.7,0.4
		c0.1,0.1,0.2,0.1,0.3,0.2s0.2,0.2,0.3,0.3l1.7,2.8h-1.7c-0.3,0-0.5-0.1-0.7-0.4l-1.3-2.3c-0.1-0.1-0.1-0.2-0.2-0.2
		c-0.1,0-0.2-0.1-0.3-0.1H610.6z M610.6-283.7h0.7c0.3,0,0.5,0,0.6-0.1c0.2-0.1,0.3-0.2,0.4-0.3c0.1-0.1,0.2-0.2,0.2-0.4
		c0.1-0.2,0.1-0.3,0.1-0.5c0-0.4-0.1-0.6-0.3-0.8c-0.2-0.2-0.6-0.3-1.1-0.3h-0.7V-283.7z"/>
	<path class="st4" d="M619.6-280.9c0.2,0,0.5,0,0.7-0.1c0.2-0.1,0.4-0.2,0.5-0.4c0.1-0.2,0.2-0.3,0.3-0.6s0.1-0.5,0.1-0.8v-4.7h1.9
		v4.7c0,0.5-0.1,0.9-0.2,1.4c-0.2,0.4-0.4,0.8-0.7,1.1s-0.7,0.5-1.1,0.7c-0.4,0.2-0.9,0.2-1.4,0.2c-0.5,0-1-0.1-1.4-0.2
		c-0.4-0.2-0.8-0.4-1.1-0.7s-0.5-0.7-0.7-1.1c-0.2-0.4-0.2-0.9-0.2-1.4v-4.7h1.9v4.7c0,0.3,0,0.5,0.1,0.8c0.1,0.2,0.2,0.4,0.3,0.6
		c0.1,0.2,0.3,0.3,0.5,0.4C619.1-280.9,619.4-280.9,619.6-280.9z M619.3-288.6c0,0.1,0,0.2-0.1,0.3s-0.1,0.2-0.2,0.3
		c-0.1,0.1-0.2,0.1-0.3,0.2c-0.1,0-0.2,0.1-0.3,0.1c-0.1,0-0.2,0-0.3-0.1c-0.1,0-0.2-0.1-0.3-0.2s-0.1-0.2-0.2-0.3s-0.1-0.2-0.1-0.3
		c0-0.1,0-0.2,0.1-0.3c0-0.1,0.1-0.2,0.2-0.3c0.1-0.1,0.2-0.1,0.3-0.2c0.1,0,0.2-0.1,0.3-0.1c0.1,0,0.2,0,0.3,0.1
		c0.1,0,0.2,0.1,0.3,0.2c0.1,0.1,0.1,0.2,0.2,0.3C619.2-288.8,619.3-288.7,619.3-288.6z M621.7-288.6c0,0.1,0,0.2-0.1,0.3
		s-0.1,0.2-0.2,0.3c-0.1,0.1-0.2,0.1-0.3,0.2s-0.2,0.1-0.3,0.1s-0.2,0-0.3-0.1s-0.2-0.1-0.3-0.2c-0.1-0.1-0.1-0.2-0.2-0.3
		s-0.1-0.2-0.1-0.3c0-0.1,0-0.2,0.1-0.3c0-0.1,0.1-0.2,0.2-0.3c0.1-0.1,0.2-0.1,0.3-0.2s0.2-0.1,0.3-0.1s0.2,0,0.3,0.1
		s0.2,0.1,0.3,0.2c0.1,0.1,0.1,0.2,0.2,0.3C621.7-288.8,621.7-288.7,621.7-288.6z"/>
	<path class="st4" d="M624.8-279.4v-8h2.9c0.6,0,1,0.1,1.4,0.2s0.7,0.2,1,0.4c0.2,0.2,0.4,0.4,0.5,0.7c0.1,0.3,0.2,0.6,0.2,0.9
		c0,0.2,0,0.4-0.1,0.5c-0.1,0.2-0.1,0.3-0.2,0.5c-0.1,0.1-0.3,0.3-0.4,0.4c-0.2,0.1-0.4,0.2-0.6,0.3c0.5,0.1,0.9,0.3,1.2,0.6
		s0.4,0.7,0.4,1.1c0,0.3-0.1,0.7-0.2,1s-0.3,0.5-0.6,0.8c-0.3,0.2-0.6,0.4-0.9,0.5c-0.4,0.1-0.8,0.2-1.3,0.2H624.8z M626.7-284.1h1
		c0.2,0,0.4,0,0.6,0c0.2,0,0.3-0.1,0.4-0.2c0.1-0.1,0.2-0.2,0.3-0.3c0.1-0.1,0.1-0.3,0.1-0.5c0-0.2,0-0.3-0.1-0.5
		c0-0.1-0.1-0.2-0.2-0.3c-0.1-0.1-0.2-0.1-0.4-0.2s-0.3,0-0.5,0h-1.1V-284.1z M626.7-282.8v2h1.3c0.2,0,0.4,0,0.6-0.1
		c0.2-0.1,0.3-0.1,0.4-0.2c0.1-0.1,0.1-0.2,0.2-0.3c0-0.1,0-0.3,0-0.4c0-0.1,0-0.3-0.1-0.4c0-0.1-0.1-0.2-0.2-0.3
		c-0.1-0.1-0.2-0.1-0.4-0.2c-0.2,0-0.3-0.1-0.6-0.1H626.7z"/>
	<path class="st4" d="M633.8-287.4c0.1,0,0.1,0,0.1,0c0,0,0.1,0,0.1,0.1c0,0,0.1,0.1,0.1,0.1l3.8,4.8c0-0.2,0-0.3,0-0.4
		c0-0.1,0-0.3,0-0.4v-4.2h1.6v8h-1c-0.1,0-0.3,0-0.4-0.1c-0.1,0-0.2-0.1-0.3-0.2l-3.8-4.8c0,0.1,0,0.3,0,0.4c0,0.1,0,0.3,0,0.4v4.3
		h-1.6v-8h1C633.6-287.4,633.7-287.4,633.8-287.4z"/>
	<path class="st4" d="M646.6-287.4v1.4h-3.3v1.9h2.5v1.4h-2.5v1.9h3.3v1.4h-5.2v-8H646.6z"/>
	<path class="st4" d="M650.1-282.4v3h-1.9v-8h2.6c0.6,0,1.1,0.1,1.5,0.2c0.4,0.1,0.7,0.3,1,0.5c0.3,0.2,0.4,0.5,0.6,0.8
		c0.1,0.3,0.2,0.6,0.2,0.9c0,0.3,0,0.5-0.1,0.7c-0.1,0.2-0.2,0.4-0.3,0.6c-0.1,0.2-0.3,0.4-0.5,0.5c-0.2,0.2-0.4,0.3-0.7,0.4
		c0.1,0.1,0.2,0.1,0.3,0.2s0.2,0.2,0.3,0.3l1.7,2.8h-1.7c-0.3,0-0.5-0.1-0.7-0.4l-1.3-2.3c-0.1-0.1-0.1-0.2-0.2-0.2
		c-0.1,0-0.2-0.1-0.3-0.1H650.1z M650.1-283.7h0.7c0.3,0,0.5,0,0.6-0.1c0.2-0.1,0.3-0.2,0.4-0.3c0.1-0.1,0.2-0.2,0.2-0.4
		c0.1-0.2,0.1-0.3,0.1-0.5c0-0.4-0.1-0.6-0.3-0.8c-0.2-0.2-0.6-0.3-1.1-0.3h-0.7V-283.7z"/>
</g>
<g>
	<line class="st5" x1="582.5" y1="-340" x2="582.5" y2="-269"/>
	<rect x="582" y="-340" width="1" height="71"/>
</g>
<g>
	<path d="M1786.8-178h-7.8l0.7-2.3h6.5c3.4,0,7-0.2,10.3-0.6l-2.6,9.3l0.2,0.2c4.6-4.6,9.9-10,16.9-10c8.4,0,12.1,7.2,12.1,14.7
		c0,15.3-12.6,33.1-26,33.1c-6.7,0-9.6-3.3-11.4-9.5h-0.2l-8.6,28.8h-8.8L1786.8-178z M1807.4-177.6c-8.6,0-19.5,16-19.5,31.2
		c0,4.8,2.4,9.4,7.8,9.4c10.4,0,17.9-22.8,17.9-31.2C1813.6-172.5,1812.8-177.6,1807.4-177.6z"/>
	<path d="M1833.9-178l0.7-2.3h8.6l3.1-11.7h8.9l-3.3,11.7h9.8l-0.7,2.3h-9.9l-9.5,33.7c-0.3,1-0.6,1.9-0.6,3.1c0,1.1,1,2,2.3,2
		c3.5,0,8.7-7.1,11.6-11.8l2,1.4c-4.3,6.1-10.4,16-18.8,16c-3.6,0-6-2.8-6-5.9c0-2,0.8-4.8,2.8-11.8l7.5-26.7H1833.9z"/>
</g>
<g>
	<g>
		<g>
			<path d="M1902.2-180.6h2.6c0.4,0,0.9,0,1.3,0.1c0.7,0.2,1.8,0.9,1.8,2.4c0,1-0.5,2.1-1.8,2.4c-0.4,0.1-0.8,0.1-1.3,0.1h-1.1v2.6
				h-1.4V-180.6z M1903.6-179.3v2.7h1c0.3,0,0.6,0,0.8-0.1c0.9-0.2,0.9-1,0.9-1.3c0-0.6-0.2-0.9-0.4-1c-0.4-0.3-0.9-0.3-1.3-0.3
				H1903.6z"/>
			<path d="M1910.1-180.6h2.4c1,0,1.7,0,2.4,0.6c0.5,0.4,0.8,1,0.8,1.9c0,1.5-1.1,2-1.5,2.1l1.7,3.1h-1.6l-1.5-2.8h-1.3v2.8h-1.4
				V-180.6z M1911.5-179.3v2.4h0.5c0.5,0,0.7,0,0.9,0c0.3,0,1.3-0.1,1.3-1.2c0-0.2,0-0.7-0.6-1c-0.3-0.2-0.7-0.2-1.5-0.2H1911.5z"/>
			<path d="M1921.5-172.7c-1,0-1.8-0.3-2.6-1.2c-0.8-0.9-1-1.9-1-2.8c0-2.3,1.6-4,3.7-4c1.9,0,3.7,1.4,3.7,4
				C1925.1-174.6,1923.8-172.7,1921.5-172.7z M1921.5-179.4c-1.3,0-2.2,1.1-2.2,2.7c0,1.7,1,2.7,2.2,2.7c1,0,2.2-0.7,2.2-2.5
				C1923.7-178.1,1923-179.4,1921.5-179.4z"/>
			<path d="M1929.1-177.4h3.2v1.2h-3.2v3.2h-1.4v-7.6h5.1v1.3h-3.6V-177.4z"/>
			<path d="M1935.2-174.4v1.5h-1.4v-1.5H1935.2z"/>
		</g>
		<g>
			<path d="M1902.2-167.6h2.7c0.7,0,1.5,0,2.3,0.6c1.3,0.9,1.5,2.4,1.5,3.3c0,1.3-0.4,2.6-1.6,3.3c-0.8,0.4-1.6,0.5-2.5,0.5h-2.4
				V-167.6z M1903.6-166.3v5.1h0.6c1.1,0,1.5-0.1,1.8-0.2c0.6-0.2,1.1-0.7,1.1-2.3c0-0.7-0.1-1.9-1.2-2.4c-0.4-0.2-0.6-0.2-1.6-0.2
				H1903.6z"/>
			<path d="M1911.2-167.6h2.4c1,0,1.7,0,2.4,0.6c0.5,0.4,0.8,1,0.8,1.9c0,1.5-1.1,2-1.5,2.1l1.7,3.1h-1.6l-1.5-2.8h-1.3v2.8h-1.4
				V-167.6z M1912.6-166.4v2.4h0.5c0.5,0,0.7,0,0.9,0c0.3,0,1.3-0.1,1.3-1.2c0-0.2,0-0.7-0.6-1c-0.3-0.2-0.7-0.2-1.5-0.2H1912.6z"/>
			<path d="M1920.6-161.4v1.5h-1.4v-1.5H1920.6z"/>
		</g>
		<g>
			<path d="M1902.2-154.6h2.6c0.4,0,0.9,0,1.3,0.1c0.7,0.2,1.8,0.9,1.8,2.4c0,1-0.5,2.1-1.8,2.4c-0.4,0.1-0.8,0.1-1.3,0.1h-1.1v2.6
				h-1.4V-154.6z M1903.6-153.4v2.7h1c0.3,0,0.6,0,0.8-0.1c0.9-0.2,0.9-1,0.9-1.3c0-0.6-0.2-0.9-0.4-1c-0.4-0.3-0.9-0.3-1.3-0.3
				H1903.6z"/>
			<path d="M1911.5-153.3v1.8h3.7v1.2h-3.7v2h4.3v1.3h-5.7v-7.6h5.4v1.3H1911.5z"/>
			<path d="M1923.1-153.3h-2.1v6.3h-1.4v-6.3h-2.1v-1.3h5.6V-153.3z"/>
			<path d="M1926.6-153.3v1.8h3.7v1.2h-3.7v2h4.3v1.3h-5.7v-7.6h5.4v1.3H1926.6z"/>
			<path d="M1933.3-154.6h2.4c1,0,1.7,0,2.4,0.6c0.5,0.4,0.8,1,0.8,1.9c0,1.5-1.1,2-1.5,2.1l1.7,3.1h-1.6l-1.5-2.8h-1.3v2.8h-1.4
				V-154.6z M1934.7-153.4v2.4h0.5c0.5,0,0.7,0,0.9,0c0.3,0,1.3-0.1,1.3-1.2c0-0.2,0-0.7-0.6-1c-0.3-0.2-0.7-0.2-1.5-0.2H1934.7z"/>
		</g>
		<g>
			<path d="M1907.8-140.3h-2.1v6.3h-1.4v-6.3h-2.1v-1.3h5.6V-140.3z"/>
			<path d="M1910-141.6h2.4c1,0,1.7,0,2.4,0.6c0.5,0.4,0.8,1,0.8,1.9c0,1.5-1.1,2-1.5,2.1l1.7,3.1h-1.6l-1.5-2.8h-1.3v2.8h-1.4
				V-141.6z M1911.4-140.4v2.4h0.5c0.5,0,0.7,0,0.9,0c0.3,0,1.3-0.1,1.3-1.2c0-0.2,0-0.7-0.6-1c-0.3-0.2-0.7-0.2-1.5-0.2H1911.4z"/>
			<path d="M1924.3-141.6v4.8c0,0.9,0,1.6-0.8,2.3c-0.8,0.7-1.8,0.7-2.3,0.7c-0.5,0-0.9-0.1-1.4-0.2c-0.9-0.3-1.4-1-1.6-1.5
				c-0.1-0.3-0.1-0.6-0.1-1.5v-4.6h1.4v4.7c0,0.3,0,0.6,0.1,0.9c0.3,0.7,1.1,0.8,1.5,0.8c0.2,0,0.8,0,1.2-0.4
				c0.4-0.4,0.4-0.8,0.4-1.5v-4.6H1924.3z M1920.7-143.7v1.3h-1.2v-1.3H1920.7z M1922.9-143.7v1.3h-1.2v-1.3H1922.9z"/>
			<path d="M1927.2-141.6h2.7c1,0,1.3,0,1.7,0.1c0.8,0.2,1.3,0.9,1.3,1.7c0,0.3-0.1,0.7-0.3,1c-0.2,0.3-0.5,0.5-1,0.6
				c0.8,0.2,1.6,0.8,1.6,2c0,0.9-0.4,1.7-1.4,2c-0.5,0.2-0.9,0.2-1.7,0.2h-3V-141.6z M1928.6-140.5v1.9h0.5c0.4,0,0.7,0,0.9,0
				c0.4,0,0.7,0,1-0.2c0.3-0.2,0.5-0.4,0.5-0.8c0-0.3-0.2-0.6-0.4-0.8c-0.3-0.2-0.5-0.2-1.5-0.2H1928.6z M1928.6-137.5v2.3h1.4
				c0.8,0,1.1,0,1.4-0.3c0.2-0.1,0.3-0.4,0.3-0.8c0-0.2,0-0.4-0.1-0.6c-0.3-0.6-1.1-0.6-1.6-0.6L1928.6-137.5z"/>
			<path d="M1940.3-141.6h1.4v7.6h-1.2l-3.3-5.4l0.1,5.4h-1.4v-7.6h1.3l3.4,5.4L1940.3-141.6z"/>
			<path d="M1946-140.4v1.8h3.7v1.2h-3.7v2h4.3v1.3h-5.7v-7.6h5.4v1.3H1946z"/>
			<path d="M1952.7-141.6h2.4c1,0,1.7,0,2.4,0.6c0.5,0.4,0.8,1,0.8,1.9c0,1.5-1.1,2-1.5,2.1l1.7,3.1h-1.6l-1.5-2.8h-1.3v2.8h-1.4
				V-141.6z M1954.1-140.4v2.4h0.5c0.5,0,0.7,0,0.9,0c0.3,0,1.3-0.1,1.3-1.2c0-0.2,0-0.7-0.6-1c-0.3-0.2-0.7-0.2-1.5-0.2H1954.1z"/>
		</g>
	</g>
</g>
<line class="st3" x1="1879.5" y1="-189" x2="1879.5" y2="-123.5"/>
<g>
	<text transform="matrix(1 0 0 1 -433.3936 1271.0742)" class="st9 st21">Publikationsliste</text>
</g>
<rect x="2686.5" y="145" class="st12" width="522" height="614"/>
<text transform="matrix(1 0 0 1 2686.5 156.6558)"><tspan x="0" y="0" class="st17" style="font-family:'Lato-Light';">Lorem ipsum dolor sit amet, consectetuer adipiscing elit, sed diam nonummy </tspan><tspan x="0" y="27" class="st17" style="font-family:'Lato-Light';">nibh euismod tincidunt ut laoreet dolore magna aliquam erat volutpat. Ut wisi </tspan><tspan x="0" y="54" class="st17" style="font-family:'Lato-Light';">enim ad minim veniam, quis nostrud exerci tation </tspan><tspan x="0" y="108" class="st17" style="font-family:'Lato-LightItalic';">     „Ich bin ein Zitat, eine beispielhafte typografische Auszeichnung.“</tspan><tspan x="0" y="162" class="st17" style="font-family:'Lato-Light';">ut aliquip ex ea commodo consequat. Duis autem vel eum iriure dolor in hend</tspan><tspan x="516.1" y="162" class="st17" style="font-family:'Lato-Light';">-</tspan><tspan x="0" y="189" class="st17" style="font-family:'Lato-Light';">rerit in vulputate velit esse molestie consequat, vel illum.</tspan><tspan x="0" y="216" class="st17" style="font-family:'Lato-Light';">psum dolor sit amet, </tspan><tspan x="139.3" y="216" class="st17" style="fill:#FF0000; font-family:'Lato-Regular';">Link innerhalb eines Textes</tspan><tspan x="328.8" y="216" class="st17" style="font-family:'Lato-Light';"> consectetuer adipiscing elit, </tspan><tspan x="0" y="243" class="st17" style="font-family:'Lato-Light';">sed diam nonummy nibh euismod tincidunt ut laoreet dolore magna aliquam </tspan><tspan x="0" y="270" class="st17" style="font-family:'Lato-Light';">erat volutpat. Ut wisi enim ad minim veniam, quis.</tspan><tspan x="0" y="351" class="st13 st17">Zwischenüberschrift</tspan><tspan x="0" y="359" class="st13 st17" style="letter-spacing:1;"> </tspan><tspan x="0" y="386" class="st17" style="font-family:'Lato-Light';">Lorem ipsum dolor sit amet, consectetuer adipiscing elit, sed diam nonummy </tspan><tspan x="0" y="413" class="st17" style="font-family:'Lato-Light';">nibh euismod tincidunt ut laoreet dolore magna aliquam erat volutpat. Ut wisi </tspan><tspan x="0" y="440" class="st17" style="font-family:'Lato-Light';">enim ad minim veniam, quis nostrud exerci tation ullamcorper suscipit lobor</tspan><tspan x="507.6" y="440" class="st17" style="font-family:'Lato-Light';">-</tspan><tspan x="0" y="467" class="st17" style="font-family:'Lato-Light';">tis nisl ut aliquip ex ea commodo consequat sis at vero eros et accumsan.</tspan></text>
<g>
	<text transform="matrix(1 0 0 1 2686.5 116.0742)" style="font-family:'PTSerif-Italic'; font-size:36px;">Überschrift aktiver Link</text>
</g>
<g>
	<g>
		<line class="st7" x1="-523.5" y1="2090" x2="-523.5" y2="2160.5"/>
		<rect x="-502.1" y="2093.5" class="st12" width="296.1" height="78.5"/>
		<text transform="matrix(1 0 0 1 -502.0547 2101.7393)"><tspan x="0" y="0" class="st13 st22">Copyright 2019    </tspan><tspan x="0" y="14" class="st13 st22">Prof. Dr. Peter Trübner    </tspan><tspan x="0" y="28" class="st13 st22">Alexander Moserstrasse 32a    </tspan><tspan x="0" y="42" class="st13 st22">CH-2503 Biel/Bienne   </tspan><tspan x="0" y="56" class="st13 st22">Schweiz</tspan></text>
	</g>
</g>
<line class="st0" x1="1537.5" y1="124" x2="1537.5" y2="1034.5"/>
<line class="st3" x1="1537.5" y1="268" x2="1537.5" y2="292"/>
<g>
	<text transform="matrix(1 0 0 1 1558.9453 208.0742)"><tspan x="0" y="0" class="st13" style="fill:#FF0000; font-size:18px;">Aktiver Link</tspan><tspan x="0" y="26" class="st13" style="font-size:18px;">Publikationen </tspan><tspan x="0" y="52" class="st13" style="font-size:18px;">Lebenslauf</tspan><tspan x="0" y="78" class="st13" style="font-size:18px;">Mouse over </tspan><tspan x="0" y="104" class="st13" style="font-size:18px;">Kontakt</tspan></text>
</g>
<rect x="1834.5" y="145" class="st12" width="522" height="614"/>
<text transform="matrix(1 0 0 1 1834.5 156.6558)"><tspan x="0" y="0" class="st17" style="font-family:'Lato-Light';">Lorem ipsum dolor sit amet, consectetuer adipiscing elit, sed diam nonummy </tspan><tspan x="0" y="27" class="st17" style="font-family:'Lato-Light';">nibh euismod tincidunt ut laoreet dolore magna aliquam erat volutpat. Ut wisi </tspan><tspan x="0" y="54" class="st17" style="font-family:'Lato-Light';">enim ad minim veniam, quis nostrud exerci tation </tspan><tspan x="0" y="108" class="st17" style="font-family:'Lato-LightItalic';">     „Ich bin ein Zitat, eine beispielhafte typografische Auszeichnung.“</tspan><tspan x="0" y="162" class="st17" style="font-family:'Lato-Light';">ut aliquip ex ea commodo consequat. Duis autem vel eum iriure dolor in hend</tspan><tspan x="516.1" y="162" class="st17" style="font-family:'Lato-Light';">-</tspan><tspan x="0" y="189" class="st17" style="font-family:'Lato-Light';">rerit in vulputate velit esse molestie consequat, vel illum.</tspan><tspan x="0" y="216" class="st17" style="font-family:'Lato-Light';">psum dolor sit amet, </tspan><tspan x="139.3" y="216" class="st17" style="fill:#FF0000; font-family:'Lato-Regular';">Link innerhalb eines Textes</tspan><tspan x="328.8" y="216" class="st17" style="font-family:'Lato-Light';"> consectetuer adipiscing elit, </tspan><tspan x="0" y="243" class="st17" style="font-family:'Lato-Light';">sed diam nonummy nibh euismod tincidunt ut laoreet dolore magna aliquam </tspan><tspan x="0" y="270" class="st17" style="font-family:'Lato-Light';">erat volutpat. Ut wisi enim ad minim veniam, quis.</tspan><tspan x="0" y="351" class="st13 st17">Zwischenüberschrift</tspan><tspan x="0" y="359" class="st13 st17" style="letter-spacing:1;"> </tspan><tspan x="0" y="386" class="st17" style="font-family:'Lato-Light';">Lorem ipsum dolor sit amet, consectetuer adipiscing elit, sed diam nonummy </tspan><tspan x="0" y="413" class="st17" style="font-family:'Lato-Light';">nibh euismod tincidunt ut laoreet dolore magna aliquam erat volutpat. Ut wisi </tspan><tspan x="0" y="440" class="st17" style="font-family:'Lato-Light';">enim ad minim veniam, quis nostrud exerci tation ullamcorper suscipit lobor</tspan><tspan x="507.6" y="440" class="st17" style="font-family:'Lato-Light';">-</tspan><tspan x="0" y="467" class="st17" style="font-family:'Lato-Light';">tis nisl ut aliquip ex ea commodo consequat sis at vero eros et accumsan.</tspan></text>
<g>
	<text transform="matrix(1 0 0 1 1834.5 116.0742)" class="st13" style="font-size:36px;">Überschrift aktiver Link</text>
</g>
<g>
	<defs>
		<circle id="SVGID_1_" cx="1537" cy="943" r="67"/>
	</defs>
	<clipPath id="SVGID_2_">
		<use xlink:href="#SVGID_1_"  style="overflow:visible;"/>
	</clipPath>
	<g id="ezN8wt.tif_1_" class="st8">
		
			<image style="overflow:visible;" width="135" height="187" id="Layer_0_5_" xlink:href="8DDE3D3001FBB86F.png"  transform="matrix(1 0 0 1 1470 853)">
		</image>
	</g>
</g>
<g>
	<line class="st3" x1="1537.5" y1="1022" x2="1537.5" y2="1040.5"/>
	<rect x="1558.9" y="1025.5" class="st12" width="1071.1" height="61"/>
	<text transform="matrix(1 0 0 1 1558.9453 1034.3438)" class="st20" style="font-family:'Lato-Regular';">Copyright 2019    Prof. Dr. Peter Trübner    Alexander Moserstrasse 32a    CH-2503 Biel/Bienne    Schweiz</text>
</g>
<g>
	<path d="M1444.8,72h-7.8l0.7-2.3h6.5c3.4,0,7-0.2,10.3-0.6l-2.6,9.3l0.2,0.2c4.6-4.6,9.9-10,16.9-10c8.4,0,12.1,7.2,12.1,14.7
		c0,15.3-12.6,33.1-26,33.1c-6.7,0-9.6-3.3-11.4-9.5h-0.2l-8.6,28.8h-8.8L1444.8,72z M1465.4,72.4c-8.6,0-19.5,16-19.5,31.2
		c0,4.8,2.4,9.4,7.8,9.4c10.4,0,17.9-22.8,17.9-31.2C1471.6,77.5,1470.8,72.4,1465.4,72.4z"/>
	<path d="M1491.9,72l0.7-2.3h8.6l3.1-11.7h8.9l-3.3,11.7h9.8L1519,72h-9.9l-9.5,33.7c-0.3,1-0.6,1.9-0.6,3.1c0,1.1,1,2,2.3,2
		c3.5,0,8.7-7.1,11.6-11.8l2,1.4c-4.3,6.1-10.4,16-18.8,16c-3.6,0-6-2.8-6-5.9c0-2,0.8-4.8,2.8-11.8l7.5-26.7H1491.9z"/>
</g>
<g>
	<g>
		<g>
			<path d="M1560.2,69.4h2.6c0.4,0,0.9,0,1.3,0.1c0.7,0.2,1.8,0.9,1.8,2.4c0,1-0.5,2.1-1.8,2.4c-0.4,0.1-0.8,0.1-1.3,0.1h-1.1v2.6
				h-1.4V69.4z M1561.6,70.7v2.7h1c0.3,0,0.6,0,0.8-0.1c0.9-0.2,0.9-1,0.9-1.3c0-0.6-0.2-0.9-0.4-1c-0.4-0.3-0.9-0.3-1.3-0.3H1561.6
				z"/>
			<path d="M1568.1,69.4h2.4c1,0,1.7,0,2.4,0.6c0.5,0.4,0.8,1,0.8,1.9c0,1.5-1.1,2-1.5,2.1l1.7,3.1h-1.6l-1.5-2.8h-1.3v2.8h-1.4
				V69.4z M1569.5,70.7v2.4h0.5c0.5,0,0.7,0,0.9,0c0.3,0,1.3-0.1,1.3-1.2c0-0.2,0-0.7-0.6-1c-0.3-0.2-0.7-0.2-1.5-0.2H1569.5z"/>
			<path d="M1579.5,77.3c-1,0-1.8-0.3-2.6-1.2c-0.8-0.9-1-1.9-1-2.8c0-2.3,1.6-4,3.7-4c1.9,0,3.7,1.4,3.7,4
				C1583.1,75.4,1581.8,77.3,1579.5,77.3z M1579.5,70.6c-1.3,0-2.2,1.1-2.2,2.7c0,1.7,1,2.7,2.2,2.7c1,0,2.2-0.7,2.2-2.5
				C1581.7,71.9,1581,70.6,1579.5,70.6z"/>
			<path d="M1587.1,72.6h3.2v1.2h-3.2v3.2h-1.4v-7.6h5.1v1.3h-3.6V72.6z"/>
			<path d="M1593.2,75.6v1.5h-1.4v-1.5H1593.2z"/>
		</g>
		<g>
			<path d="M1560.2,82.4h2.7c0.7,0,1.5,0,2.3,0.6c1.3,0.9,1.5,2.4,1.5,3.3c0,1.3-0.4,2.6-1.6,3.3c-0.8,0.4-1.6,0.5-2.5,0.5h-2.4
				V82.4z M1561.6,83.7v5.1h0.6c1.1,0,1.5-0.1,1.8-0.2c0.6-0.2,1.1-0.7,1.1-2.3c0-0.7-0.1-1.9-1.2-2.4c-0.4-0.2-0.6-0.2-1.6-0.2
				H1561.6z"/>
			<path d="M1569.2,82.4h2.4c1,0,1.7,0,2.4,0.6c0.5,0.4,0.8,1,0.8,1.9c0,1.5-1.1,2-1.5,2.1l1.7,3.1h-1.6l-1.5-2.8h-1.3V90h-1.4V82.4
				z M1570.6,83.6V86h0.5c0.5,0,0.7,0,0.9,0c0.3,0,1.3-0.1,1.3-1.2c0-0.2,0-0.7-0.6-1c-0.3-0.2-0.7-0.2-1.5-0.2H1570.6z"/>
			<path d="M1578.6,88.6V90h-1.4v-1.5H1578.6z"/>
		</g>
		<g>
			<path d="M1560.2,95.4h2.6c0.4,0,0.9,0,1.3,0.1c0.7,0.2,1.8,0.9,1.8,2.4c0,1-0.5,2.1-1.8,2.4c-0.4,0.1-0.8,0.1-1.3,0.1h-1.1v2.6
				h-1.4V95.4z M1561.6,96.6v2.7h1c0.3,0,0.6,0,0.8-0.1c0.9-0.2,0.9-1,0.9-1.3c0-0.6-0.2-0.9-0.4-1c-0.4-0.3-0.9-0.3-1.3-0.3H1561.6
				z"/>
			<path d="M1569.5,96.7v1.8h3.7v1.2h-3.7v2h4.3v1.3h-5.7v-7.6h5.4v1.3H1569.5z"/>
			<path d="M1581.1,96.7h-2.1v6.3h-1.4v-6.3h-2.1v-1.3h5.6V96.7z"/>
			<path d="M1584.6,96.7v1.8h3.7v1.2h-3.7v2h4.3v1.3h-5.7v-7.6h5.4v1.3H1584.6z"/>
			<path d="M1591.3,95.4h2.4c1,0,1.7,0,2.4,0.6c0.5,0.4,0.8,1,0.8,1.9c0,1.5-1.1,2-1.5,2.1l1.7,3.1h-1.6l-1.5-2.8h-1.3v2.8h-1.4
				V95.4z M1592.7,96.6V99h0.5c0.5,0,0.7,0,0.9,0c0.3,0,1.3-0.1,1.3-1.2c0-0.2,0-0.7-0.6-1c-0.3-0.2-0.7-0.2-1.5-0.2H1592.7z"/>
		</g>
		<g>
			<path d="M1565.8,109.7h-2.1v6.3h-1.4v-6.3h-2.1v-1.3h5.6V109.7z"/>
			<path d="M1568,108.4h2.4c1,0,1.7,0,2.4,0.6c0.5,0.4,0.8,1,0.8,1.9c0,1.5-1.1,2-1.5,2.1l1.7,3.1h-1.6l-1.5-2.8h-1.3v2.8h-1.4
				V108.4z M1569.4,109.6v2.4h0.5c0.5,0,0.7,0,0.9,0c0.3,0,1.3-0.1,1.3-1.2c0-0.2,0-0.7-0.6-1c-0.3-0.2-0.7-0.2-1.5-0.2H1569.4z"/>
			<path d="M1582.3,108.4v4.8c0,0.9,0,1.6-0.8,2.3c-0.8,0.7-1.8,0.7-2.3,0.7c-0.5,0-0.9-0.1-1.4-0.2c-0.9-0.3-1.4-1-1.6-1.5
				c-0.1-0.3-0.1-0.6-0.1-1.5v-4.6h1.4v4.7c0,0.3,0,0.6,0.1,0.9c0.3,0.7,1.1,0.8,1.5,0.8c0.2,0,0.8,0,1.2-0.4
				c0.4-0.4,0.4-0.8,0.4-1.5v-4.6H1582.3z M1578.7,106.3v1.3h-1.2v-1.3H1578.7z M1580.9,106.3v1.3h-1.2v-1.3H1580.9z"/>
			<path d="M1585.2,108.4h2.7c1,0,1.3,0,1.7,0.1c0.8,0.2,1.3,0.9,1.3,1.7c0,0.3-0.1,0.7-0.3,1c-0.2,0.3-0.5,0.5-1,0.6
				c0.8,0.2,1.6,0.8,1.6,2c0,0.9-0.4,1.7-1.4,2c-0.5,0.2-0.9,0.2-1.7,0.2h-3V108.4z M1586.6,109.5v1.9h0.5c0.4,0,0.7,0,0.9,0
				c0.4,0,0.7,0,1-0.2c0.3-0.2,0.5-0.4,0.5-0.8c0-0.3-0.2-0.6-0.4-0.8c-0.3-0.2-0.5-0.2-1.5-0.2H1586.6z M1586.6,112.5v2.3h1.4
				c0.8,0,1.1,0,1.4-0.3c0.2-0.1,0.3-0.4,0.3-0.8c0-0.2,0-0.4-0.1-0.6c-0.3-0.6-1.1-0.6-1.6-0.6L1586.6,112.5z"/>
			<path d="M1598.3,108.4h1.4v7.6h-1.2l-3.3-5.4l0.1,5.4h-1.4v-7.6h1.3l3.4,5.4L1598.3,108.4z"/>
			<path d="M1604,109.6v1.8h3.7v1.2h-3.7v2h4.3v1.3h-5.7v-7.6h5.4v1.3H1604z"/>
			<path d="M1610.7,108.4h2.4c1,0,1.7,0,2.4,0.6c0.5,0.4,0.8,1,0.8,1.9c0,1.5-1.1,2-1.5,2.1l1.7,3.1h-1.6l-1.5-2.8h-1.3v2.8h-1.4
				V108.4z M1612.1,109.6v2.4h0.5c0.5,0,0.7,0,0.9,0c0.3,0,1.3-0.1,1.3-1.2c0-0.2,0-0.7-0.6-1c-0.3-0.2-0.7-0.2-1.5-0.2H1612.1z"/>
		</g>
	</g>
</g>
<line class="st3" x1="1537.5" y1="61" x2="1537.5" y2="126.5"/>
<g>
	<polyline class="st1" points="1537.4,189.5 1549.4,201.5 1537.4,213.5 	"/>
	
		<rect x="1526.7" y="192.7" transform="matrix(0.7071 0.7071 -0.7071 0.7071 592.2264 -1026.761)" class="st6" width="17.7" height="17.7"/>
</g>
<g>
	<polyline class="st1" points="-99.8,1292.8 -130,1262.5 -99.8,1232.2 	"/>
</g>
<g>
	<defs>
		<circle id="SVGID_3_" cx="-523" cy="1997" r="56.8"/>
	</defs>
	<clipPath id="SVGID_4_">
		<use xlink:href="#SVGID_3_"  style="overflow:visible;"/>
	</clipPath>
	<g transform="matrix(1 0 0 1 0 1.220703e-04)" style="clip-path:url(#SVGID_4_);">
		
			<image style="overflow:visible;" width="3056" height="4592" xlink:href="8DDE3D3001FBB86D.jpg"  transform="matrix(8.420209e-02 0 0 8.420209e-02 -667.5282 1885)">
		</image>
	</g>
	<g transform="matrix(1 0 0 1 0 -1.220703e-04)" style="clip-path:url(#SVGID_4_);">
		
			<image style="overflow:visible;" width="3056" height="4592" xlink:href="8DDE3D3001FBB873.jpg"  transform="matrix(0.1021 0 0 0.1021 -697.4774 1864.5334)">
		</image>
	</g>
</g>
<line class="st0" x1="174.5" y1="124" x2="174.5" y2="1034.5"/>
<circle class="st1" cx="175" cy="929" r="80.5"/>
<line class="st2" x1="174.5" y1="221" x2="174.5" y2="245"/>
<g>
	<text transform="matrix(1 0 0 1 191.9453 208.0742)"><tspan x="0" y="0" class="st9 st10">Start</tspan><tspan x="0" y="33" class="st4 st9 st10">Publikationsliste</tspan><tspan x="0" y="66" class="st9 st10">Lebenslauf</tspan><tspan x="0" y="99" class="st11 st9 st10">Beispiel hover</tspan><tspan x="0" y="132" class="st9 st10">Kontakt</tspan></text>
</g>
<g>
	<rect x="485.5" y="202" class="st12" width="522" height="652"/>
	<text transform="matrix(1 0 0 1 485.5 212.4858)" class="st13 st14 st15">1. Bücher</text>
	<text transform="matrix(1 0 0 1 485.5 237.4858)" class="st16 st17">„Das zerstörte Ich. Heroinsüchtige zwischen Bestrafung und Betreuung.“</text>
	<text transform="matrix(1 0 0 1 485.5 262.4858)" class="st16 st17">Beltz Verlag 1996</text>
	<text transform="matrix(1 0 0 1 485.5 287.4858)" class="st16 st17">„Das zerstörte Ich“ ist eine Analyse der gesellschaftlichen und individuellen </text>
	<text transform="matrix(1 0 0 1 485.5 312.4858)" class="st16 st17">Mechanisme er ist das Drogenproblem kein Projekt. ... Er zeigt, dass es trotz </text>
	<text transform="matrix(1 0 0 1 485.5 337.4858)" class="st16 st17">aller Kritik am vorherrschenden gesellschaftlichen Umgang mit illegalen </text>
	<text transform="matrix(1 0 0 1 485.5 362.4858)" class="st16 st17">Drogen und mit den </text>
	<text transform="matrix(1 0 0 1 626.7144 362.4858)" class="st4 st9 st17">Hier ist ein Link</text>
	<text transform="matrix(1 0 0 1 742.9043 362.4858)" class="st16 st17"> Problemen, die manche damit haben, </text>
	<text transform="matrix(1 0 0 1 485.5 387.4858)" class="st16 st17">möglich ist, einen klaren humanistischen Standpunkt durchzuhalten und </text>
	<text transform="matrix(1 0 0 1 485.5 412.4858)" class="st16 st17">das Abrutschen in die Beliebigkeit zu vermeiden.“</text>
	<text transform="matrix(1 0 0 1 485.5 462.4863)" class="st18 st17">Als Herausgeber:  </text>
	<text transform="matrix(1 0 0 1 485.5 487.4863)" class="st16 st17">„Das Heisse und das Kalte. Kunst und Gesellschaft.“ </text>
	<text transform="matrix(0.583 0 0 0.583 841.0615 482.8242)" class="st18 st14">[1]</text>
	<text transform="matrix(1 0 0 1 485.5 512.4863)" class="st16 st17">Peter Lang Verlag 1997</text>
	<text transform="matrix(1 0 0 1 485.5 537.4863)" class="st16 st17">Mit Beiträgen von Urs Jaeggi, Axel Honneth, Jean Ziegler, Claudia Honegger, </text>
	<text transform="matrix(1 0 0 1 485.5 562.4863)" class="st16 st17">Dietmar Kamper u.a. Aus Anlass des 65. Geburtstages von Urs Jaeggi</text>
	<text transform="matrix(0.583 0 0 0.583 951.8926 557.8242)" class="st18 st14">[2]</text>
	<text transform="matrix(1 0 0 1 961.8096 562.4863)" class="st16 st17"> fand </text>
	<text transform="matrix(1 0 0 1 485.5 587.4863)" class="st16 st17">eine Auseinandersetzung darüber statt, ob Soziologie, Literatur oder Kunst </text>
	<text transform="matrix(1 0 0 1 485.5 612.4863)" class="st16 st17">in der Lage sind, gesellschaftliche Entwicklungen im Interesse der Men</text>
	<text transform="matrix(1 0 0 1 971.0615 612.4863)" class="st16 st17">-</text>
	<text transform="matrix(1 0 0 1 485.5 637.4863)" class="st16 st17">schen voranzutreiben.  </text>
	<text transform="matrix(1 0 0 1 485.5 662.4863)" class="st16 st17"> </text>
	<text transform="matrix(1 0 0 1 485.5 686.4863)" class="st16 st17"> </text>
	<text transform="matrix(1 0 0 1 485.5 710.4863)" class="st16 st17 st19">-------------------- </text>
	<text transform="matrix(1 0 0 1 485.5 731.4863)" class="st18 st20">[1] </text>
	<text transform="matrix(1 0 0 1 503.1152 731.4863)" class="st16 st20">Zitatquelle, URL, Seitenabrufdatum  </text>
	<text transform="matrix(1 0 0 1 485.5 752.4863)" class="st18 st20">[2]</text>
	<text transform="matrix(1 0 0 1 500.0791 752.4863)" class="st16 st20"> Zitatquelle, URL, Seitenabrufdatum</text>
</g>
<g>
	<path d="M76.4,129.6h6.9v4.6H65.9l14-62.4h-6.3v-5h16.6l-2.4,9.6h0.4c1-1.4,2.1-2.7,3.3-4c1.2-1.3,2.6-2.4,4.1-3.4
		c1.5-1,3.1-1.8,4.9-2.3c1.8-0.6,3.6-0.8,5.7-0.8c3.4,0,6.3,1.2,8.5,3.5c2.2,2.3,3.3,6,3.3,11.1c0,4.7-0.8,9.2-2.3,13.6
		c-1.5,4.3-3.7,8.2-6.3,11.5c-2.7,3.3-5.8,6-9.4,8c-3.6,2-7.5,3-11.6,3c-1.1,0-2.1,0-2.9-0.1c-0.8-0.1-1.5-0.2-2.1-0.3
		c-0.6-0.2-1.2-0.3-1.8-0.5c-0.6-0.2-1.2-0.4-1.9-0.7L76.4,129.6z M101.3,71.9c-1.7,0-3.4,0.4-4.9,1.1c-1.6,0.7-3,1.7-4.2,2.7
		c-1.3,1.1-2.4,2.3-3.3,3.5c-0.9,1.3-1.6,2.5-2,3.6l-6,27.4c0.4,0.4,0.9,0.7,1.3,1s1,0.5,1.6,0.6c0.6,0.1,1.3,0.2,2.1,0.3
		c0.8,0.1,1.8,0.1,3,0.1c2.6,0,5.2-0.9,7.5-2.8s4.4-4.3,6.2-7.2c1.8-2.9,3.2-6.2,4.3-9.9c1.1-3.7,1.6-7.3,1.6-10.8
		c0-3.1-0.6-5.5-1.8-7.2S103.7,71.9,101.3,71.9z"/>
	<path d="M127,66.9h9.9l2.7-10.7h8.6l-2.5,10.7h12.6v5h-13.7l-7.3,28.1c-0.3,1.2-0.5,2.4-0.7,3.3c-0.1,1-0.2,2-0.2,3.1
		c0,2.9,1.6,4.3,4.9,4.3c1.7,0,3.6-0.4,5.7-1.2c2.1-0.8,4-1.9,5.6-3.3l2,3.7c-0.7,0.7-1.6,1.5-2.8,2.3c-1.2,0.8-2.6,1.5-4.1,2.2
		c-1.6,0.7-3.3,1.2-5.1,1.6c-1.9,0.4-3.8,0.6-5.8,0.6c-3,0-5.4-0.7-7.1-2.2c-1.7-1.5-2.5-3.4-2.5-5.7c0-1,0-2,0.1-3.1
		c0.1-1.1,0.2-2.2,0.6-3.4l7.6-30.3H127V66.9z"/>
</g>
<g>
	<g>
		<path class="st4" d="M195.5,71.9v2.7h-1.9v-8h2.8c0.6,0,1,0.1,1.5,0.2s0.7,0.3,1,0.6c0.3,0.2,0.5,0.5,0.6,0.8
			c0.1,0.3,0.2,0.7,0.2,1c0,0.4-0.1,0.8-0.2,1.1c-0.1,0.3-0.3,0.6-0.6,0.9c-0.3,0.2-0.6,0.4-1,0.6c-0.4,0.1-0.9,0.2-1.4,0.2H195.5z
			 M195.5,70.5h1c0.5,0,0.8-0.1,1-0.3c0.2-0.2,0.3-0.6,0.3-1c0-0.2,0-0.4-0.1-0.5c-0.1-0.1-0.1-0.3-0.2-0.4
			c-0.1-0.1-0.3-0.2-0.4-0.2s-0.4-0.1-0.6-0.1h-1V70.5z"/>
		<path class="st4" d="M203,71.6v3h-1.9v-8h2.6c0.6,0,1.1,0.1,1.5,0.2c0.4,0.1,0.7,0.3,1,0.5c0.3,0.2,0.4,0.5,0.6,0.8
			c0.1,0.3,0.2,0.6,0.2,0.9c0,0.3,0,0.5-0.1,0.7c-0.1,0.2-0.2,0.4-0.3,0.6c-0.1,0.2-0.3,0.4-0.5,0.5c-0.2,0.2-0.4,0.3-0.7,0.4
			c0.1,0.1,0.2,0.1,0.3,0.2s0.2,0.2,0.3,0.3l1.7,2.8H206c-0.3,0-0.5-0.1-0.7-0.4l-1.3-2.3c-0.1-0.1-0.1-0.2-0.2-0.2
			c-0.1,0-0.2-0.1-0.3-0.1H203z M203,70.3h0.7c0.3,0,0.5,0,0.6-0.1c0.2-0.1,0.3-0.2,0.4-0.3c0.1-0.1,0.2-0.2,0.2-0.4
			c0.1-0.2,0.1-0.3,0.1-0.5c0-0.4-0.1-0.6-0.3-0.8c-0.2-0.2-0.6-0.3-1.1-0.3H203V70.3z"/>
		<path class="st4" d="M216.7,70.6c0,0.6-0.1,1.1-0.3,1.6c-0.2,0.5-0.5,0.9-0.8,1.3s-0.8,0.7-1.3,0.9s-1.1,0.3-1.7,0.3
			s-1.2-0.1-1.7-0.3s-1-0.5-1.3-0.9s-0.6-0.8-0.8-1.3c-0.2-0.5-0.3-1-0.3-1.6c0-0.6,0.1-1.1,0.3-1.6c0.2-0.5,0.5-0.9,0.8-1.3
			c0.4-0.4,0.8-0.7,1.3-0.9s1.1-0.3,1.7-0.3s1.2,0.1,1.7,0.3s0.9,0.5,1.3,0.9s0.6,0.8,0.8,1.3C216.6,69.5,216.7,70,216.7,70.6z
			 M214.8,70.6c0-0.4-0.1-0.8-0.2-1.1s-0.2-0.6-0.4-0.8c-0.2-0.2-0.4-0.4-0.7-0.5c-0.3-0.1-0.6-0.2-1-0.2c-0.4,0-0.7,0.1-1,0.2
			c-0.3,0.1-0.5,0.3-0.7,0.5c-0.2,0.2-0.3,0.5-0.4,0.8s-0.2,0.7-0.2,1.1c0,0.4,0.1,0.8,0.2,1.1c0.1,0.3,0.2,0.6,0.4,0.8
			c0.2,0.2,0.4,0.4,0.7,0.5c0.3,0.1,0.6,0.2,1,0.2c0.4,0,0.7-0.1,1-0.2c0.3-0.1,0.5-0.3,0.7-0.5c0.2-0.2,0.3-0.5,0.4-0.8
			C214.7,71.3,214.8,71,214.8,70.6z"/>
		<path class="st4" d="M223.3,66.6V68H220v2h2.7v1.4H220v3.1h-1.9v-8H223.3z"/>
		<path class="st4" d="M223.5,73.7c0-0.1,0-0.3,0.1-0.4c0-0.1,0.1-0.2,0.2-0.3c0.1-0.1,0.2-0.2,0.3-0.2c0.1,0,0.2-0.1,0.4-0.1
			c0.1,0,0.3,0,0.4,0.1c0.1,0,0.2,0.1,0.3,0.2c0.1,0.1,0.2,0.2,0.2,0.3c0,0.1,0.1,0.2,0.1,0.4s0,0.3-0.1,0.4c0,0.1-0.1,0.2-0.2,0.3
			s-0.2,0.2-0.3,0.2c-0.1,0-0.2,0.1-0.4,0.1c-0.1,0-0.3,0-0.4-0.1c-0.1,0-0.2-0.1-0.3-0.2c-0.1-0.1-0.2-0.2-0.2-0.3
			S223.5,73.8,223.5,73.7z"/>
		<path class="st4" d="M200.9,84.6c0,0.6-0.1,1.1-0.3,1.6c-0.2,0.5-0.5,0.9-0.8,1.3s-0.8,0.6-1.3,0.8c-0.5,0.2-1.1,0.3-1.7,0.3h-3.1
			v-8h3.1c0.6,0,1.2,0.1,1.7,0.3c0.5,0.2,0.9,0.5,1.3,0.8s0.6,0.8,0.8,1.3C200.8,83.5,200.9,84,200.9,84.6z M199,84.6
			c0-0.4-0.1-0.8-0.2-1.1s-0.2-0.6-0.4-0.8c-0.2-0.2-0.4-0.4-0.7-0.5s-0.6-0.2-1-0.2h-1.2v5.2h1.2c0.4,0,0.7-0.1,1-0.2
			s0.5-0.3,0.7-0.5c0.2-0.2,0.3-0.5,0.4-0.8S199,85,199,84.6z"/>
		<path class="st4" d="M204.2,85.6v3h-1.9v-8h2.6c0.6,0,1.1,0.1,1.5,0.2c0.4,0.1,0.7,0.3,1,0.5c0.3,0.2,0.4,0.5,0.6,0.8
			c0.1,0.3,0.2,0.6,0.2,0.9c0,0.3,0,0.5-0.1,0.7c-0.1,0.2-0.2,0.4-0.3,0.6c-0.1,0.2-0.3,0.4-0.5,0.5c-0.2,0.2-0.4,0.3-0.7,0.4
			c0.1,0.1,0.2,0.1,0.3,0.2s0.2,0.2,0.3,0.3l1.7,2.8h-1.7c-0.3,0-0.5-0.1-0.7-0.4l-1.3-2.3c-0.1-0.1-0.1-0.2-0.2-0.2
			c-0.1,0-0.2-0.1-0.3-0.1H204.2z M204.2,84.3h0.7c0.3,0,0.5,0,0.6-0.1c0.2-0.1,0.3-0.2,0.4-0.3c0.1-0.1,0.2-0.2,0.2-0.4
			c0.1-0.2,0.1-0.3,0.1-0.5c0-0.4-0.1-0.6-0.3-0.8c-0.2-0.2-0.6-0.3-1.1-0.3h-0.7V84.3z"/>
		<path class="st4" d="M209.9,87.7c0-0.1,0-0.3,0.1-0.4c0-0.1,0.1-0.2,0.2-0.3c0.1-0.1,0.2-0.2,0.3-0.2c0.1,0,0.2-0.1,0.4-0.1
			c0.1,0,0.3,0,0.4,0.1c0.1,0,0.2,0.1,0.3,0.2c0.1,0.1,0.2,0.2,0.2,0.3c0,0.1,0.1,0.2,0.1,0.4s0,0.3-0.1,0.4c0,0.1-0.1,0.2-0.2,0.3
			s-0.2,0.2-0.3,0.2c-0.1,0-0.2,0.1-0.4,0.1c-0.1,0-0.3,0-0.4-0.1c-0.1,0-0.2-0.1-0.3-0.2c-0.1-0.1-0.2-0.2-0.2-0.3
			S209.9,87.8,209.9,87.7z"/>
		<path class="st4" d="M195.5,99.9v2.7h-1.9v-8h2.8c0.6,0,1,0.1,1.5,0.2s0.7,0.3,1,0.6c0.3,0.2,0.5,0.5,0.6,0.8
			c0.1,0.3,0.2,0.7,0.2,1c0,0.4-0.1,0.8-0.2,1.1c-0.1,0.3-0.3,0.6-0.6,0.9c-0.3,0.2-0.6,0.4-1,0.6c-0.4,0.1-0.9,0.2-1.4,0.2H195.5z
			 M195.5,98.5h1c0.5,0,0.8-0.1,1-0.3c0.2-0.2,0.3-0.6,0.3-1c0-0.2,0-0.4-0.1-0.5c-0.1-0.1-0.1-0.3-0.2-0.4
			c-0.1-0.1-0.3-0.2-0.4-0.2s-0.4-0.1-0.6-0.1h-1V98.5z"/>
		<path class="st4" d="M206.3,94.6V96H203v1.9h2.5v1.4H203v1.9h3.3v1.4h-5.2v-8H206.3z"/>
		<path class="st4" d="M213.8,94.6V96h-2.3v6.5h-1.9V96h-2.3v-1.5H213.8z"/>
		<path class="st4" d="M220.2,94.6V96h-3.3v1.9h2.5v1.4h-2.5v1.9h3.3v1.4h-5.2v-8H220.2z"/>
		<path class="st4" d="M223.7,99.6v3h-1.9v-8h2.6c0.6,0,1.1,0.1,1.5,0.2c0.4,0.1,0.7,0.3,1,0.5c0.3,0.2,0.4,0.5,0.6,0.8
			c0.1,0.3,0.2,0.6,0.2,0.9c0,0.3,0,0.5-0.1,0.7c-0.1,0.2-0.2,0.4-0.3,0.6c-0.1,0.2-0.3,0.4-0.5,0.5c-0.2,0.2-0.4,0.3-0.7,0.4
			c0.1,0.1,0.2,0.1,0.3,0.2s0.2,0.2,0.3,0.3l1.7,2.8h-1.7c-0.3,0-0.5-0.1-0.7-0.4l-1.3-2.3c-0.1-0.1-0.1-0.2-0.2-0.2
			c-0.1,0-0.2-0.1-0.3-0.1H223.7z M223.7,98.3h0.7c0.3,0,0.5,0,0.6-0.1c0.2-0.1,0.3-0.2,0.4-0.3c0.1-0.1,0.2-0.2,0.2-0.4
			c0.1-0.2,0.1-0.3,0.1-0.5c0-0.4-0.1-0.6-0.3-0.8c-0.2-0.2-0.6-0.3-1.1-0.3h-0.7V98.3z"/>
		<path class="st4" d="M199.4,108.6v1.5h-2.3v6.5h-1.9V110h-2.3v-1.5H199.4z"/>
		<path class="st4" d="M202.6,113.6v3h-1.9v-8h2.6c0.6,0,1.1,0.1,1.5,0.2c0.4,0.1,0.7,0.3,1,0.5c0.3,0.2,0.4,0.5,0.6,0.8
			c0.1,0.3,0.2,0.6,0.2,0.9c0,0.3,0,0.5-0.1,0.7c-0.1,0.2-0.2,0.4-0.3,0.6c-0.1,0.2-0.3,0.4-0.5,0.5c-0.2,0.2-0.4,0.3-0.7,0.4
			c0.1,0.1,0.2,0.1,0.3,0.2s0.2,0.2,0.3,0.3l1.7,2.8h-1.7c-0.3,0-0.5-0.1-0.7-0.4l-1.3-2.3c-0.1-0.1-0.1-0.2-0.2-0.2
			c-0.1,0-0.2-0.1-0.3-0.1H202.6z M202.6,112.3h0.7c0.3,0,0.5,0,0.6-0.1c0.2-0.1,0.3-0.2,0.4-0.3c0.1-0.1,0.2-0.2,0.2-0.4
			c0.1-0.2,0.1-0.3,0.1-0.5c0-0.4-0.1-0.6-0.3-0.8c-0.2-0.2-0.6-0.3-1.1-0.3h-0.7V112.3z"/>
		<path class="st4" d="M211.6,115.1c0.2,0,0.5,0,0.7-0.1c0.2-0.1,0.4-0.2,0.5-0.4c0.1-0.2,0.2-0.3,0.3-0.6s0.1-0.5,0.1-0.8v-4.7h1.9
			v4.7c0,0.5-0.1,0.9-0.2,1.4c-0.2,0.4-0.4,0.8-0.7,1.1s-0.7,0.5-1.1,0.7c-0.4,0.2-0.9,0.2-1.4,0.2c-0.5,0-1-0.1-1.4-0.2
			c-0.4-0.2-0.8-0.4-1.1-0.7s-0.5-0.7-0.7-1.1c-0.2-0.4-0.2-0.9-0.2-1.4v-4.7h1.9v4.7c0,0.3,0,0.5,0.1,0.8c0.1,0.2,0.2,0.4,0.3,0.6
			c0.1,0.2,0.3,0.3,0.5,0.4C211.1,115.1,211.4,115.1,211.6,115.1z M211.3,107.4c0,0.1,0,0.2-0.1,0.3s-0.1,0.2-0.2,0.3
			c-0.1,0.1-0.2,0.1-0.3,0.2c-0.1,0-0.2,0.1-0.3,0.1c-0.1,0-0.2,0-0.3-0.1c-0.1,0-0.2-0.1-0.3-0.2s-0.1-0.2-0.2-0.3
			s-0.1-0.2-0.1-0.3c0-0.1,0-0.2,0.1-0.3c0-0.1,0.1-0.2,0.2-0.3c0.1-0.1,0.2-0.1,0.3-0.2c0.1,0,0.2-0.1,0.3-0.1c0.1,0,0.2,0,0.3,0.1
			c0.1,0,0.2,0.1,0.3,0.2c0.1,0.1,0.1,0.2,0.2,0.3C211.2,107.2,211.3,107.3,211.3,107.4z M213.7,107.4c0,0.1,0,0.2-0.1,0.3
			s-0.1,0.2-0.2,0.3c-0.1,0.1-0.2,0.1-0.3,0.2s-0.2,0.1-0.3,0.1s-0.2,0-0.3-0.1s-0.2-0.1-0.3-0.2c-0.1-0.1-0.1-0.2-0.2-0.3
			s-0.1-0.2-0.1-0.3c0-0.1,0-0.2,0.1-0.3c0-0.1,0.1-0.2,0.2-0.3c0.1-0.1,0.2-0.1,0.3-0.2s0.2-0.1,0.3-0.1s0.2,0,0.3,0.1
			s0.2,0.1,0.3,0.2c0.1,0.1,0.1,0.2,0.2,0.3C213.7,107.2,213.7,107.3,213.7,107.4z"/>
		<path class="st4" d="M216.8,116.6v-8h2.9c0.6,0,1,0.1,1.4,0.2s0.7,0.2,1,0.4c0.2,0.2,0.4,0.4,0.5,0.7c0.1,0.3,0.2,0.6,0.2,0.9
			c0,0.2,0,0.4-0.1,0.5c-0.1,0.2-0.1,0.3-0.2,0.5c-0.1,0.1-0.3,0.3-0.4,0.4c-0.2,0.1-0.4,0.2-0.6,0.3c0.5,0.1,0.9,0.3,1.2,0.6
			s0.4,0.7,0.4,1.1c0,0.3-0.1,0.7-0.2,1s-0.3,0.5-0.6,0.8c-0.3,0.2-0.6,0.4-0.9,0.5c-0.4,0.1-0.8,0.2-1.3,0.2H216.8z M218.7,111.9h1
			c0.2,0,0.4,0,0.6,0c0.2,0,0.3-0.1,0.4-0.2c0.1-0.1,0.2-0.2,0.3-0.3c0.1-0.1,0.1-0.3,0.1-0.5c0-0.2,0-0.3-0.1-0.5
			c0-0.1-0.1-0.2-0.2-0.3c-0.1-0.1-0.2-0.1-0.4-0.2s-0.3,0-0.5,0h-1.1V111.9z M218.7,113.2v2h1.3c0.2,0,0.4,0,0.6-0.1
			c0.2-0.1,0.3-0.1,0.4-0.2c0.1-0.1,0.1-0.2,0.2-0.3c0-0.1,0-0.3,0-0.4c0-0.1,0-0.3-0.1-0.4c0-0.1-0.1-0.2-0.2-0.3
			c-0.1-0.1-0.2-0.1-0.4-0.2c-0.2,0-0.3-0.1-0.6-0.1H218.7z"/>
		<path class="st4" d="M225.8,108.6c0.1,0,0.1,0,0.1,0c0,0,0.1,0,0.1,0.1c0,0,0.1,0.1,0.1,0.1l3.8,4.8c0-0.2,0-0.3,0-0.4
			c0-0.1,0-0.3,0-0.4v-4.2h1.6v8h-1c-0.1,0-0.3,0-0.4-0.1c-0.1,0-0.2-0.1-0.3-0.2l-3.8-4.8c0,0.1,0,0.3,0,0.4c0,0.1,0,0.3,0,0.4v4.3
			h-1.6v-8h1C225.6,108.6,225.7,108.6,225.8,108.6z"/>
		<path class="st4" d="M238.6,108.6v1.4h-3.3v1.9h2.5v1.4h-2.5v1.9h3.3v1.4h-5.2v-8H238.6z"/>
		<path class="st4" d="M242.1,113.6v3h-1.9v-8h2.6c0.6,0,1.1,0.1,1.5,0.2c0.4,0.1,0.7,0.3,1,0.5c0.3,0.2,0.4,0.5,0.6,0.8
			c0.1,0.3,0.2,0.6,0.2,0.9c0,0.3,0,0.5-0.1,0.7c-0.1,0.2-0.2,0.4-0.3,0.6c-0.1,0.2-0.3,0.4-0.5,0.5c-0.2,0.2-0.4,0.3-0.7,0.4
			c0.1,0.1,0.2,0.1,0.3,0.2s0.2,0.2,0.3,0.3l1.7,2.8h-1.7c-0.3,0-0.5-0.1-0.7-0.4l-1.3-2.3c-0.1-0.1-0.1-0.2-0.2-0.2
			c-0.1,0-0.2-0.1-0.3-0.1H242.1z M242.1,112.3h0.7c0.3,0,0.5,0,0.6-0.1c0.2-0.1,0.3-0.2,0.4-0.3c0.1-0.1,0.2-0.2,0.2-0.4
			c0.1-0.2,0.1-0.3,0.1-0.5c0-0.4-0.1-0.6-0.3-0.8c-0.2-0.2-0.6-0.3-1.1-0.3h-0.7V112.3z"/>
	</g>
</g>
<g>
	<line class="st5" x1="174.5" y1="56" x2="174.5" y2="127"/>
	<rect x="174" y="56" width="1" height="71"/>
</g>
<g>
	<text transform="matrix(1 0 0 1 756.6064 163.0742)" class="st9 st21">Publikationsliste</text>
</g>
<g>
	<g>
		<line class="st7" x1="174.5" y1="1022" x2="174.5" y2="1040.5"/>
		<rect x="195.9" y="1025.5" class="st12" width="1071.1" height="61"/>
		<text transform="matrix(1 0 0 1 195.9453 1033.7393)" class="st13 st22">Copyright 2019    Prof. Dr. Peter Trübner    Alexander Moserstrasse 32a    CH-2503 Biel/Bienne    Schweiz</text>
	</g>
</g>
<g>
	<polyline class="st1" points="174.7,295.2 180,300.5 174.7,305.8 	"/>
	
		<rect x="170" y="296.6" transform="matrix(0.7071 0.7071 -0.7071 0.7071 263.4236 -34.9608)" class="st6" width="7.7" height="7.7"/>
</g>
<g>
	<polyline class="st1" points="1140.2,178.8 1110,148.5 1140.2,118.2 	"/>
</g>
<g>
	<defs>
		<circle id="SVGID_5_" cx="175" cy="929" r="71"/>
	</defs>
	<clipPath id="SVGID_6_">
		<use xlink:href="#SVGID_5_"  style="overflow:visible;"/>
	</clipPath>
	<g style="clip-path:url(#SVGID_6_);">
		
			<image style="overflow:visible;" width="3056" height="4592" xlink:href="8DDE3D3001FBB875.jpg"  transform="matrix(0.1053 0 0 0.1053 -5.6603 789)">
		</image>
	</g>
	<g style="clip-path:url(#SVGID_6_);">
		
			<image style="overflow:visible;" width="3056" height="4592" xlink:href="8DDE3D3001FBB877.jpg"  transform="matrix(0.1276 0 0 0.1276 -43.0967 763.4169)">
		</image>
	</g>
</g>
<line class="st23" x1="650.5" y1="417" x2="766.5" y2="417"/>
<line class="st24" x1="-170.1" y1="1148.6" x2="-132.9" y2="1148.6"/>
<line class="st24" x1="-170.1" y1="1159" x2="-132.9" y2="1159"/>
<line class="st24" x1="-170.1" y1="1169.4" x2="-132.9" y2="1169.4"/>
<line class="st0" x1="144.5" y1="1192" x2="144.5" y2="2102.5"/>
<circle class="st1" cx="145" cy="1997" r="64.4"/>
<g>
	<rect x="165.5" y="1310" class="st12" width="313.5" height="652"/>
	<text transform="matrix(1 0 0 1 165.5 1320.4858)" class="st13 st14 st15">1. Bücher</text>
	<text transform="matrix(1 0 0 1 165.5 1345.4858)" class="st16 st17">„Das zerstörte Ich. Heroinsüchtige zwischen </text>
	<text transform="matrix(1 0 0 1 165.5 1370.4858)" class="st16 st17">Bestrafung und Betreuung.“</text>
	<text transform="matrix(1 0 0 1 165.5 1395.4858)" class="st16 st17">Beltz Verlag 1996</text>
	<text transform="matrix(1 0 0 1 165.5 1420.4858)" class="st16 st17">„Das zerstörte Ich“ ist eine Analyse der ge</text>
	<text transform="matrix(1 0 0 1 450.1675 1420.4858)" class="st16 st17">-</text>
	<text transform="matrix(1 0 0 1 165.5 1445.4858)" class="st16 st17">sellschaftlichen und individuellen Mechanis</text>
	<text transform="matrix(1 0 0 1 465.4624 1445.4858)" class="st16 st17">-</text>
	<text transform="matrix(1 0 0 1 165.5 1470.4858)" class="st16 st17">me er ist das Drogenproblem kein Projekt. ... </text>
	<text transform="matrix(1 0 0 1 165.5 1495.4858)" class="st16 st17">Er zeigt, dass es trotz aller Kritik am vorherr</text>
	<text transform="matrix(1 0 0 1 465.4155 1495.4858)" class="st16 st17">-</text>
	<text transform="matrix(1 0 0 1 165.5 1520.4858)" class="st16 st17">schenden klaren humanistischen Standpunkt </text>
	<text transform="matrix(1 0 0 1 165.5 1545.4863)" class="st16 st17">durchzuhalten und das Abrutschen in die </text>
	<text transform="matrix(1 0 0 1 165.5 1570.4863)" class="st16 st17">Beliebigkeit zu vermeiden.“</text>
	<text transform="matrix(1 0 0 1 165.5 1620.4863)" class="st18 st17">Als Herausgeber:  </text>
	<text transform="matrix(1 0 0 1 165.5 1645.4863)" class="st16 st17">„Das Heisse und das Kalte. Kunst und Gesell</text>
	<text transform="matrix(1 0 0 1 466.7593 1645.4863)" class="st16 st17">-</text>
	<text transform="matrix(1 0 0 1 165.5 1670.4863)" class="st16 st17">schaft.“ </text>
	<text transform="matrix(0.583 0 0 0.583 219.8027 1665.8242)" class="st18 st14">[1]</text>
	<text transform="matrix(1 0 0 1 165.5 1695.4863)" class="st16 st17">Peter Lang Verlag 1997</text>
	<text transform="matrix(1 0 0 1 165.5 1720.4863)" class="st16 st17">Mit Beiträgen von Urs Jaeggi, Axel Honneth, </text>
	<text transform="matrix(1 0 0 1 165.5 1745.4863)" class="st16 st17">Jean Ziegesellschaftliche Entwicklungen im </text>
	<text transform="matrix(1 0 0 1 165.5 1770.4863)" class="st16 st17">Interesse der Menschen voranzutreiben.  </text>
	<text transform="matrix(1 0 0 1 165.5 1795.4863)" class="st16 st17"> </text>
	<text transform="matrix(1 0 0 1 165.5 1819.4863)" class="st16 st17"> </text>
	<text transform="matrix(1 0 0 1 165.5 1843.4863)" class="st16 st17 st19">-------------------- </text>
	<text transform="matrix(1 0 0 1 165.5 1864.4863)" class="st18 st20">[1] </text>
	<text transform="matrix(1 0 0 1 183.1152 1864.4863)" class="st16 st20">Zitatquelle, URL, Seitenabrufdatum  </text>
	<text transform="matrix(1 0 0 1 165.5 1885.4863)" class="st18 st20">[2]</text>
	<text transform="matrix(1 0 0 1 180.0791 1885.4863)" class="st16 st20"> Zitatquelle, URL, Seitenabrufdatum</text>
</g>
<g>
	<path d="M65.4,1192.7h5.5v3.7H57l11.2-49.9h-5.1v-4h13.3l-1.9,7.7h0.3c0.8-1.1,1.7-2.1,2.7-3.2c1-1,2.1-1.9,3.3-2.7
		c1.2-0.8,2.5-1.4,3.9-1.9c1.4-0.4,2.9-0.7,4.5-0.7c2.8,0,5,0.9,6.8,2.8c1.8,1.9,2.7,4.8,2.7,8.9c0,3.8-0.6,7.4-1.9,10.9
		c-1.2,3.5-2.9,6.5-5.1,9.2c-2.1,2.7-4.7,4.8-7.6,6.4c-2.9,1.6-6,2.4-9.3,2.4c-0.9,0-1.7,0-2.3-0.1c-0.6,0-1.2-0.1-1.7-0.3
		c-0.5-0.1-1-0.3-1.4-0.4c-0.5-0.1-1-0.3-1.5-0.6L65.4,1192.7z M85.3,1146.5c-1.4,0-2.7,0.3-3.9,0.9c-1.3,0.6-2.4,1.3-3.4,2.2
		c-1,0.9-1.9,1.8-2.6,2.8c-0.7,1-1.3,2-1.6,2.9l-4.8,21.9c0.3,0.3,0.7,0.6,1.1,0.8s0.8,0.4,1.3,0.5c0.5,0.1,1,0.2,1.7,0.2
		c0.6,0,1.4,0.1,2.4,0.1c2.1,0,4.1-0.7,6-2.2c1.9-1.5,3.6-3.4,5-5.8c1.4-2.4,2.6-5,3.4-7.9c0.9-2.9,1.3-5.8,1.3-8.6
		c0-2.5-0.5-4.4-1.4-5.7C88.6,1147.2,87.2,1146.5,85.3,1146.5z"/>
	<path d="M105.9,1142.5h7.9l2.2-8.6h6.9l-2,8.6H131v4H120l-5.8,22.5c-0.2,1-0.4,1.9-0.5,2.7c-0.1,0.8-0.1,1.6-0.1,2.5
		c0,2.3,1.3,3.4,3.9,3.4c1.3,0,2.9-0.3,4.6-0.9c1.7-0.6,3.2-1.5,4.5-2.6l1.6,3c-0.5,0.6-1.3,1.2-2.3,1.9c-1,0.6-2.1,1.2-3.3,1.7
		c-1.2,0.5-2.6,0.9-4.1,1.3c-1.5,0.3-3,0.5-4.6,0.5c-2.4,0-4.3-0.6-5.7-1.8c-1.3-1.2-2-2.7-2-4.5c0-0.8,0-1.6,0.1-2.5
		c0-0.9,0.2-1.8,0.4-2.7l6.1-24.3h-6.8V1142.5z"/>
</g>
<g>
	<g>
		<path class="st4" d="M160.6,1146.5v2.1h-1.5v-6.4h2.3c0.5,0,0.8,0.1,1.2,0.2s0.6,0.3,0.8,0.4c0.2,0.2,0.4,0.4,0.5,0.7
			c0.1,0.3,0.1,0.5,0.1,0.8c0,0.3-0.1,0.6-0.2,0.9c-0.1,0.3-0.3,0.5-0.5,0.7c-0.2,0.2-0.5,0.3-0.8,0.4c-0.3,0.1-0.7,0.2-1.1,0.2
			H160.6z M160.6,1145.4h0.8c0.4,0,0.7-0.1,0.8-0.3c0.2-0.2,0.3-0.4,0.3-0.8c0-0.1,0-0.3-0.1-0.4c0-0.1-0.1-0.2-0.2-0.3
			c-0.1-0.1-0.2-0.2-0.3-0.2s-0.3-0.1-0.5-0.1h-0.8V1145.4z"/>
		<path class="st4" d="M166.7,1146.3v2.4h-1.5v-6.4h2.1c0.5,0,0.9,0,1.2,0.1c0.3,0.1,0.6,0.2,0.8,0.4c0.2,0.2,0.4,0.4,0.5,0.6
			c0.1,0.2,0.1,0.5,0.1,0.8c0,0.2,0,0.4-0.1,0.6c-0.1,0.2-0.1,0.4-0.2,0.5c-0.1,0.2-0.2,0.3-0.4,0.4c-0.2,0.1-0.3,0.2-0.6,0.3
			c0.1,0,0.2,0.1,0.3,0.2c0.1,0.1,0.2,0.2,0.2,0.3l1.4,2.2h-1.3c-0.2,0-0.4-0.1-0.5-0.3l-1.1-1.9c0-0.1-0.1-0.1-0.2-0.2
			c-0.1,0-0.2-0.1-0.3-0.1H166.7z M166.7,1145.3h0.6c0.2,0,0.4,0,0.5-0.1c0.1-0.1,0.3-0.1,0.3-0.2c0.1-0.1,0.2-0.2,0.2-0.3
			c0-0.1,0.1-0.3,0.1-0.4c0-0.3-0.1-0.5-0.3-0.7c-0.2-0.2-0.5-0.2-0.9-0.2h-0.6V1145.3z"/>
		<path class="st4" d="M177.6,1145.5c0,0.5-0.1,0.9-0.2,1.3c-0.2,0.4-0.4,0.7-0.7,1c-0.3,0.3-0.6,0.5-1,0.7
			c-0.4,0.2-0.9,0.3-1.4,0.3c-0.5,0-1-0.1-1.4-0.3c-0.4-0.2-0.8-0.4-1.1-0.7c-0.3-0.3-0.5-0.6-0.7-1c-0.2-0.4-0.2-0.8-0.2-1.3
			c0-0.5,0.1-0.9,0.2-1.3c0.2-0.4,0.4-0.7,0.7-1c0.3-0.3,0.6-0.5,1.1-0.7s0.9-0.3,1.4-0.3c0.5,0,1,0.1,1.4,0.3
			c0.4,0.2,0.8,0.4,1,0.7c0.3,0.3,0.5,0.6,0.7,1C177.5,1144.6,177.6,1145,177.6,1145.5z M176.1,1145.5c0-0.3,0-0.6-0.1-0.9
			s-0.2-0.5-0.4-0.6c-0.2-0.2-0.3-0.3-0.6-0.4c-0.2-0.1-0.5-0.1-0.8-0.1c-0.3,0-0.5,0-0.8,0.1c-0.2,0.1-0.4,0.2-0.6,0.4
			c-0.2,0.2-0.3,0.4-0.4,0.6s-0.1,0.5-0.1,0.9c0,0.3,0,0.6,0.1,0.9c0.1,0.3,0.2,0.5,0.4,0.6c0.2,0.2,0.3,0.3,0.6,0.4
			c0.2,0.1,0.5,0.1,0.8,0.1c0.3,0,0.5,0,0.8-0.1c0.2-0.1,0.4-0.2,0.6-0.4c0.2-0.2,0.3-0.4,0.4-0.6
			C176,1146.1,176.1,1145.8,176.1,1145.5z"/>
		<path class="st4" d="M182.9,1142.3v1.1h-2.6v1.6h2.2v1.1h-2.2v2.5h-1.5v-6.4H182.9z"/>
		<path class="st4" d="M183,1148c0-0.1,0-0.2,0.1-0.3c0-0.1,0.1-0.2,0.2-0.2c0.1-0.1,0.2-0.1,0.2-0.2c0.1,0,0.2-0.1,0.3-0.1
			c0.1,0,0.2,0,0.3,0.1c0.1,0,0.2,0.1,0.2,0.2c0.1,0.1,0.1,0.1,0.2,0.2c0,0.1,0.1,0.2,0.1,0.3s0,0.2-0.1,0.3c0,0.1-0.1,0.2-0.2,0.2
			c-0.1,0.1-0.2,0.1-0.2,0.2c-0.1,0-0.2,0.1-0.3,0.1c-0.1,0-0.2,0-0.3-0.1c-0.1,0-0.2-0.1-0.2-0.2c-0.1-0.1-0.1-0.1-0.2-0.2
			C183.1,1148.2,183,1148.1,183,1148z"/>
		<path class="st4" d="M165,1156.7c0,0.5-0.1,0.9-0.2,1.3c-0.2,0.4-0.4,0.7-0.7,1c-0.3,0.3-0.6,0.5-1,0.7c-0.4,0.2-0.9,0.2-1.4,0.2
			h-2.5v-6.4h2.5c0.5,0,1,0.1,1.4,0.2c0.4,0.2,0.8,0.4,1,0.7c0.3,0.3,0.5,0.6,0.7,1C164.9,1155.8,165,1156.2,165,1156.7z
			 M163.5,1156.7c0-0.3,0-0.6-0.1-0.9s-0.2-0.5-0.4-0.6c-0.2-0.2-0.3-0.3-0.6-0.4s-0.5-0.1-0.8-0.1h-1v4.1h1c0.3,0,0.5,0,0.8-0.1
			c0.2-0.1,0.4-0.2,0.6-0.4c0.2-0.2,0.3-0.4,0.4-0.6C163.4,1157.3,163.5,1157,163.5,1156.7z"/>
		<path class="st4" d="M167.6,1157.5v2.4h-1.5v-6.4h2.1c0.5,0,0.9,0,1.2,0.1c0.3,0.1,0.6,0.2,0.8,0.4c0.2,0.2,0.4,0.4,0.5,0.6
			c0.1,0.2,0.1,0.5,0.1,0.8c0,0.2,0,0.4-0.1,0.6c-0.1,0.2-0.1,0.4-0.2,0.5c-0.1,0.2-0.2,0.3-0.4,0.4c-0.2,0.1-0.3,0.2-0.6,0.3
			c0.1,0.1,0.2,0.1,0.3,0.2c0.1,0.1,0.2,0.2,0.2,0.3l1.4,2.2H170c-0.2,0-0.4-0.1-0.5-0.3l-1.1-1.9c0-0.1-0.1-0.1-0.2-0.2
			c-0.1,0-0.2-0.1-0.3-0.1H167.6z M167.6,1156.5h0.6c0.2,0,0.4,0,0.5-0.1c0.1-0.1,0.3-0.1,0.4-0.2c0.1-0.1,0.2-0.2,0.2-0.3
			c0-0.1,0.1-0.3,0.1-0.4c0-0.3-0.1-0.5-0.3-0.7c-0.2-0.2-0.5-0.2-0.9-0.2h-0.6V1156.5z"/>
		<path class="st4" d="M172.2,1159.2c0-0.1,0-0.2,0.1-0.3c0-0.1,0.1-0.2,0.2-0.2c0.1-0.1,0.2-0.1,0.2-0.2c0.1,0,0.2-0.1,0.3-0.1
			c0.1,0,0.2,0,0.3,0.1c0.1,0,0.2,0.1,0.2,0.2c0.1,0.1,0.1,0.1,0.2,0.2c0,0.1,0.1,0.2,0.1,0.3s0,0.2-0.1,0.3c0,0.1-0.1,0.2-0.2,0.2
			c-0.1,0.1-0.2,0.1-0.2,0.2c-0.1,0-0.2,0.1-0.3,0.1c-0.1,0-0.2,0-0.3-0.1c-0.1,0-0.2-0.1-0.2-0.2c-0.1-0.1-0.1-0.1-0.2-0.2
			C172.2,1159.4,172.2,1159.3,172.2,1159.2z"/>
		<path class="st4" d="M160.6,1168.9v2.1h-1.5v-6.4h2.3c0.5,0,0.8,0.1,1.2,0.2s0.6,0.3,0.8,0.4c0.2,0.2,0.4,0.4,0.5,0.7
			c0.1,0.3,0.1,0.5,0.1,0.8c0,0.3-0.1,0.6-0.2,0.9c-0.1,0.3-0.3,0.5-0.5,0.7c-0.2,0.2-0.5,0.3-0.8,0.4c-0.3,0.1-0.7,0.2-1.1,0.2
			H160.6z M160.6,1167.8h0.8c0.4,0,0.7-0.1,0.8-0.3c0.2-0.2,0.3-0.4,0.3-0.8c0-0.1,0-0.3-0.1-0.4c0-0.1-0.1-0.2-0.2-0.3
			c-0.1-0.1-0.2-0.2-0.3-0.2s-0.3-0.1-0.5-0.1h-0.8V1167.8z"/>
		<path class="st4" d="M169.3,1164.7v1.1h-2.6v1.5h2v1.1h-2v1.5h2.6v1.1h-4.1v-6.4H169.3z"/>
		<path class="st4" d="M175.3,1164.7v1.2h-1.8v5.2H172v-5.2h-1.8v-1.2H175.3z"/>
		<path class="st4" d="M180.5,1164.7v1.1h-2.6v1.5h2v1.1h-2v1.5h2.6v1.1h-4.1v-6.4H180.5z"/>
		<path class="st4" d="M183.2,1168.7v2.4h-1.5v-6.4h2.1c0.5,0,0.9,0,1.2,0.1c0.3,0.1,0.6,0.2,0.8,0.4c0.2,0.2,0.4,0.4,0.5,0.6
			c0.1,0.2,0.1,0.5,0.1,0.8c0,0.2,0,0.4-0.1,0.6c-0.1,0.2-0.1,0.4-0.2,0.5c-0.1,0.2-0.2,0.3-0.4,0.4c-0.2,0.1-0.3,0.2-0.6,0.3
			c0.1,0.1,0.2,0.1,0.3,0.2c0.1,0.1,0.2,0.2,0.2,0.3l1.4,2.2h-1.3c-0.2,0-0.4-0.1-0.5-0.3l-1.1-1.9c0-0.1-0.1-0.1-0.2-0.2
			c-0.1,0-0.2-0.1-0.3-0.1H183.2z M183.2,1167.7h0.6c0.2,0,0.4,0,0.5-0.1c0.1-0.1,0.3-0.1,0.3-0.2c0.1-0.1,0.2-0.2,0.2-0.3
			c0-0.1,0.1-0.3,0.1-0.4c0-0.3-0.1-0.5-0.3-0.7c-0.2-0.2-0.5-0.2-0.9-0.2h-0.6V1167.7z"/>
		<path class="st4" d="M163.8,1175.9v1.2H162v5.2h-1.5v-5.2h-1.8v-1.2H163.8z"/>
		<path class="st4" d="M166.4,1179.9v2.4h-1.5v-6.4h2.1c0.5,0,0.9,0,1.2,0.1c0.3,0.1,0.6,0.2,0.8,0.4c0.2,0.2,0.4,0.4,0.5,0.6
			c0.1,0.2,0.1,0.5,0.1,0.8c0,0.2,0,0.4-0.1,0.6c-0.1,0.2-0.1,0.4-0.2,0.5c-0.1,0.2-0.2,0.3-0.4,0.4c-0.2,0.1-0.3,0.2-0.6,0.3
			c0.1,0,0.2,0.1,0.3,0.2c0.1,0.1,0.2,0.2,0.2,0.3l1.4,2.2h-1.3c-0.2,0-0.4-0.1-0.5-0.3l-1.1-1.9c0-0.1-0.1-0.1-0.2-0.2
			c-0.1,0-0.2-0.1-0.3-0.1H166.4z M166.4,1178.9h0.6c0.2,0,0.4,0,0.5-0.1c0.1-0.1,0.3-0.1,0.4-0.2c0.1-0.1,0.2-0.2,0.2-0.3
			c0-0.1,0.1-0.3,0.1-0.4c0-0.3-0.1-0.5-0.3-0.7c-0.2-0.2-0.5-0.2-0.9-0.2h-0.6V1178.9z"/>
		<path class="st4" d="M173.6,1181.1c0.2,0,0.4,0,0.5-0.1c0.2-0.1,0.3-0.2,0.4-0.3c0.1-0.1,0.2-0.3,0.2-0.5s0.1-0.4,0.1-0.6v-3.8
			h1.5v3.8c0,0.4-0.1,0.8-0.2,1.1c-0.1,0.3-0.3,0.6-0.5,0.8c-0.2,0.2-0.5,0.4-0.9,0.6c-0.3,0.1-0.7,0.2-1.1,0.2
			c-0.4,0-0.8-0.1-1.2-0.2c-0.3-0.1-0.6-0.3-0.9-0.6c-0.2-0.2-0.4-0.5-0.5-0.8c-0.1-0.3-0.2-0.7-0.2-1.1v-3.8h1.5v3.8
			c0,0.2,0,0.4,0.1,0.6c0.1,0.2,0.1,0.3,0.2,0.5c0.1,0.1,0.2,0.2,0.4,0.3C173.2,1181.1,173.4,1181.1,173.6,1181.1z M173.3,1175
			c0,0.1,0,0.2-0.1,0.3c0,0.1-0.1,0.1-0.2,0.2c-0.1,0.1-0.1,0.1-0.2,0.1c-0.1,0-0.2,0.1-0.3,0.1c-0.1,0-0.2,0-0.3-0.1
			c-0.1,0-0.2-0.1-0.2-0.1c-0.1-0.1-0.1-0.1-0.1-0.2c0-0.1-0.1-0.2-0.1-0.3c0-0.1,0-0.2,0.1-0.3c0-0.1,0.1-0.2,0.1-0.2
			c0.1-0.1,0.1-0.1,0.2-0.1c0.1,0,0.2-0.1,0.3-0.1c0.1,0,0.2,0,0.3,0.1c0.1,0,0.2,0.1,0.2,0.1c0.1,0.1,0.1,0.1,0.2,0.2
			C173.3,1174.8,173.3,1174.9,173.3,1175z M175.2,1175c0,0.1,0,0.2-0.1,0.3c0,0.1-0.1,0.1-0.1,0.2c-0.1,0.1-0.1,0.1-0.2,0.1
			c-0.1,0-0.2,0.1-0.3,0.1s-0.2,0-0.3-0.1c-0.1,0-0.2-0.1-0.2-0.1c-0.1-0.1-0.1-0.1-0.1-0.2c0-0.1-0.1-0.2-0.1-0.3
			c0-0.1,0-0.2,0.1-0.3c0-0.1,0.1-0.2,0.1-0.2c0.1-0.1,0.1-0.1,0.2-0.1c0.1,0,0.2-0.1,0.3-0.1s0.2,0,0.3,0.1c0.1,0,0.2,0.1,0.2,0.1
			c0.1,0.1,0.1,0.1,0.1,0.2C175.2,1174.8,175.2,1174.9,175.2,1175z"/>
		<path class="st4" d="M177.7,1182.3v-6.4h2.4c0.4,0,0.8,0,1.1,0.1c0.3,0.1,0.6,0.2,0.8,0.3c0.2,0.1,0.3,0.3,0.4,0.5
			c0.1,0.2,0.1,0.5,0.1,0.7c0,0.1,0,0.3-0.1,0.4c0,0.1-0.1,0.3-0.2,0.4c-0.1,0.1-0.2,0.2-0.3,0.3c-0.1,0.1-0.3,0.2-0.5,0.2
			c0.4,0.1,0.7,0.3,0.9,0.5s0.3,0.5,0.3,0.9c0,0.3-0.1,0.5-0.2,0.8s-0.3,0.4-0.5,0.6c-0.2,0.2-0.5,0.3-0.8,0.4
			c-0.3,0.1-0.6,0.1-1,0.1H177.7z M179.2,1178.6h0.8c0.2,0,0.3,0,0.4,0c0.1,0,0.2-0.1,0.3-0.1c0.1-0.1,0.2-0.1,0.2-0.2
			c0-0.1,0.1-0.2,0.1-0.4c0-0.2,0-0.3-0.1-0.4c0-0.1-0.1-0.2-0.2-0.2c-0.1-0.1-0.2-0.1-0.3-0.1c-0.1,0-0.3,0-0.4,0h-0.9V1178.6z
			 M179.2,1179.6v1.6h1c0.2,0,0.4,0,0.5-0.1c0.1,0,0.2-0.1,0.3-0.2c0.1-0.1,0.1-0.2,0.1-0.3c0-0.1,0-0.2,0-0.3c0-0.1,0-0.2,0-0.3
			c0-0.1-0.1-0.2-0.2-0.2c-0.1-0.1-0.2-0.1-0.3-0.1c-0.1,0-0.3-0.1-0.5-0.1H179.2z"/>
		<path class="st4" d="M184.9,1175.9c0,0,0.1,0,0.1,0c0,0,0.1,0,0.1,0.1c0,0,0.1,0.1,0.1,0.1l3,3.8c0-0.1,0-0.2,0-0.4
			c0-0.1,0-0.2,0-0.3v-3.4h1.3v6.4h-0.8c-0.1,0-0.2,0-0.3-0.1c-0.1,0-0.2-0.1-0.2-0.2l-3-3.8c0,0.1,0,0.2,0,0.3c0,0.1,0,0.2,0,0.3
			v3.4h-1.3v-6.4h0.8C184.8,1175.9,184.8,1175.9,184.9,1175.9z"/>
		<path class="st4" d="M195.2,1175.9v1.1h-2.6v1.5h2v1.1h-2v1.5h2.6v1.1H191v-6.4H195.2z"/>
		<path class="st4" d="M197.9,1179.9v2.4h-1.5v-6.4h2.1c0.5,0,0.9,0,1.2,0.1c0.3,0.1,0.6,0.2,0.8,0.4c0.2,0.2,0.4,0.4,0.5,0.6
			c0.1,0.2,0.1,0.5,0.1,0.8c0,0.2,0,0.4-0.1,0.6c-0.1,0.2-0.1,0.4-0.2,0.5c-0.1,0.2-0.2,0.3-0.4,0.4c-0.2,0.1-0.3,0.2-0.6,0.3
			c0.1,0,0.2,0.1,0.3,0.2c0.1,0.1,0.2,0.2,0.2,0.3l1.4,2.2h-1.3c-0.2,0-0.4-0.1-0.5-0.3l-1.1-1.9c0-0.1-0.1-0.1-0.2-0.2
			c-0.1,0-0.2-0.1-0.3-0.1H197.9z M197.9,1178.9h0.6c0.2,0,0.4,0,0.5-0.1c0.1-0.1,0.3-0.1,0.4-0.2c0.1-0.1,0.2-0.2,0.2-0.3
			c0-0.1,0.1-0.3,0.1-0.4c0-0.3-0.1-0.5-0.3-0.7c-0.2-0.2-0.5-0.2-0.9-0.2h-0.6V1178.9z"/>
	</g>
</g>
<g>
	<line class="st5" x1="143.9" y1="1133.8" x2="143.9" y2="1190.6"/>
	<rect x="143.5" y="1133.8" width="0.8" height="56.8"/>
</g>
<g>
	<text transform="matrix(1 0 0 1 234.6064 1271.0742)" class="st9 st21">Publikationsliste</text>
</g>
<g>
	<g>
		<line class="st7" x1="144.5" y1="2090" x2="144.5" y2="2160.5"/>
		<rect x="165.9" y="2093.5" class="st12" width="296.1" height="78.5"/>
		<text transform="matrix(1 0 0 1 165.9453 2101.7393)"><tspan x="0" y="0" class="st13 st22">Copyright 2019    </tspan><tspan x="0" y="14" class="st13 st22">Prof. Dr. Peter Trübner    </tspan><tspan x="0" y="28" class="st13 st22">Alexander Moserstrasse 32a    </tspan><tspan x="0" y="42" class="st13 st22">CH-2503 Biel/Bienne   </tspan><tspan x="0" y="56" class="st13 st22">Schweiz</tspan></text>
	</g>
</g>
<g>
	<polyline class="st1" points="568.2,1292.8 538,1262.5 568.2,1232.2 	"/>
</g>
<g>
	<defs>
		<circle id="SVGID_7_" cx="145" cy="1997" r="56.8"/>
	</defs>
	<clipPath id="SVGID_8_">
		<use xlink:href="#SVGID_7_"  style="overflow:visible;"/>
	</clipPath>
	<g transform="matrix(1 0 0 1 -2.980232e-08 1.220703e-04)" style="clip-path:url(#SVGID_8_);">
		
			<image style="overflow:visible;" width="3056" height="4592" xlink:href="8DDE3D3001FBB874.jpg"  transform="matrix(8.420209e-02 0 0 8.420209e-02 0.4718 1885)">
		</image>
	</g>
	<g transform="matrix(1 0 0 1 0 -1.220703e-04)" style="clip-path:url(#SVGID_8_);">
		
			<image style="overflow:visible;" width="3056" height="4592" xlink:href="8DDE3D3001FBB87C.jpg"  transform="matrix(0.1021 0 0 0.1021 -29.4774 1864.5334)">
		</image>
	</g>
</g>
<line class="st24" x1="497.9" y1="1148.6" x2="535.1" y2="1148.6"/>
<line class="st24" x1="497.9" y1="1159" x2="535.1" y2="1159"/>
<line class="st24" x1="497.9" y1="1169.4" x2="535.1" y2="1169.4"/>
<rect x="-638" y="1108" class="st25" width="538" height="1080"/>
<g>
	<text transform="matrix(1 0 0 1 -486.5 1271.0742)"><tspan x="0" y="0" class="st9 st10">Start</tspan><tspan x="0" y="33" class="st6 st9 st10">Publikationsliste</tspan><tspan x="0" y="66" class="st9 st10">Lebenslauf</tspan><tspan x="0" y="99" class="st9 st10">Beispiel hover</tspan><tspan x="0" y="132" class="st9 st10">Kontakt</tspan></text>
</g>
<line class="st26" x1="-164.7" y1="1145.8" x2="-138.3" y2="1172.2"/>
<line class="st26" x1="-138.3" y1="1145.8" x2="-164.7" y2="1172.2"/>
<line class="st27" x1="1584" y1="1458" x2="1584" y2="1587"/>
<text transform="matrix(1 0 0 1 1503.793 1503.4961)" style="font-family:'MyriadPro-Regular'; font-size:28.0716px;">2020</text>
<rect x="1596.2" y="1476.5" class="st12" width="182.3" height="96.4"/>
<text transform="matrix(1 0 0 1 1596.2051 1484.9873)"><tspan x="0" y="0" class="st20" style="font-family:'MyriadPro-Regular';">Lorem ipsum dolor sit amet, consec</tspan><tspan x="177.2" y="0" class="st20" style="font-family:'MyriadPro-Regular';">-</tspan><tspan x="0" y="14.4" class="st20" style="font-family:'MyriadPro-Regular';">tetuer adipiscing elit, sed diam </tspan><tspan x="0" y="28.8" class="st20" style="font-family:'MyriadPro-Regular';">nonummy nibh euismod tincidunt </tspan><tspan x="0" y="43.2" class="st20" style="font-family:'MyriadPro-Regular';">ut laoreet dolore magna aliquam </tspan><tspan x="0" y="57.6" class="st20" style="font-family:'MyriadPro-Regular';">erat volutpat. Ut wisi enim ad minim </tspan><tspan x="0" y="72" class="st20" style="font-family:'MyriadPro-Regular';">veniam, quis nostrud exerci tation </tspan><tspan x="0" y="86.4" class="st20" style="font-family:'MyriadPro-Regular';">ullamcorper suscipit lobortis nisl ut </tspan></text>
<line class="st27" x1="1584.5" y1="1587" x2="1584.5" y2="1716"/>
<text transform="matrix(1 0 0 1 1504.293 1632.4961)" style="font-family:'MyriadPro-Regular'; font-size:28.0716px;">2020</text>
<rect x="1596.7" y="1605.5" class="st12" width="182.3" height="96.4"/>
<text transform="matrix(1 0 0 1 1596.7051 1613.9873)"><tspan x="0" y="0" class="st20" style="font-family:'MyriadPro-Regular';">Lorem ipsum dolor sit amet, consec</tspan><tspan x="177.2" y="0" class="st20" style="font-family:'MyriadPro-Regular';">-</tspan><tspan x="0" y="14.4" class="st20" style="font-family:'MyriadPro-Regular';">tetuer adipiscing elit, sed diam </tspan><tspan x="0" y="28.8" class="st20" style="font-family:'MyriadPro-Regular';">nonummy nibh euismod tincidunt </tspan><tspan x="0" y="43.2" class="st20" style="font-family:'MyriadPro-Regular';">ut laoreet dolore magna aliquam </tspan><tspan x="0" y="57.6" class="st20" style="font-family:'MyriadPro-Regular';">erat volutpat. Ut wisi enim ad minim </tspan><tspan x="0" y="72" class="st20" style="font-family:'MyriadPro-Regular';">veniam, quis nostrud exerci tation </tspan><tspan x="0" y="86.4" class="st20" style="font-family:'MyriadPro-Regular';">ullamcorper suscipit lobortis nisl ut </tspan></text>
<line class="st27" x1="1584.5" y1="1716" x2="1584.5" y2="1845"/>
<text transform="matrix(1 0 0 1 1504.293 1761.4961)" style="font-family:'MyriadPro-Regular'; font-size:28.0716px;">2020</text>
<rect x="1596.7" y="1734.5" class="st12" width="182.3" height="96.4"/>
<text transform="matrix(1 0 0 1 1596.7051 1742.9873)"><tspan x="0" y="0" class="st20" style="font-family:'MyriadPro-Regular';">Lorem ipsum dolor sit amet, consec</tspan><tspan x="177.2" y="0" class="st20" style="font-family:'MyriadPro-Regular';">-</tspan><tspan x="0" y="14.4" class="st20" style="font-family:'MyriadPro-Regular';">tetuer adipiscing elit, sed diam </tspan><tspan x="0" y="28.8" class="st20" style="font-family:'MyriadPro-Regular';">nonummy nibh euismod tincidunt </tspan><tspan x="0" y="43.2" class="st20" style="font-family:'MyriadPro-Regular';">ut laoreet dolore magna aliquam </tspan><tspan x="0" y="57.6" class="st20" style="font-family:'MyriadPro-Regular';">erat volutpat. Ut wisi enim ad minim </tspan><tspan x="0" y="72" class="st20" style="font-family:'MyriadPro-Regular';">veniam, quis nostrud exerci tation </tspan><tspan x="0" y="86.4" class="st20" style="font-family:'MyriadPro-Regular';">ullamcorper suscipit lobortis nisl ut </tspan></text>
</svg>
