<?xml version="1.0" encoding="utf-8"?>
<!-- Generator: Adobe Illustrator 24.2.0, SVG Export Plug-In . SVG Version: 6.00 Build 0)  -->
<svg version="1.1" id="Ebene_1" xmlns="http://www.w3.org/2000/svg" xmlns:xlink="http://www.w3.org/1999/xlink" x="0px" y="0px"
	 viewBox="0 0 180 85" style="enable-background:new 0 0 180 85;" xml:space="preserve">
<style type="text/css">
	.st0{fill:#FFFFFF;}
	.st1{fill:#305596;}
</style>
<g>
	<rect x="291.3" y="-0.7" class="st0" width="0.9" height="86.6"/>
</g>
<g>
	<path class="st0" d="M217.5,68.9c0.8,0.1,1.7,0.4,2.6,0.8c0.9,0.4,1.7,0.8,2.3,1.3v2.8h-15.1l-1-1l9.7-45l-4.2-1v-2.5
		c0.8-0.3,1.8-0.7,3-1c1.2-0.3,2.5-0.6,3.8-0.8c1.3-0.2,2.6-0.4,3.9-0.6c1.3-0.1,2.4-0.2,3.4-0.2l1.5,0.9l-2.4,10.1h0.3
		c0.8-1.5,1.7-2.9,2.7-4.3c1-1.3,2.1-2.5,3.2-3.5c1.1-1,2.4-1.8,3.7-2.3c1.3-0.6,2.8-0.8,4.3-0.8c2.5,0,4.5,1,6.2,2.9
		c1.6,2,2.5,4.7,2.5,8.2c0,4-0.6,7.6-1.7,10.9c-1.1,3.3-2.6,6.2-4.6,8.6c-1.9,2.4-4.2,4.3-6.9,5.6c-2.7,1.3-5.5,2-8.6,2
		c-1.4,0-2.6-0.1-3.5-0.3c-0.9-0.2-1.8-0.6-2.8-1.1L217.5,68.9z M233.6,27.6c-1,0-2,0.4-3,1.1c-1,0.8-1.9,1.7-2.7,2.8
		c-0.8,1.1-1.6,2.3-2.3,3.7c-0.7,1.3-1.3,2.5-1.7,3.6l-3.2,15.9c0.6,0.4,1.3,0.8,1.9,1c0.6,0.2,1.5,0.3,2.7,0.3c1.7,0,3.2-0.7,4.7-2
		c1.5-1.3,2.8-3,3.9-5.1c1.1-2.1,2-4.5,2.6-7.1c0.6-2.6,0.9-5.2,0.9-7.8c0-2-0.3-3.6-1-4.7C235.8,28.1,234.8,27.6,233.6,27.6z"/>
	<path class="st0" d="M251.8,24.4c0.9-0.6,2-1.1,3.1-1.5c1.1-0.4,2.2-0.8,3.3-1l1.2-5.6c0.3-0.3,0.9-0.6,1.6-0.8
		c0.7-0.3,1.5-0.5,2.4-0.7c0.9-0.2,1.7-0.4,2.6-0.6c0.9-0.2,1.7-0.3,2.4-0.4l1.5,0.9l-1.8,8.1h8.6c0.1,0.6,0.1,1.4-0.1,2.4
		c-0.2,1-0.5,1.8-0.8,2.4h-8.6L263,46.2c-0.2,0.9-0.3,1.7-0.4,2.4c-0.1,0.7-0.1,1.3-0.1,1.9c0,1.3,0.3,2.2,1,2.8
		c0.6,0.6,1.5,0.9,2.6,0.9c1.2,0,2.4-0.1,3.4-0.4c1.1-0.3,2.1-0.7,3.1-1.2l1,1.9c-0.6,0.6-1.4,1.3-2.3,1.9c-1,0.7-2.1,1.3-3.3,1.8
		c-1.2,0.6-2.5,1-3.9,1.4c-1.4,0.3-2.8,0.5-4.3,0.5c-2.5,0-4.4-0.6-5.7-1.7c-1.3-1.2-1.9-2.8-1.9-4.8c0-1.1,0.1-2.3,0.3-3.6
		c0.2-1.3,0.4-2.3,0.6-3.2l4.2-19.4h-5.3V24.4z"/>
</g>
<g>
	<path class="st0" d="M310.1,15.4c0.4-0.1,0.8-0.1,1.2-0.2c0.4,0,0.9-0.1,1.3-0.1c0.5,0,0.9,0,1.4,0.1s0.9,0.2,1.3,0.4
		c0.4,0.2,0.7,0.5,0.9,0.9c0.2,0.4,0.4,0.9,0.4,1.5c0,0.5-0.1,1-0.3,1.4c-0.2,0.4-0.5,0.7-0.8,0.9c-0.3,0.2-0.7,0.4-1.2,0.5
		c-0.4,0.1-0.9,0.2-1.3,0.2c0,0-0.1,0-0.2,0c-0.1,0-0.2,0-0.3,0c-0.1,0-0.2,0-0.3,0c-0.1,0-0.2,0-0.2,0v2.9h-1.8V15.4z M312.8,16.8
		c-0.2,0-0.3,0-0.5,0c-0.2,0-0.3,0-0.4,0v2.5c0,0,0.1,0,0.2,0s0.2,0,0.2,0c0.1,0,0.2,0,0.2,0c0.1,0,0.1,0,0.2,0c0.2,0,0.5,0,0.7,0
		c0.2,0,0.4-0.1,0.6-0.2c0.2-0.1,0.3-0.2,0.4-0.4c0.1-0.2,0.2-0.4,0.2-0.7c0-0.3-0.1-0.5-0.2-0.6c-0.1-0.2-0.2-0.3-0.4-0.4
		c-0.2-0.1-0.4-0.2-0.6-0.2C313.3,16.8,313,16.8,312.8,16.8z"/>
	<path class="st0" d="M317.9,15.4c0.2,0,0.4-0.1,0.6-0.1c0.2,0,0.5-0.1,0.7-0.1c0.2,0,0.5,0,0.7,0c0.2,0,0.4,0,0.6,0
		c0.4,0,0.9,0,1.3,0.1c0.4,0.1,0.8,0.2,1.1,0.4c0.3,0.2,0.6,0.4,0.8,0.7c0.2,0.3,0.3,0.7,0.3,1.2c0,0.7-0.2,1.3-0.5,1.7
		c-0.3,0.5-0.8,0.8-1.4,0.9l0.6,0.4l2.1,3.2h-2.1l-2.1-3.3l-1-0.1v3.5h-1.8V15.4z M320.7,16.8c-0.2,0-0.4,0-0.5,0
		c-0.2,0-0.3,0-0.4,0v2.4h0.8c0.5,0,0.9-0.1,1.2-0.3c0.3-0.2,0.4-0.5,0.4-1c0-0.4-0.1-0.6-0.4-0.8C321.5,16.8,321.2,16.8,320.7,16.8
		z"/>
	<path class="st0" d="M325.6,19.6c0-0.7,0.1-1.3,0.3-1.9s0.4-1,0.8-1.4c0.3-0.4,0.8-0.7,1.2-0.9c0.5-0.2,1-0.3,1.7-0.3
		c0.7,0,1.2,0.1,1.7,0.3c0.5,0.2,0.9,0.5,1.2,0.9c0.3,0.4,0.6,0.9,0.7,1.4c0.2,0.5,0.3,1.1,0.3,1.8c0,0.7-0.1,1.3-0.3,1.9
		c-0.2,0.6-0.4,1-0.8,1.4c-0.3,0.4-0.8,0.7-1.2,0.9c-0.5,0.2-1,0.3-1.6,0.3c-0.7,0-1.2-0.1-1.7-0.3c-0.5-0.2-0.9-0.5-1.2-0.9
		c-0.3-0.4-0.6-0.9-0.7-1.4C325.7,20.8,325.6,20.2,325.6,19.6z M327.5,19.6c0,0.4,0,0.8,0.1,1.2c0.1,0.4,0.2,0.7,0.4,0.9
		c0.2,0.3,0.4,0.4,0.6,0.6c0.3,0.1,0.6,0.2,0.9,0.2c0.6,0,1.1-0.2,1.5-0.7c0.4-0.4,0.5-1.2,0.5-2.2c0-0.4,0-0.8-0.1-1.1
		c-0.1-0.3-0.2-0.7-0.4-0.9c-0.2-0.3-0.4-0.5-0.6-0.6c-0.3-0.1-0.6-0.2-0.9-0.2c-0.6,0-1.1,0.2-1.5,0.7
		C327.7,17.8,327.5,18.6,327.5,19.6z"/>
	<path class="st0" d="M335.1,15.3h5.5v1.6h-3.7v2h3.4v1.6h-3.4v3.4h-1.8V15.3z"/>
	<path class="st0" d="M341.1,23c0-0.3,0.1-0.5,0.3-0.7c0.2-0.2,0.5-0.3,0.8-0.3c0.3,0,0.6,0.1,0.8,0.3c0.2,0.2,0.3,0.4,0.3,0.7
		c0,0.3-0.1,0.5-0.3,0.7c-0.2,0.2-0.5,0.3-0.8,0.3c-0.3,0-0.6-0.1-0.8-0.3C341.2,23.5,341.1,23.3,341.1,23z"/>
	<path class="st0" d="M310.1,29.5c0.2,0,0.4,0,0.6-0.1c0.2,0,0.5,0,0.7,0c0.2,0,0.5,0,0.7,0c0.2,0,0.4,0,0.6,0
		c0.8,0,1.5,0.1,2.1,0.3c0.6,0.2,1.1,0.5,1.4,0.9c0.4,0.4,0.6,0.8,0.8,1.4c0.2,0.5,0.3,1.1,0.3,1.7c0,0.6-0.1,1.1-0.3,1.7
		c-0.2,0.5-0.4,1-0.8,1.4c-0.4,0.4-0.9,0.8-1.5,1c-0.6,0.3-1.3,0.4-2.2,0.4c-0.1,0-0.3,0-0.6,0c-0.2,0-0.5,0-0.7,0
		c-0.3,0-0.5,0-0.7,0c-0.2,0-0.4,0-0.5,0V29.5z M312.9,31c-0.2,0-0.4,0-0.6,0c-0.2,0-0.3,0-0.5,0v5.5c0,0,0.1,0,0.2,0
		c0.1,0,0.2,0,0.3,0c0.1,0,0.2,0,0.3,0c0.1,0,0.1,0,0.2,0c0.5,0,1-0.1,1.3-0.2c0.3-0.2,0.6-0.4,0.8-0.6c0.2-0.3,0.3-0.6,0.4-0.9
		c0.1-0.3,0.1-0.7,0.1-1.1c0-0.3,0-0.6-0.1-0.9s-0.2-0.6-0.4-0.9c-0.2-0.3-0.4-0.5-0.8-0.7C313.9,31.1,313.5,31,312.9,31z"/>
	<path class="st0" d="M319,29.6c0.2,0,0.4-0.1,0.6-0.1c0.2,0,0.5-0.1,0.7-0.1c0.2,0,0.5,0,0.7,0c0.2,0,0.4,0,0.6,0
		c0.4,0,0.9,0,1.3,0.1c0.4,0.1,0.8,0.2,1.1,0.4c0.3,0.2,0.6,0.4,0.8,0.7c0.2,0.3,0.3,0.7,0.3,1.2c0,0.7-0.2,1.3-0.5,1.7
		c-0.3,0.5-0.8,0.8-1.4,0.9l0.6,0.4l2.1,3.2h-2.1l-2.1-3.3l-1-0.1v3.5H319V29.6z M321.8,31c-0.2,0-0.4,0-0.5,0c-0.2,0-0.3,0-0.4,0
		v2.4h0.8c0.5,0,0.9-0.1,1.2-0.3c0.3-0.2,0.4-0.5,0.4-1c0-0.4-0.1-0.6-0.4-0.8C322.6,31.1,322.2,31,321.8,31z"/>
	<path class="st0" d="M327.2,37.2c0-0.3,0.1-0.5,0.3-0.7c0.2-0.2,0.5-0.3,0.8-0.3c0.3,0,0.6,0.1,0.8,0.3c0.2,0.2,0.3,0.4,0.3,0.7
		c0,0.3-0.1,0.5-0.3,0.7c-0.2,0.2-0.5,0.3-0.8,0.3c-0.3,0-0.6-0.1-0.8-0.3C327.3,37.8,327.2,37.5,327.2,37.2z"/>
	<path class="st0" d="M310.1,43.8c0.4-0.1,0.8-0.1,1.2-0.2c0.4,0,0.9-0.1,1.3-0.1c0.5,0,0.9,0,1.4,0.1s0.9,0.2,1.3,0.4
		c0.4,0.2,0.7,0.5,0.9,0.9c0.2,0.4,0.4,0.9,0.4,1.5c0,0.5-0.1,1-0.3,1.4c-0.2,0.4-0.5,0.7-0.8,0.9c-0.3,0.2-0.7,0.4-1.2,0.5
		c-0.4,0.1-0.9,0.2-1.3,0.2c0,0-0.1,0-0.2,0c-0.1,0-0.2,0-0.3,0c-0.1,0-0.2,0-0.3,0c-0.1,0-0.2,0-0.2,0v2.9h-1.8V43.8z M312.8,45.2
		c-0.2,0-0.3,0-0.5,0c-0.2,0-0.3,0-0.4,0v2.5c0,0,0.1,0,0.2,0c0.1,0,0.2,0,0.2,0c0.1,0,0.2,0,0.2,0c0.1,0,0.1,0,0.2,0
		c0.2,0,0.5,0,0.7,0c0.2,0,0.4-0.1,0.6-0.2c0.2-0.1,0.3-0.2,0.4-0.4c0.1-0.2,0.2-0.4,0.2-0.7c0-0.3-0.1-0.5-0.2-0.6
		c-0.1-0.2-0.2-0.3-0.4-0.4c-0.2-0.1-0.4-0.2-0.6-0.2C313.3,45.2,313,45.2,312.8,45.2z"/>
	<path class="st0" d="M317.9,43.8h5.5v1.6h-3.7v1.9h3.4v1.6h-3.4v1.9h3.8v1.6h-5.6V43.8z"/>
	<path class="st0" d="M331.8,45.3h-2.7v7h-1.8v-7h-2.7v-1.6h7.2V45.3z"/>
	<path class="st0" d="M333.1,43.8h5.5v1.6h-3.7v1.9h3.4v1.6h-3.4v1.9h3.8v1.6h-5.6V43.8z"/>
	<path class="st0" d="M340.4,43.8c0.2,0,0.4-0.1,0.6-0.1c0.2,0,0.5-0.1,0.7-0.1c0.2,0,0.5,0,0.7,0c0.2,0,0.4,0,0.6,0
		c0.4,0,0.9,0,1.3,0.1c0.4,0.1,0.8,0.2,1.1,0.4c0.3,0.2,0.6,0.4,0.8,0.7c0.2,0.3,0.3,0.7,0.3,1.2c0,0.7-0.2,1.3-0.5,1.7
		c-0.3,0.5-0.8,0.8-1.4,0.9l0.6,0.4l2.1,3.2h-2.1l-2.1-3.3l-1-0.1v3.5h-1.8V43.8z M343.2,45.2c-0.2,0-0.4,0-0.5,0
		c-0.2,0-0.3,0-0.4,0v2.4h0.8c0.5,0,0.9-0.1,1.2-0.3c0.3-0.2,0.4-0.5,0.4-1c0-0.4-0.1-0.6-0.4-0.8C344,45.3,343.7,45.2,343.2,45.2z"
		/>
	<path class="st0" d="M316.7,59.6H314v7h-1.8v-7h-2.7V58h7.2V59.6z"/>
	<path class="st0" d="M318,58.1c0.2,0,0.4-0.1,0.6-0.1c0.2,0,0.5-0.1,0.7-0.1c0.2,0,0.5,0,0.7,0c0.2,0,0.4,0,0.6,0
		c0.4,0,0.9,0,1.3,0.1c0.4,0.1,0.8,0.2,1.1,0.4c0.3,0.2,0.6,0.4,0.8,0.7c0.2,0.3,0.3,0.7,0.3,1.2c0,0.7-0.2,1.3-0.5,1.7
		c-0.3,0.5-0.8,0.8-1.4,0.9l0.6,0.4l2.1,3.2h-2.1l-2.1-3.3l-1-0.1v3.5H318V58.1z M320.7,59.5c-0.2,0-0.4,0-0.5,0c-0.2,0-0.3,0-0.4,0
		v2.4h0.8c0.5,0,0.9-0.1,1.2-0.3c0.3-0.2,0.4-0.5,0.4-1c0-0.4-0.1-0.6-0.4-0.8C321.6,59.6,321.2,59.5,320.7,59.5z"/>
	<path class="st0" d="M331.1,58h1.7v5.5c0,0.6-0.1,1-0.2,1.4c-0.2,0.4-0.4,0.7-0.7,1c-0.3,0.3-0.6,0.5-1,0.6
		c-0.4,0.1-0.8,0.2-1.3,0.2c-1.1,0-2-0.3-2.6-0.8c-0.6-0.5-0.9-1.3-0.9-2.3V58h1.8v5.4c0,0.7,0.1,1.1,0.4,1.4
		c0.3,0.3,0.7,0.4,1.3,0.4c0.5,0,0.9-0.1,1.2-0.4c0.3-0.3,0.4-0.7,0.4-1.3V58z M327,56.8c0-0.2,0.1-0.4,0.2-0.5
		c0.2-0.1,0.4-0.2,0.8-0.2c0.3,0,0.6,0.1,0.8,0.2c0.2,0.1,0.2,0.3,0.2,0.5c0,0.2-0.1,0.4-0.2,0.5c-0.2,0.1-0.4,0.2-0.8,0.2
		c-0.4,0-0.6-0.1-0.8-0.2C327.1,57.2,327,57,327,56.8z M329.8,56.8c0-0.2,0.1-0.4,0.2-0.5c0.2-0.1,0.4-0.2,0.8-0.2
		c0.4,0,0.6,0.1,0.8,0.2c0.2,0.1,0.2,0.3,0.2,0.5c0,0.2-0.1,0.4-0.2,0.5c-0.2,0.1-0.4,0.2-0.8,0.2c-0.3,0-0.6-0.1-0.8-0.2
		C329.9,57.2,329.8,57,329.8,56.8z"/>
	<path class="st0" d="M341,60c0,0.2,0,0.4-0.1,0.6c-0.1,0.2-0.2,0.4-0.3,0.6c-0.1,0.2-0.3,0.3-0.5,0.5c-0.2,0.1-0.5,0.2-0.8,0.3V62
		c0.3,0,0.5,0.1,0.8,0.2c0.2,0.1,0.4,0.2,0.6,0.4c0.2,0.2,0.3,0.4,0.4,0.6c0.1,0.2,0.2,0.5,0.2,0.9c0,0.4-0.1,0.8-0.3,1.1
		c-0.2,0.3-0.5,0.6-0.8,0.8c-0.3,0.2-0.7,0.4-1.1,0.5c-0.4,0.1-0.9,0.1-1.3,0.1c-0.1,0-0.3,0-0.6,0c-0.2,0-0.5,0-0.8,0
		c-0.3,0-0.5,0-0.8-0.1c-0.3,0-0.5-0.1-0.8-0.1v-8.4c0.2,0,0.4,0,0.6-0.1c0.2,0,0.4,0,0.7-0.1c0.2,0,0.5,0,0.8,0c0.3,0,0.5,0,0.8,0
		c0.4,0,0.8,0,1.2,0.1c0.4,0.1,0.8,0.2,1.1,0.3c0.3,0.2,0.6,0.4,0.8,0.7C340.9,59.2,341,59.6,341,60z M337.1,61.6c0.1,0,0.3,0,0.4,0
		s0.3,0,0.4,0c0.3-0.1,0.6-0.3,0.9-0.4c0.2-0.2,0.4-0.4,0.4-0.8c0-0.2,0-0.4-0.1-0.5c-0.1-0.1-0.2-0.2-0.4-0.3
		c-0.1-0.1-0.3-0.1-0.5-0.1c-0.2,0-0.4,0-0.6,0c-0.2,0-0.5,0-0.6,0c-0.2,0-0.4,0-0.5,0v2.2H337.1z M337.6,65.2c0.2,0,0.4,0,0.7-0.1
		c0.2,0,0.4-0.1,0.5-0.2c0.2-0.1,0.3-0.2,0.4-0.4c0.1-0.1,0.1-0.3,0.1-0.5c0-0.3-0.1-0.5-0.2-0.6c-0.1-0.2-0.3-0.3-0.4-0.3
		c-0.2-0.1-0.4-0.1-0.6-0.1c-0.2,0-0.4,0-0.7,0h-1v2.2c0,0,0.1,0,0.2,0c0.1,0,0.2,0,0.3,0c0.1,0,0.2,0,0.3,0
		C337.4,65.2,337.6,65.2,337.6,65.2z"/>
	<path class="st0" d="M345.2,62.1l-0.7-1.3h-0.1l0.2,1.3v4.4h-1.7v-8.6h1.3l3.5,4.6l0.7,1.2h0.1l-0.2-1.3V58h1.7v8.6h-1.3
		L345.2,62.1z"/>
	<path class="st0" d="M352,58h5.5v1.6h-3.7v1.9h3.4V63h-3.4v1.9h3.8v1.6H352V58z"/>
	<path class="st0" d="M359.3,58.1c0.2,0,0.4-0.1,0.6-0.1c0.2,0,0.5-0.1,0.7-0.1c0.2,0,0.5,0,0.7,0c0.2,0,0.4,0,0.6,0
		c0.4,0,0.9,0,1.3,0.1c0.4,0.1,0.8,0.2,1.1,0.4c0.3,0.2,0.6,0.4,0.8,0.7c0.2,0.3,0.3,0.7,0.3,1.2c0,0.7-0.2,1.3-0.5,1.7
		c-0.3,0.5-0.8,0.8-1.4,0.9l0.6,0.4l2.1,3.2h-2.1l-2.1-3.3l-1-0.1v3.5h-1.8V58.1z M362.1,59.5c-0.2,0-0.4,0-0.5,0
		c-0.2,0-0.3,0-0.4,0v2.4h0.8c0.5,0,0.9-0.1,1.2-0.3c0.3-0.2,0.4-0.5,0.4-1c0-0.4-0.1-0.6-0.4-0.8C362.9,59.6,362.6,59.5,362.1,59.5
		z"/>
</g>
<g>
	<rect x="90.2" y="-0.7" width="0.9" height="86.6"/>
</g>
<g>
	<path d="M16.5,68.9c0.8,0.1,1.7,0.4,2.6,0.8c0.9,0.4,1.7,0.8,2.3,1.3v2.8H6.3l-1-1l9.7-45l-4.2-1v-2.5c0.8-0.3,1.8-0.7,3-1
		c1.2-0.3,2.5-0.6,3.8-0.8c1.3-0.2,2.6-0.4,3.9-0.6c1.3-0.1,2.4-0.2,3.4-0.2l1.5,0.9l-2.4,10.1h0.3c0.8-1.5,1.7-2.9,2.7-4.3
		c1-1.3,2.1-2.5,3.2-3.5c1.1-1,2.4-1.8,3.7-2.3c1.3-0.6,2.8-0.8,4.3-0.8c2.5,0,4.5,1,6.2,2.9c1.6,2,2.5,4.7,2.5,8.2
		c0,4-0.6,7.6-1.7,10.9c-1.1,3.3-2.6,6.2-4.6,8.6c-1.9,2.4-4.2,4.3-6.9,5.6c-2.7,1.3-5.5,2-8.6,2c-1.4,0-2.6-0.1-3.5-0.3
		c-0.9-0.2-1.8-0.6-2.8-1.1L16.5,68.9z M32.5,27.6c-1,0-2,0.4-3,1.1c-1,0.8-1.9,1.7-2.7,2.8c-0.8,1.1-1.6,2.3-2.3,3.7
		c-0.7,1.3-1.3,2.5-1.7,3.6l-3.2,15.9c0.6,0.4,1.3,0.8,1.9,1c0.6,0.2,1.5,0.3,2.7,0.3c1.7,0,3.2-0.7,4.7-2c1.5-1.3,2.8-3,3.9-5.1
		c1.1-2.1,2-4.5,2.6-7.1c0.6-2.6,0.9-5.2,0.9-7.8c0-2-0.3-3.6-1-4.7C34.7,28.1,33.8,27.6,32.5,27.6z"/>
	<path d="M50.8,24.4c0.9-0.6,2-1.1,3.1-1.5c1.1-0.4,2.2-0.8,3.3-1l1.2-5.6c0.3-0.3,0.9-0.6,1.6-0.8c0.7-0.3,1.5-0.5,2.4-0.7
		c0.9-0.2,1.7-0.4,2.6-0.6c0.9-0.2,1.7-0.3,2.4-0.4l1.5,0.9l-1.8,8.1h8.6c0.1,0.6,0.1,1.4-0.1,2.4c-0.2,1-0.5,1.8-0.8,2.4h-8.6
		l-4.2,18.9c-0.2,0.9-0.3,1.7-0.4,2.4c-0.1,0.7-0.1,1.3-0.1,1.9c0,1.3,0.3,2.2,1,2.8c0.6,0.6,1.5,0.9,2.6,0.9c1.2,0,2.4-0.1,3.4-0.4
		c1.1-0.3,2.1-0.7,3.1-1.2l1,1.9c-0.6,0.6-1.4,1.3-2.3,1.9c-1,0.7-2.1,1.3-3.3,1.8c-1.2,0.6-2.5,1-3.9,1.4c-1.4,0.3-2.8,0.5-4.3,0.5
		c-2.5,0-4.4-0.6-5.7-1.7c-1.3-1.2-1.9-2.8-1.9-4.8c0-1.1,0.1-2.3,0.3-3.6c0.2-1.3,0.4-2.3,0.6-3.2L56,27.3h-5.3V24.4z"/>
</g>
<g>
	<path class="st1" d="M109,15.4c0.4-0.1,0.8-0.1,1.2-0.2c0.4,0,0.9-0.1,1.3-0.1c0.5,0,0.9,0,1.4,0.1s0.9,0.2,1.3,0.4
		c0.4,0.2,0.7,0.5,0.9,0.9c0.2,0.4,0.4,0.9,0.4,1.5c0,0.5-0.1,1-0.3,1.4c-0.2,0.4-0.5,0.7-0.8,0.9c-0.3,0.2-0.7,0.4-1.2,0.5
		c-0.4,0.1-0.9,0.2-1.3,0.2c0,0-0.1,0-0.2,0c-0.1,0-0.2,0-0.3,0c-0.1,0-0.2,0-0.3,0c-0.1,0-0.2,0-0.2,0v2.9H109V15.4z M111.7,16.8
		c-0.2,0-0.3,0-0.5,0c-0.2,0-0.3,0-0.4,0v2.5c0,0,0.1,0,0.2,0s0.2,0,0.2,0c0.1,0,0.2,0,0.2,0c0.1,0,0.1,0,0.2,0c0.2,0,0.5,0,0.7,0
		c0.2,0,0.4-0.1,0.6-0.2c0.2-0.1,0.3-0.2,0.4-0.4c0.1-0.2,0.2-0.4,0.2-0.7c0-0.3-0.1-0.5-0.2-0.6c-0.1-0.2-0.2-0.3-0.4-0.4
		c-0.2-0.1-0.4-0.2-0.6-0.2C112.2,16.8,111.9,16.8,111.7,16.8z"/>
	<path class="st1" d="M116.8,15.4c0.2,0,0.4-0.1,0.6-0.1c0.2,0,0.5-0.1,0.7-0.1c0.2,0,0.5,0,0.7,0c0.2,0,0.4,0,0.6,0
		c0.4,0,0.9,0,1.3,0.1c0.4,0.1,0.8,0.2,1.1,0.4c0.3,0.2,0.6,0.4,0.8,0.7c0.2,0.3,0.3,0.7,0.3,1.2c0,0.7-0.2,1.3-0.5,1.7
		c-0.3,0.5-0.8,0.8-1.4,0.9l0.6,0.4l2.1,3.2h-2.1l-2.1-3.3l-1-0.1v3.5h-1.8V15.4z M119.6,16.8c-0.2,0-0.4,0-0.5,0
		c-0.2,0-0.3,0-0.4,0v2.4h0.8c0.5,0,0.9-0.1,1.2-0.3c0.3-0.2,0.4-0.5,0.4-1c0-0.4-0.1-0.6-0.4-0.8C120.4,16.8,120.1,16.8,119.6,16.8
		z"/>
	<path class="st1" d="M124.5,19.6c0-0.7,0.1-1.3,0.3-1.9s0.4-1,0.8-1.4c0.3-0.4,0.8-0.7,1.2-0.9c0.5-0.2,1-0.3,1.7-0.3
		c0.7,0,1.2,0.1,1.7,0.3c0.5,0.2,0.9,0.5,1.2,0.9c0.3,0.4,0.6,0.9,0.7,1.4c0.2,0.5,0.3,1.1,0.3,1.8c0,0.7-0.1,1.3-0.3,1.9
		c-0.2,0.6-0.4,1-0.8,1.4c-0.3,0.4-0.8,0.7-1.2,0.9c-0.5,0.2-1,0.3-1.6,0.3c-0.7,0-1.2-0.1-1.7-0.3c-0.5-0.2-0.9-0.5-1.2-0.9
		c-0.3-0.4-0.6-0.9-0.7-1.4S124.5,20.2,124.5,19.6z M126.4,19.6c0,0.4,0,0.8,0.1,1.2c0.1,0.4,0.2,0.7,0.4,0.9
		c0.2,0.3,0.4,0.4,0.6,0.6c0.3,0.1,0.6,0.2,0.9,0.2c0.6,0,1.1-0.2,1.5-0.7c0.4-0.4,0.5-1.2,0.5-2.2c0-0.4,0-0.8-0.1-1.1
		c-0.1-0.3-0.2-0.7-0.4-0.9c-0.2-0.3-0.4-0.5-0.6-0.6c-0.3-0.1-0.6-0.2-0.9-0.2c-0.6,0-1.1,0.2-1.5,0.7
		C126.6,17.8,126.4,18.6,126.4,19.6z"/>
	<path class="st1" d="M134.1,15.3h5.5v1.6h-3.7v2h3.4v1.6h-3.4v3.4h-1.8V15.3z"/>
	<path class="st1" d="M140,23c0-0.3,0.1-0.5,0.3-0.7c0.2-0.2,0.5-0.3,0.8-0.3c0.3,0,0.6,0.1,0.8,0.3c0.2,0.2,0.3,0.4,0.3,0.7
		c0,0.3-0.1,0.5-0.3,0.7c-0.2,0.2-0.5,0.3-0.8,0.3c-0.3,0-0.6-0.1-0.8-0.3C140.1,23.5,140,23.3,140,23z"/>
	<path class="st1" d="M109,29.5c0.2,0,0.4,0,0.6-0.1c0.2,0,0.5,0,0.7,0c0.2,0,0.5,0,0.7,0c0.2,0,0.4,0,0.6,0c0.8,0,1.5,0.1,2.1,0.3
		c0.6,0.2,1.1,0.5,1.4,0.9c0.4,0.4,0.6,0.8,0.8,1.4c0.2,0.5,0.3,1.1,0.3,1.7c0,0.6-0.1,1.1-0.3,1.7c-0.2,0.5-0.4,1-0.8,1.4
		c-0.4,0.4-0.9,0.8-1.5,1c-0.6,0.3-1.3,0.4-2.2,0.4c-0.1,0-0.3,0-0.6,0c-0.2,0-0.5,0-0.7,0c-0.3,0-0.5,0-0.7,0c-0.2,0-0.4,0-0.5,0
		V29.5z M111.9,31c-0.2,0-0.4,0-0.6,0c-0.2,0-0.3,0-0.5,0v5.5c0,0,0.1,0,0.2,0s0.2,0,0.3,0c0.1,0,0.2,0,0.3,0c0.1,0,0.1,0,0.2,0
		c0.5,0,1-0.1,1.3-0.2c0.3-0.2,0.6-0.4,0.8-0.6c0.2-0.3,0.3-0.6,0.4-0.9c0.1-0.3,0.1-0.7,0.1-1.1c0-0.3,0-0.6-0.1-0.9
		c-0.1-0.3-0.2-0.6-0.4-0.9c-0.2-0.3-0.4-0.5-0.8-0.7C112.8,31.1,112.4,31,111.9,31z"/>
	<path class="st1" d="M117.9,29.6c0.2,0,0.4-0.1,0.6-0.1c0.2,0,0.5-0.1,0.7-0.1c0.2,0,0.5,0,0.7,0c0.2,0,0.4,0,0.6,0
		c0.4,0,0.9,0,1.3,0.1c0.4,0.1,0.8,0.2,1.1,0.4c0.3,0.2,0.6,0.4,0.8,0.7c0.2,0.3,0.3,0.7,0.3,1.2c0,0.7-0.2,1.3-0.5,1.7
		c-0.3,0.5-0.8,0.8-1.4,0.9l0.6,0.4l2.1,3.2h-2.1l-2.1-3.3l-1-0.1v3.5h-1.8V29.6z M120.7,31c-0.2,0-0.4,0-0.5,0c-0.2,0-0.3,0-0.4,0
		v2.4h0.8c0.5,0,0.9-0.1,1.2-0.3c0.3-0.2,0.4-0.5,0.4-1c0-0.4-0.1-0.6-0.4-0.8C121.5,31.1,121.2,31,120.7,31z"/>
	<path class="st1" d="M126.1,37.2c0-0.3,0.1-0.5,0.3-0.7c0.2-0.2,0.5-0.3,0.8-0.3c0.3,0,0.6,0.1,0.8,0.3c0.2,0.2,0.3,0.4,0.3,0.7
		c0,0.3-0.1,0.5-0.3,0.7c-0.2,0.2-0.5,0.3-0.8,0.3c-0.3,0-0.6-0.1-0.8-0.3C126.2,37.8,126.1,37.5,126.1,37.2z"/>
	<path class="st1" d="M109,43.8c0.4-0.1,0.8-0.1,1.2-0.2c0.4,0,0.9-0.1,1.3-0.1c0.5,0,0.9,0,1.4,0.1s0.9,0.2,1.3,0.4
		c0.4,0.2,0.7,0.5,0.9,0.9c0.2,0.4,0.4,0.9,0.4,1.5c0,0.5-0.1,1-0.3,1.4c-0.2,0.4-0.5,0.7-0.8,0.9c-0.3,0.2-0.7,0.4-1.2,0.5
		c-0.4,0.1-0.9,0.2-1.3,0.2c0,0-0.1,0-0.2,0c-0.1,0-0.2,0-0.3,0c-0.1,0-0.2,0-0.3,0c-0.1,0-0.2,0-0.2,0v2.9H109V43.8z M111.7,45.2
		c-0.2,0-0.3,0-0.5,0c-0.2,0-0.3,0-0.4,0v2.5c0,0,0.1,0,0.2,0c0.1,0,0.2,0,0.2,0c0.1,0,0.2,0,0.2,0c0.1,0,0.1,0,0.2,0
		c0.2,0,0.5,0,0.7,0c0.2,0,0.4-0.1,0.6-0.2c0.2-0.1,0.3-0.2,0.4-0.4c0.1-0.2,0.2-0.4,0.2-0.7c0-0.3-0.1-0.5-0.2-0.6
		c-0.1-0.2-0.2-0.3-0.4-0.4c-0.2-0.1-0.4-0.2-0.6-0.2C112.2,45.2,111.9,45.2,111.7,45.2z"/>
	<path class="st1" d="M116.8,43.8h5.5v1.6h-3.7v1.9h3.4v1.6h-3.4v1.9h3.8v1.6h-5.6V43.8z"/>
	<path class="st1" d="M130.7,45.3H128v7h-1.8v-7h-2.7v-1.6h7.2V45.3z"/>
	<path class="st1" d="M132,43.8h5.5v1.6h-3.7v1.9h3.4v1.6h-3.4v1.9h3.8v1.6H132V43.8z"/>
	<path class="st1" d="M139.3,43.8c0.2,0,0.4-0.1,0.6-0.1c0.2,0,0.5-0.1,0.7-0.1c0.2,0,0.5,0,0.7,0c0.2,0,0.4,0,0.6,0
		c0.4,0,0.9,0,1.3,0.1c0.4,0.1,0.8,0.2,1.1,0.4c0.3,0.2,0.6,0.4,0.8,0.7c0.2,0.3,0.3,0.7,0.3,1.2c0,0.7-0.2,1.3-0.5,1.7
		c-0.3,0.5-0.8,0.8-1.4,0.9l0.6,0.4l2.1,3.2h-2.1l-2.1-3.3l-1-0.1v3.5h-1.8V43.8z M142.1,45.2c-0.2,0-0.4,0-0.5,0
		c-0.2,0-0.3,0-0.4,0v2.4h0.8c0.5,0,0.9-0.1,1.2-0.3c0.3-0.2,0.4-0.5,0.4-1c0-0.4-0.1-0.6-0.4-0.8C142.9,45.3,142.6,45.2,142.1,45.2
		z"/>
	<path class="st1" d="M115.6,59.6h-2.7v7h-1.8v-7h-2.7V58h7.2V59.6z"/>
	<path class="st1" d="M116.9,58.1c0.2,0,0.4-0.1,0.6-0.1c0.2,0,0.5-0.1,0.7-0.1c0.2,0,0.5,0,0.7,0c0.2,0,0.4,0,0.6,0
		c0.4,0,0.9,0,1.3,0.1c0.4,0.1,0.8,0.2,1.1,0.4c0.3,0.2,0.6,0.4,0.8,0.7c0.2,0.3,0.3,0.7,0.3,1.2c0,0.7-0.2,1.3-0.5,1.7
		c-0.3,0.5-0.8,0.8-1.4,0.9l0.6,0.4l2.1,3.2h-2.1l-2.1-3.3l-1-0.1v3.5h-1.8V58.1z M119.6,59.5c-0.2,0-0.4,0-0.5,0
		c-0.2,0-0.3,0-0.4,0v2.4h0.8c0.5,0,0.9-0.1,1.2-0.3c0.3-0.2,0.4-0.5,0.4-1c0-0.4-0.1-0.6-0.4-0.8C120.5,59.6,120.1,59.5,119.6,59.5
		z"/>
	<path class="st1" d="M130,58h1.7v5.5c0,0.6-0.1,1-0.2,1.4c-0.2,0.4-0.4,0.7-0.7,1c-0.3,0.3-0.6,0.5-1,0.6c-0.4,0.1-0.8,0.2-1.3,0.2
		c-1.1,0-2-0.3-2.6-0.8c-0.6-0.5-0.9-1.3-0.9-2.3V58h1.8v5.4c0,0.7,0.1,1.1,0.4,1.4c0.3,0.3,0.7,0.4,1.3,0.4c0.5,0,0.9-0.1,1.2-0.4
		c0.3-0.3,0.4-0.7,0.4-1.3V58z M125.9,56.8c0-0.2,0.1-0.4,0.2-0.5c0.2-0.1,0.4-0.2,0.8-0.2c0.3,0,0.6,0.1,0.8,0.2
		c0.2,0.1,0.2,0.3,0.2,0.5c0,0.2-0.1,0.4-0.2,0.5c-0.2,0.1-0.4,0.2-0.8,0.2c-0.4,0-0.6-0.1-0.8-0.2C126,57.2,125.9,57,125.9,56.8z
		 M128.7,56.8c0-0.2,0.1-0.4,0.2-0.5c0.2-0.1,0.4-0.2,0.8-0.2c0.4,0,0.6,0.1,0.8,0.2c0.2,0.1,0.2,0.3,0.2,0.5c0,0.2-0.1,0.4-0.2,0.5
		c-0.2,0.1-0.4,0.2-0.8,0.2c-0.3,0-0.6-0.1-0.8-0.2C128.8,57.2,128.7,57,128.7,56.8z"/>
	<path class="st1" d="M139.9,60c0,0.2,0,0.4-0.1,0.6c-0.1,0.2-0.2,0.4-0.3,0.6c-0.1,0.2-0.3,0.3-0.5,0.5c-0.2,0.1-0.5,0.2-0.8,0.3
		V62c0.3,0,0.5,0.1,0.8,0.2c0.2,0.1,0.4,0.2,0.6,0.4c0.2,0.2,0.3,0.4,0.4,0.6c0.1,0.2,0.2,0.5,0.2,0.9c0,0.4-0.1,0.8-0.3,1.1
		c-0.2,0.3-0.5,0.6-0.8,0.8c-0.3,0.2-0.7,0.4-1.1,0.5c-0.4,0.1-0.9,0.1-1.3,0.1c-0.1,0-0.3,0-0.6,0c-0.2,0-0.5,0-0.8,0
		c-0.3,0-0.5,0-0.8-0.1c-0.3,0-0.5-0.1-0.8-0.1v-8.4c0.2,0,0.4,0,0.6-0.1c0.2,0,0.4,0,0.7-0.1c0.2,0,0.5,0,0.8,0c0.3,0,0.5,0,0.8,0
		c0.4,0,0.8,0,1.2,0.1c0.4,0.1,0.8,0.2,1.1,0.3c0.3,0.2,0.6,0.4,0.8,0.7C139.8,59.2,139.9,59.6,139.9,60z M136,61.6
		c0.1,0,0.3,0,0.4,0s0.3,0,0.4,0c0.3-0.1,0.6-0.3,0.9-0.4c0.2-0.2,0.4-0.4,0.4-0.8c0-0.2,0-0.4-0.1-0.5c-0.1-0.1-0.2-0.2-0.4-0.3
		c-0.1-0.1-0.3-0.1-0.5-0.1c-0.2,0-0.4,0-0.6,0c-0.2,0-0.5,0-0.6,0c-0.2,0-0.4,0-0.5,0v2.2H136z M136.5,65.2c0.2,0,0.4,0,0.7-0.1
		s0.4-0.1,0.5-0.2c0.2-0.1,0.3-0.2,0.4-0.4c0.1-0.1,0.1-0.3,0.1-0.5c0-0.3-0.1-0.5-0.2-0.6c-0.1-0.2-0.3-0.3-0.4-0.3
		c-0.2-0.1-0.4-0.1-0.6-0.1c-0.2,0-0.4,0-0.7,0h-1v2.2c0,0,0.1,0,0.2,0c0.1,0,0.2,0,0.3,0c0.1,0,0.2,0,0.3,0
		C136.4,65.2,136.5,65.2,136.5,65.2z"/>
	<path class="st1" d="M144.1,62.1l-0.7-1.3h-0.1l0.2,1.3v4.4h-1.7v-8.6h1.3l3.5,4.6l0.7,1.2h0.1l-0.2-1.3V58h1.7v8.6h-1.3
		L144.1,62.1z"/>
	<path class="st1" d="M150.9,58h5.5v1.6h-3.7v1.9h3.4V63h-3.4v1.9h3.8v1.6h-5.6V58z"/>
	<path class="st1" d="M158.3,58.1c0.2,0,0.4-0.1,0.6-0.1c0.2,0,0.5-0.1,0.7-0.1c0.2,0,0.5,0,0.7,0c0.2,0,0.4,0,0.6,0
		c0.4,0,0.9,0,1.3,0.1c0.4,0.1,0.8,0.2,1.1,0.4c0.3,0.2,0.6,0.4,0.8,0.7c0.2,0.3,0.3,0.7,0.3,1.2c0,0.7-0.2,1.3-0.5,1.7
		c-0.3,0.5-0.8,0.8-1.4,0.9l0.6,0.4l2.1,3.2h-2.1l-2.1-3.3l-1-0.1v3.5h-1.8V58.1z M161,59.5c-0.2,0-0.4,0-0.5,0c-0.2,0-0.3,0-0.4,0
		v2.4h0.8c0.5,0,0.9-0.1,1.2-0.3c0.3-0.2,0.4-0.5,0.4-1c0-0.4-0.1-0.6-0.4-0.8C161.9,59.6,161.5,59.5,161,59.5z"/>
</g>
</svg>
