<?xml version="1.0" encoding="utf-8"?>
<!-- Generator: Adobe Illustrator 24.2.0, SVG Export Plug-In . SVG Version: 6.00 Build 0)  -->
<svg version="1.1" id="Ebene_1" xmlns="http://www.w3.org/2000/svg" xmlns:xlink="http://www.w3.org/1999/xlink" x="0px" y="0px"
	 viewBox="0 0 180 85" style="enable-background:new 0 0 180 85;" xml:space="preserve">
<style type="text/css">
	.st0{fill:#FFFFFF;}
	.st1{fill:#305596;}
</style>
<g>
	<rect x="90.2" y="-110.2" width="0.9" height="86.6"/>
</g>
<g>
	<path d="M16.5-40.6c0.8,0.1,1.7,0.4,2.6,0.8s1.7,0.8,2.3,1.3v2.8H6.3l-1-1l9.7-45l-4.2-1v-2.5c0.8-0.3,1.8-0.7,3-1
		c1.2-0.3,2.5-0.6,3.8-0.8c1.3-0.2,2.6-0.4,3.9-0.6c1.3-0.1,2.4-0.2,3.4-0.2l1.5,0.9L24-76.8h0.3c0.8-1.5,1.7-2.9,2.7-4.3
		c1-1.3,2.1-2.5,3.2-3.5s2.4-1.8,3.7-2.3c1.3-0.6,2.8-0.8,4.3-0.8c2.5,0,4.5,1,6.2,2.9c1.6,2,2.5,4.7,2.5,8.2c0,4-0.6,7.6-1.7,10.9
		c-1.1,3.3-2.6,6.2-4.6,8.6c-1.9,2.4-4.2,4.3-6.9,5.6s-5.5,2-8.6,2c-1.4,0-2.6-0.1-3.5-0.3s-1.8-0.6-2.8-1.1L16.5-40.6z M32.5-81.9
		c-1,0-2,0.4-3,1.1c-1,0.8-1.9,1.7-2.7,2.8c-0.8,1.1-1.6,2.3-2.3,3.7c-0.7,1.3-1.3,2.5-1.7,3.6l-3.2,15.9c0.6,0.4,1.3,0.8,1.9,1
		s1.5,0.3,2.7,0.3c1.7,0,3.2-0.7,4.7-2c1.5-1.3,2.8-3,3.9-5.1c1.1-2.1,2-4.5,2.6-7.1s0.9-5.2,0.9-7.8c0-2-0.3-3.6-1-4.7
		C34.7-81.4,33.8-81.9,32.5-81.9z"/>
	<path d="M50.8-85.1c0.9-0.6,2-1.1,3.1-1.5c1.1-0.4,2.2-0.8,3.3-1l1.2-5.6c0.3-0.3,0.9-0.6,1.6-0.8c0.7-0.3,1.5-0.5,2.4-0.7
		s1.7-0.4,2.6-0.6c0.9-0.2,1.7-0.3,2.4-0.4l1.5,0.9l-1.8,8.1h8.6c0.1,0.6,0.1,1.4-0.1,2.4s-0.5,1.8-0.8,2.4h-8.6L62-63
		c-0.2,0.9-0.3,1.7-0.4,2.4c-0.1,0.7-0.1,1.3-0.1,1.9c0,1.3,0.3,2.2,1,2.8c0.6,0.6,1.5,0.9,2.6,0.9c1.2,0,2.4-0.1,3.4-0.4
		c1.1-0.3,2.1-0.7,3.1-1.2l1,1.9c-0.6,0.6-1.4,1.3-2.3,1.9c-1,0.7-2.1,1.3-3.3,1.8c-1.2,0.6-2.5,1-3.9,1.4c-1.4,0.3-2.8,0.5-4.3,0.5
		c-2.5,0-4.4-0.6-5.7-1.7c-1.3-1.2-1.9-2.8-1.9-4.8c0-1.1,0.1-2.3,0.3-3.6s0.4-2.3,0.6-3.2L56-82.2h-5.3L50.8-85.1L50.8-85.1z"/>
</g>
<text transform="matrix(1 0 0 1 108.4351 -85.5228)"><tspan x="0" y="0" style="font-family:'PTSans-Bold'; font-size:12.175px;">Prof. em. </tspan><tspan x="0" y="14.2" style="font-family:'PTSans-Bold'; font-size:12.175px;">Dr. phil. </tspan><tspan x="0" y="28.4" style="font-family:'PTSans-Bold'; font-size:12.175px;">Peter</tspan><tspan x="0" y="42.6" style="font-family:'PTSans-Bold'; font-size:12.175px;">Trübner</tspan></text>
<g>
	<rect x="90.2" y="122.6" class="st0" width="0.9" height="86.6"/>
</g>
<g>
	<path class="st0" d="M16.5,192.2c0.8,0.1,1.7,0.4,2.6,0.8c0.9,0.4,1.7,0.8,2.3,1.3v2.8H6.3l-1-1l9.7-45l-4.2-1v-2.5
		c0.8-0.3,1.8-0.7,3-1s2.5-0.6,3.8-0.8c1.3-0.2,2.6-0.4,3.9-0.6c1.3-0.1,2.4-0.2,3.4-0.2l1.5,0.9L24,156h0.3
		c0.8-1.5,1.7-2.9,2.7-4.3c1-1.3,2.1-2.5,3.2-3.5s2.4-1.8,3.7-2.3c1.3-0.6,2.8-0.8,4.3-0.8c2.5,0,4.5,1,6.2,2.9
		c1.6,2,2.5,4.7,2.5,8.2c0,4-0.6,7.6-1.7,10.9c-1.1,3.3-2.6,6.2-4.6,8.6c-1.9,2.4-4.2,4.3-6.9,5.6s-5.5,2-8.6,2
		c-1.4,0-2.6-0.1-3.5-0.3s-1.8-0.6-2.8-1.1L16.5,192.2z M32.5,150.9c-1,0-2,0.4-3,1.1c-1,0.8-1.9,1.7-2.7,2.8
		c-0.8,1.1-1.6,2.3-2.3,3.7c-0.7,1.3-1.3,2.5-1.7,3.6L19.6,178c0.6,0.4,1.3,0.8,1.9,1c0.6,0.2,1.5,0.3,2.7,0.3c1.7,0,3.2-0.7,4.7-2
		c1.5-1.3,2.8-3,3.9-5.1c1.1-2.1,2-4.5,2.6-7.1c0.6-2.6,0.9-5.2,0.9-7.8c0-2-0.3-3.6-1-4.7C34.7,151.4,33.8,150.9,32.5,150.9z"/>
	<path class="st0" d="M50.8,147.7c0.9-0.6,2-1.1,3.1-1.5c1.1-0.4,2.2-0.8,3.3-1l1.2-5.6c0.3-0.3,0.9-0.6,1.6-0.8
		c0.7-0.3,1.5-0.5,2.4-0.7s1.7-0.4,2.6-0.6c0.9-0.2,1.7-0.3,2.4-0.4l1.5,0.9l-1.8,8.1h8.6c0.1,0.6,0.1,1.4-0.1,2.4s-0.5,1.8-0.8,2.4
		h-8.6L62,169.8c-0.2,0.9-0.3,1.7-0.4,2.4c-0.1,0.7-0.1,1.3-0.1,1.9c0,1.3,0.3,2.2,1,2.8c0.6,0.6,1.5,0.9,2.6,0.9
		c1.2,0,2.4-0.1,3.4-0.4c1.1-0.3,2.1-0.7,3.1-1.2l1,1.9c-0.6,0.6-1.4,1.3-2.3,1.9c-1,0.7-2.1,1.3-3.3,1.8c-1.2,0.6-2.5,1-3.9,1.4
		c-1.4,0.3-2.8,0.5-4.3,0.5c-2.5,0-4.4-0.6-5.7-1.7c-1.3-1.2-1.9-2.8-1.9-4.8c0-1.1,0.1-2.3,0.3-3.6c0.2-1.3,0.4-2.3,0.6-3.2
		l3.9-19.8h-5.3L50.8,147.7L50.8,147.7z"/>
</g>
<g>
	<path class="st0" d="M111,144.5C111,144.5,111,144.5,111,144.5c0.2,0,0.3,0,0.4,0c0.1,0,0.2,0,0.3,0h0.2c0.4,0,0.9-0.1,1.3-0.2
		c0.4-0.1,0.8-0.3,1.1-0.5c0.3-0.2,0.6-0.6,0.8-0.9c0.2-0.4,0.3-0.9,0.3-1.4c0-0.6-0.1-1.1-0.3-1.5c-0.2-0.4-0.5-0.7-0.9-0.9
		c-0.4-0.2-0.8-0.4-1.2-0.4c-0.8-0.1-1.7-0.1-2.5,0c-0.4,0-0.8,0.1-1.1,0.2l-0.1,0v8.7h1.9V144.5z M111,142.8
		C111,142.8,111,142.8,111,142.8l0-2.6c0.1,0,0.1,0,0.2,0c0.3,0,0.7,0,1,0c0.2,0,0.4,0.1,0.5,0.2c0.1,0.1,0.3,0.2,0.3,0.4
		c0.1,0.2,0.1,0.4,0.1,0.6c0,0.3,0,0.5-0.1,0.7c-0.1,0.2-0.2,0.3-0.4,0.4c-0.2,0.1-0.3,0.2-0.5,0.2c-0.2,0-0.4,0.1-0.6,0.1h-0.2
		c-0.1,0-0.1,0-0.2,0C111.1,142.8,111.1,142.8,111,142.8z"/>
	<path class="st0" d="M118.8,143.9l0.7,0.1l1.9,3.3h2.2l-2.1-3.4l-0.4-0.3c0.5-0.2,0.8-0.5,1.1-0.9c0.3-0.5,0.5-1.1,0.5-1.8
		c0-0.5-0.1-0.9-0.3-1.2c-0.2-0.3-0.5-0.6-0.8-0.8c-0.3-0.2-0.7-0.3-1.1-0.4c-0.4-0.1-0.8-0.1-1.2-0.1c-0.2,0-0.4,0-0.6,0
		c-0.2,0-0.4,0-0.6,0s-0.4,0-0.7,0.1c-0.2,0-0.4,0.1-0.6,0.1l-0.1,0v8.7h1.9V143.9z M120.8,141.3c0,0.4-0.1,0.8-0.4,0.9
		c-0.3,0.2-0.6,0.3-1,0.3h-0.6v-2.2c0.1,0,0.2,0,0.3,0c0.2,0,0.3,0,0.5,0c0.4,0,0.7,0.1,0.9,0.3
		C120.7,140.7,120.8,140.9,120.8,141.3z"/>
	<path class="st0" d="M131.2,139.7c-0.3-0.4-0.7-0.7-1.2-0.9c-0.5-0.2-1-0.3-1.6-0.3c-1.2,0-2.1,0.4-2.8,1.2c-0.6,0.8-1,1.9-1,3.4
		c0,0.7,0.1,1.3,0.2,1.8c0.1,0.6,0.4,1,0.7,1.4c0.3,0.4,0.7,0.7,1.2,0.9c0.5,0.2,1,0.3,1.7,0.3c1.2,0,2.1-0.4,2.8-1.2
		c0.6-0.8,1-1.9,1-3.4c0-0.7-0.1-1.3-0.2-1.8C131.8,140.6,131.5,140.1,131.2,139.7z M127.1,140.8c0.3-0.4,0.7-0.7,1.3-0.7
		c0.3,0,0.6,0.1,0.8,0.2c0.2,0.1,0.4,0.3,0.5,0.6c0.1,0.3,0.2,0.6,0.3,0.9c0.1,0.4,0.1,0.7,0.1,1.1c0,1-0.2,1.7-0.5,2.2
		c-0.3,0.4-0.7,0.6-1.3,0.6c-0.3,0-0.6-0.1-0.8-0.2c-0.2-0.1-0.4-0.3-0.5-0.6c-0.1-0.2-0.3-0.5-0.3-0.9c-0.1-0.3-0.1-0.7-0.1-1.2
		C126.7,142,126.8,141.3,127.1,140.8z"/>
	<polygon class="st0" points="136,143.9 139.1,143.9 139.1,142.2 136,142.2 136,140.3 139.4,140.3 139.4,138.6 134.1,138.6 
		134.1,147.4 136,147.4 	"/>
	<path class="st0" d="M141.1,147.5c0.3,0,0.6-0.1,0.8-0.3c0.2-0.2,0.3-0.5,0.3-0.8s-0.1-0.6-0.3-0.8c-0.2-0.2-0.5-0.3-0.8-0.3
		c-0.3,0-0.6,0.1-0.8,0.3c-0.2,0.2-0.3,0.4-0.3,0.8s0.1,0.6,0.3,0.8C140.5,147.4,140.8,147.5,141.1,147.5z"/>
	<polygon class="st0" points="153.6,145.6 150.1,145.6 150.1,143.8 153.2,143.8 153.2,142.1 150.1,142.1 150.1,140.3 153.5,140.3 
		153.5,138.6 148.2,138.6 148.2,147.4 153.6,147.4 	"/>
	<polygon class="st0" points="157.4,142.8 157.3,141.9 157.5,142.6 159.5,145.8 160.1,145.8 162,142.5 162.3,141.8 162.2,142.8 
		162.2,147.4 164.1,147.4 164.1,138.6 162.4,138.6 160.2,142.6 159.9,143.3 159.6,142.6 157.3,138.6 155.6,138.6 155.6,147.4 
		157.4,147.4 	"/>
	<path class="st0" d="M168.1,145.7c-0.2-0.2-0.5-0.3-0.8-0.3c-0.3,0-0.6,0.1-0.8,0.3c-0.2,0.2-0.3,0.4-0.3,0.8s0.1,0.6,0.3,0.8
		c0.2,0.2,0.5,0.3,0.8,0.3c0.3,0,0.6-0.1,0.8-0.3c0.2-0.2,0.3-0.5,0.3-0.8S168.3,145.9,168.1,145.7z"/>
	<path class="st0" d="M115,153.9c-0.3-0.4-0.8-0.7-1.4-0.9c-0.5-0.2-1.2-0.3-2-0.3c-0.2,0-0.4,0-0.6,0c-0.2,0-0.4,0-0.7,0
		c-0.2,0-0.5,0-0.7,0s-0.4,0-0.6,0.1l-0.1,0v8.8l0.1,0c0.1,0,0.3,0,0.5,0c0.2,0,0.4,0,0.7,0s0.5,0,0.7,0c0.2,0,0.4,0,0.5,0
		c0.8,0,1.5-0.1,2.1-0.4c0.6-0.3,1-0.6,1.4-1c0.4-0.4,0.6-0.9,0.8-1.5c0.1-0.5,0.2-1.1,0.2-1.7c0-0.6-0.1-1.2-0.2-1.8
		C115.6,154.8,115.3,154.3,115,153.9z M112.8,159.7c-0.3,0.2-0.7,0.2-1.1,0.2c0,0-0.1,0-0.2,0l-0.3,0c-0.1,0-0.2,0-0.2,0
		c0,0,0,0,0,0v-5.5c0.1,0,0.2,0,0.3,0c0.2,0,0.4,0,0.5,0c0.4,0,0.8,0.1,1.1,0.2c0.3,0.2,0.5,0.4,0.7,0.6c0.2,0.3,0.3,0.5,0.3,0.9
		c0.1,0.3,0.1,0.7,0.1,1c0,0.4,0,0.7-0.1,1.1c-0.1,0.3-0.2,0.7-0.4,0.9C113.3,159.4,113.1,159.6,112.8,159.7z"/>
	<path class="st0" d="M123.3,157c0.3-0.5,0.5-1.1,0.5-1.8c0-0.5-0.1-0.9-0.3-1.2c-0.2-0.3-0.5-0.6-0.8-0.8c-0.3-0.2-0.7-0.3-1.1-0.4
		c-0.4-0.1-0.8-0.1-1.2-0.1c-0.2,0-0.4,0-0.6,0c-0.2,0-0.4,0-0.6,0s-0.4,0-0.7,0.1c-0.2,0-0.4,0.1-0.6,0.1l-0.1,0v8.7h1.9v-3.5
		l0.7,0.1l1.9,3.3h2.2l-2.1-3.4l-0.4-0.3C122.6,157.7,123,157.4,123.3,157z M121.8,155.5c0,0.4-0.1,0.8-0.4,0.9
		c-0.3,0.2-0.6,0.3-1,0.3h-0.6v-2.2c0.1,0,0.2,0,0.3,0c0.2,0,0.3,0,0.5,0c0.4,0,0.7,0.1,0.9,0.3
		C121.7,154.9,121.8,155.1,121.8,155.5z"/>
	<path class="st0" d="M128,161.4c0.2-0.2,0.3-0.5,0.3-0.8s-0.1-0.6-0.3-0.8c-0.2-0.2-0.5-0.3-0.8-0.3c-0.3,0-0.6,0.1-0.8,0.3
		c-0.2,0.2-0.3,0.4-0.3,0.8s0.1,0.6,0.3,0.8c0.2,0.2,0.5,0.3,0.8,0.3C127.5,161.7,127.8,161.6,128,161.4z"/>
	<path class="st0" d="M138,152.8c-0.8-0.1-1.7-0.1-2.5,0c-0.4,0-0.8,0.1-1.1,0.2l-0.1,0v8.7h1.9v-2.9c0,0,0,0,0.1,0
		c0.1,0,0.2,0,0.3,0c0.1,0,0.2,0,0.3,0h0.2c0.4,0,0.9-0.1,1.3-0.2c0.4-0.1,0.8-0.3,1.1-0.5c0.3-0.2,0.6-0.6,0.8-1
		c0.2-0.4,0.3-0.9,0.3-1.4c0-0.6-0.1-1.1-0.3-1.5c-0.2-0.4-0.5-0.7-0.9-0.9C138.9,153,138.5,152.9,138,152.8z M138.4,155.6
		c0,0.3,0,0.5-0.1,0.7c-0.1,0.2-0.2,0.3-0.4,0.4c-0.2,0.1-0.3,0.2-0.5,0.2c-0.2,0-0.4,0.1-0.6,0.1h-0.2c-0.1,0-0.1,0-0.2,0
		c-0.1,0-0.1,0-0.2,0c0,0,0,0,0,0v-2.6c0.1,0,0.1,0,0.2,0c0.3,0,0.7,0,1,0c0.2,0,0.4,0.1,0.5,0.2c0.1,0.1,0.3,0.2,0.3,0.4
		C138.4,155.2,138.4,155.4,138.4,155.6z"/>
	<polygon class="st0" points="146.9,156.3 144.1,156.3 144.1,152.8 142.1,152.8 142.1,161.6 144.1,161.6 144.1,158 146.9,158 
		146.9,161.6 148.8,161.6 148.8,152.8 146.9,152.8 	"/>
	<rect x="151.2" y="152.8" class="st0" width="1.9" height="8.8"/>
	<polygon class="st0" points="161,159.8 157.3,159.8 157.3,152.8 155.4,152.8 155.4,161.6 161,161.6 	"/>
	<path class="st0" d="M163.9,159.6c-0.3,0-0.6,0.1-0.8,0.3c-0.2,0.2-0.3,0.4-0.3,0.8s0.1,0.6,0.3,0.8c0.2,0.2,0.5,0.3,0.8,0.3
		c0.3,0,0.6-0.1,0.8-0.3c0.2-0.2,0.3-0.5,0.3-0.8s-0.1-0.6-0.3-0.8C164.5,159.7,164.2,159.6,163.9,159.6z"/>
	<path class="st0" d="M111,172.9C111,172.9,111,172.9,111,172.9c0.2,0,0.3,0,0.4,0c0.1,0,0.2,0,0.3,0h0.2c0.4,0,0.9-0.1,1.3-0.2
		c0.4-0.1,0.8-0.3,1.1-0.5c0.3-0.2,0.6-0.6,0.8-1c0.2-0.4,0.3-0.9,0.3-1.4c0-0.6-0.1-1.1-0.3-1.5c-0.2-0.4-0.5-0.7-0.9-0.9
		c-0.4-0.2-0.8-0.4-1.2-0.4c-0.8-0.1-1.7-0.1-2.5,0c-0.4,0-0.8,0.1-1.1,0.2l-0.1,0v8.7h1.9V172.9z M111,171.2
		C111,171.2,111,171.2,111,171.2l0-2.6c0.1,0,0.1,0,0.2,0c0.3,0,0.7,0,1,0c0.2,0,0.4,0.1,0.5,0.2c0.1,0.1,0.3,0.2,0.3,0.4
		c0.1,0.2,0.1,0.4,0.1,0.6c0,0.3,0,0.5-0.1,0.7c-0.1,0.2-0.2,0.3-0.4,0.4c-0.2,0.1-0.3,0.2-0.5,0.2c-0.2,0-0.4,0.1-0.6,0.1h-0.2
		c-0.1,0-0.1,0-0.2,0C111.1,171.2,111.1,171.2,111,171.2z"/>
	<polygon class="st0" points="122.3,174 118.8,174 118.8,172.2 121.9,172.2 121.9,170.5 118.8,170.5 118.8,168.7 122.2,168.7 
		122.2,167 116.9,167 116.9,175.8 122.3,175.8 	"/>
	<polygon class="st0" points="126.2,175.8 128.2,175.8 128.2,168.7 130.6,168.7 130.6,167 123.8,167 123.8,168.7 126.2,168.7 	"/>
	<polygon class="st0" points="137.6,174 134.2,174 134.2,172.2 137.3,172.2 137.3,170.5 134.2,170.5 134.2,168.7 137.6,168.7 
		137.6,167 132.3,167 132.3,175.8 137.6,175.8 	"/>
	<path class="st0" d="M144.2,175.8h2.2l-2.1-3.4l-0.4-0.3c0.5-0.2,0.8-0.5,1.1-0.9c0.3-0.5,0.5-1.1,0.5-1.8c0-0.5-0.1-0.9-0.3-1.2
		c-0.2-0.3-0.5-0.6-0.8-0.8c-0.3-0.2-0.7-0.3-1.1-0.4c-0.4-0.1-0.8-0.1-1.2-0.1c-0.2,0-0.4,0-0.6,0c-0.2,0-0.4,0-0.6,0
		c-0.2,0-0.4,0-0.7,0.1c-0.2,0-0.4,0.1-0.6,0.1l-0.1,0v8.7h1.9v-3.5l0.7,0.1L144.2,175.8z M143.5,169.7c0,0.4-0.1,0.8-0.4,0.9
		c-0.3,0.2-0.6,0.3-1,0.3h-0.6v-2.2c0.1,0,0.2,0,0.3,0c0.2,0,0.3,0,0.5,0c0.4,0,0.7,0.1,0.9,0.3
		C143.4,169.1,143.5,169.3,143.5,169.7z"/>
	<polygon class="st0" points="108.4,183 110.9,183 110.9,190 112.9,190 112.9,183 115.3,183 115.3,181.2 108.4,181.2 	"/>
	<path class="st0" d="M121.2,186.3c0.5-0.2,0.8-0.5,1.1-0.9c0.3-0.5,0.5-1.1,0.5-1.8c0-0.5-0.1-0.9-0.3-1.2
		c-0.2-0.3-0.5-0.6-0.8-0.8c-0.3-0.2-0.7-0.3-1.1-0.4c-0.4-0.1-0.8-0.1-1.2-0.1c-0.2,0-0.4,0-0.6,0c-0.2,0-0.4,0-0.6,0
		c-0.2,0-0.4,0-0.7,0.1s-0.4,0.1-0.6,0.1l-0.1,0v8.7h1.9v-3.5l0.7,0.1l1.9,3.3h2.2l-2.1-3.4L121.2,186.3z M120.8,183.9
		c0,0.5-0.1,0.8-0.4,0.9c-0.3,0.2-0.6,0.3-1,0.3h-0.6v-2.2c0.1,0,0.2,0,0.3,0c0.2,0,0.3,0,0.5,0c0.4,0,0.7,0.1,0.9,0.3
		C120.8,183.3,120.8,183.5,120.8,183.9z"/>
	<path class="st0" d="M128.8,179.5c-0.2,0.2-0.3,0.4-0.3,0.6c0,0.2,0.1,0.5,0.3,0.6c0.2,0.1,0.4,0.2,0.8,0.2c0.4,0,0.6-0.1,0.8-0.2
		c0.2-0.1,0.3-0.4,0.3-0.6c0-0.2-0.1-0.5-0.3-0.6c-0.2-0.2-0.4-0.2-0.8-0.2C129.2,179.3,128.9,179.4,128.8,179.5z"/>
	<path class="st0" d="M126.1,179.5c-0.2,0.2-0.3,0.4-0.3,0.6c0,0.2,0.1,0.5,0.3,0.6c0.2,0.1,0.4,0.2,0.8,0.2c0.4,0,0.6-0.1,0.8-0.2
		c0.2-0.1,0.3-0.4,0.3-0.6c0-0.2-0.1-0.5-0.3-0.6c-0.2-0.2-0.4-0.2-0.8-0.2C126.6,179.3,126.3,179.4,126.1,179.5z"/>
	<path class="st0" d="M129.6,186.7c0,0.6-0.1,1-0.3,1.3c-0.2,0.3-0.5,0.4-1,0.4c-0.2,0-0.5,0-0.6-0.1c-0.2-0.1-0.3-0.1-0.4-0.3
		c-0.1-0.1-0.2-0.3-0.3-0.5c-0.1-0.2-0.1-0.5-0.1-0.8v-5.5H125v5.8c0,2,1.1,3.1,3.4,3.1c0.5,0,0.9-0.1,1.3-0.2
		c0.4-0.1,0.7-0.3,1-0.6c0.3-0.3,0.5-0.6,0.6-1c0.2-0.4,0.2-0.9,0.2-1.5v-5.6h-1.8V186.7z"/>
	<path class="st0" d="M139.3,185.9c-0.2-0.2-0.4-0.3-0.6-0.4c-0.1-0.1-0.3-0.1-0.4-0.1c0.2-0.1,0.3-0.1,0.4-0.2
		c0.2-0.1,0.4-0.3,0.5-0.5c0.1-0.2,0.2-0.4,0.3-0.6c0.1-0.2,0.1-0.4,0.1-0.7c0-0.4-0.1-0.8-0.3-1.1c-0.2-0.3-0.4-0.5-0.8-0.7
		c-0.3-0.2-0.7-0.3-1-0.3c-0.6-0.1-1.2-0.1-1.9-0.1c-0.2,0-0.5,0-0.7,0c-0.2,0-0.4,0-0.6,0.1c-0.2,0-0.4,0-0.5,0.1l-0.1,0v8.6l0.1,0
		c0.2,0,0.5,0.1,0.7,0.1c0.3,0,0.5,0,0.8,0.1c0.2,0,0.5,0,0.7,0h0.5c0.4,0,0.9-0.1,1.3-0.2c0.4-0.1,0.8-0.3,1.1-0.5
		c0.3-0.2,0.6-0.5,0.8-0.8c0.2-0.3,0.3-0.7,0.3-1.2c0-0.3,0-0.7-0.1-0.9C139.7,186.3,139.5,186.1,139.3,185.9z M137,188.4
		c-0.2,0-0.4,0.1-0.6,0.1c-0.1,0-0.2,0-0.3,0c-0.1,0-0.2,0-0.3,0c-0.1,0-0.2,0-0.3,0c0,0-0.1,0-0.1,0v-2.1h0.8c0.2,0,0.4,0,0.6,0
		c0.2,0,0.4,0.1,0.5,0.2c0.1,0.1,0.3,0.2,0.4,0.3c0.1,0.1,0.1,0.3,0.1,0.6c0,0.2,0,0.3-0.1,0.5c-0.1,0.1-0.2,0.3-0.3,0.3
		C137.4,188.3,137.2,188.3,137,188.4z M137.4,184.3c-0.2,0.2-0.5,0.3-0.7,0.4c-0.1,0-0.2,0-0.4,0c-0.1,0-0.3,0-0.4,0h-0.4v-2
		c0.1,0,0.2,0,0.3,0c0.3,0,0.7,0,1.1,0c0.2,0,0.3,0.1,0.4,0.2c0.1,0.1,0.2,0.2,0.3,0.3c0.1,0.1,0.1,0.3,0.1,0.5
		C137.7,184,137.6,184.2,137.4,184.3z"/>
	<polygon class="st0" points="146.8,185.8 146.9,186.5 146.5,185.7 143.2,181.2 141.8,181.2 141.8,190 143.6,190 143.6,185.4 
		143.5,184.7 143.9,185.5 147.2,190 148.6,190 148.6,181.2 146.8,181.2 	"/>
	<polygon class="st0" points="152.7,186.4 155.8,186.4 155.8,184.7 152.7,184.7 152.7,183 156.1,183 156.1,181.2 150.8,181.2 
		150.8,190 156.2,190 156.2,188.3 152.7,188.3 	"/>
	<path class="st0" d="M162.5,186.3c0.5-0.2,0.8-0.5,1.1-0.9c0.3-0.5,0.5-1.1,0.5-1.8c0-0.5-0.1-0.9-0.3-1.2
		c-0.2-0.3-0.5-0.6-0.8-0.8c-0.3-0.2-0.7-0.3-1.1-0.4c-0.4-0.1-0.8-0.1-1.2-0.1c-0.2,0-0.4,0-0.6,0c-0.2,0-0.4,0-0.6,0
		c-0.2,0-0.4,0-0.7,0.1s-0.4,0.1-0.6,0.1l-0.1,0v8.7h1.9v-3.5l0.7,0.1l1.9,3.3h2.2l-2.1-3.4L162.5,186.3z M162.1,183.9
		c0,0.5-0.1,0.8-0.4,0.9c-0.3,0.2-0.6,0.3-1,0.3h-0.6v-2.2c0.1,0,0.2,0,0.3,0c0.2,0,0.3,0,0.5,0c0.4,0,0.7,0.1,0.9,0.3
		C162,183.3,162.1,183.5,162.1,183.9z"/>
</g>
<g>
	<rect x="90.2" y="-0.7" width="0.9" height="86.6"/>
</g>
<g>
	<path d="M16.5,68.9c0.8,0.1,1.7,0.4,2.6,0.8s1.7,0.8,2.3,1.3v2.8H6.3l-1-1l9.7-45l-4.2-1v-2.5c0.8-0.3,1.8-0.7,3-1s2.5-0.6,3.8-0.8
		c1.3-0.2,2.6-0.4,3.9-0.6c1.3-0.1,2.4-0.2,3.4-0.2l1.5,0.9L24,32.7h0.3c0.8-1.5,1.7-2.9,2.7-4.3c1-1.3,2.1-2.5,3.2-3.5
		s2.4-1.8,3.7-2.3c1.3-0.6,2.8-0.8,4.3-0.8c2.5,0,4.5,1,6.2,2.9c1.6,2,2.5,4.7,2.5,8.2c0,4-0.6,7.6-1.7,10.9
		c-1.1,3.3-2.6,6.2-4.6,8.6c-1.9,2.4-4.2,4.3-6.9,5.6s-5.5,2-8.6,2c-1.4,0-2.6-0.1-3.5-0.3s-1.8-0.6-2.8-1.1L16.5,68.9z M32.5,27.6
		c-1,0-2,0.4-3,1.1c-1,0.8-1.9,1.7-2.7,2.8c-0.8,1.1-1.6,2.3-2.3,3.7c-0.7,1.3-1.3,2.5-1.7,3.6l-3.2,15.9c0.6,0.4,1.3,0.8,1.9,1
		S23,56,24.2,56c1.7,0,3.2-0.7,4.7-2c1.5-1.3,2.8-3,3.9-5.1c1.1-2.1,2-4.5,2.6-7.1s0.9-5.2,0.9-7.8c0-2-0.3-3.6-1-4.7
		C34.7,28.1,33.8,27.6,32.5,27.6z"/>
	<path d="M50.8,24.4c0.9-0.6,2-1.1,3.1-1.5s2.2-0.8,3.3-1l1.2-5.6c0.3-0.3,0.9-0.6,1.6-0.8c0.7-0.3,1.5-0.5,2.4-0.7s1.7-0.4,2.6-0.6
		c0.9-0.2,1.7-0.3,2.4-0.4l1.5,0.9l-1.8,8.1h8.6c0.1,0.6,0.1,1.4-0.1,2.4s-0.5,1.8-0.8,2.4h-8.6L62,46.5c-0.2,0.9-0.3,1.7-0.4,2.4
		c-0.1,0.7-0.1,1.3-0.1,1.9c0,1.3,0.3,2.2,1,2.8c0.6,0.6,1.5,0.9,2.6,0.9c1.2,0,2.4-0.1,3.4-0.4c1.1-0.3,2.1-0.7,3.1-1.2l1,1.9
		c-0.6,0.6-1.4,1.3-2.3,1.9c-1,0.7-2.1,1.3-3.3,1.8c-1.2,0.6-2.5,1-3.9,1.4c-1.4,0.3-2.8,0.5-4.3,0.5c-2.5,0-4.4-0.6-5.7-1.7
		c-1.3-1.2-1.9-2.8-1.9-4.8c0-1.1,0.1-2.3,0.3-3.6s0.4-2.3,0.6-3.2L56,27.3h-5.3L50.8,24.4L50.8,24.4z"/>
</g>
<g>
	<path class="st1" d="M111,21.1C111,21.1,111,21.2,111,21.1c0.2,0,0.3,0,0.4,0c0.1,0,0.2,0,0.3,0h0.2c0.4,0,0.9-0.1,1.3-0.2
		c0.4-0.1,0.8-0.3,1.1-0.5c0.3-0.2,0.6-0.6,0.8-0.9c0.2-0.4,0.3-0.9,0.3-1.4c0-0.6-0.1-1.1-0.3-1.5c-0.2-0.4-0.5-0.7-0.9-0.9
		c-0.4-0.2-0.8-0.4-1.2-0.4c-0.8-0.1-1.7-0.1-2.5,0c-0.4,0-0.8,0.1-1.1,0.2l-0.1,0v8.7h1.9V21.1z M111,19.5
		C111,19.5,111,19.5,111,19.5l0-2.6c0.1,0,0.1,0,0.2,0c0.3,0,0.7,0,1,0c0.2,0,0.4,0.1,0.5,0.2c0.1,0.1,0.3,0.2,0.3,0.4
		c0.1,0.2,0.1,0.4,0.1,0.6c0,0.3,0,0.5-0.1,0.7c-0.1,0.2-0.2,0.3-0.4,0.4c-0.2,0.1-0.3,0.2-0.5,0.2c-0.2,0-0.4,0.1-0.6,0.1h-0.2
		c-0.1,0-0.1,0-0.2,0C111.1,19.5,111.1,19.5,111,19.5z"/>
	<path class="st1" d="M118.8,20.6l0.7,0.1l1.9,3.3h2.2l-2.1-3.4l-0.4-0.3c0.5-0.2,0.8-0.5,1.1-0.9c0.3-0.5,0.5-1.1,0.5-1.8
		c0-0.5-0.1-0.9-0.3-1.2c-0.2-0.3-0.5-0.6-0.8-0.8c-0.3-0.2-0.7-0.3-1.1-0.4c-0.4-0.1-0.8-0.1-1.2-0.1c-0.2,0-0.4,0-0.6,0
		c-0.2,0-0.4,0-0.6,0s-0.4,0-0.7,0.1c-0.2,0-0.4,0.1-0.6,0.1l-0.1,0v8.7h1.9V20.6z M120.8,17.9c0,0.4-0.1,0.8-0.4,0.9
		c-0.3,0.2-0.6,0.3-1,0.3h-0.6v-2.2c0.1,0,0.2,0,0.3,0c0.2,0,0.3,0,0.5,0c0.4,0,0.7,0.1,0.9,0.3C120.7,17.4,120.8,17.6,120.8,17.9z"
		/>
	<path class="st1" d="M131.2,16.4c-0.3-0.4-0.7-0.7-1.2-0.9c-0.5-0.2-1-0.3-1.6-0.3c-1.2,0-2.1,0.4-2.8,1.2c-0.6,0.8-1,1.9-1,3.4
		c0,0.7,0.1,1.3,0.2,1.8c0.1,0.6,0.4,1,0.7,1.4c0.3,0.4,0.7,0.7,1.2,0.9c0.5,0.2,1,0.3,1.7,0.3c1.2,0,2.1-0.4,2.8-1.2
		c0.6-0.8,1-1.9,1-3.4c0-0.7-0.1-1.3-0.2-1.8C131.8,17.3,131.5,16.8,131.2,16.4z M127.1,17.5c0.3-0.4,0.7-0.7,1.3-0.7
		c0.3,0,0.6,0.1,0.8,0.2c0.2,0.1,0.4,0.3,0.5,0.6c0.1,0.3,0.2,0.6,0.3,0.9c0.1,0.4,0.1,0.7,0.1,1.1c0,1-0.2,1.7-0.5,2.2
		c-0.3,0.4-0.7,0.6-1.3,0.6c-0.3,0-0.6-0.1-0.8-0.2c-0.2-0.1-0.4-0.3-0.5-0.6c-0.1-0.2-0.3-0.5-0.3-0.9c-0.1-0.3-0.1-0.7-0.1-1.2
		C126.7,18.7,126.8,18,127.1,17.5z"/>
	<polygon class="st1" points="136,20.6 139.1,20.6 139.1,18.9 136,18.9 136,17 139.4,17 139.4,15.3 134.1,15.3 134.1,24.1 136,24.1 
			"/>
	<path class="st1" d="M141.1,24.2c0.3,0,0.6-0.1,0.8-0.3c0.2-0.2,0.3-0.5,0.3-0.8s-0.1-0.6-0.3-0.8c-0.2-0.2-0.5-0.3-0.8-0.3
		c-0.3,0-0.6,0.1-0.8,0.3c-0.2,0.2-0.3,0.4-0.3,0.8s0.1,0.6,0.3,0.8C140.5,24.1,140.8,24.2,141.1,24.2z"/>
	<polygon class="st1" points="153.6,22.3 150.1,22.3 150.1,20.5 153.2,20.5 153.2,18.8 150.1,18.8 150.1,17 153.5,17 153.5,15.3 
		148.2,15.3 148.2,24.1 153.6,24.1 	"/>
	<polygon class="st1" points="157.4,19.5 157.3,18.6 157.5,19.2 159.5,22.5 160.1,22.5 162,19.2 162.3,18.5 162.2,19.5 162.2,24.1 
		164.1,24.1 164.1,15.3 162.4,15.3 160.2,19.2 159.9,20 159.6,19.2 157.3,15.3 155.6,15.3 155.6,24.1 157.4,24.1 	"/>
	<path class="st1" d="M168.1,22.4c-0.2-0.2-0.5-0.3-0.8-0.3c-0.3,0-0.6,0.1-0.8,0.3c-0.2,0.2-0.3,0.4-0.3,0.8s0.1,0.6,0.3,0.8
		c0.2,0.2,0.5,0.3,0.8,0.3c0.3,0,0.6-0.1,0.8-0.3c0.2-0.2,0.3-0.5,0.3-0.8S168.3,22.6,168.1,22.4z"/>
	<path class="st1" d="M115,30.6c-0.3-0.4-0.8-0.7-1.4-0.9c-0.5-0.2-1.2-0.3-2-0.3c-0.2,0-0.4,0-0.6,0c-0.2,0-0.4,0-0.7,0
		c-0.2,0-0.5,0-0.7,0s-0.4,0-0.6,0.1l-0.1,0v8.8l0.1,0c0.1,0,0.3,0,0.5,0c0.2,0,0.4,0,0.7,0s0.5,0,0.7,0c0.2,0,0.4,0,0.5,0
		c0.8,0,1.5-0.1,2.1-0.4c0.6-0.3,1-0.6,1.4-1c0.4-0.4,0.6-0.9,0.8-1.5c0.1-0.5,0.2-1.1,0.2-1.7c0-0.6-0.1-1.2-0.2-1.8
		C115.6,31.5,115.3,31,115,30.6z M112.8,36.4c-0.3,0.2-0.7,0.2-1.1,0.2c0,0-0.1,0-0.2,0l-0.3,0c-0.1,0-0.2,0-0.2,0c0,0,0,0,0,0v-5.5
		c0.1,0,0.2,0,0.3,0c0.2,0,0.4,0,0.5,0c0.4,0,0.8,0.1,1.1,0.2c0.3,0.2,0.5,0.4,0.7,0.6c0.2,0.3,0.3,0.5,0.3,0.9
		c0.1,0.3,0.1,0.7,0.1,1c0,0.4,0,0.7-0.1,1.1c-0.1,0.3-0.2,0.7-0.4,0.9C113.3,36.1,113.1,36.3,112.8,36.4z"/>
	<path class="st1" d="M123.3,33.7c0.3-0.5,0.5-1.1,0.5-1.8c0-0.5-0.1-0.9-0.3-1.2c-0.2-0.3-0.5-0.6-0.8-0.8
		c-0.3-0.2-0.7-0.3-1.1-0.4c-0.4-0.1-0.8-0.1-1.2-0.1c-0.2,0-0.4,0-0.6,0c-0.2,0-0.4,0-0.6,0s-0.4,0-0.7,0.1c-0.2,0-0.4,0.1-0.6,0.1
		l-0.1,0v8.7h1.9v-3.5l0.7,0.1l1.9,3.3h2.2l-2.1-3.4l-0.4-0.3C122.6,34.4,123,34.1,123.3,33.7z M121.8,32.2c0,0.4-0.1,0.8-0.4,0.9
		c-0.3,0.2-0.6,0.3-1,0.3h-0.6v-2.2c0.1,0,0.2,0,0.3,0c0.2,0,0.3,0,0.5,0c0.4,0,0.7,0.1,0.9,0.3C121.7,31.6,121.8,31.8,121.8,32.2z"
		/>
	<path class="st1" d="M128,38.1c0.2-0.2,0.3-0.5,0.3-0.8s-0.1-0.6-0.3-0.8c-0.2-0.2-0.5-0.3-0.8-0.3c-0.3,0-0.6,0.1-0.8,0.3
		c-0.2,0.2-0.3,0.4-0.3,0.8s0.1,0.6,0.3,0.8c0.2,0.2,0.5,0.3,0.8,0.3C127.5,38.4,127.8,38.3,128,38.1z"/>
	<path class="st1" d="M138,29.5c-0.8-0.1-1.7-0.1-2.5,0c-0.4,0-0.8,0.1-1.1,0.2l-0.1,0v8.7h1.9v-2.9c0,0,0,0,0.1,0
		c0.1,0,0.2,0,0.3,0c0.1,0,0.2,0,0.3,0h0.2c0.4,0,0.9-0.1,1.3-0.2c0.4-0.1,0.8-0.3,1.1-0.5c0.3-0.2,0.6-0.6,0.8-1
		c0.2-0.4,0.3-0.9,0.3-1.4c0-0.6-0.1-1.1-0.3-1.5c-0.2-0.4-0.5-0.7-0.9-0.9C138.9,29.7,138.5,29.5,138,29.5z M138.4,32.3
		c0,0.3,0,0.5-0.1,0.7c-0.1,0.2-0.2,0.3-0.4,0.4c-0.2,0.1-0.3,0.2-0.5,0.2c-0.2,0-0.4,0.1-0.6,0.1h-0.2c-0.1,0-0.1,0-0.2,0
		c-0.1,0-0.1,0-0.2,0c0,0,0,0,0,0v-2.6c0.1,0,0.1,0,0.2,0c0.3,0,0.7,0,1,0c0.2,0,0.4,0.1,0.5,0.2c0.1,0.1,0.3,0.2,0.3,0.4
		C138.4,31.9,138.4,32.1,138.4,32.3z"/>
	<polygon class="st1" points="146.9,33 144.1,33 144.1,29.5 142.1,29.5 142.1,38.3 144.1,38.3 144.1,34.7 146.9,34.7 146.9,38.3 
		148.8,38.3 148.8,29.5 146.9,29.5 	"/>
	<rect x="151.2" y="29.5" class="st1" width="1.9" height="8.8"/>
	<polygon class="st1" points="161,36.5 157.3,36.5 157.3,29.5 155.4,29.5 155.4,38.3 161,38.3 	"/>
	<path class="st1" d="M163.9,36.3c-0.3,0-0.6,0.1-0.8,0.3c-0.2,0.2-0.3,0.4-0.3,0.8s0.1,0.6,0.3,0.8c0.2,0.2,0.5,0.3,0.8,0.3
		c0.3,0,0.6-0.1,0.8-0.3c0.2-0.2,0.3-0.5,0.3-0.8s-0.1-0.6-0.3-0.8C164.5,36.4,164.2,36.3,163.9,36.3z"/>
	<path class="st1" d="M111,49.6C111,49.6,111,49.6,111,49.6c0.2,0,0.3,0,0.4,0c0.1,0,0.2,0,0.3,0h0.2c0.4,0,0.9-0.1,1.3-0.2
		c0.4-0.1,0.8-0.3,1.1-0.5c0.3-0.2,0.6-0.6,0.8-1c0.2-0.4,0.3-0.9,0.3-1.4c0-0.6-0.1-1.1-0.3-1.5c-0.2-0.4-0.5-0.7-0.9-0.9
		c-0.4-0.2-0.8-0.4-1.2-0.4c-0.8-0.1-1.7-0.1-2.5,0c-0.4,0-0.8,0.1-1.1,0.2l-0.1,0v8.7h1.9V49.6z M111,47.9
		C111,47.9,111,47.9,111,47.9l0-2.6c0.1,0,0.1,0,0.2,0c0.3,0,0.7,0,1,0c0.2,0,0.4,0.1,0.5,0.2c0.1,0.1,0.3,0.2,0.3,0.4
		c0.1,0.2,0.1,0.4,0.1,0.6c0,0.3,0,0.5-0.1,0.7c-0.1,0.2-0.2,0.3-0.4,0.4c-0.2,0.1-0.3,0.2-0.5,0.2c-0.2,0-0.4,0.1-0.6,0.1h-0.2
		c-0.1,0-0.1,0-0.2,0C111.1,47.9,111.1,47.9,111,47.9z"/>
	<polygon class="st1" points="122.3,50.7 118.8,50.7 118.8,48.9 121.9,48.9 121.9,47.2 118.8,47.2 118.8,45.4 122.2,45.4 
		122.2,43.7 116.9,43.7 116.9,52.5 122.3,52.5 	"/>
	<polygon class="st1" points="126.2,52.5 128.2,52.5 128.2,45.4 130.6,45.4 130.6,43.7 123.8,43.7 123.8,45.4 126.2,45.4 	"/>
	<polygon class="st1" points="137.6,50.7 134.2,50.7 134.2,48.9 137.3,48.9 137.3,47.2 134.2,47.2 134.2,45.4 137.6,45.4 
		137.6,43.7 132.3,43.7 132.3,52.5 137.6,52.5 	"/>
	<path class="st1" d="M144.2,52.5h2.2l-2.1-3.4l-0.4-0.3c0.5-0.2,0.8-0.5,1.1-0.9c0.3-0.5,0.5-1.1,0.5-1.8c0-0.5-0.1-0.9-0.3-1.2
		c-0.2-0.3-0.5-0.6-0.8-0.8c-0.3-0.2-0.7-0.3-1.1-0.4c-0.4-0.1-0.8-0.1-1.2-0.1c-0.2,0-0.4,0-0.6,0c-0.2,0-0.4,0-0.6,0
		c-0.2,0-0.4,0-0.7,0.1c-0.2,0-0.4,0.1-0.6,0.1l-0.1,0v8.7h1.9V49l0.7,0.1L144.2,52.5z M143.5,46.4c0,0.4-0.1,0.8-0.4,0.9
		c-0.3,0.2-0.6,0.3-1,0.3h-0.6v-2.2c0.1,0,0.2,0,0.3,0c0.2,0,0.3,0,0.5,0c0.4,0,0.7,0.1,0.9,0.3C143.4,45.8,143.5,46,143.5,46.4z"/>
	<polygon class="st1" points="108.4,59.6 110.9,59.6 110.9,66.7 112.9,66.7 112.9,59.6 115.3,59.6 115.3,57.9 108.4,57.9 	"/>
	<path class="st1" d="M121.2,63c0.5-0.2,0.8-0.5,1.1-0.9c0.3-0.5,0.5-1.1,0.5-1.8c0-0.5-0.1-0.9-0.3-1.2c-0.2-0.3-0.5-0.6-0.8-0.8
		c-0.3-0.2-0.7-0.3-1.1-0.4c-0.4-0.1-0.8-0.1-1.2-0.1c-0.2,0-0.4,0-0.6,0c-0.2,0-0.4,0-0.6,0c-0.2,0-0.4,0-0.7,0.1s-0.4,0.1-0.6,0.1
		l-0.1,0v8.7h1.9v-3.5l0.7,0.1l1.9,3.3h2.2l-2.1-3.4L121.2,63z M120.8,60.6c0,0.5-0.1,0.8-0.4,0.9c-0.3,0.2-0.6,0.3-1,0.3h-0.6v-2.2
		c0.1,0,0.2,0,0.3,0c0.2,0,0.3,0,0.5,0c0.4,0,0.7,0.1,0.9,0.3C120.8,60,120.8,60.2,120.8,60.6z"/>
	<path class="st1" d="M128.8,56.2c-0.2,0.2-0.3,0.4-0.3,0.6c0,0.2,0.1,0.5,0.3,0.6c0.2,0.1,0.4,0.2,0.8,0.2c0.4,0,0.6-0.1,0.8-0.2
		c0.2-0.1,0.3-0.4,0.3-0.6c0-0.2-0.1-0.5-0.3-0.6c-0.2-0.2-0.4-0.2-0.8-0.2C129.2,56,128.9,56.1,128.8,56.2z"/>
	<path class="st1" d="M126.1,56.2c-0.2,0.2-0.3,0.4-0.3,0.6c0,0.2,0.1,0.5,0.3,0.6c0.2,0.1,0.4,0.2,0.8,0.2c0.4,0,0.6-0.1,0.8-0.2
		c0.2-0.1,0.3-0.4,0.3-0.6c0-0.2-0.1-0.5-0.3-0.6c-0.2-0.2-0.4-0.2-0.8-0.2C126.6,56,126.3,56.1,126.1,56.2z"/>
	<path class="st1" d="M129.6,63.4c0,0.6-0.1,1-0.3,1.3c-0.2,0.3-0.5,0.4-1,0.4c-0.2,0-0.5,0-0.6-0.1c-0.2-0.1-0.3-0.1-0.4-0.3
		c-0.1-0.1-0.2-0.3-0.3-0.5c-0.1-0.2-0.1-0.5-0.1-0.8v-5.5H125v5.8c0,2,1.1,3.1,3.4,3.1c0.5,0,0.9-0.1,1.3-0.2
		c0.4-0.1,0.7-0.3,1-0.6c0.3-0.3,0.5-0.6,0.6-1c0.2-0.4,0.2-0.9,0.2-1.5v-5.6h-1.8V63.4z"/>
	<path class="st1" d="M139.3,62.6c-0.2-0.2-0.4-0.3-0.6-0.4c-0.1-0.1-0.3-0.1-0.4-0.1c0.2-0.1,0.3-0.1,0.4-0.2
		c0.2-0.1,0.4-0.3,0.5-0.5c0.1-0.2,0.2-0.4,0.3-0.6c0.1-0.2,0.1-0.4,0.1-0.7c0-0.4-0.1-0.8-0.3-1.1c-0.2-0.3-0.4-0.5-0.8-0.7
		c-0.3-0.2-0.7-0.3-1-0.3c-0.6-0.1-1.2-0.1-1.9-0.1c-0.2,0-0.5,0-0.7,0c-0.2,0-0.4,0-0.6,0.1c-0.2,0-0.4,0-0.5,0.1l-0.1,0v8.6l0.1,0
		c0.2,0,0.5,0.1,0.7,0.1c0.3,0,0.5,0,0.8,0.1c0.2,0,0.5,0,0.7,0h0.5c0.4,0,0.9-0.1,1.3-0.2c0.4-0.1,0.8-0.3,1.1-0.5
		c0.3-0.2,0.6-0.5,0.8-0.8c0.2-0.3,0.3-0.7,0.3-1.2c0-0.3,0-0.7-0.1-0.9C139.7,63,139.5,62.8,139.3,62.6z M137,65.1
		c-0.2,0-0.4,0.1-0.6,0.1c-0.1,0-0.2,0-0.3,0c-0.1,0-0.2,0-0.3,0c-0.1,0-0.2,0-0.3,0c0,0-0.1,0-0.1,0V63h0.8c0.2,0,0.4,0,0.6,0
		c0.2,0,0.4,0.1,0.5,0.2c0.1,0.1,0.3,0.2,0.4,0.3c0.1,0.1,0.1,0.3,0.1,0.6c0,0.2,0,0.3-0.1,0.5c-0.1,0.1-0.2,0.3-0.3,0.3
		C137.4,65,137.2,65,137,65.1z M137.4,61c-0.2,0.2-0.5,0.3-0.7,0.4c-0.1,0-0.2,0-0.4,0c-0.1,0-0.3,0-0.4,0h-0.4v-2
		c0.1,0,0.2,0,0.3,0c0.3,0,0.7,0,1.1,0c0.2,0,0.3,0.1,0.4,0.2c0.1,0.1,0.2,0.2,0.3,0.3c0.1,0.1,0.1,0.3,0.1,0.5
		C137.7,60.6,137.6,60.9,137.4,61z"/>
	<polygon class="st1" points="146.8,62.5 146.9,63.2 146.5,62.4 143.2,57.8 141.8,57.8 141.8,66.7 143.6,66.7 143.6,62.1 
		143.5,61.3 143.9,62.2 147.2,66.7 148.6,66.7 148.6,57.9 146.8,57.9 	"/>
	<polygon class="st1" points="152.7,63.1 155.8,63.1 155.8,61.4 152.7,61.4 152.7,59.6 156.1,59.6 156.1,57.9 150.8,57.9 
		150.8,66.7 156.2,66.7 156.2,64.9 152.7,64.9 	"/>
	<path class="st1" d="M162.5,63c0.5-0.2,0.8-0.5,1.1-0.9c0.3-0.5,0.5-1.1,0.5-1.8c0-0.5-0.1-0.9-0.3-1.2c-0.2-0.3-0.5-0.6-0.8-0.8
		c-0.3-0.2-0.7-0.3-1.1-0.4c-0.4-0.1-0.8-0.1-1.2-0.1c-0.2,0-0.4,0-0.6,0c-0.2,0-0.4,0-0.6,0c-0.2,0-0.4,0-0.7,0.1s-0.4,0.1-0.6,0.1
		l-0.1,0v8.7h1.9v-3.5l0.7,0.1l1.9,3.3h2.2l-2.1-3.4L162.5,63z M162.1,60.6c0,0.5-0.1,0.8-0.4,0.9c-0.3,0.2-0.6,0.3-1,0.3h-0.6v-2.2
		c0.1,0,0.2,0,0.3,0c0.2,0,0.3,0,0.5,0c0.4,0,0.7,0.1,0.9,0.3C162,60,162.1,60.2,162.1,60.6z"/>
</g>
</svg>
