<?xml version="1.0" encoding="utf-8"?>
<!-- Generator: Adobe Illustrator 24.2.0, SVG Export Plug-In . SVG Version: 6.00 Build 0)  -->
<svg version="1.1" id="Ebene_1" xmlns="http://www.w3.org/2000/svg" xmlns:xlink="http://www.w3.org/1999/xlink" x="0px" y="0px"
	 viewBox="0 0 180 85" style="enable-background:new 0 0 180 85;" xml:space="preserve">
<style type="text/css">
	.st0{fill:#305596;}
	.st1{fill:none;}
	.st2{fill:#FFFFFF;}
</style>
<rect x="-188.7" y="63.4" transform="matrix(0.7071 -0.7071 0.7071 0.7071 -103.3527 -40.4891)" width="176.3" height="82.3"/>
<g>
	<g>
		<path class="st0" d="M-148.7-381v2.7h-1.9v-8h2.8c0.6,0,1,0.1,1.5,0.2s0.7,0.3,1,0.6c0.3,0.2,0.5,0.5,0.6,0.8s0.2,0.7,0.2,1
			c0,0.4-0.1,0.8-0.2,1.1c-0.1,0.3-0.3,0.6-0.6,0.9c-0.3,0.2-0.6,0.4-1,0.6c-0.4,0.1-0.9,0.2-1.4,0.2h-1L-148.7-381L-148.7-381z
			 M-148.7-382.4h1c0.5,0,0.8-0.1,1-0.3c0.2-0.2,0.3-0.6,0.3-1c0-0.2,0-0.4-0.1-0.5s-0.1-0.3-0.2-0.4c-0.1-0.1-0.3-0.2-0.4-0.2
			s-0.4-0.1-0.6-0.1h-1V-382.4z"/>
		<path class="st0" d="M-141.1-381.3v3h-1.9v-8h2.6c0.6,0,1.1,0.1,1.5,0.2s0.7,0.3,1,0.5s0.4,0.5,0.6,0.8c0.1,0.3,0.2,0.6,0.2,0.9
			s0,0.5-0.1,0.7s-0.2,0.4-0.3,0.6s-0.3,0.4-0.5,0.5c-0.2,0.2-0.4,0.3-0.7,0.4c0.1,0.1,0.2,0.1,0.3,0.2s0.2,0.2,0.3,0.3l1.7,2.8
			h-1.7c-0.3,0-0.5-0.1-0.7-0.4l-1.3-2.3c-0.1-0.1-0.1-0.2-0.2-0.2c-0.1,0-0.2-0.1-0.3-0.1h-0.5L-141.1-381.3L-141.1-381.3z
			 M-141.1-382.6h0.7c0.3,0,0.5,0,0.6-0.1c0.2-0.1,0.3-0.2,0.4-0.3c0.1-0.1,0.2-0.2,0.2-0.4c0.1-0.2,0.1-0.3,0.1-0.5
			c0-0.4-0.1-0.6-0.3-0.8c-0.2-0.2-0.6-0.3-1.1-0.3h-0.7v2.4C-141.2-382.6-141.1-382.6-141.1-382.6z"/>
		<path class="st0" d="M-127.5-382.4c0,0.6-0.1,1.1-0.3,1.6c-0.2,0.5-0.5,0.9-0.8,1.3s-0.8,0.7-1.3,0.9c-0.5,0.2-1.1,0.3-1.7,0.3
			s-1.2-0.1-1.7-0.3c-0.5-0.2-1-0.5-1.3-0.9s-0.6-0.8-0.8-1.3s-0.3-1-0.3-1.6s0.1-1.1,0.3-1.6s0.5-0.9,0.8-1.3
			c0.4-0.4,0.8-0.7,1.3-0.9c0.5-0.2,1.1-0.3,1.7-0.3s1.2,0.1,1.7,0.3c0.5,0.2,0.9,0.5,1.3,0.9c0.4,0.4,0.6,0.8,0.8,1.3
			C-127.6-383.5-127.5-383-127.5-382.4z M-129.4-382.4c0-0.4-0.1-0.8-0.2-1.1s-0.2-0.6-0.4-0.8c-0.2-0.2-0.4-0.4-0.7-0.5
			s-0.6-0.2-1-0.2s-0.7,0.1-1,0.2s-0.5,0.3-0.7,0.5s-0.3,0.5-0.4,0.8s-0.2,0.7-0.2,1.1s0.1,0.8,0.2,1.1c0.1,0.3,0.2,0.6,0.4,0.8
			s0.4,0.4,0.7,0.5s0.6,0.2,1,0.2s0.7-0.1,1-0.2s0.5-0.3,0.7-0.5s0.3-0.5,0.4-0.8C-129.4-381.6-129.4-382-129.4-382.4z"/>
		<path class="st0" d="M-120.9-386.4v1.4h-3.3v2h2.7v1.4h-2.7v3.1h-1.9v-8h5.2C-120.9-386.5-120.9-386.4-120.9-386.4z"/>
		<path class="st0" d="M-120.7-379.2c0-0.1,0-0.3,0.1-0.4c0-0.1,0.1-0.2,0.2-0.3c0.1-0.1,0.2-0.2,0.3-0.2s0.2-0.1,0.4-0.1
			c0.1,0,0.3,0,0.4,0.1c0.1,0,0.2,0.1,0.3,0.2s0.2,0.2,0.2,0.3c0,0.1,0.1,0.2,0.1,0.4c0,0.2,0,0.3-0.1,0.4c0,0.1-0.1,0.2-0.2,0.3
			s-0.2,0.2-0.3,0.2s-0.2,0.1-0.4,0.1c-0.1,0-0.3,0-0.4-0.1c-0.1,0-0.2-0.1-0.3-0.2s-0.2-0.2-0.2-0.3S-120.7-379.1-120.7-379.2z"/>
		<path class="st0" d="M-143.3-368.4c0,0.6-0.1,1.1-0.3,1.6s-0.5,0.9-0.8,1.3s-0.8,0.6-1.3,0.8c-0.5,0.2-1.1,0.3-1.7,0.3h-3.1v-8
			h3.1c0.6,0,1.2,0.1,1.7,0.3c0.5,0.2,0.9,0.5,1.3,0.8c0.4,0.3,0.6,0.8,0.8,1.3S-143.3-369-143.3-368.4z M-145.2-368.4
			c0-0.4-0.1-0.8-0.2-1.1s-0.2-0.6-0.4-0.8c-0.2-0.2-0.4-0.4-0.7-0.5s-0.6-0.2-1-0.2h-1.2v5.2h1.2c0.4,0,0.7-0.1,1-0.2
			s0.5-0.3,0.7-0.5s0.3-0.5,0.4-0.8C-145.3-367.6-145.2-368-145.2-368.4z"/>
		<path class="st0" d="M-140-367.3v3h-1.9v-8h2.6c0.6,0,1.1,0.1,1.5,0.2s0.7,0.3,1,0.5s0.4,0.5,0.6,0.8c0.1,0.3,0.2,0.6,0.2,0.9
			s0,0.5-0.1,0.7s-0.2,0.4-0.3,0.6s-0.3,0.4-0.5,0.5c-0.2,0.2-0.4,0.3-0.7,0.4c0.1,0.1,0.2,0.1,0.3,0.2s0.2,0.2,0.3,0.3l1.7,2.8
			h-1.7c-0.3,0-0.5-0.1-0.7-0.4l-1.3-2.3c-0.1-0.1-0.1-0.2-0.2-0.2c-0.1,0-0.2-0.1-0.3-0.1L-140-367.3L-140-367.3z M-140-368.6h0.7
			c0.3,0,0.5,0,0.6-0.1c0.2-0.1,0.3-0.2,0.4-0.3c0.1-0.1,0.2-0.2,0.2-0.4c0.1-0.2,0.1-0.3,0.1-0.5c0-0.4-0.1-0.6-0.3-0.8
			c-0.2-0.2-0.6-0.3-1.1-0.3h-0.7v2.4C-140.1-368.6-140-368.6-140-368.6z"/>
		<path class="st0" d="M-134.3-365.2c0-0.1,0-0.3,0.1-0.4c0-0.1,0.1-0.2,0.2-0.3c0.1-0.1,0.2-0.2,0.3-0.2s0.2-0.1,0.4-0.1
			c0.1,0,0.3,0,0.4,0.1c0.1,0,0.2,0.1,0.3,0.2s0.2,0.2,0.2,0.3s0.1,0.2,0.1,0.4c0,0.2,0,0.3-0.1,0.4c0,0.1-0.1,0.2-0.2,0.3
			s-0.2,0.2-0.3,0.2s-0.2,0.1-0.4,0.1c-0.1,0-0.3,0-0.4-0.1c-0.1,0-0.2-0.1-0.3-0.2s-0.2-0.2-0.2-0.3S-134.3-365.1-134.3-365.2z"/>
		<path class="st0" d="M-148.7-353v2.7h-1.9v-8h2.8c0.6,0,1,0.1,1.5,0.2s0.7,0.3,1,0.6c0.3,0.2,0.5,0.5,0.6,0.8s0.2,0.7,0.2,1
			c0,0.4-0.1,0.8-0.2,1.1c-0.1,0.3-0.3,0.6-0.6,0.9c-0.3,0.2-0.6,0.4-1,0.6c-0.4,0.1-0.9,0.2-1.4,0.2L-148.7-353L-148.7-353z
			 M-148.7-354.4h1c0.5,0,0.8-0.1,1-0.3c0.2-0.2,0.3-0.6,0.3-1c0-0.2,0-0.4-0.1-0.5s-0.1-0.3-0.2-0.4c-0.1-0.1-0.3-0.2-0.4-0.2
			s-0.4-0.1-0.6-0.1h-1V-354.4z"/>
		<path class="st0" d="M-137.8-358.4v1.4h-3.3v1.9h2.5v1.4h-2.5v1.9h3.3v1.4h-5.2v-8C-143-358.4-137.8-358.4-137.8-358.4z"/>
		<path class="st0" d="M-130.4-358.4v1.5h-2.3v6.5h-1.9v-6.5h-2.3v-1.5H-130.4z"/>
		<path class="st0" d="M-123.9-358.4v1.4h-3.3v1.9h2.5v1.4h-2.5v1.9h3.3v1.4h-5.2v-8C-129.1-358.4-123.9-358.4-123.9-358.4z"/>
		<path class="st0" d="M-120.5-353.3v3h-1.9v-8h2.6c0.6,0,1.1,0.1,1.5,0.2s0.7,0.3,1,0.5s0.4,0.5,0.6,0.8c0.1,0.3,0.2,0.6,0.2,0.9
			s0,0.5-0.1,0.7s-0.2,0.4-0.3,0.6c-0.1,0.2-0.3,0.4-0.5,0.5c-0.2,0.2-0.4,0.3-0.7,0.4c0.1,0.1,0.2,0.1,0.3,0.2s0.2,0.2,0.3,0.3
			l1.7,2.8h-1.7c-0.3,0-0.5-0.1-0.7-0.4l-1.3-2.3c-0.1-0.1-0.1-0.2-0.2-0.2s-0.2-0.1-0.3-0.1L-120.5-353.3L-120.5-353.3z
			 M-120.5-354.6h0.7c0.3,0,0.5,0,0.6-0.1c0.2-0.1,0.3-0.2,0.4-0.3c0.1-0.1,0.2-0.2,0.2-0.4c0.1-0.2,0.1-0.3,0.1-0.5
			c0-0.4-0.1-0.6-0.3-0.8c-0.2-0.2-0.6-0.3-1.1-0.3h-0.7v2.4C-120.6-354.6-120.5-354.6-120.5-354.6z"/>
		<path class="st0" d="M-144.7-344.4v1.5h-2.3v6.5h-1.9v-6.5h-2.3v-1.5H-144.7z"/>
		<path class="st0" d="M-141.6-339.3v3h-1.9v-8h2.6c0.6,0,1.1,0.1,1.5,0.2s0.7,0.3,1,0.5s0.4,0.5,0.6,0.8c0.1,0.3,0.2,0.6,0.2,0.9
			s0,0.5-0.1,0.7s-0.2,0.4-0.3,0.6s-0.3,0.4-0.5,0.5c-0.2,0.2-0.4,0.3-0.7,0.4c0.1,0.1,0.2,0.1,0.3,0.2s0.2,0.2,0.3,0.3l1.7,2.8
			h-1.7c-0.3,0-0.5-0.1-0.7-0.4l-1.3-2.3c-0.1-0.1-0.1-0.2-0.2-0.2c-0.1,0-0.2-0.1-0.3-0.1L-141.6-339.3L-141.6-339.3z
			 M-141.6-340.6h0.7c0.3,0,0.5,0,0.6-0.1c0.2-0.1,0.3-0.2,0.4-0.3c0.1-0.1,0.2-0.2,0.2-0.4c0.1-0.2,0.1-0.3,0.1-0.5
			c0-0.4-0.1-0.6-0.3-0.8c-0.2-0.2-0.6-0.3-1.1-0.3h-0.7v2.4C-141.7-340.6-141.6-340.6-141.6-340.6z"/>
		<path class="st0" d="M-132.5-337.8c0.2,0,0.5,0,0.7-0.1s0.4-0.2,0.5-0.4c0.1-0.2,0.2-0.3,0.3-0.6s0.1-0.5,0.1-0.8v-4.7h1.9v4.7
			c0,0.5-0.1,0.9-0.2,1.4c-0.2,0.4-0.4,0.8-0.7,1.1c-0.3,0.3-0.7,0.5-1.1,0.7c-0.4,0.2-0.9,0.2-1.4,0.2s-1-0.1-1.4-0.2
			c-0.4-0.2-0.8-0.4-1.1-0.7c-0.3-0.3-0.5-0.7-0.7-1.1s-0.2-0.9-0.2-1.4v-4.7h1.9v4.7c0,0.3,0,0.5,0.1,0.8c0.1,0.2,0.2,0.4,0.3,0.6
			s0.3,0.3,0.5,0.4C-133-337.9-132.8-337.8-132.5-337.8z M-132.9-345.5c0,0.1,0,0.2-0.1,0.3c-0.1,0.1-0.1,0.2-0.2,0.3
			c-0.1,0.1-0.2,0.1-0.3,0.2c-0.1,0-0.2,0.1-0.3,0.1s-0.2,0-0.3-0.1c-0.1,0-0.2-0.1-0.3-0.2s-0.1-0.2-0.2-0.3
			c-0.1-0.1-0.1-0.2-0.1-0.3s0-0.2,0.1-0.3c0-0.1,0.1-0.2,0.2-0.3c0.1-0.1,0.2-0.1,0.3-0.2c0.1,0,0.2-0.1,0.3-0.1s0.2,0,0.3,0.1
			c0.1,0,0.2,0.1,0.3,0.2s0.1,0.2,0.2,0.3C-132.9-345.8-132.9-345.7-132.9-345.5z M-130.5-345.5c0,0.1,0,0.2-0.1,0.3
			c-0.1,0.1-0.1,0.2-0.2,0.3c-0.1,0.1-0.2,0.1-0.3,0.2s-0.2,0.1-0.3,0.1s-0.2,0-0.3-0.1s-0.2-0.1-0.3-0.2s-0.1-0.2-0.2-0.3
			c-0.1-0.1-0.1-0.2-0.1-0.3s0-0.2,0.1-0.3c0-0.1,0.1-0.2,0.2-0.3c0.1-0.1,0.2-0.1,0.3-0.2s0.2-0.1,0.3-0.1s0.2,0,0.3,0.1
			s0.2,0.1,0.3,0.2s0.1,0.2,0.2,0.3C-130.5-345.8-130.5-345.7-130.5-345.5z"/>
		<path class="st0" d="M-127.3-336.4v-8h2.9c0.6,0,1,0.1,1.4,0.2s0.7,0.2,1,0.4c0.2,0.2,0.4,0.4,0.5,0.7c0.1,0.3,0.2,0.6,0.2,0.9
			c0,0.2,0,0.4-0.1,0.5c-0.1,0.2-0.1,0.3-0.2,0.5c-0.1,0.1-0.3,0.3-0.4,0.4c-0.2,0.1-0.4,0.2-0.6,0.3c0.5,0.1,0.9,0.3,1.2,0.6
			s0.4,0.7,0.4,1.1c0,0.3-0.1,0.7-0.2,1s-0.3,0.5-0.6,0.8c-0.3,0.2-0.6,0.4-0.9,0.5c-0.4,0.1-0.8,0.2-1.3,0.2h-3.3V-336.4
			L-127.3-336.4z M-125.5-341h1c0.2,0,0.4,0,0.6,0s0.3-0.1,0.4-0.2s0.2-0.2,0.3-0.3s0.1-0.3,0.1-0.5s0-0.3-0.1-0.5
			c0-0.1-0.1-0.2-0.2-0.3c-0.1-0.1-0.2-0.1-0.4-0.2s-0.3,0-0.5,0h-1.1v2H-125.5z M-125.5-339.8v2h1.3c0.2,0,0.4,0,0.6-0.1
			s0.3-0.1,0.4-0.2s0.1-0.2,0.2-0.3c0-0.1,0-0.3,0-0.4s0-0.3-0.1-0.4c0-0.1-0.1-0.2-0.2-0.3c-0.1-0.1-0.2-0.1-0.4-0.2
			c-0.2,0-0.3-0.1-0.6-0.1C-124.3-339.8-125.5-339.8-125.5-339.8z"/>
		<path class="st0" d="M-118.4-344.4C-118.3-344.4-118.3-344.4-118.4-344.4c0.1,0,0.2,0,0.2,0.1l0.1,0.1l3.8,4.8c0-0.2,0-0.3,0-0.4
			s0-0.3,0-0.4v-4.2h1.6v8h-1c-0.1,0-0.3,0-0.4-0.1c-0.1,0-0.2-0.1-0.3-0.2l-3.8-4.8c0,0.1,0,0.3,0,0.4s0,0.3,0,0.4v4.3h-1.6v-8h1
			C-118.5-344.4-118.4-344.4-118.4-344.4z"/>
		<path class="st0" d="M-105.5-344.4v1.4h-3.3v1.9h2.5v1.4h-2.5v1.9h3.3v1.4h-5.2v-8C-110.7-344.4-105.5-344.4-105.5-344.4z"/>
		<path class="st0" d="M-102.1-339.3v3h-1.8v-8h2.6c0.6,0,1.1,0.1,1.5,0.2s0.7,0.3,1,0.5s0.4,0.5,0.6,0.8c0.1,0.3,0.2,0.6,0.2,0.9
			s0,0.5-0.1,0.7s-0.2,0.4-0.3,0.6c-0.1,0.2-0.3,0.4-0.5,0.5c-0.2,0.2-0.4,0.3-0.7,0.4c0.1,0.1,0.2,0.1,0.3,0.2s0.2,0.2,0.3,0.3
			l1.7,2.8H-99c-0.3,0-0.5-0.1-0.7-0.4l-1.3-2.3c-0.1-0.1-0.1-0.2-0.2-0.2s-0.2-0.1-0.3-0.1L-102.1-339.3L-102.1-339.3z
			 M-102.1-340.6h0.7c0.3,0,0.5,0,0.6-0.1c0.2-0.1,0.3-0.2,0.4-0.3c0.1-0.1,0.2-0.2,0.2-0.4c0.1-0.2,0.1-0.3,0.1-0.5
			c0-0.4-0.1-0.6-0.3-0.8c-0.2-0.2-0.6-0.3-1.1-0.3h-0.7v2.4C-102.2-340.6-102.1-340.6-102.1-340.6z"/>
	</g>
</g>
<g>
	<line class="st1" x1="-169.6" y1="-403.6" x2="-169.6" y2="-318.6"/>
	<rect x="-170.1" y="-403.6" width="1" height="85"/>
</g>
<g>
	<path d="M-267.8-187.7h6.9v4.6h-17.3l14-62.4h-6.3v-5h16.6l-2.4,9.6h0.4c1-1.4,2.1-2.7,3.3-4s2.6-2.4,4.1-3.4s3.1-1.8,4.9-2.3
		c1.8-0.6,3.6-0.8,5.7-0.8c3.4,0,6.3,1.2,8.5,3.5s3.3,6,3.3,11.1c0,4.7-0.8,9.2-2.3,13.6c-1.5,4.3-3.7,8.2-6.3,11.5
		c-2.7,3.3-5.8,6-9.4,8c-3.6,2-7.5,3-11.6,3c-1.1,0-2.1,0-2.9-0.1c-0.8-0.1-1.5-0.2-2.1-0.3c-0.6-0.2-1.2-0.3-1.8-0.5
		c-0.6-0.2-1.2-0.4-1.9-0.7L-267.8-187.7z M-242.8-245.4c-1.7,0-3.4,0.4-4.9,1.1c-1.6,0.7-3,1.7-4.2,2.7c-1.3,1.1-2.4,2.3-3.3,3.5
		c-0.9,1.3-1.6,2.5-2,3.6l-6,27.4c0.4,0.4,0.9,0.7,1.3,1s1,0.5,1.6,0.6s1.3,0.2,2.1,0.3c0.8,0.1,1.8,0.1,3,0.1
		c2.6,0,5.2-0.9,7.5-2.8c2.3-1.9,4.4-4.3,6.2-7.2s3.2-6.2,4.3-9.9s1.6-7.3,1.6-10.8c0-3.1-0.6-5.5-1.8-7.2S-240.5-245.4-242.8-245.4
		z"/>
	<path d="M-217.1-250.5h9.9l2.7-10.7h8.6l-2.5,10.7h12.6v5h-13.6l-7.3,28.1c-0.3,1.2-0.5,2.4-0.7,3.3c-0.1,1-0.2,2-0.2,3.1
		c0,2.9,1.6,4.3,4.9,4.3c1.7,0,3.6-0.4,5.7-1.2c2.1-0.8,4-1.9,5.6-3.3l2,3.7c-0.7,0.7-1.6,1.5-2.8,2.3s-2.6,1.5-4.1,2.2
		c-1.6,0.7-3.3,1.2-5.1,1.6c-1.9,0.4-3.8,0.6-5.8,0.6c-3,0-5.4-0.7-7.1-2.2s-2.5-3.4-2.5-5.7c0-1,0-2,0.1-3.1s0.2-2.2,0.6-3.4
		l7.6-30.3h-8.6C-217.1-245.5-217.1-250.5-217.1-250.5z"/>
</g>
<g>
	<g>
		<path class="st0" d="M-148.7-245.4v2.7h-1.9v-8h2.8c0.6,0,1,0.1,1.5,0.2s0.7,0.3,1,0.6c0.3,0.2,0.5,0.5,0.6,0.8s0.2,0.7,0.2,1
			c0,0.4-0.1,0.8-0.2,1.1c-0.1,0.3-0.3,0.6-0.6,0.9c-0.3,0.2-0.6,0.4-1,0.6c-0.4,0.1-0.9,0.2-1.4,0.2L-148.7-245.4L-148.7-245.4
			L-148.7-245.4z M-148.7-246.8h1c0.5,0,0.8-0.1,1-0.3s0.3-0.6,0.3-1c0-0.2,0-0.4-0.1-0.5s-0.1-0.3-0.2-0.4
			c-0.1-0.1-0.3-0.2-0.4-0.2s-0.4-0.1-0.6-0.1h-1V-246.8z"/>
		<path class="st0" d="M-141.1-245.7v3h-1.9v-8h2.6c0.6,0,1.1,0.1,1.5,0.2s0.7,0.3,1,0.5s0.4,0.5,0.6,0.8c0.1,0.3,0.2,0.6,0.2,0.9
			s0,0.5-0.1,0.7s-0.2,0.4-0.3,0.6s-0.3,0.4-0.5,0.5c-0.2,0.2-0.4,0.3-0.7,0.4c0.1,0.1,0.2,0.1,0.3,0.2c0.1,0.1,0.2,0.2,0.3,0.3
			l1.7,2.8h-1.7c-0.3,0-0.5-0.1-0.7-0.4l-1.3-2.3c-0.1-0.1-0.1-0.2-0.2-0.2c-0.1,0-0.2-0.1-0.3-0.1h-0.5L-141.1-245.7L-141.1-245.7z
			 M-141.1-247h0.7c0.3,0,0.5,0,0.6-0.1c0.2-0.1,0.3-0.2,0.4-0.3c0.1-0.1,0.2-0.2,0.2-0.4c0.1-0.2,0.1-0.3,0.1-0.5
			c0-0.4-0.1-0.6-0.3-0.8s-0.6-0.3-1.1-0.3h-0.7v2.4C-141.2-247-141.1-247-141.1-247z"/>
		<path class="st0" d="M-127.5-246.8c0,0.6-0.1,1.1-0.3,1.6c-0.2,0.5-0.5,0.9-0.8,1.3c-0.3,0.4-0.8,0.7-1.3,0.9s-1.1,0.3-1.7,0.3
			s-1.2-0.1-1.7-0.3s-1-0.5-1.3-0.9s-0.6-0.8-0.8-1.3s-0.3-1-0.3-1.6s0.1-1.1,0.3-1.6s0.5-0.9,0.8-1.3c0.4-0.4,0.8-0.7,1.3-0.9
			s1.1-0.3,1.7-0.3s1.2,0.1,1.7,0.3s0.9,0.5,1.3,0.9c0.4,0.4,0.6,0.8,0.8,1.3C-127.6-247.9-127.5-247.4-127.5-246.8z M-129.4-246.8
			c0-0.4-0.1-0.8-0.2-1.1c-0.1-0.3-0.2-0.6-0.4-0.8s-0.4-0.4-0.7-0.5s-0.6-0.2-1-0.2s-0.7,0.1-1,0.2c-0.3,0.1-0.5,0.3-0.7,0.5
			s-0.3,0.5-0.4,0.8c-0.1,0.3-0.2,0.7-0.2,1.1s0.1,0.8,0.2,1.1c0.1,0.3,0.2,0.6,0.4,0.8s0.4,0.4,0.7,0.5s0.6,0.2,1,0.2
			s0.7-0.1,1-0.2c0.3-0.1,0.5-0.3,0.7-0.5s0.3-0.5,0.4-0.8C-129.4-246-129.4-246.4-129.4-246.8z"/>
		<path class="st0" d="M-120.9-250.8v1.4h-3.3v2h2.7v1.4h-2.7v3.1h-1.9v-8h5.2C-120.9-250.9-120.9-250.8-120.9-250.8z"/>
		<path class="st0" d="M-120.7-243.6c0-0.1,0-0.3,0.1-0.4c0-0.1,0.1-0.2,0.2-0.3s0.2-0.2,0.3-0.2s0.2-0.1,0.4-0.1
			c0.1,0,0.3,0,0.4,0.1c0.1,0,0.2,0.1,0.3,0.2c0.1,0.1,0.2,0.2,0.2,0.3s0.1,0.2,0.1,0.4s0,0.3-0.1,0.4c0,0.1-0.1,0.2-0.2,0.3
			s-0.2,0.2-0.3,0.2s-0.2,0.1-0.4,0.1c-0.1,0-0.3,0-0.4-0.1c-0.1,0-0.2-0.1-0.3-0.2c-0.1-0.1-0.2-0.2-0.2-0.3
			C-120.6-243.3-120.7-243.5-120.7-243.6z"/>
		<path class="st0" d="M-143.3-232.8c0,0.6-0.1,1.1-0.3,1.6s-0.5,0.9-0.8,1.3c-0.3,0.4-0.8,0.6-1.3,0.8s-1.1,0.3-1.7,0.3h-3.1v-8
			h3.1c0.6,0,1.2,0.1,1.7,0.3s0.9,0.5,1.3,0.8c0.4,0.3,0.6,0.8,0.8,1.3C-143.4-233.9-143.3-233.4-143.3-232.8z M-145.2-232.8
			c0-0.4-0.1-0.8-0.2-1.1c-0.1-0.3-0.2-0.6-0.4-0.8s-0.4-0.4-0.7-0.5s-0.6-0.2-1-0.2h-1.2v5.2h1.2c0.4,0,0.7-0.1,1-0.2
			c0.3-0.1,0.5-0.3,0.7-0.5s0.3-0.5,0.4-0.8S-145.2-232.4-145.2-232.8z"/>
		<path class="st0" d="M-140-231.7v3h-1.9v-8h2.6c0.6,0,1.1,0.1,1.5,0.2s0.7,0.3,1,0.5s0.4,0.5,0.6,0.8c0.1,0.3,0.2,0.6,0.2,0.9
			s0,0.5-0.1,0.7s-0.2,0.4-0.3,0.6s-0.3,0.4-0.5,0.5c-0.2,0.2-0.4,0.3-0.7,0.4c0.1,0.1,0.2,0.1,0.3,0.2s0.2,0.2,0.3,0.3l1.7,2.8
			h-1.7c-0.3,0-0.5-0.1-0.7-0.4l-1.3-2.3c-0.1-0.1-0.1-0.2-0.2-0.2c-0.1,0-0.2-0.1-0.3-0.1L-140-231.7L-140-231.7z M-140-233h0.7
			c0.3,0,0.5,0,0.6-0.1c0.2-0.1,0.3-0.2,0.4-0.3c0.1-0.1,0.2-0.2,0.2-0.4c0.1-0.2,0.1-0.3,0.1-0.5c0-0.4-0.1-0.6-0.3-0.8
			s-0.6-0.3-1.1-0.3h-0.7v2.4C-140.1-233-140-233-140-233z"/>
		<path class="st0" d="M-134.3-229.6c0-0.1,0-0.3,0.1-0.4c0-0.1,0.1-0.2,0.2-0.3c0.1-0.1,0.2-0.2,0.3-0.2s0.2-0.1,0.4-0.1
			c0.1,0,0.3,0,0.4,0.1c0.1,0,0.2,0.1,0.3,0.2s0.2,0.2,0.2,0.3s0.1,0.2,0.1,0.4s0,0.3-0.1,0.4c0,0.1-0.1,0.2-0.2,0.3
			c-0.1,0.1-0.2,0.2-0.3,0.2s-0.2,0.1-0.4,0.1c-0.1,0-0.3,0-0.4-0.1c-0.1,0-0.2-0.1-0.3-0.2c-0.1-0.1-0.2-0.2-0.2-0.3
			C-134.2-229.3-134.3-229.5-134.3-229.6z"/>
		<path class="st0" d="M-148.7-217.4v2.7h-1.9v-8h2.8c0.6,0,1,0.1,1.5,0.2s0.7,0.3,1,0.6c0.3,0.2,0.5,0.5,0.6,0.8s0.2,0.7,0.2,1
			c0,0.4-0.1,0.8-0.2,1.1c-0.1,0.3-0.3,0.6-0.6,0.9c-0.3,0.2-0.6,0.4-1,0.6c-0.4,0.1-0.9,0.2-1.4,0.2L-148.7-217.4L-148.7-217.4z
			 M-148.7-218.8h1c0.5,0,0.8-0.1,1-0.3s0.3-0.6,0.3-1c0-0.2,0-0.4-0.1-0.5s-0.1-0.3-0.2-0.4c-0.1-0.1-0.3-0.2-0.4-0.2
			s-0.4-0.1-0.6-0.1h-1V-218.8z"/>
		<path class="st0" d="M-137.8-222.8v1.4h-3.3v1.9h2.5v1.4h-2.5v1.9h3.3v1.4h-5.2v-8C-143-222.8-137.8-222.8-137.8-222.8z"/>
		<path class="st0" d="M-130.4-222.8v1.5h-2.3v6.5h-1.9v-6.5h-2.3v-1.5H-130.4z"/>
		<path class="st0" d="M-123.9-222.8v1.4h-3.3v1.9h2.5v1.4h-2.5v1.9h3.3v1.4h-5.2v-8C-129.1-222.8-123.9-222.8-123.9-222.8z"/>
		<path class="st0" d="M-120.5-217.7v3h-1.9v-8h2.6c0.6,0,1.1,0.1,1.5,0.2s0.7,0.3,1,0.5s0.4,0.5,0.6,0.8c0.1,0.3,0.2,0.6,0.2,0.9
			s0,0.5-0.1,0.7s-0.2,0.4-0.3,0.6s-0.3,0.4-0.5,0.5c-0.2,0.2-0.4,0.3-0.7,0.4c0.1,0.1,0.2,0.1,0.3,0.2s0.2,0.2,0.3,0.3l1.7,2.8
			h-1.7c-0.3,0-0.5-0.1-0.7-0.4l-1.3-2.3c-0.1-0.1-0.1-0.2-0.2-0.2s-0.2-0.1-0.3-0.1L-120.5-217.7L-120.5-217.7z M-120.5-219h0.7
			c0.3,0,0.5,0,0.6-0.1c0.2-0.1,0.3-0.2,0.4-0.3s0.2-0.2,0.2-0.4c0.1-0.2,0.1-0.3,0.1-0.5c0-0.4-0.1-0.6-0.3-0.8
			c-0.2-0.2-0.6-0.3-1.1-0.3h-0.7v2.4C-120.6-219-120.5-219-120.5-219z"/>
		<path class="st0" d="M-144.7-208.8v1.5h-2.3v6.5h-1.9v-6.5h-2.3v-1.5H-144.7z"/>
		<path class="st0" d="M-141.6-203.7v3h-1.9v-8h2.6c0.6,0,1.1,0.1,1.5,0.2s0.7,0.3,1,0.5s0.4,0.5,0.6,0.8c0.1,0.3,0.2,0.6,0.2,0.9
			s0,0.5-0.1,0.7s-0.2,0.4-0.3,0.6s-0.3,0.4-0.5,0.5c-0.2,0.2-0.4,0.3-0.7,0.4c0.1,0.1,0.2,0.1,0.3,0.2c0.1,0.1,0.2,0.2,0.3,0.3
			l1.7,2.8h-1.7c-0.3,0-0.5-0.1-0.7-0.4l-1.3-2.3c-0.1-0.1-0.1-0.2-0.2-0.2c-0.1,0-0.2-0.1-0.3-0.1L-141.6-203.7L-141.6-203.7z
			 M-141.6-205h0.7c0.3,0,0.5,0,0.6-0.1c0.2-0.1,0.3-0.2,0.4-0.3c0.1-0.1,0.2-0.2,0.2-0.4c0.1-0.2,0.1-0.3,0.1-0.5
			c0-0.4-0.1-0.6-0.3-0.8s-0.6-0.3-1.1-0.3h-0.7v2.4C-141.7-205-141.6-205-141.6-205z"/>
		<path class="st0" d="M-132.5-202.2c0.2,0,0.5,0,0.7-0.1s0.4-0.2,0.5-0.4s0.2-0.3,0.3-0.6s0.1-0.5,0.1-0.8v-4.7h1.9v4.7
			c0,0.5-0.1,0.9-0.2,1.4c-0.2,0.4-0.4,0.8-0.7,1.1s-0.7,0.5-1.1,0.7c-0.4,0.2-0.9,0.2-1.4,0.2s-1-0.1-1.4-0.2
			c-0.4-0.2-0.8-0.4-1.1-0.7s-0.5-0.7-0.7-1.1c-0.2-0.4-0.2-0.9-0.2-1.4v-4.7h1.9v4.7c0,0.3,0,0.5,0.1,0.8c0.1,0.2,0.2,0.4,0.3,0.6
			s0.3,0.3,0.5,0.4C-133-202.3-132.8-202.2-132.5-202.2z M-132.9-209.9c0,0.1,0,0.2-0.1,0.3s-0.1,0.2-0.2,0.3
			c-0.1,0.1-0.2,0.1-0.3,0.2c-0.1,0-0.2,0.1-0.3,0.1s-0.2,0-0.3-0.1c-0.1,0-0.2-0.1-0.3-0.2s-0.1-0.2-0.2-0.3
			c-0.1-0.1-0.1-0.2-0.1-0.3s0-0.2,0.1-0.3c0-0.1,0.1-0.2,0.2-0.3c0.1-0.1,0.2-0.1,0.3-0.2c0.1,0,0.2-0.1,0.3-0.1s0.2,0,0.3,0.1
			c0.1,0,0.2,0.1,0.3,0.2s0.1,0.2,0.2,0.3C-132.9-210.2-132.9-210.1-132.9-209.9z M-130.5-209.9c0,0.1,0,0.2-0.1,0.3
			s-0.1,0.2-0.2,0.3c-0.1,0.1-0.2,0.1-0.3,0.2c-0.1,0.1-0.2,0.1-0.3,0.1s-0.2,0-0.3-0.1s-0.2-0.1-0.3-0.2c-0.1-0.1-0.1-0.2-0.2-0.3
			c-0.1-0.1-0.1-0.2-0.1-0.3s0-0.2,0.1-0.3c0-0.1,0.1-0.2,0.2-0.3c0.1-0.1,0.2-0.1,0.3-0.2s0.2-0.1,0.3-0.1s0.2,0,0.3,0.1
			s0.2,0.1,0.3,0.2s0.1,0.2,0.2,0.3C-130.5-210.2-130.5-210.1-130.5-209.9z"/>
		<path class="st0" d="M-127.3-200.8v-8h2.9c0.6,0,1,0.1,1.4,0.2c0.4,0.1,0.7,0.2,1,0.4c0.2,0.2,0.4,0.4,0.5,0.7s0.2,0.6,0.2,0.9
			c0,0.2,0,0.4-0.1,0.5c-0.1,0.2-0.1,0.3-0.2,0.5c-0.1,0.1-0.3,0.3-0.4,0.4c-0.2,0.1-0.4,0.2-0.6,0.3c0.5,0.1,0.9,0.3,1.2,0.6
			c0.3,0.3,0.4,0.7,0.4,1.1c0,0.3-0.1,0.7-0.2,1s-0.3,0.5-0.6,0.8c-0.3,0.2-0.6,0.4-0.9,0.5c-0.4,0.1-0.8,0.2-1.3,0.2L-127.3-200.8
			L-127.3-200.8L-127.3-200.8z M-125.5-205.4h1c0.2,0,0.4,0,0.6,0s0.3-0.1,0.4-0.2c0.1-0.1,0.2-0.2,0.3-0.3c0.1-0.1,0.1-0.3,0.1-0.5
			s0-0.3-0.1-0.5c0-0.1-0.1-0.2-0.2-0.3s-0.2-0.1-0.4-0.2c-0.2-0.1-0.3,0-0.5,0h-1.1v2H-125.5z M-125.5-204.2v2h1.3
			c0.2,0,0.4,0,0.6-0.1s0.3-0.1,0.4-0.2c0.1-0.1,0.1-0.2,0.2-0.3c0-0.1,0-0.3,0-0.4c0-0.1,0-0.3-0.1-0.4c0-0.1-0.1-0.2-0.2-0.3
			s-0.2-0.1-0.4-0.2c-0.2,0-0.3-0.1-0.6-0.1C-124.3-204.2-125.5-204.2-125.5-204.2z"/>
		<path class="st0" d="M-118.4-208.8C-118.3-208.8-118.3-208.8-118.4-208.8c0.1,0,0.2,0,0.2,0.1l0.1,0.1l3.8,4.8c0-0.2,0-0.3,0-0.4
			c0-0.1,0-0.3,0-0.4v-4.2h1.6v8h-1c-0.1,0-0.3,0-0.4-0.1c-0.1,0-0.2-0.1-0.3-0.2l-3.8-4.8c0,0.1,0,0.3,0,0.4c0,0.1,0,0.3,0,0.4v4.3
			h-1.6v-8h1C-118.5-208.8-118.4-208.8-118.4-208.8z"/>
		<path class="st0" d="M-105.5-208.8v1.4h-3.3v1.9h2.5v1.4h-2.5v1.9h3.3v1.4h-5.2v-8C-110.7-208.8-105.5-208.8-105.5-208.8z"/>
		<path class="st0" d="M-102.1-203.7v3h-1.8v-8h2.6c0.6,0,1.1,0.1,1.5,0.2s0.7,0.3,1,0.5s0.4,0.5,0.6,0.8c0.1,0.3,0.2,0.6,0.2,0.9
			s0,0.5-0.1,0.7s-0.2,0.4-0.3,0.6s-0.3,0.4-0.5,0.5c-0.2,0.2-0.4,0.3-0.7,0.4c0.1,0.1,0.2,0.1,0.3,0.2c0.1,0.1,0.2,0.2,0.3,0.3
			l1.7,2.8H-99c-0.3,0-0.5-0.1-0.7-0.4l-1.3-2.3c-0.1-0.1-0.1-0.2-0.2-0.2s-0.2-0.1-0.3-0.1L-102.1-203.7L-102.1-203.7z M-102.1-205
			h0.7c0.3,0,0.5,0,0.6-0.1c0.2-0.1,0.3-0.2,0.4-0.3s0.2-0.2,0.2-0.4c0.1-0.2,0.1-0.3,0.1-0.5c0-0.4-0.1-0.6-0.3-0.8
			c-0.2-0.2-0.6-0.3-1.1-0.3h-0.7v2.4C-102.2-205-102.1-205-102.1-205z"/>
	</g>
</g>
<g>
	<line class="st1" x1="-169.6" y1="-268" x2="-169.6" y2="-183"/>
	<rect x="-170.1" y="-268" width="1" height="85"/>
</g>
<text transform="matrix(1 0 0 1 -269.3928 -339.7441)" style="font-family:'PTSerif-BoldItalic'; font-size:100.2624px;">pt</text>
<text transform="matrix(1 0 0 1 -82.0287 -377.8497)" class="st0" style="font-family:'PTSans-CaptionBold'; font-size:12px;">Prof. </text>
<text transform="matrix(1 0 0 1 -82.0287 -366.8497)" class="st0" style="font-family:'PTSans-CaptionBold'; font-size:12px;">Dr. </text>
<text transform="matrix(1 0 0 1 -82.0287 -355.8497)" class="st0" style="font-family:'PTSans-CaptionBold'; font-size:12px;">Peter </text>
<text transform="matrix(1 0 0 1 -82.0287 -344.8497)" class="st0" style="font-family:'PTSans-CaptionBold'; font-size:12px;">Trübner</text>
<g>
	<line class="st1" x1="-152" y1="-606.1" x2="-152" y2="-521.1"/>
	<rect x="-152.5" y="-606.1" width="1" height="85"/>
</g>
<text transform="matrix(1 0 0 1 -247.7404 -542.2494)" style="font-family:'PTSerif-Italic'; font-size:100.2624px;">pt</text>
<text transform="matrix(1 0 0 1 -822.9766 -542.2494)" style="font-family:'PTSerif-Italic'; font-size:100.2624px;">PT</text>
<g>
	<text transform="matrix(1 0 0 1 370.2346 -739.7516)" class="st0" style="font-family:'PTSans-CaptionBold'; font-size:13px;">Prof. </text>
	<text transform="matrix(1 0 0 1 370.2346 -726.7516)" class="st0" style="font-family:'PTSans-CaptionBold'; font-size:13px;">Dr. </text>
	<text transform="matrix(1 0 0 1 370.2346 -713.7516)" class="st0" style="font-family:'PTSans-CaptionBold'; font-size:13px;">Peter </text>
	<text transform="matrix(1 0 0 1 370.2346 -700.7516)" class="st0" style="font-family:'PTSans-CaptionBold'; font-size:13px;">Trübner</text>
</g>
<rect x="-35.1" y="-593.6" class="st0" width="55.4" height="52.5"/>
<g>
	<line class="st1" x1="-169.4" y1="-107.3" x2="-169.4" y2="-22.3"/>
	<rect x="-169.9" y="-107.3" width="1" height="85"/>
</g>
<g>
	<path d="M-263.4-30.1c1.1,0.2,2.3,0.6,3.6,1.2c1.2,0.6,2.3,1.2,3.2,1.8v3.8h-20.7l-1.3-1.3l13.2-61.7l-5.8-1.4v-3.4
		c1.1-0.5,2.4-0.9,4.1-1.4c1.7-0.4,3.4-0.8,5.2-1.2c1.8-0.3,3.6-0.6,5.3-0.8c1.7-0.2,3.3-0.3,4.6-0.3l2,1.2l-3.3,13.8h0.4
		c1.1-2.1,2.3-4,3.7-5.9c1.4-1.8,2.8-3.4,4.4-4.8c1.6-1.4,3.3-2.4,5.1-3.2c1.8-0.8,3.8-1.2,5.9-1.2c3.4,0,6.2,1.3,8.5,4
		c2.2,2.7,3.4,6.4,3.4,11.2c0,5.4-0.8,10.4-2.3,15s-3.6,8.5-6.3,11.8c-2.6,3.3-5.8,5.9-9.4,7.7c-3.6,1.8-7.6,2.8-11.8,2.8
		c-1.9,0-3.5-0.2-4.8-0.5c-1.2-0.3-2.5-0.8-3.9-1.6L-263.4-30.1z M-241.3-86.8c-1.4,0-2.8,0.5-4.1,1.6c-1.3,1-2.6,2.3-3.7,3.9
		c-1.1,1.5-2.2,3.2-3.1,5s-1.7,3.4-2.3,4.9l-4.4,21.8c0.9,0.6,1.7,1,2.6,1.3c0.8,0.3,2.1,0.4,3.7,0.4c2.3,0,4.4-0.9,6.5-2.7
		c2-1.8,3.8-4.1,5.3-7s2.7-6.1,3.5-9.7c0.8-3.6,1.3-7.2,1.3-10.7c0-2.8-0.4-4.9-1.3-6.4C-238.4-86-239.7-86.8-241.3-86.8z"/>
	<path d="M-215-91.1c1.3-0.8,2.7-1.5,4.2-2.1s3-1,4.5-1.4l1.6-7.6c0.5-0.4,1.2-0.8,2.2-1.2c1-0.4,2.1-0.7,3.3-1s2.4-0.6,3.6-0.9
		c1.2-0.3,2.3-0.5,3.3-0.6l2.1,1.2l-2.4,11h11.7c0.1,0.8,0.1,1.9-0.2,3.3c-0.2,1.3-0.6,2.4-1.2,3.3H-194l-5.8,25.8
		c-0.3,1.3-0.5,2.4-0.6,3.3c-0.1,1-0.2,1.8-0.2,2.6c0,1.7,0.4,3,1.3,3.8c0.9,0.8,2,1.2,3.5,1.2c1.7,0,3.2-0.2,4.7-0.6
		c1.5-0.4,2.9-1,4.2-1.7l1.3,2.6c-0.8,0.9-1.9,1.8-3.2,2.7s-2.8,1.7-4.5,2.5s-3.5,1.4-5.4,1.9s-3.9,0.7-5.9,0.7
		c-3.5,0-6-0.8-7.8-2.4c-1.7-1.6-2.6-3.8-2.6-6.6c0-1.5,0.1-3.2,0.4-4.9c0.3-1.7,0.5-3.2,0.8-4.4l5.8-26.6h-7.2v-3.9H-215z"/>
</g>
<g>
	<path class="st0" d="M-157.2-89.2c0.4-0.1,0.8-0.1,1.2-0.1s0.9-0.1,1.3-0.1c0.4,0,0.9,0,1.4,0.1s0.9,0.2,1.2,0.4
		c0.4,0.2,0.7,0.5,0.9,0.9s0.3,0.8,0.3,1.4c0,0.5-0.1,1-0.3,1.4s-0.5,0.7-0.8,0.9c-0.3,0.2-0.7,0.4-1.1,0.5
		c-0.4,0.1-0.9,0.2-1.3,0.2c0,0-0.1,0-0.2,0s-0.2,0-0.3,0s-0.2,0-0.3,0s-0.2,0-0.2,0v2.8h-1.8L-157.2-89.2L-157.2-89.2z
		 M-154.6-87.8c-0.2,0-0.3,0-0.5,0s-0.3,0-0.4,0v2.5c0,0,0.1,0,0.2,0s0.1,0,0.2,0s0.2,0,0.2,0c0.1,0,0.1,0,0.2,0c0.2,0,0.5,0,0.7,0
		s0.4-0.1,0.6-0.2c0.2-0.1,0.3-0.2,0.4-0.4c0.1-0.2,0.2-0.4,0.2-0.7c0-0.3-0.1-0.5-0.2-0.6c-0.1-0.2-0.2-0.3-0.4-0.4
		s-0.4-0.1-0.6-0.2C-154.1-87.8-154.4-87.8-154.6-87.8z"/>
	<path class="st0" d="M-149.6-89.2c0.2,0,0.4-0.1,0.6-0.1c0.2,0,0.5-0.1,0.7-0.1s0.5,0,0.7,0s0.4,0,0.6,0c0.4,0,0.8,0,1.3,0.1
		c0.4,0.1,0.8,0.2,1.1,0.4c0.3,0.2,0.6,0.4,0.8,0.7s0.3,0.7,0.3,1.2c0,0.7-0.2,1.3-0.5,1.7s-0.8,0.7-1.4,0.9l0.6,0.4l2.1,3.2h-2.1
		l-2.1-3.3l-0.9-0.1v3.4h-1.8L-149.6-89.2L-149.6-89.2z M-146.8-87.8c-0.2,0-0.4,0-0.5,0c-0.2,0-0.3,0-0.4,0v2.3h0.8
		c0.5,0,0.9-0.1,1.2-0.3c0.3-0.2,0.4-0.5,0.4-1c0-0.4-0.1-0.6-0.4-0.8S-146.4-87.8-146.8-87.8z"/>
	<path class="st0" d="M-142-85.1c0-0.7,0.1-1.3,0.3-1.8s0.4-1,0.8-1.4s0.7-0.7,1.2-0.9c0.5-0.2,1-0.3,1.6-0.3s1.2,0.1,1.7,0.3
		c0.5,0.2,0.9,0.5,1.2,0.9s0.6,0.8,0.7,1.4c0.2,0.5,0.2,1.1,0.2,1.8c0,0.7-0.1,1.3-0.3,1.8s-0.4,1-0.8,1.4s-0.7,0.7-1.2,0.9
		c-0.5,0.2-1,0.3-1.6,0.3s-1.2-0.1-1.7-0.3s-0.9-0.5-1.2-0.9s-0.6-0.8-0.7-1.4C-141.9-83.8-142-84.4-142-85.1z M-140.1-85.1
		c0,0.4,0,0.8,0.1,1.1c0.1,0.3,0.2,0.6,0.4,0.9c0.2,0.2,0.4,0.4,0.6,0.6c0.3,0.1,0.5,0.2,0.9,0.2c0.6,0,1.1-0.2,1.5-0.6
		s0.5-1.2,0.5-2.2c0-0.4,0-0.8-0.1-1.1c-0.1-0.3-0.2-0.6-0.4-0.9s-0.4-0.4-0.6-0.6s-0.6-0.2-0.9-0.2c-0.6,0-1.1,0.2-1.5,0.7
		C-139.9-86.8-140.1-86.1-140.1-85.1z"/>
	<path class="st0" d="M-132.6-89.3h5.4v1.6h-3.6v2h3.3v1.6h-3.3v3.3h-1.8V-89.3z"/>
	<path class="st0" d="M-126.8-81.7c0-0.3,0.1-0.5,0.3-0.7s0.4-0.3,0.8-0.3c0.3,0,0.6,0.1,0.8,0.3c0.2,0.2,0.3,0.4,0.3,0.7
		c0,0.3-0.1,0.5-0.3,0.7c-0.2,0.2-0.4,0.3-0.8,0.3c-0.3,0-0.6-0.1-0.8-0.3C-126.7-81.2-126.8-81.4-126.8-81.7z"/>
	<path class="st0" d="M-157.2-78.3c0.2,0,0.4,0,0.6-0.1s0.5,0,0.7,0s0.5,0,0.7,0s0.4,0,0.6,0c0.8,0,1.5,0.1,2.1,0.3
		c0.6,0.2,1,0.5,1.4,0.9s0.6,0.8,0.8,1.3s0.3,1.1,0.3,1.7s-0.1,1.1-0.2,1.6c-0.2,0.5-0.4,1-0.8,1.4s-0.8,0.7-1.4,1
		c-0.6,0.2-1.3,0.4-2.2,0.4c-0.1,0-0.3,0-0.6,0c-0.2,0-0.5,0-0.7,0c-0.3,0-0.5,0-0.7,0s-0.4,0-0.5,0v-8.5H-157.2z M-154.4-76.8
		c-0.2,0-0.4,0-0.6,0c-0.2,0-0.3,0-0.4,0v5.4c0,0,0.1,0,0.2,0s0.2,0,0.3,0s0.2,0,0.3,0s0.1,0,0.2,0c0.5,0,0.9-0.1,1.3-0.2
		s0.6-0.4,0.8-0.6c0.2-0.3,0.3-0.6,0.4-0.9s0.1-0.7,0.1-1s0-0.6-0.1-0.9s-0.2-0.6-0.4-0.9s-0.4-0.5-0.8-0.7
		C-153.5-76.8-153.9-76.8-154.4-76.8z"/>
	<path class="st0" d="M-148.5-78.2c0.2,0,0.4-0.1,0.6-0.1c0.2,0,0.5-0.1,0.7-0.1s0.5,0,0.7,0s0.4,0,0.6,0c0.4,0,0.8,0,1.3,0.1
		c0.4,0.1,0.8,0.2,1.1,0.4c0.3,0.2,0.6,0.4,0.8,0.7s0.3,0.7,0.3,1.2c0,0.7-0.2,1.3-0.5,1.7s-0.8,0.7-1.4,0.9l0.6,0.4l2.1,3.2h-2.1
		l-2.1-3.3l-0.9-0.1v3.4h-1.8L-148.5-78.2L-148.5-78.2z M-145.8-76.8c-0.2,0-0.4,0-0.5,0c-0.2,0-0.3,0-0.4,0v2.3h0.8
		c0.5,0,0.9-0.1,1.2-0.3c0.3-0.2,0.4-0.5,0.4-1c0-0.4-0.1-0.6-0.4-0.8S-145.3-76.8-145.8-76.8z"/>
	<path class="st0" d="M-140.5-70.7c0-0.3,0.1-0.5,0.3-0.7s0.4-0.3,0.8-0.3c0.3,0,0.6,0.1,0.8,0.3c0.2,0.2,0.3,0.4,0.3,0.7
		c0,0.3-0.1,0.5-0.3,0.7s-0.4,0.3-0.8,0.3c-0.3,0-0.6-0.1-0.8-0.3C-140.4-70.2-140.5-70.4-140.5-70.7z"/>
	<path class="st0" d="M-157.2-67.2c0.4-0.1,0.8-0.1,1.2-0.1s0.9-0.1,1.3-0.1c0.4,0,0.9,0,1.4,0.1s0.9,0.2,1.2,0.4
		c0.4,0.2,0.7,0.5,0.9,0.9s0.3,0.8,0.3,1.4c0,0.5-0.1,1-0.3,1.4s-0.5,0.7-0.8,0.9s-0.7,0.4-1.1,0.5c-0.4,0.1-0.9,0.2-1.3,0.2
		c0,0-0.1,0-0.2,0s-0.2,0-0.3,0s-0.2,0-0.3,0s-0.2,0-0.2,0v2.8h-1.8L-157.2-67.2L-157.2-67.2z M-154.6-65.8c-0.2,0-0.3,0-0.5,0
		s-0.3,0-0.4,0v2.5c0,0,0.1,0,0.2,0s0.1,0,0.2,0s0.2,0,0.2,0c0.1,0,0.1,0,0.2,0c0.2,0,0.5,0,0.7,0s0.4-0.1,0.6-0.2
		c0.2-0.1,0.3-0.2,0.4-0.4c0.1-0.2,0.2-0.4,0.2-0.7s-0.1-0.5-0.2-0.6c-0.1-0.2-0.2-0.3-0.4-0.4s-0.4-0.1-0.6-0.2
		C-154.1-65.8-154.4-65.8-154.6-65.8z"/>
	<path class="st0" d="M-149.6-67.3h5.4v1.6h-3.6v1.8h3.3v1.6h-3.3v1.9h3.7v1.6h-5.5L-149.6-67.3L-149.6-67.3z"/>
	<path class="st0" d="M-135.9-65.7h-2.7v6.8h-1.8v-6.8h-2.7v-1.6h7.1L-135.9-65.7L-135.9-65.7z"/>
	<path class="st0" d="M-134.6-67.3h5.4v1.6h-3.6v1.8h3.3v1.6h-3.3v1.9h3.7v1.6h-5.5L-134.6-67.3L-134.6-67.3z"/>
	<path class="st0" d="M-127.4-67.2c0.2,0,0.4-0.1,0.6-0.1s0.5-0.1,0.7-0.1s0.5,0,0.7,0s0.4,0,0.6,0c0.4,0,0.8,0,1.3,0.1
		c0.4,0.1,0.8,0.2,1.1,0.4c0.3,0.2,0.6,0.4,0.8,0.7s0.3,0.7,0.3,1.2c0,0.7-0.2,1.3-0.5,1.7s-0.8,0.7-1.4,0.9l0.6,0.4l2.1,3.2h-2.1
		l-2.1-3.3l-0.9-0.1v3.4h-1.8C-127.4-58.8-127.4-67.2-127.4-67.2z M-124.7-65.8c-0.2,0-0.4,0-0.5,0c-0.2,0-0.3,0-0.4,0v2.3h0.8
		c0.5,0,0.9-0.1,1.2-0.3c0.3-0.2,0.4-0.5,0.4-1c0-0.4-0.1-0.6-0.4-0.8S-124.2-65.8-124.7-65.8z"/>
	<path class="st0" d="M-150.8-54.7h-2.7v6.8h-1.8v-6.8h-2.7v-1.6h7.1L-150.8-54.7L-150.8-54.7z"/>
	<path class="st0" d="M-149.5-56.2c0.2,0,0.4-0.1,0.6-0.1c0.2,0,0.5-0.1,0.7-0.1s0.5,0,0.7,0s0.4,0,0.6,0c0.4,0,0.8,0,1.3,0.1
		c0.4,0.1,0.8,0.2,1.1,0.4s0.6,0.4,0.8,0.7s0.3,0.7,0.3,1.2c0,0.7-0.2,1.3-0.5,1.7s-0.8,0.7-1.4,0.9l0.6,0.4l2.1,3.2h-2.1l-2.1-3.3
		l-0.9-0.1v3.4h-1.8L-149.5-56.2L-149.5-56.2z M-146.8-54.8c-0.2,0-0.4,0-0.5,0c-0.2,0-0.3,0-0.4,0v2.3h0.8c0.5,0,0.9-0.1,1.2-0.3
		s0.4-0.5,0.4-1c0-0.4-0.1-0.6-0.4-0.8S-146.3-54.8-146.8-54.8z"/>
	<path class="st0" d="M-136.6-56.3h1.7v5.4c0,0.5-0.1,1-0.2,1.4c-0.2,0.4-0.4,0.7-0.7,1s-0.6,0.4-1,0.6c-0.4,0.1-0.8,0.2-1.3,0.2
		c-1.1,0-2-0.2-2.6-0.7s-0.9-1.2-0.9-2.2v-5.6h1.8v5.3c0,0.6,0.1,1.1,0.4,1.3c0.3,0.3,0.7,0.4,1.2,0.4s0.9-0.1,1.2-0.4
		c0.3-0.3,0.4-0.7,0.4-1.3L-136.6-56.3L-136.6-56.3z M-140.6-57.5c0-0.2,0.1-0.4,0.2-0.5c0.2-0.1,0.4-0.2,0.8-0.2
		c0.3,0,0.6,0.1,0.7,0.2c0.2,0.1,0.2,0.3,0.2,0.5s-0.1,0.4-0.2,0.5c-0.2,0.1-0.4,0.2-0.7,0.2c-0.4,0-0.6-0.1-0.8-0.2
		C-140.6-57.1-140.6-57.2-140.6-57.5z M-137.8-57.5c0-0.2,0.1-0.4,0.2-0.5c0.2-0.1,0.4-0.2,0.7-0.2c0.4,0,0.6,0.1,0.8,0.2
		c0.2,0.1,0.2,0.3,0.2,0.5s-0.1,0.4-0.2,0.5c-0.2,0.1-0.4,0.2-0.8,0.2c-0.3,0-0.6-0.1-0.7-0.2C-137.8-57.1-137.8-57.2-137.8-57.5z"
		/>
	<path class="st0" d="M-126.9-54.3c0,0.2,0,0.4-0.1,0.6c-0.1,0.2-0.2,0.4-0.3,0.6s-0.3,0.3-0.5,0.5s-0.5,0.2-0.8,0.3v0.1
		c0.3,0,0.5,0.1,0.7,0.2c0.2,0.1,0.4,0.2,0.6,0.4s0.3,0.4,0.4,0.6c0.1,0.2,0.2,0.5,0.2,0.9s-0.1,0.8-0.3,1.1s-0.5,0.6-0.8,0.8
		s-0.7,0.3-1.1,0.4c-0.4,0.1-0.9,0.1-1.3,0.1c-0.1,0-0.3,0-0.6,0c-0.2,0-0.5,0-0.8,0s-0.5,0-0.8-0.1s-0.5-0.1-0.8-0.1v-8.3
		c0.2,0,0.4,0,0.6-0.1c0.2,0,0.4,0,0.7-0.1c0.2,0,0.5,0,0.8,0s0.5,0,0.8,0c0.4,0,0.8,0,1.2,0.1s0.8,0.2,1.1,0.3
		c0.3,0.2,0.6,0.4,0.8,0.6C-127-55.1-126.9-54.7-126.9-54.3z M-130.7-52.8c0.1,0,0.3,0,0.4,0s0.3,0,0.4,0c0.3-0.1,0.6-0.2,0.9-0.4
		c0.2-0.2,0.3-0.4,0.3-0.7c0-0.2,0-0.4-0.1-0.5s-0.2-0.2-0.4-0.3c-0.1-0.1-0.3-0.1-0.5-0.1s-0.4,0-0.6,0c-0.2,0-0.4,0-0.6,0
		c-0.2,0-0.3,0-0.5,0v2.1L-130.7-52.8L-130.7-52.8z M-130.2-49.2c0.2,0,0.4,0,0.6-0.1s0.4-0.1,0.5-0.2c0.2-0.1,0.3-0.2,0.4-0.3
		c0.1-0.1,0.1-0.3,0.1-0.5c0-0.3-0.1-0.5-0.2-0.6c-0.1-0.2-0.3-0.3-0.4-0.3s-0.4-0.1-0.6-0.1c-0.2,0-0.4,0-0.7,0h-1v2.2
		c0,0,0.1,0,0.2,0s0.2,0,0.3,0s0.2,0,0.3,0C-130.3-49.2-130.2-49.2-130.2-49.2z"/>
	<path class="st0" d="M-122.7-52.3l-0.7-1.3h-0.1l0.2,1.3v4.4h-1.7v-8.5h1.3l3.5,4.5l0.7,1.2h0.1l-0.2-1.2v-4.4h1.7v8.5h-1.3
		L-122.7-52.3z"/>
	<path class="st0" d="M-116-56.3h5.4v1.6h-3.6v1.8h3.3v1.6h-3.3v1.9h3.7v1.6h-5.5V-56.3z"/>
	<path class="st0" d="M-108.8-56.2c0.2,0,0.4-0.1,0.6-0.1s0.5-0.1,0.7-0.1s0.5,0,0.7,0s0.4,0,0.6,0c0.4,0,0.8,0,1.3,0.1
		c0.4,0.1,0.8,0.2,1.1,0.4c0.3,0.2,0.6,0.4,0.8,0.7s0.3,0.7,0.3,1.2c0,0.7-0.2,1.3-0.5,1.7s-0.8,0.7-1.4,0.9l0.6,0.4l2.1,3.2h-2.1
		l-2.1-3.3l-0.9-0.1v3.4h-1.8C-108.8-47.8-108.8-56.2-108.8-56.2z M-106.1-54.8c-0.2,0-0.4,0-0.5,0c-0.2,0-0.3,0-0.4,0v2.3h0.8
		c0.5,0,0.9-0.1,1.2-0.3c0.3-0.2,0.4-0.5,0.4-1c0-0.4-0.1-0.6-0.4-0.8S-105.6-54.8-106.1-54.8z"/>
</g>
<g>
	<line class="st2" x1="105.5" y1="-0.4" x2="105.5" y2="84.6"/>
	<rect x="105" y="-0.4" class="st2" width="1" height="85"/>
</g>
<path class="st2" d="M18.8,73.9c1,0.2,2.1,0.5,3.2,1s2.1,1,2.8,1.6v3.4H6.3l-1.2-1.2L17,23.2L11.8,22v-3.1c1-0.4,2.2-0.8,3.7-1.2
	c1.5-0.4,3.1-0.7,4.7-1s3.2-0.5,4.8-0.7c1.6-0.2,2.9-0.3,4.2-0.3l1.8,1.1l-3,12.5h0.4c1-1.9,2.1-3.6,3.3-5.3c1.2-1.7,2.6-3.1,4-4.3
	c1.4-1.2,2.9-2.2,4.6-2.9c1.7-0.7,3.4-1,5.3-1c3.1,0,5.6,1.2,7.6,3.6s3,5.8,3,10.1c0,4.9-0.7,9.4-2.1,13.5
	c-1.4,4.1-3.3,7.7-5.6,10.6c-2.4,3-5.2,5.3-8.5,6.9c-3.3,1.7-6.8,2.5-10.6,2.5c-1.7,0-3.2-0.1-4.3-0.4c-1.1-0.3-2.3-0.7-3.5-1.4
	L18.8,73.9z M38.6,22.9c-1.3,0-2.5,0.5-3.7,1.4s-2.3,2.1-3.3,3.5s-2,2.9-2.8,4.5c-0.8,1.6-1.6,3.1-2.1,4.4l-4,19.6
	c0.8,0.5,1.6,0.9,2.3,1.2c0.8,0.2,1.9,0.4,3.3,0.4c2.1,0,4-0.8,5.8-2.4c1.8-1.6,3.4-3.7,4.8-6.3c1.4-2.6,2.4-5.5,3.2-8.8
	c0.8-3.2,1.1-6.5,1.1-9.7c0-2.5-0.4-4.5-1.2-5.8C41.3,23.5,40.1,22.9,38.6,22.9z"/>
<path class="st2" d="M62.3,19c1.1-0.7,2.4-1.4,3.8-1.9s2.7-0.9,4.1-1.3L71.6,9c0.4-0.4,1.1-0.7,2-1s1.9-0.6,2.9-0.9
	c1.1-0.3,2.2-0.5,3.2-0.8c1.1-0.2,2.1-0.4,3-0.5l1.9,1.1l-2.2,9.9H93c0.1,0.7,0.1,1.7-0.1,2.9c-0.2,1.2-0.6,2.2-1,2.9H81.2L76,45.9
	c-0.2,1.1-0.4,2.1-0.5,3s-0.2,1.7-0.2,2.4c0,1.6,0.4,2.7,1.2,3.4c0.8,0.7,1.8,1.1,3.2,1.1c1.5,0,2.9-0.2,4.2-0.5
	c1.3-0.4,2.6-0.9,3.8-1.5l1.2,2.3c-0.7,0.8-1.7,1.6-2.9,2.4c-1.2,0.8-2.5,1.6-4,2.3s-3.1,1.2-4.8,1.7c-1.7,0.4-3.5,0.6-5.3,0.6
	c-3.1,0-5.4-0.7-7-2.2c-1.6-1.4-2.3-3.4-2.3-5.9c0-1.4,0.1-2.8,0.4-4.4c0.2-1.6,0.5-2.9,0.7-4l5.2-23.9h-6.5L62.3,19L62.3,19z"/>
<g>
	<line class="st1" x1="106.5" y1="-243.5" x2="106.5" y2="-158.5"/>
	<rect x="106" y="-243.5" width="1" height="85"/>
</g>
<g>
	<path d="M19.8-169.2c1,0.2,2.1,0.5,3.2,1s2.1,1,2.8,1.6v3.4H7.3l-1.2-1.2L18-219.9l-5.2-1.3v-3.1c1-0.4,2.2-0.8,3.7-1.2
		s3.1-0.7,4.7-1s3.2-0.5,4.8-0.7c1.6-0.2,2.9-0.3,4.2-0.3l1.8,1.1l-3,12.5h0.4c1-1.9,2.1-3.6,3.3-5.3s2.6-3.1,4-4.3s2.9-2.2,4.6-2.9
		c1.7-0.7,3.4-1,5.3-1c3.1,0,5.6,1.2,7.6,3.6c2,2.4,3,5.8,3,10.1c0,4.9-0.7,9.4-2.1,13.5c-1.4,4.1-3.3,7.7-5.6,10.6
		c-2.4,3-5.2,5.3-8.5,6.9c-3.3,1.7-6.8,2.5-10.6,2.5c-1.7,0-3.2-0.1-4.3-0.4c-1.1-0.3-2.3-0.7-3.5-1.4L19.8-169.2z M39.6-220.2
		c-1.3,0-2.5,0.5-3.7,1.4s-2.3,2.1-3.3,3.5s-2,2.9-2.8,4.5s-1.6,3.1-2.1,4.4l-4,19.6c0.8,0.5,1.6,0.9,2.3,1.2
		c0.8,0.2,1.9,0.4,3.3,0.4c2.1,0,4-0.8,5.8-2.4c1.8-1.6,3.4-3.7,4.8-6.3c1.4-2.6,2.4-5.5,3.2-8.8c0.8-3.2,1.1-6.5,1.1-9.7
		c0-2.5-0.4-4.5-1.2-5.8C42.3-219.6,41.1-220.2,39.6-220.2z"/>
	<path d="M63.3-224.1c1.1-0.7,2.4-1.4,3.8-1.9s2.7-0.9,4.1-1.3l1.4-6.9c0.4-0.4,1.1-0.7,2-1s1.9-0.6,2.9-0.9
		c1.1-0.3,2.2-0.5,3.2-0.8c1.1-0.2,2.1-0.4,3-0.5l1.9,1.1l-2.2,9.9H94c0.1,0.7,0.1,1.7-0.1,2.9s-0.6,2.2-1,2.9H82.2L77-197.2
		c-0.2,1.1-0.4,2.1-0.5,3s-0.2,1.7-0.2,2.4c0,1.6,0.4,2.7,1.2,3.4c0.8,0.7,1.8,1.1,3.2,1.1c1.5,0,2.9-0.2,4.2-0.5
		c1.3-0.4,2.6-0.9,3.8-1.5l1.2,2.3c-0.7,0.8-1.7,1.6-2.9,2.4c-1.2,0.8-2.5,1.6-4,2.3s-3.1,1.2-4.8,1.7c-1.7,0.4-3.5,0.6-5.3,0.6
		c-3.1,0-5.4-0.7-7-2.2c-1.6-1.4-2.3-3.4-2.3-5.9c0-1.4,0.1-2.8,0.4-4.4c0.2-1.6,0.5-2.9,0.7-4l5.2-23.9h-6.5L63.3-224.1L63.3-224.1
		z"/>
</g>
<g>
	<g>
		<path class="st0" d="M119.7-229.4c0.4-0.1,0.8-0.1,1.3-0.2s1-0.1,1.4-0.1c0.5,0,1,0,1.5,0.1s0.9,0.2,1.3,0.4s0.7,0.5,1,0.9
			s0.4,0.9,0.4,1.6c0,0.6-0.1,1.1-0.3,1.5c-0.2,0.4-0.5,0.7-0.9,1s-0.8,0.4-1.2,0.6c-0.5,0.1-0.9,0.2-1.4,0.2c0,0-0.1,0-0.2,0
			s-0.2,0-0.3,0s-0.2,0-0.3,0c-0.1,0-0.2,0-0.2,0v3.1h-1.9v-9.1H119.7z M122.6-227.9c-0.2,0-0.4,0-0.5,0c-0.2,0-0.3,0-0.4,0.1v2.7
			c0,0,0.1,0,0.2,0s0.2,0,0.2,0h0.2c0.1,0,0.1,0,0.2,0c0.3,0,0.5,0,0.8-0.1c0.3,0,0.5-0.1,0.7-0.2c0.2-0.1,0.4-0.3,0.5-0.5
			s0.2-0.5,0.2-0.8s-0.1-0.5-0.2-0.7s-0.3-0.3-0.4-0.4s-0.4-0.2-0.6-0.2S122.8-227.9,122.6-227.9z"/>
		<path class="st0" d="M128-229.4c0.2,0,0.4-0.1,0.7-0.1s0.5-0.1,0.7-0.1c0.3,0,0.5,0,0.7,0s0.5,0,0.7,0c0.5,0,0.9,0,1.4,0.1
			c0.4,0.1,0.8,0.2,1.2,0.4s0.6,0.5,0.9,0.8s0.3,0.8,0.3,1.3c0,0.7-0.2,1.4-0.6,1.8s-0.9,0.8-1.5,1l0.7,0.4l2.3,3.4h-2.2l-2.3-3.5
			l-1-0.2v3.7h-2V-229.4z M131-227.9c-0.2,0-0.4,0-0.6,0c-0.2,0-0.3,0-0.4,0v2.5h0.8c0.5,0,1-0.1,1.3-0.3s0.5-0.6,0.5-1.1
			c0-0.4-0.1-0.7-0.4-0.9C131.9-227.8,131.5-227.9,131-227.9z"/>
		<path class="st0" d="M136.2-224.9c0-0.7,0.1-1.4,0.3-2s0.5-1.1,0.8-1.5c0.4-0.4,0.8-0.7,1.3-0.9s1.1-0.3,1.8-0.3s1.3,0.1,1.8,0.3
			s1,0.6,1.3,1c0.4,0.4,0.6,0.9,0.8,1.5s0.3,1.2,0.3,1.9s-0.1,1.4-0.3,2s-0.5,1.1-0.8,1.5s-0.8,0.7-1.3,0.9s-1.1,0.3-1.8,0.3
			s-1.3-0.1-1.8-0.3s-1-0.6-1.3-1c-0.4-0.4-0.6-0.9-0.8-1.5S136.2-224.2,136.2-224.9z M138.3-224.9c0,0.5,0,0.9,0.1,1.2
			c0.1,0.4,0.2,0.7,0.4,1s0.4,0.5,0.7,0.6s0.6,0.2,1,0.2c0.7,0,1.2-0.2,1.6-0.7c0.4-0.5,0.6-1.2,0.6-2.3c0-0.4,0-0.8-0.1-1.2
			s-0.2-0.7-0.4-1s-0.4-0.5-0.7-0.6c-0.3-0.2-0.6-0.2-1-0.2c-0.7,0-1.2,0.2-1.6,0.7C138.4-226.8,138.3-226,138.3-224.9z"/>
		<path class="st0" d="M146.4-229.5h5.9v1.7h-3.9v2.1h3.6v1.7h-3.6v3.6h-1.9v-9.1H146.4z"/>
		<path class="st0" d="M152.7-221.3c0-0.3,0.1-0.6,0.3-0.8s0.5-0.3,0.8-0.3s0.6,0.1,0.8,0.3s0.3,0.4,0.3,0.8c0,0.3-0.1,0.6-0.3,0.7
			s-0.5,0.3-0.8,0.3s-0.6-0.1-0.8-0.3S152.7-221,152.7-221.3z"/>
	</g>
	<g>
		<path class="st0" d="M119.7-214.1c0.2,0,0.4,0,0.7-0.1c0.2,0,0.5,0,0.8,0s0.5,0,0.8,0s0.5,0,0.7,0c0.9,0,1.6,0.1,2.2,0.3
			s1.1,0.5,1.5,1c0.4,0.4,0.7,0.9,0.9,1.5c0.2,0.6,0.3,1.2,0.3,1.8s-0.1,1.2-0.3,1.8c-0.2,0.6-0.5,1.1-0.9,1.5s-0.9,0.8-1.6,1.1
			c-0.6,0.3-1.4,0.4-2.4,0.4c-0.1,0-0.3,0-0.6,0s-0.5,0-0.8,0s-0.5,0-0.8,0c-0.2,0-0.4,0-0.5,0C119.7-204.8,119.7-214.1,119.7-214.1
			z M122.7-212.5c-0.2,0-0.4,0-0.6,0s-0.4,0-0.5,0v5.9c0,0,0.1,0,0.2,0s0.2,0,0.3,0s0.2,0,0.3,0c0.1,0,0.2,0,0.2,0
			c0.6,0,1-0.1,1.4-0.3s0.7-0.4,0.9-0.7c0.2-0.3,0.4-0.6,0.4-1c0.1-0.4,0.1-0.7,0.1-1.1c0-0.3,0-0.7-0.1-1s-0.2-0.7-0.4-0.9
			c-0.2-0.3-0.5-0.5-0.8-0.7C123.7-212.4,123.3-212.5,122.7-212.5z"/>
		<path class="st0" d="M129.2-214c0.2,0,0.4-0.1,0.7-0.1s0.5-0.1,0.7-0.1c0.3,0,0.5,0,0.7,0s0.5,0,0.7,0c0.5,0,0.9,0,1.4,0.1
			c0.4,0.1,0.8,0.2,1.2,0.4s0.6,0.5,0.9,0.8s0.3,0.8,0.3,1.3c0,0.7-0.2,1.4-0.6,1.8s-0.9,0.8-1.5,1l0.7,0.4l2.3,3.4h-2.2l-2.3-3.5
			l-1-0.2v3.7h-1.9L129.2-214L129.2-214z M132.1-212.5c-0.2,0-0.4,0-0.6,0c-0.2,0-0.3,0-0.4,0v2.5h0.8c0.5,0,1-0.1,1.3-0.3
			s0.5-0.6,0.5-1.1c0-0.4-0.1-0.7-0.4-0.9C133-212.4,132.6-212.5,132.1-212.5z"/>
		<path class="st0" d="M137.9-205.8c0-0.3,0.1-0.6,0.3-0.8s0.5-0.3,0.8-0.3s0.6,0.1,0.8,0.3s0.3,0.4,0.3,0.8c0,0.3-0.1,0.6-0.3,0.7
			s-0.5,0.3-0.8,0.3s-0.6-0.1-0.8-0.3S137.9-205.5,137.9-205.8z"/>
	</g>
	<g>
		<path class="st0" d="M119.7-198.6c0.4-0.1,0.8-0.1,1.3-0.2s1-0.1,1.4-0.1c0.5,0,1,0,1.5,0.1s0.9,0.2,1.3,0.4s0.7,0.5,1,0.9
			s0.4,0.9,0.4,1.6c0,0.6-0.1,1.1-0.3,1.5c-0.2,0.4-0.5,0.7-0.9,1s-0.8,0.4-1.2,0.6c-0.5,0.1-0.9,0.2-1.4,0.2c0,0-0.1,0-0.2,0
			s-0.2,0-0.3,0s-0.2,0-0.3,0c-0.1,0-0.2,0-0.2,0v3.1h-1.9v-9.1H119.7z M122.6-197.1c-0.2,0-0.4,0-0.5,0c-0.2,0-0.3,0-0.4,0.1v2.7
			c0,0,0.1,0,0.2,0s0.2,0,0.2,0h0.2c0.1,0,0.1,0,0.2,0c0.3,0,0.5,0,0.8-0.1c0.3,0,0.5-0.1,0.7-0.2c0.2-0.1,0.4-0.3,0.5-0.5
			s0.2-0.5,0.2-0.8s-0.1-0.5-0.2-0.7s-0.3-0.3-0.4-0.4s-0.4-0.2-0.6-0.2S122.8-197.1,122.6-197.1z"/>
		<path class="st0" d="M128-198.7h5.9v1.7H130v2h3.6v1.7H130v2.1h4v1.7h-6V-198.7z"/>
		<path class="st0" d="M142.8-197H140v7.4h-2v-7.4h-2.9v-1.7h7.7V-197z"/>
		<path class="st0" d="M144.2-198.7h5.9v1.7h-3.9v2h3.6v1.7h-3.6v2.1h4v1.7h-5.9v-9.2H144.2z"/>
		<path class="st0" d="M152-198.6c0.2,0,0.4-0.1,0.7-0.1s0.5-0.1,0.7-0.1c0.3,0,0.5,0,0.7,0s0.5,0,0.7,0c0.5,0,0.9,0,1.4,0.1
			c0.4,0.1,0.8,0.2,1.2,0.4s0.6,0.5,0.9,0.8c0.2,0.3,0.3,0.8,0.3,1.3c0,0.7-0.2,1.4-0.6,1.8c-0.4,0.5-0.9,0.8-1.5,1l0.7,0.4l2.3,3.4
			h-2.2l-2.3-3.5l-1-0.2v3.7h-2V-198.6z M154.9-197.1c-0.2,0-0.4,0-0.6,0c-0.2,0-0.3,0-0.4,0v2.5h0.8c0.5,0,1-0.1,1.3-0.3
			s0.5-0.6,0.5-1.1c0-0.4-0.1-0.7-0.4-0.9C155.8-197,155.4-197.1,154.9-197.1z"/>
	</g>
	<g>
		<path class="st0" d="M126.7-179.8h-2.9v7.4h-1.9v-7.4H119v-1.7h7.7V-179.8z"/>
		<path class="st0" d="M128.1-181.4c0.2,0,0.4-0.1,0.7-0.1s0.5-0.1,0.7-0.1c0.3,0,0.5,0,0.7,0s0.5,0,0.7,0c0.5,0,0.9,0,1.4,0.1
			c0.4,0.1,0.8,0.2,1.2,0.4s0.6,0.5,0.9,0.8s0.3,0.8,0.3,1.3c0,0.7-0.2,1.4-0.6,1.8s-0.9,0.8-1.5,1l0.7,0.4l2.3,3.4h-2.2L131-176
			l-1-0.2v3.7h-1.9V-181.4z M131-180c-0.2,0-0.4,0-0.6,0c-0.2,0-0.3,0-0.4,0v2.5h0.8c0.5,0,1-0.1,1.3-0.3s0.5-0.6,0.5-1.1
			c0-0.4-0.1-0.7-0.4-0.9C131.9-179.9,131.5-180,131-180z"/>
		<path class="st0" d="M142-181.5h1.8v5.8c0,0.6-0.1,1.1-0.3,1.5s-0.4,0.8-0.7,1.1s-0.7,0.5-1.1,0.6s-0.9,0.2-1.4,0.2
			c-1.2,0-2.2-0.3-2.8-0.8s-1-1.3-1-2.4v-6.1h1.9v5.7c0,0.7,0.2,1.2,0.5,1.4c0.3,0.3,0.8,0.4,1.4,0.4c0.6,0,1-0.1,1.3-0.4
			c0.3-0.3,0.4-0.8,0.4-1.4L142-181.5L142-181.5z M137.7-182.8c0-0.2,0.1-0.4,0.3-0.6s0.4-0.2,0.8-0.2c0.4,0,0.6,0.1,0.8,0.2
			s0.3,0.3,0.3,0.6c0,0.2-0.1,0.4-0.3,0.5s-0.4,0.2-0.8,0.2c-0.4,0-0.7-0.1-0.8-0.2S137.7-182.6,137.7-182.8z M140.7-182.8
			c0-0.2,0.1-0.4,0.3-0.6c0.2-0.1,0.4-0.2,0.8-0.2c0.4,0,0.7,0.1,0.8,0.2c0.2,0.1,0.3,0.3,0.3,0.6c0,0.2-0.1,0.4-0.3,0.5
			s-0.4,0.2-0.8,0.2c-0.4,0-0.6-0.1-0.8-0.2S140.7-182.6,140.7-182.8z"/>
		<path class="st0" d="M152.6-179.4c0,0.2,0,0.4-0.1,0.7c-0.1,0.2-0.2,0.4-0.3,0.6c-0.1,0.2-0.3,0.4-0.5,0.5s-0.5,0.2-0.8,0.3v0.1
			c0.3,0,0.6,0.1,0.8,0.2s0.5,0.2,0.7,0.4s0.3,0.4,0.4,0.7c0.1,0.3,0.2,0.6,0.2,0.9c0,0.5-0.1,0.9-0.3,1.2s-0.5,0.6-0.9,0.8
			s-0.8,0.4-1.2,0.5c-0.5,0.1-0.9,0.2-1.4,0.2c-0.2,0-0.4,0-0.6,0c-0.3,0-0.5,0-0.8,0s-0.6,0-0.9-0.1c-0.3,0-0.6-0.1-0.8-0.1v-9
			c0.2,0,0.4-0.1,0.6-0.1c0.2,0,0.5,0,0.7-0.1c0.3,0,0.5,0,0.8,0s0.6,0,0.8,0c0.5,0,0.9,0,1.3,0.1c0.4,0.1,0.8,0.2,1.2,0.4
			c0.3,0.2,0.6,0.4,0.8,0.7S152.6-179.9,152.6-179.4z M148.4-177.7c0.1,0,0.3,0,0.5,0s0.3,0,0.4,0c0.4-0.1,0.7-0.3,0.9-0.5
			c0.3-0.2,0.4-0.5,0.4-0.8c0-0.2,0-0.4-0.1-0.5s-0.2-0.2-0.4-0.3s-0.3-0.1-0.5-0.2c-0.2,0-0.4,0-0.6,0c-0.3,0-0.5,0-0.7,0
			s-0.4,0-0.5,0v2.3H148.4z M149-173.9c0.2,0,0.5,0,0.7-0.1c0.2,0,0.4-0.1,0.6-0.2s0.3-0.2,0.4-0.4c0.1-0.2,0.1-0.3,0.1-0.6
			s-0.1-0.5-0.2-0.7c-0.1-0.2-0.3-0.3-0.5-0.4c-0.2-0.1-0.4-0.1-0.7-0.2s-0.5,0-0.7,0h-1.1v2.4c0.1,0,0.1,0,0.2,0c0.1,0,0.2,0,0.3,0
			s0.2,0,0.4,0C148.8-173.9,148.9-173.9,149-173.9z"/>
		<path class="st0" d="M157.1-177.2l-0.8-1.4h-0.1l0.2,1.4v4.7h-1.8v-9.2h1.4l3.8,4.8l0.7,1.3h0.1l-0.2-1.3v-4.8h1.8v9.2h-1.4
			L157.1-177.2z"/>
		<path class="st0" d="M164.3-181.5h5.9v1.7h-3.9v2h3.6v1.7h-3.6v2.1h4v1.7h-5.9v-9.2H164.3z"/>
		<path class="st0" d="M172.1-181.4c0.2,0,0.4-0.1,0.7-0.1s0.5-0.1,0.7-0.1c0.3,0,0.5,0,0.7,0s0.5,0,0.7,0c0.5,0,0.9,0,1.4,0.1
			c0.4,0.1,0.8,0.2,1.2,0.4s0.6,0.5,0.9,0.8s0.3,0.8,0.3,1.3c0,0.7-0.2,1.4-0.6,1.8s-0.9,0.8-1.5,1l0.7,0.4l2.3,3.4h-2.2l-2.3-3.5
			l-1-0.2v3.7h-1.9L172.1-181.4L172.1-181.4z M175.1-180c-0.2,0-0.4,0-0.6,0c-0.2,0-0.3,0-0.4,0v2.5h0.8c0.5,0,1-0.1,1.3-0.3
			s0.5-0.6,0.5-1.1c0-0.4-0.1-0.7-0.4-0.9C176-179.9,175.6-180,175.1-180z"/>
	</g>
</g>
<g>
	<line class="st1" x1="385.4" y1="-107.5" x2="385.4" y2="-22.5"/>
	<rect x="384.9" y="-107.5" width="1" height="85"/>
</g>
<g>
	<path d="M300.7-33.7c1,0.2,2.1,0.5,3.2,1s2.1,1,2.8,1.6v3.4h-18.6l-1.2-1.2l11.9-55.5l-5.2-1.3v-3.1c1-0.4,2.2-0.8,3.7-1.2
		c1.5-0.4,3.1-0.7,4.7-1s3.2-0.5,4.8-0.7c1.6-0.2,2.9-0.3,4.2-0.3l1.8,1.1l-3,12.5h0.4c1-1.9,2.1-3.6,3.3-5.3c1.2-1.7,2.6-3.1,4-4.3
		c1.4-1.2,2.9-2.2,4.6-2.9c1.7-0.7,3.4-1,5.3-1c3.1,0,5.6,1.2,7.6,3.6s3,5.8,3,10.1c0,4.9-0.7,9.4-2.1,13.5s-3.3,7.7-5.6,10.6
		c-2.4,3-5.2,5.3-8.5,6.9c-3.3,1.7-6.8,2.5-10.6,2.5c-1.7,0-3.2-0.1-4.3-0.4c-1.1-0.3-2.3-0.7-3.5-1.4L300.7-33.7z M320.5-84.7
		c-1.3,0-2.5,0.5-3.7,1.4s-2.3,2.1-3.3,3.5s-2,2.9-2.8,4.5c-0.9,1.6-1.6,3.1-2.1,4.4l-4,19.6c0.8,0.5,1.6,0.9,2.3,1.2
		c0.8,0.2,1.9,0.4,3.3,0.4c2.1,0,4-0.8,5.8-2.4c1.8-1.6,3.4-3.7,4.8-6.3s2.4-5.5,3.2-8.8c0.8-3.2,1.1-6.5,1.1-9.7
		c0-2.5-0.4-4.5-1.2-5.8C323.1-84,322-84.7,320.5-84.7z"/>
	<path d="M344.2-88.6c1.1-0.7,2.4-1.4,3.8-1.9s2.7-0.9,4.1-1.3l1.4-6.9c0.4-0.4,1.1-0.7,2-1s1.9-0.6,2.9-0.9
		c1.1-0.3,2.2-0.5,3.2-0.8c1.1-0.2,2.1-0.4,3-0.5l1.9,1.1l-2.2,9.9h10.6c0.1,0.7,0.1,1.7-0.1,2.9c-0.2,1.2-0.6,2.2-1,2.9h-10.6
		L358-61.9c-0.2,1.1-0.4,2.1-0.5,3s-0.2,1.7-0.2,2.4c0,1.6,0.4,2.7,1.2,3.4c0.8,0.7,1.8,1.1,3.2,1.1c1.5,0,2.9-0.2,4.2-0.5
		c1.3-0.4,2.6-0.9,3.8-1.5l1.2,2.3c-0.7,0.8-1.7,1.6-2.9,2.4c-1.2,0.8-2.5,1.6-4,2.3s-3.1,1.2-4.8,1.7c-1.7,0.4-3.5,0.6-5.3,0.6
		c-3.1,0-5.4-0.7-7-2.2c-1.6-1.4-2.3-3.4-2.3-5.9c0-1.4,0.1-2.8,0.4-4.4c0.2-1.6,0.5-2.9,0.7-4l5.2-23.9h-6.5v-3.5H344.2z"/>
</g>
<rect x="395.9" y="-99.3" class="st0" width="68.7" height="68.7"/>
<g>
	<g>
		<path class="st2" d="M400.7-88.9c0.4-0.1,0.8-0.1,1.3-0.2s1-0.1,1.4-0.1c0.5,0,1,0,1.5,0.1s0.9,0.2,1.3,0.4c0.4,0.2,0.7,0.5,1,0.9
			s0.4,0.9,0.4,1.6c0,0.6-0.1,1.1-0.3,1.5c-0.2,0.4-0.5,0.7-0.9,1s-0.8,0.4-1.2,0.6c-0.5,0.1-0.9,0.2-1.4,0.2c0,0-0.1,0-0.2,0
			s-0.2,0-0.3,0s-0.2,0-0.3,0c-0.1,0-0.2,0-0.2,0v3.1h-1.9v-9.1H400.7z M403.6-87.5c-0.2,0-0.4,0-0.5,0c-0.2,0-0.3,0-0.4,0.1v2.7
			c0,0,0.1,0,0.2,0s0.2,0,0.2,0h0.2c0.1,0,0.1,0,0.2,0c0.3,0,0.5,0,0.8-0.1c0.3,0,0.5-0.1,0.7-0.2s0.4-0.3,0.5-0.5s0.2-0.5,0.2-0.8
			s-0.1-0.5-0.2-0.7s-0.3-0.3-0.4-0.4s-0.4-0.2-0.6-0.2S403.8-87.5,403.6-87.5z"/>
		<path class="st2" d="M409-88.9c0.2,0,0.4-0.1,0.7-0.1s0.5-0.1,0.7-0.1c0.3,0,0.5,0,0.7,0s0.5,0,0.7,0c0.5,0,0.9,0,1.4,0.1
			c0.4,0.1,0.8,0.2,1.2,0.4c0.4,0.2,0.6,0.5,0.9,0.8s0.3,0.8,0.3,1.3c0,0.7-0.2,1.4-0.6,1.8s-0.9,0.8-1.5,1l0.7,0.4l2.3,3.4h-2.2
			l-2.3-3.5l-1-0.2v3.7h-2V-88.9z M412-87.5c-0.2,0-0.4,0-0.6,0s-0.3,0-0.4,0v2.5h0.8c0.5,0,1-0.1,1.3-0.3s0.5-0.6,0.5-1.1
			c0-0.4-0.1-0.7-0.4-0.9C412.8-87.4,412.5-87.5,412-87.5z"/>
		<path class="st2" d="M417.2-84.5c0-0.7,0.1-1.4,0.3-2s0.5-1.1,0.8-1.5c0.4-0.4,0.8-0.7,1.3-0.9c0.5-0.2,1.1-0.3,1.8-0.3
			c0.7,0,1.3,0.1,1.8,0.3s1,0.6,1.3,1c0.4,0.4,0.6,0.9,0.8,1.5c0.2,0.6,0.3,1.2,0.3,1.9c0,0.7-0.1,1.4-0.3,2
			c-0.2,0.6-0.5,1.1-0.8,1.5s-0.8,0.7-1.3,0.9c-0.5,0.2-1.1,0.3-1.8,0.3c-0.7,0-1.3-0.1-1.8-0.3s-1-0.6-1.3-1
			c-0.4-0.4-0.6-0.9-0.8-1.5C417.3-83.1,417.2-83.8,417.2-84.5z M419.2-84.5c0,0.5,0,0.9,0.1,1.2c0.1,0.4,0.2,0.7,0.4,1
			c0.2,0.3,0.4,0.5,0.7,0.6c0.3,0.1,0.6,0.2,1,0.2c0.7,0,1.2-0.2,1.6-0.7s0.6-1.2,0.6-2.3c0-0.4,0-0.8-0.1-1.2s-0.2-0.7-0.4-1
			c-0.2-0.3-0.4-0.5-0.7-0.6c-0.3-0.2-0.6-0.2-1-0.2c-0.7,0-1.2,0.2-1.6,0.7C419.4-86.3,419.2-85.5,419.2-84.5z"/>
		<path class="st2" d="M427.3-89h5.9v1.7h-3.9v2.1h3.6v1.7h-3.6v3.6h-1.9V-89H427.3z"/>
		<path class="st2" d="M433.6-80.8c0-0.3,0.1-0.6,0.3-0.8c0.2-0.2,0.5-0.3,0.8-0.3s0.6,0.1,0.8,0.3c0.2,0.2,0.3,0.4,0.3,0.8
			c0,0.3-0.1,0.6-0.3,0.7s-0.5,0.3-0.8,0.3s-0.6-0.1-0.8-0.3S433.6-80.5,433.6-80.8z"/>
		<path class="st2" d="M400.7-76c0.2,0,0.4,0,0.7-0.1c0.2,0,0.5,0,0.8,0s0.5,0,0.8,0s0.5,0,0.7,0c0.9,0,1.6,0.1,2.2,0.3
			c0.6,0.2,1.1,0.5,1.5,1c0.4,0.4,0.7,0.9,0.9,1.5c0.2,0.6,0.3,1.2,0.3,1.8c0,0.6-0.1,1.2-0.3,1.8c-0.2,0.6-0.5,1.1-0.9,1.5
			s-0.9,0.8-1.6,1.1c-0.6,0.3-1.4,0.4-2.4,0.4c-0.1,0-0.3,0-0.6,0s-0.5,0-0.8,0s-0.5,0-0.8,0c-0.2,0-0.4,0-0.5,0L400.7-76L400.7-76z
			 M403.7-74.5c-0.2,0-0.4,0-0.6,0s-0.4,0-0.5,0v5.9c0,0,0.1,0,0.2,0s0.2,0,0.3,0s0.2,0,0.3,0c0.1,0,0.2,0,0.2,0
			c0.6,0,1-0.1,1.4-0.3c0.4-0.2,0.7-0.4,0.9-0.7c0.2-0.3,0.4-0.6,0.4-1c0.1-0.4,0.1-0.7,0.1-1.1c0-0.3,0-0.7-0.1-1s-0.2-0.7-0.4-0.9
			c-0.2-0.3-0.5-0.5-0.8-0.7C404.7-74.4,404.3-74.5,403.7-74.5z"/>
		<path class="st2" d="M410.2-75.9c0.2,0,0.4-0.1,0.7-0.1s0.5-0.1,0.7-0.1c0.3,0,0.5,0,0.7,0s0.5,0,0.7,0c0.5,0,0.9,0,1.4,0.1
			c0.4,0.1,0.8,0.2,1.2,0.4c0.4,0.2,0.6,0.5,0.9,0.8s0.3,0.8,0.3,1.3c0,0.7-0.2,1.4-0.6,1.8s-0.9,0.8-1.5,1l0.7,0.4l2.3,3.4h-2.2
			l-2.3-3.5l-1-0.2v3.7h-1.9v-9H410.2z M413.1-74.5c-0.2,0-0.4,0-0.6,0s-0.3,0-0.4,0v2.5h0.8c0.5,0,1-0.1,1.3-0.3s0.5-0.6,0.5-1.1
			c0-0.4-0.1-0.7-0.4-0.9C414-74.4,413.6-74.5,413.1-74.5z"/>
		<path class="st2" d="M418.9-67.8c0-0.3,0.1-0.6,0.3-0.8c0.2-0.2,0.5-0.3,0.8-0.3s0.6,0.1,0.8,0.3c0.2,0.2,0.3,0.4,0.3,0.8
			c0,0.3-0.1,0.6-0.3,0.7s-0.5,0.3-0.8,0.3s-0.6-0.1-0.8-0.3S418.9-67.5,418.9-67.8z"/>
		<path class="st2" d="M400.7-62.9c0.4-0.1,0.8-0.1,1.3-0.2s1-0.1,1.4-0.1c0.5,0,1,0,1.5,0.1s0.9,0.2,1.3,0.4s0.7,0.5,1,0.9
			s0.4,0.9,0.4,1.6c0,0.6-0.1,1.1-0.3,1.5c-0.2,0.4-0.5,0.7-0.9,1s-0.8,0.4-1.2,0.6c-0.5,0.1-0.9,0.2-1.4,0.2c0,0-0.1,0-0.2,0
			s-0.2,0-0.3,0s-0.2,0-0.3,0c-0.1,0-0.2,0-0.2,0v3.1h-1.9v-9.1H400.7z M403.6-61.5c-0.2,0-0.4,0-0.5,0c-0.2,0-0.3,0-0.4,0.1v2.7
			c0,0,0.1,0,0.2,0s0.2,0,0.2,0h0.2c0.1,0,0.1,0,0.2,0c0.3,0,0.5,0,0.8-0.1c0.3,0,0.5-0.1,0.7-0.2c0.2-0.1,0.4-0.3,0.5-0.5
			s0.2-0.5,0.2-0.8s-0.1-0.5-0.2-0.7s-0.3-0.3-0.4-0.4s-0.4-0.2-0.6-0.2S403.8-61.5,403.6-61.5z"/>
		<path class="st2" d="M409-63h5.9v1.7H411v2h3.6v1.7H411v2.1h4v1.7h-6V-63z"/>
		<path class="st2" d="M423.8-61.3h-2.9v7.4H419v-7.4h-2.9V-63h7.7L423.8-61.3L423.8-61.3z"/>
		<path class="st2" d="M425.2-63h5.9v1.7h-3.9v2h3.6v1.7h-3.6v2.1h4v1.7h-5.9V-63H425.2z"/>
		<path class="st2" d="M433-62.9c0.2,0,0.4-0.1,0.7-0.1s0.5-0.1,0.7-0.1c0.3,0,0.5,0,0.7,0s0.5,0,0.7,0c0.5,0,0.9,0,1.4,0.1
			c0.4,0.1,0.8,0.2,1.2,0.4c0.4,0.2,0.6,0.5,0.9,0.8c0.2,0.3,0.3,0.8,0.3,1.3c0,0.7-0.2,1.4-0.6,1.8c-0.4,0.5-0.9,0.8-1.5,1l0.7,0.4
			l2.3,3.4h-2.2l-2.3-3.5l-1-0.2v3.7h-2V-62.9z M435.9-61.5c-0.2,0-0.4,0-0.6,0s-0.3,0-0.4,0v2.5h0.8c0.5,0,1-0.1,1.3-0.3
			s0.5-0.6,0.5-1.1c0-0.4-0.1-0.7-0.4-0.9C436.8-61.4,436.4-61.5,435.9-61.5z"/>
		<path class="st2" d="M407.7-48.3h-2.9v7.4h-1.9v-7.4H400V-50h7.7V-48.3z"/>
		<path class="st2" d="M409-49.9c0.2,0,0.4-0.1,0.7-0.1s0.5-0.1,0.7-0.1c0.3,0,0.5,0,0.7,0s0.5,0,0.7,0c0.5,0,0.9,0,1.4,0.1
			c0.4,0.1,0.8,0.2,1.2,0.4c0.4,0.2,0.6,0.5,0.9,0.8s0.3,0.8,0.3,1.3c0,0.7-0.2,1.4-0.6,1.8s-0.9,0.8-1.5,1l0.7,0.4l2.3,3.4h-2.2
			l-2.3-3.5l-1-0.2v3.7h-2V-49.9z M412-48.5c-0.2,0-0.4,0-0.6,0s-0.3,0-0.4,0v2.5h0.8c0.5,0,1-0.1,1.3-0.3s0.5-0.6,0.5-1.1
			c0-0.4-0.1-0.7-0.4-0.9C412.9-48.4,412.5-48.5,412-48.5z"/>
		<path class="st2" d="M423-50h1.8v5.8c0,0.6-0.1,1.1-0.3,1.5c-0.2,0.4-0.4,0.8-0.7,1.1s-0.7,0.5-1.1,0.6s-0.9,0.2-1.4,0.2
			c-1.2,0-2.2-0.3-2.8-0.8c-0.6-0.5-1-1.3-1-2.4v-6h1.9v5.7c0,0.7,0.2,1.2,0.5,1.4c0.3,0.3,0.8,0.4,1.4,0.4s1-0.1,1.3-0.4
			c0.3-0.3,0.4-0.8,0.4-1.4L423-50L423-50z M418.7-51.3c0-0.2,0.1-0.4,0.3-0.6s0.4-0.2,0.8-0.2s0.6,0.1,0.8,0.2s0.3,0.3,0.3,0.6
			c0,0.2-0.1,0.4-0.3,0.5s-0.4,0.2-0.8,0.2s-0.7-0.1-0.8-0.2S418.7-51.1,418.7-51.3z M421.7-51.3c0-0.2,0.1-0.4,0.3-0.6
			c0.2-0.1,0.4-0.2,0.8-0.2s0.7,0.1,0.8,0.2c0.2,0.1,0.3,0.3,0.3,0.6c0,0.2-0.1,0.4-0.3,0.5c-0.2,0.1-0.4,0.2-0.8,0.2
			s-0.6-0.1-0.8-0.2C421.8-50.9,421.7-51.1,421.7-51.3z"/>
		<path class="st2" d="M433.6-47.9c0,0.2,0,0.4-0.1,0.7c-0.1,0.2-0.2,0.4-0.3,0.6c-0.1,0.2-0.3,0.4-0.5,0.5s-0.5,0.2-0.8,0.3v0.1
			c0.3,0,0.6,0.1,0.8,0.2s0.5,0.2,0.7,0.4s0.3,0.4,0.4,0.7s0.2,0.6,0.2,0.9c0,0.5-0.1,0.9-0.3,1.2s-0.5,0.6-0.9,0.8
			s-0.8,0.4-1.2,0.5c-0.5,0.1-0.9,0.2-1.4,0.2c-0.2,0-0.4,0-0.6,0c-0.3,0-0.5,0-0.8,0s-0.6,0-0.9-0.1c-0.3,0-0.6-0.1-0.8-0.1v-9
			c0.2,0,0.4-0.1,0.6-0.1s0.5,0,0.7-0.1c0.3,0,0.5,0,0.8,0s0.6,0,0.8,0c0.5,0,0.9,0,1.3,0.1s0.8,0.2,1.2,0.4
			c0.3,0.2,0.6,0.4,0.8,0.7S433.6-48.3,433.6-47.9z M429.4-46.2c0.1,0,0.3,0,0.5,0s0.3,0,0.4,0c0.4-0.1,0.7-0.3,0.9-0.5
			c0.3-0.2,0.4-0.5,0.4-0.8c0-0.2,0-0.4-0.1-0.5s-0.2-0.2-0.4-0.3s-0.3-0.1-0.5-0.2c-0.2,0-0.4,0-0.6,0c-0.3,0-0.5,0-0.7,0
			s-0.4,0-0.5,0v2.3H429.4z M430-42.3c0.2,0,0.5,0,0.7-0.1c0.2,0,0.4-0.1,0.6-0.2s0.3-0.2,0.4-0.4s0.1-0.3,0.1-0.6s-0.1-0.5-0.2-0.7
			s-0.3-0.3-0.5-0.4c-0.2-0.1-0.4-0.1-0.7-0.2s-0.5,0-0.7,0h-1.1v2.4c0.1,0,0.1,0,0.2,0s0.2,0,0.3,0c0.1,0,0.2,0,0.4,0
			C429.8-42.3,429.9-42.3,430-42.3z"/>
		<path class="st2" d="M438.1-45.7l-0.8-1.4h-0.1l0.2,1.4v4.7h-1.8v-9.2h1.4l3.8,4.8l0.7,1.3h0.1l-0.2-1.3V-50h1.8v9.2h-1.4
			L438.1-45.7z"/>
		<path class="st2" d="M445.3-50h5.9v1.7h-3.9v2h3.6v1.7h-3.6v2.1h4v1.7h-5.9V-50H445.3z"/>
		<path class="st2" d="M453.1-49.9c0.2,0,0.4-0.1,0.7-0.1s0.5-0.1,0.7-0.1c0.3,0,0.5,0,0.7,0s0.5,0,0.7,0c0.5,0,0.9,0,1.4,0.1
			c0.4,0.1,0.8,0.2,1.2,0.4c0.4,0.2,0.6,0.5,0.9,0.8s0.3,0.8,0.3,1.3c0,0.7-0.2,1.4-0.6,1.8s-0.9,0.8-1.5,1l0.7,0.4l2.3,3.4h-2.2
			l-2.3-3.5l-1-0.2v3.7h-1.9v-9H453.1z M456.1-48.5c-0.2,0-0.4,0-0.6,0s-0.3,0-0.4,0v2.5h0.8c0.5,0,1-0.1,1.3-0.3s0.5-0.6,0.5-1.1
			c0-0.4-0.1-0.7-0.4-0.9C456.9-48.4,456.6-48.5,456.1-48.5z"/>
	</g>
</g>
<g>
	<line class="st1" x1="106.5" y1="-369.4" x2="106.5" y2="-284.4"/>
	<rect x="106" y="-369.4" width="1" height="85"/>
</g>
<g>
	<path d="M19.8-295.1c1,0.2,2.1,0.5,3.2,1s2.1,1,2.8,1.6v3.4H7.3l-1.2-1.2L18-345.8l-5.2-1.3v-3.1c1-0.4,2.2-0.8,3.7-1.2
		c1.5-0.4,3.1-0.7,4.7-1s3.2-0.5,4.8-0.7c1.6-0.2,2.9-0.3,4.2-0.3l1.8,1.1l-3,12.5h0.4c1-1.9,2.1-3.6,3.3-5.3c1.2-1.7,2.6-3.1,4-4.3
		c1.4-1.2,2.9-2.2,4.6-2.9c1.7-0.7,3.4-1,5.3-1c3.1,0,5.6,1.2,7.6,3.6s3,5.8,3,10.1c0,4.9-0.7,9.4-2.1,13.5
		c-1.4,4.1-3.3,7.7-5.6,10.6c-2.4,3-5.2,5.3-8.5,6.9c-3.3,1.7-6.8,2.5-10.6,2.5c-1.7,0-3.2-0.1-4.3-0.4s-2.3-0.7-3.5-1.4L19.8-295.1
		z M39.6-346.1c-1.3,0-2.5,0.5-3.7,1.4s-2.3,2.1-3.3,3.5s-2,2.9-2.8,4.5c-0.9,1.6-1.6,3.1-2.1,4.4l-4,19.6c0.8,0.5,1.6,0.9,2.3,1.2
		c0.8,0.2,1.9,0.4,3.3,0.4c2.1,0,4-0.8,5.8-2.4c1.8-1.6,3.4-3.7,4.8-6.3c1.4-2.6,2.4-5.5,3.2-8.8c0.8-3.2,1.1-6.5,1.1-9.7
		c0-2.5-0.4-4.5-1.2-5.8C42.3-345.5,41.1-346.1,39.6-346.1z"/>
	<path d="M63.3-350c1.1-0.7,2.4-1.4,3.8-1.9s2.7-0.9,4.1-1.3l1.4-6.9c0.4-0.4,1.1-0.7,2-1s1.9-0.6,2.9-0.9c1.1-0.3,2.2-0.5,3.2-0.8
		c1.1-0.2,2.1-0.4,3-0.5l1.9,1.1l-2.2,9.9H94c0.1,0.7,0.1,1.7-0.1,2.9c-0.2,1.2-0.6,2.2-1,2.9H82.2L77-323.1c-0.2,1.1-0.4,2.1-0.5,3
		s-0.2,1.7-0.2,2.4c0,1.6,0.4,2.7,1.2,3.4c0.8,0.7,1.8,1.1,3.2,1.1c1.5,0,2.9-0.2,4.2-0.5c1.3-0.4,2.6-0.9,3.8-1.5l1.2,2.3
		c-0.7,0.8-1.7,1.6-2.9,2.4c-1.2,0.8-2.5,1.6-4,2.3c-1.5,0.7-3.1,1.2-4.8,1.7c-1.7,0.4-3.5,0.6-5.3,0.6c-3.1,0-5.4-0.7-7-2.2
		c-1.6-1.4-2.3-3.4-2.3-5.9c0-1.4,0.1-2.8,0.4-4.4c0.2-1.6,0.5-2.9,0.7-4l5.2-23.9h-6.5L63.3-350L63.3-350z"/>
</g>
<g>
	<text transform="matrix(1 0 0 1 119.1589 -345.8211)" class="st0" style="font-family:'PTSans-CaptionBold'; font-size:10px;">Prof. </text>
	<text transform="matrix(1 0 0 1 119.1589 -330.8211)" class="st0" style="font-family:'PTSans-CaptionBold'; font-size:10px;">Dr. </text>
	<text transform="matrix(1 0 0 1 119.1589 -315.8211)" class="st0" style="font-family:'PTSans-CaptionBold'; font-size:10px;">Peter </text>
	<text transform="matrix(1 0 0 1 119.1589 -300.8211)" class="st0" style="font-family:'PTSans-CaptionBold'; font-size:10px;">Trübner</text>
</g>
<g>
	<path class="st2" d="M118.7,15.3c0.4-0.1,0.8-0.1,1.3-0.2c0.5,0,0.9-0.1,1.4-0.1s0.9,0,1.4,0.1s0.9,0.2,1.3,0.4s0.7,0.5,0.9,0.9
		c0.2,0.4,0.4,0.9,0.4,1.5s-0.1,1-0.3,1.4c-0.2,0.4-0.5,0.7-0.8,0.9c-0.3,0.2-0.7,0.4-1.2,0.5c-0.4,0.1-0.9,0.2-1.4,0.2
		c0,0-0.1,0-0.2,0s-0.2,0-0.3,0c-0.1,0-0.2,0-0.3,0c-0.1,0-0.2,0-0.2,0v3h-1.9v-8.6H118.7z M121.5,16.7c-0.2,0-0.3,0-0.5,0
		s-0.3,0-0.4,0v2.6c0,0,0.1,0,0.2,0s0.2,0,0.2,0c0.1,0,0.2,0,0.2,0c0.1,0,0.1,0,0.2,0c0.2,0,0.5,0,0.7,0s0.5-0.1,0.6-0.2
		c0.2-0.1,0.3-0.3,0.5-0.4c0.1-0.2,0.2-0.4,0.2-0.8c0-0.3-0.1-0.5-0.2-0.6c-0.1-0.2-0.3-0.3-0.4-0.4s-0.4-0.2-0.6-0.2
		S121.7,16.7,121.5,16.7z"/>
	<path class="st2" d="M126.7,15.3c0.2,0,0.4-0.1,0.7-0.1s0.5-0.1,0.7-0.1s0.5,0,0.7,0s0.4,0,0.6,0c0.4,0,0.9,0,1.3,0.1
		c0.4,0.1,0.8,0.2,1.2,0.4c0.3,0.2,0.6,0.4,0.8,0.8c0.2,0.3,0.3,0.7,0.3,1.2c0,0.7-0.2,1.3-0.5,1.8c-0.4,0.5-0.8,0.8-1.5,0.9
		l0.7,0.4l2.2,3.3h-2.2l-2.2-3.4l-1-0.2V24h-1.9L126.7,15.3L126.7,15.3z M129.6,16.7c-0.2,0-0.4,0-0.6,0c-0.2,0-0.3,0-0.4,0v2.4h0.8
		c0.5,0,0.9-0.1,1.2-0.3s0.5-0.5,0.5-1c0-0.4-0.1-0.6-0.4-0.8C130.5,16.8,130.1,16.7,129.6,16.7z"/>
	<path class="st2" d="M134.6,19.6c0-0.7,0.1-1.4,0.3-1.9c0.2-0.6,0.4-1,0.8-1.4c0.3-0.4,0.8-0.7,1.3-0.9s1.1-0.3,1.7-0.3
		c0.7,0,1.3,0.1,1.8,0.3s0.9,0.5,1.3,0.9c0.3,0.4,0.6,0.9,0.8,1.4s0.3,1.2,0.3,1.9c0,0.7-0.1,1.4-0.3,1.9c-0.2,0.6-0.5,1-0.8,1.4
		c-0.4,0.4-0.8,0.7-1.3,0.9c-0.5,0.2-1.1,0.3-1.7,0.3c-0.7,0-1.3-0.1-1.8-0.3c-0.5-0.2-0.9-0.5-1.3-0.9s-0.6-0.9-0.8-1.4
		S134.6,20.3,134.6,19.6z M136.6,19.6c0,0.4,0,0.8,0.1,1.2c0.1,0.4,0.2,0.7,0.4,0.9c0.2,0.3,0.4,0.5,0.6,0.6
		c0.3,0.1,0.6,0.2,0.9,0.2c0.7,0,1.2-0.2,1.5-0.7s0.6-1.2,0.6-2.3c0-0.4,0-0.8-0.1-1.2c-0.1-0.4-0.2-0.7-0.4-0.9
		c-0.2-0.3-0.4-0.5-0.7-0.6s-0.6-0.2-1-0.2c-0.7,0-1.2,0.2-1.5,0.7S136.6,18.6,136.6,19.6z"/>
	<path class="st2" d="M144.5,15.2h5.7v1.6h-3.8v2h3.5v1.6h-3.5V24h-1.9V15.2z"/>
	<path class="st2" d="M150.5,23.2c0-0.3,0.1-0.6,0.3-0.7c0.2-0.2,0.5-0.3,0.8-0.3s0.6,0.1,0.8,0.3s0.3,0.4,0.3,0.7
		c0,0.3-0.1,0.5-0.3,0.7s-0.5,0.3-0.8,0.3s-0.6-0.1-0.8-0.3C150.6,23.7,150.5,23.4,150.5,23.2z"/>
	<path class="st2" d="M118.7,28.1c0.2,0,0.4,0,0.6-0.1c0.2,0,0.5,0,0.7,0c0.3,0,0.5,0,0.7,0s0.5,0,0.7,0c0.8,0,1.6,0.1,2.2,0.3
		c0.6,0.2,1.1,0.5,1.5,0.9s0.7,0.9,0.8,1.4s0.3,1.1,0.3,1.8c0,0.6-0.1,1.2-0.3,1.7c-0.2,0.6-0.5,1-0.8,1.5c-0.4,0.4-0.9,0.8-1.5,1
		c-0.6,0.3-1.4,0.4-2.3,0.4c-0.1,0-0.3,0-0.6,0c-0.2,0-0.5,0-0.8,0s-0.5,0-0.7,0s-0.4,0-0.5,0L118.7,28.1L118.7,28.1z M121.6,29.6
		c-0.2,0-0.4,0-0.6,0s-0.4,0-0.5,0v5.7c0,0,0.1,0,0.2,0s0.2,0,0.3,0c0.1,0,0.2,0,0.3,0c0.1,0,0.2,0,0.2,0c0.5,0,1-0.1,1.3-0.3
		c0.4-0.2,0.6-0.4,0.8-0.7c0.2-0.3,0.3-0.6,0.4-0.9c0.1-0.4,0.1-0.7,0.1-1.1c0-0.3,0-0.6-0.1-1c-0.1-0.3-0.2-0.6-0.4-0.9
		c-0.2-0.3-0.5-0.5-0.8-0.7S122.2,29.6,121.6,29.6z"/>
	<path class="st2" d="M127.9,28.2c0.2,0,0.4-0.1,0.7-0.1s0.5-0.1,0.7-0.1s0.5,0,0.7,0s0.4,0,0.6,0c0.4,0,0.9,0,1.3,0.1
		c0.4,0.1,0.8,0.2,1.2,0.4c0.3,0.2,0.6,0.4,0.8,0.8c0.2,0.3,0.3,0.7,0.3,1.2c0,0.7-0.2,1.3-0.5,1.8c-0.4,0.5-0.8,0.8-1.5,0.9
		l0.7,0.4l2.2,3.3h-2.2l-2.2-3.4l-1-0.2v3.6h-1.9L127.9,28.2L127.9,28.2z M130.7,29.6c-0.2,0-0.4,0-0.6,0c-0.2,0-0.3,0-0.4,0V32h0.8
		c0.5,0,0.9-0.1,1.2-0.3s0.5-0.5,0.5-1c0-0.4-0.1-0.6-0.4-0.8C131.6,29.7,131.2,29.6,130.7,29.6z"/>
	<path class="st2" d="M136.3,36c0-0.3,0.1-0.6,0.3-0.7c0.2-0.2,0.5-0.3,0.8-0.3s0.6,0.1,0.8,0.3s0.3,0.4,0.3,0.7s-0.1,0.5-0.3,0.7
		s-0.5,0.3-0.8,0.3s-0.6-0.1-0.8-0.3C136.4,36.6,136.3,36.3,136.3,36z"/>
	<path class="st2" d="M118.7,41.1c0.4-0.1,0.8-0.1,1.3-0.2c0.5,0,0.9-0.1,1.4-0.1s0.9,0,1.4,0.1s0.9,0.2,1.3,0.4s0.7,0.5,0.9,0.9
		c0.2,0.4,0.4,0.9,0.4,1.5s-0.1,1-0.3,1.4c-0.2,0.4-0.5,0.7-0.8,0.9s-0.7,0.4-1.2,0.5c-0.4,0.1-0.9,0.2-1.4,0.2c0,0-0.1,0-0.2,0
		s-0.2,0-0.3,0c-0.1,0-0.2,0-0.3,0c-0.1,0-0.2,0-0.2,0v3h-1.9v-8.6H118.7z M121.5,42.5c-0.2,0-0.3,0-0.5,0s-0.3,0-0.4,0v2.6
		c0,0,0.1,0,0.2,0s0.2,0,0.2,0c0.1,0,0.2,0,0.2,0c0.1,0,0.1,0,0.2,0c0.2,0,0.5,0,0.7,0s0.5-0.1,0.6-0.2c0.2-0.1,0.3-0.3,0.5-0.4
		c0.1-0.2,0.2-0.4,0.2-0.8c0-0.3-0.1-0.5-0.2-0.6c-0.1-0.2-0.3-0.3-0.4-0.4s-0.4-0.2-0.6-0.2S121.7,42.5,121.5,42.5z"/>
	<path class="st2" d="M126.7,41h5.7v1.6h-3.8v1.9h3.5v1.6h-3.5v2h3.9v1.6h-5.7L126.7,41L126.7,41z"/>
	<path class="st2" d="M141,42.6h-2.8v7.2h-1.9v-7.2h-2.8V41h7.4v1.6H141z"/>
	<path class="st2" d="M142.3,41h5.7v1.6h-3.8v1.9h3.5v1.6h-3.5v2h3.9v1.6h-5.7L142.3,41L142.3,41z"/>
	<path class="st2" d="M149.9,41.1c0.2,0,0.4-0.1,0.7-0.1s0.5-0.1,0.7-0.1s0.5,0,0.7,0s0.4,0,0.6,0c0.4,0,0.9,0,1.3,0.1
		c0.4,0.1,0.8,0.2,1.2,0.4c0.3,0.2,0.6,0.4,0.8,0.8c0.2,0.3,0.3,0.7,0.3,1.2c0,0.7-0.2,1.3-0.5,1.8c-0.4,0.5-0.8,0.8-1.5,0.9
		l0.7,0.4l2.2,3.3h-2.2l-2.2-3.4l-1-0.2v3.6h-1.9L149.9,41.1L149.9,41.1z M152.7,42.5c-0.2,0-0.4,0-0.6,0c-0.2,0-0.3,0-0.4,0V45h0.8
		c0.5,0,0.9-0.1,1.2-0.3s0.5-0.5,0.5-1c0-0.4-0.1-0.6-0.4-0.8C153.6,42.6,153.2,42.5,152.7,42.5z"/>
	<path class="st2" d="M125.5,55.5h-2.8v7.2h-1.9v-7.2H118v-1.6h7.4v1.6H125.5z"/>
	<path class="st2" d="M126.8,54c0.2,0,0.4-0.1,0.7-0.1s0.5-0.1,0.7-0.1s0.5,0,0.7,0s0.4,0,0.6,0c0.4,0,0.9,0,1.3,0.1
		c0.4,0.1,0.8,0.2,1.2,0.4c0.3,0.2,0.6,0.4,0.8,0.8c0.2,0.3,0.3,0.7,0.3,1.2c0,0.7-0.2,1.3-0.5,1.8c-0.4,0.5-0.8,0.8-1.5,0.9
		l0.7,0.4l2.2,3.3h-2.2l-2.2-3.4l-1-0.2v3.6h-1.9L126.8,54L126.8,54z M129.6,55.4c-0.2,0-0.4,0-0.6,0c-0.2,0-0.3,0-0.4,0v2.4h0.8
		c0.5,0,0.9-0.1,1.2-0.3s0.5-0.5,0.5-1c0-0.4-0.1-0.6-0.4-0.8C130.5,55.5,130.1,55.4,129.6,55.4z"/>
	<path class="st2" d="M140.3,53.9h1.8v5.6c0,0.6-0.1,1.1-0.2,1.5c-0.2,0.4-0.4,0.8-0.7,1c-0.3,0.3-0.7,0.5-1.1,0.6s-0.9,0.2-1.4,0.2
		c-1.2,0-2.1-0.3-2.7-0.8s-0.9-1.3-0.9-2.3v-5.8h1.9v5.5c0,0.7,0.1,1.1,0.4,1.4c0.3,0.3,0.7,0.4,1.3,0.4s1-0.1,1.2-0.4
		s0.4-0.7,0.4-1.4V53.9z M136.1,52.7c0-0.2,0.1-0.4,0.2-0.5c0.2-0.1,0.4-0.2,0.8-0.2c0.4,0,0.6,0.1,0.8,0.2c0.2,0.1,0.2,0.3,0.2,0.5
		s-0.1,0.4-0.2,0.5s-0.4,0.2-0.8,0.2c-0.4,0-0.6-0.1-0.8-0.2S136.1,52.9,136.1,52.7z M139,52.7c0-0.2,0.1-0.4,0.2-0.5
		c0.2-0.1,0.4-0.2,0.8-0.2c0.4,0,0.6,0.1,0.8,0.2c0.2,0.1,0.2,0.3,0.2,0.5s-0.1,0.4-0.2,0.5c-0.2,0.1-0.4,0.2-0.8,0.2
		c-0.4,0-0.6-0.1-0.8-0.2S139,52.9,139,52.7z"/>
	<path class="st2" d="M150.5,56c0,0.2,0,0.4-0.1,0.6c-0.1,0.2-0.2,0.4-0.3,0.6c-0.1,0.2-0.3,0.3-0.5,0.5c-0.2,0.1-0.5,0.2-0.8,0.3v0
		c0.3,0,0.5,0.1,0.8,0.2c0.2,0.1,0.5,0.2,0.6,0.4c0.2,0.2,0.3,0.4,0.4,0.7c0.1,0.3,0.2,0.6,0.2,0.9c0,0.5-0.1,0.9-0.3,1.2
		s-0.5,0.6-0.8,0.8s-0.7,0.4-1.2,0.5s-0.9,0.2-1.4,0.2c-0.2,0-0.3,0-0.6,0s-0.5,0-0.8,0s-0.6,0-0.9-0.1c-0.3,0-0.6-0.1-0.8-0.1V54
		c0.2,0,0.4-0.1,0.6-0.1c0.2,0,0.5,0,0.7-0.1c0.3,0,0.5,0,0.8,0s0.5,0,0.8,0c0.4,0,0.9,0,1.3,0.1c0.4,0.1,0.8,0.2,1.1,0.3
		s0.6,0.4,0.8,0.7S150.5,55.5,150.5,56z M146.4,57.5c0.1,0,0.3,0,0.4,0c0.2,0,0.3,0,0.4,0c0.4-0.1,0.6-0.3,0.9-0.4
		c0.2-0.2,0.4-0.4,0.4-0.8c0-0.2,0-0.4-0.1-0.5s-0.2-0.2-0.4-0.3s-0.3-0.1-0.5-0.2c-0.2,0-0.4,0-0.6,0c-0.2,0-0.5,0-0.7,0
		s-0.4,0-0.5,0v2.2H146.4z M147,61.3c0.2,0,0.5,0,0.7-0.1c0.2,0,0.4-0.1,0.6-0.2c0.2-0.1,0.3-0.2,0.4-0.4c0.1-0.1,0.1-0.3,0.1-0.5
		c0-0.3-0.1-0.5-0.2-0.6s-0.3-0.3-0.5-0.4c-0.2-0.1-0.4-0.1-0.6-0.2c-0.2,0-0.5,0-0.7,0h-1v2.3c0.1,0,0.1,0,0.2,0c0.1,0,0.2,0,0.3,0
		s0.2,0,0.4,0S146.9,61.3,147,61.3z"/>
	<path class="st2" d="M154.8,58.1l-0.8-1.3l0,0l0.2,1.3v4.6h-1.8v-8.8h1.3l3.6,4.7l0.7,1.3h0.1l-0.2-1.3V54h1.8v8.8h-1.3L154.8,58.1
		z"/>
	<path class="st2" d="M161.8,53.9h5.7v1.6h-3.8v1.9h3.5V59h-3.5v2h3.9v1.6h-5.7L161.8,53.9L161.8,53.9z"/>
	<path class="st2" d="M169.3,54c0.2,0,0.4-0.1,0.7-0.1s0.5-0.1,0.7-0.1s0.5,0,0.7,0s0.4,0,0.6,0c0.4,0,0.9,0,1.3,0.1
		c0.4,0.1,0.8,0.2,1.2,0.4c0.3,0.2,0.6,0.4,0.8,0.8c0.2,0.3,0.3,0.7,0.3,1.2c0,0.7-0.2,1.3-0.5,1.8c-0.4,0.5-0.8,0.8-1.5,0.9
		l0.7,0.4l2.2,3.3h-2.2l-2.2-3.4l-1-0.2v3.6h-1.9L169.3,54L169.3,54z M172.2,55.4c-0.2,0-0.4,0-0.6,0c-0.2,0-0.3,0-0.4,0v2.4h0.8
		c0.5,0,0.9-0.1,1.2-0.3s0.5-0.5,0.5-1c0-0.4-0.1-0.6-0.4-0.8C173,55.5,172.7,55.4,172.2,55.4z"/>
</g>
<g>
	<line class="st1" x1="105.5" y1="-107.9" x2="105.5" y2="-22.9"/>
	<rect x="105" y="-107.9" class="st2" width="1" height="85"/>
</g>
<path class="st2" d="M18.8-33.7c1,0.2,2.1,0.5,3.2,1s2.1,1,2.8,1.6v3.4H6.3l-1.2-1.2L17-84.3l-5.2-1.3v-3.1c1-0.4,2.2-0.8,3.7-1.2
	c1.5-0.4,3.1-0.7,4.7-1s3.2-0.5,4.8-0.7c1.6-0.2,2.9-0.3,4.2-0.3l1.8,1.1l-3,12.5h0.4c1-1.9,2.1-3.6,3.3-5.3c1.2-1.7,2.6-3.1,4-4.3
	c1.4-1.2,2.9-2.2,4.6-2.9c1.7-0.7,3.4-1,5.3-1c3.1,0,5.6,1.2,7.6,3.6s3,5.8,3,10.1c0,4.9-0.7,9.4-2.1,13.5
	c-1.4,4.1-3.3,7.7-5.6,10.6c-2.4,3-5.2,5.3-8.5,6.9c-3.3,1.7-6.8,2.5-10.6,2.5c-1.7,0-3.2-0.1-4.3-0.4c-1.1-0.3-2.3-0.7-3.5-1.4
	L18.8-33.7z M38.6-84.7c-1.3,0-2.5,0.5-3.7,1.4s-2.3,2.1-3.3,3.5s-2,2.9-2.8,4.5c-0.9,1.6-1.6,3.1-2.1,4.4l-4,19.6
	c0.8,0.5,1.6,0.9,2.3,1.2c0.8,0.2,1.9,0.4,3.3,0.4c2.1,0,4-0.8,5.8-2.4c1.8-1.6,3.4-3.7,4.8-6.3c1.4-2.6,2.4-5.5,3.2-8.8
	c0.8-3.2,1.1-6.5,1.1-9.7c0-2.5-0.4-4.5-1.2-5.8C41.3-84,40.1-84.7,38.6-84.7z"/>
<path class="st2" d="M62.3-88.6c1.1-0.7,2.4-1.4,3.8-1.9s2.7-0.9,4.1-1.3l1.4-6.9c0.4-0.4,1.1-0.7,2-1s1.9-0.6,2.9-0.9
	c1.1-0.3,2.2-0.5,3.2-0.8c1.1-0.2,2.1-0.4,3-0.5l1.9,1.1l-2.2,9.9H93c0.1,0.7,0.1,1.7-0.1,2.9c-0.2,1.2-0.6,2.2-1,2.9H81.2L76-61.7
	c-0.2,1.1-0.4,2.1-0.5,3s-0.2,1.7-0.2,2.4c0,1.6,0.4,2.7,1.2,3.4c0.8,0.7,1.8,1.1,3.2,1.1c1.5,0,2.9-0.2,4.2-0.5
	c1.3-0.4,2.6-0.9,3.8-1.5l1.2,2.3c-0.7,0.8-1.7,1.6-2.9,2.4c-1.2,0.8-2.5,1.6-4,2.3s-3.1,1.2-4.8,1.7c-1.7,0.4-3.5,0.6-5.3,0.6
	c-3.1,0-5.4-0.7-7-2.2c-1.6-1.4-2.3-3.4-2.3-5.9c0-1.4,0.1-2.8,0.4-4.4c0.2-1.6,0.5-2.9,0.7-4l5.1-24h-6.5
	C62.3-85,62.3-88.6,62.3-88.6z"/>
<g>
	<path class="st2" d="M118.7-92.3c0.4-0.1,0.8-0.1,1.3-0.2c0.5,0,0.9-0.1,1.4-0.1s0.9,0,1.4,0.1s0.9,0.2,1.3,0.4
		c0.4,0.2,0.7,0.5,0.9,0.9c0.2,0.4,0.4,0.9,0.4,1.5s-0.1,1-0.3,1.4c-0.2,0.4-0.5,0.7-0.8,0.9c-0.3,0.2-0.7,0.4-1.2,0.5
		c-0.4,0.1-0.9,0.2-1.4,0.2c0,0-0.1,0-0.2,0s-0.2,0-0.3,0c-0.1,0-0.2,0-0.3,0c-0.1,0-0.2,0-0.2,0v3h-1.9v-8.6H118.7z M121.5-90.8
		c-0.2,0-0.3,0-0.5,0s-0.3,0-0.4,0v2.6c0,0,0.1,0,0.2,0s0.2,0,0.2,0c0.1,0,0.2,0,0.2,0c0.1,0,0.1,0,0.2,0c0.2,0,0.5,0,0.7,0
		s0.5-0.1,0.6-0.2c0.2-0.1,0.3-0.3,0.5-0.4c0.1-0.2,0.2-0.4,0.2-0.8c0-0.3-0.1-0.5-0.2-0.6c-0.1-0.2-0.3-0.3-0.4-0.4
		s-0.4-0.2-0.6-0.2S121.7-90.8,121.5-90.8z"/>
	<path class="st2" d="M126.7-92.3c0.2,0,0.4-0.1,0.7-0.1s0.5-0.1,0.7-0.1s0.5,0,0.7,0s0.4,0,0.6,0c0.4,0,0.9,0,1.3,0.1
		c0.4,0.1,0.8,0.2,1.2,0.4c0.3,0.2,0.6,0.4,0.8,0.8c0.2,0.3,0.3,0.7,0.3,1.2c0,0.7-0.2,1.3-0.5,1.8c-0.4,0.5-0.8,0.8-1.5,0.9
		l0.7,0.4l2.2,3.3h-2.2l-2.2-3.4l-1-0.2v3.6h-1.9L126.7-92.3L126.7-92.3z M129.6-90.8c-0.2,0-0.4,0-0.6,0c-0.2,0-0.3,0-0.4,0v2.4
		h0.8c0.5,0,0.9-0.1,1.2-0.3s0.5-0.5,0.5-1c0-0.4-0.1-0.6-0.4-0.8C130.5-90.7,130.1-90.8,129.6-90.8z"/>
	<path class="st2" d="M134.6-88c0-0.7,0.1-1.4,0.3-1.9c0.2-0.6,0.4-1,0.8-1.4c0.3-0.4,0.8-0.7,1.3-0.9c0.5-0.2,1.1-0.3,1.7-0.3
		c0.7,0,1.3,0.1,1.8,0.3c0.5,0.2,0.9,0.5,1.3,0.9c0.3,0.4,0.6,0.9,0.8,1.4s0.3,1.2,0.3,1.9c0,0.7-0.1,1.4-0.3,1.9
		c-0.2,0.6-0.5,1-0.8,1.4c-0.4,0.4-0.8,0.7-1.3,0.9c-0.5,0.2-1.1,0.3-1.7,0.3c-0.7,0-1.3-0.1-1.8-0.3c-0.5-0.2-0.9-0.5-1.3-0.9
		s-0.6-0.9-0.8-1.4S134.6-87.3,134.6-88z M136.6-88c0,0.4,0,0.8,0.1,1.2c0.1,0.4,0.2,0.7,0.4,0.9c0.2,0.3,0.4,0.5,0.6,0.6
		c0.3,0.1,0.6,0.2,0.9,0.2c0.7,0,1.2-0.2,1.5-0.7s0.6-1.2,0.6-2.3c0-0.4,0-0.8-0.1-1.2c-0.1-0.4-0.2-0.7-0.4-0.9
		c-0.2-0.3-0.4-0.5-0.7-0.6s-0.6-0.2-1-0.2c-0.7,0-1.2,0.2-1.5,0.7S136.6-89,136.6-88z"/>
	<path class="st2" d="M144.5-92.4h5.7v1.6h-3.8v2h3.5v1.6h-3.5v3.5h-1.9V-92.4z"/>
	<path class="st2" d="M150.5-84.4c0-0.3,0.1-0.6,0.3-0.7c0.2-0.2,0.5-0.3,0.8-0.3s0.6,0.1,0.8,0.3s0.3,0.4,0.3,0.7
		c0,0.3-0.1,0.5-0.3,0.7s-0.5,0.3-0.8,0.3s-0.6-0.1-0.8-0.3C150.6-83.9,150.5-84.1,150.5-84.4z"/>
	<path class="st2" d="M118.7-79.5c0.2,0,0.4,0,0.6-0.1c0.2,0,0.5,0,0.7,0c0.3,0,0.5,0,0.7,0s0.5,0,0.7,0c0.8,0,1.6,0.1,2.2,0.3
		c0.6,0.2,1.1,0.5,1.5,0.9s0.7,0.9,0.8,1.4s0.3,1.1,0.3,1.8c0,0.6-0.1,1.2-0.3,1.7c-0.2,0.6-0.5,1-0.8,1.5c-0.4,0.4-0.9,0.8-1.5,1
		c-0.6,0.3-1.4,0.4-2.3,0.4c-0.1,0-0.3,0-0.6,0c-0.2,0-0.5,0-0.8,0s-0.5,0-0.7,0s-0.4,0-0.5,0L118.7-79.5L118.7-79.5z M121.6-78
		c-0.2,0-0.4,0-0.6,0s-0.4,0-0.5,0v5.7c0,0,0.1,0,0.2,0s0.2,0,0.3,0c0.1,0,0.2,0,0.3,0c0.1,0,0.2,0,0.2,0c0.5,0,1-0.1,1.3-0.3
		c0.4-0.2,0.6-0.4,0.8-0.7c0.2-0.3,0.3-0.6,0.4-0.9c0.1-0.4,0.1-0.7,0.1-1.1c0-0.3,0-0.6-0.1-1c-0.1-0.3-0.2-0.6-0.4-0.9
		c-0.2-0.3-0.5-0.5-0.8-0.7S122.2-78,121.6-78z"/>
	<path class="st2" d="M127.9-79.4c0.2,0,0.4-0.1,0.7-0.1s0.5-0.1,0.7-0.1s0.5,0,0.7,0s0.4,0,0.6,0c0.4,0,0.9,0,1.3,0.1
		c0.4,0.1,0.8,0.2,1.2,0.4c0.3,0.2,0.6,0.4,0.8,0.8c0.2,0.3,0.3,0.7,0.3,1.2c0,0.7-0.2,1.3-0.5,1.8c-0.4,0.5-0.8,0.8-1.5,0.9
		l0.7,0.4l2.2,3.3h-2.2l-2.2-3.4l-1-0.2v3.6h-1.9L127.9-79.4L127.9-79.4z M130.7-78c-0.2,0-0.4,0-0.6,0c-0.2,0-0.3,0-0.4,0v2.4h0.8
		c0.5,0,0.9-0.1,1.2-0.3s0.5-0.5,0.5-1c0-0.4-0.1-0.6-0.4-0.8C131.6-77.9,131.2-78,130.7-78z"/>
	<path class="st2" d="M136.3-71.5c0-0.3,0.1-0.6,0.3-0.7c0.2-0.2,0.5-0.3,0.8-0.3s0.6,0.1,0.8,0.3s0.3,0.4,0.3,0.7
		c0,0.3-0.1,0.5-0.3,0.7s-0.5,0.3-0.8,0.3s-0.6-0.1-0.8-0.3C136.4-71,136.3-71.2,136.3-71.5z"/>
	<path class="st2" d="M118.7-66.5c0.4-0.1,0.8-0.1,1.3-0.2c0.5,0,0.9-0.1,1.4-0.1s0.9,0,1.4,0.1s0.9,0.2,1.3,0.4
		c0.4,0.2,0.7,0.5,0.9,0.9c0.2,0.4,0.4,0.9,0.4,1.5s-0.1,1-0.3,1.4c-0.2,0.4-0.5,0.7-0.8,0.9s-0.7,0.4-1.2,0.5
		c-0.4,0.1-0.9,0.2-1.4,0.2c0,0-0.1,0-0.2,0s-0.2,0-0.3,0c-0.1,0-0.2,0-0.3,0c-0.1,0-0.2,0-0.2,0v3h-1.9v-8.6H118.7z M121.5-65.1
		c-0.2,0-0.3,0-0.5,0s-0.3,0-0.4,0v2.6c0,0,0.1,0,0.2,0s0.2,0,0.2,0c0.1,0,0.2,0,0.2,0c0.1,0,0.1,0,0.2,0c0.2,0,0.5,0,0.7,0
		s0.5-0.1,0.6-0.2c0.2-0.1,0.3-0.3,0.5-0.4c0.1-0.2,0.2-0.4,0.2-0.8c0-0.3-0.1-0.5-0.2-0.6c-0.1-0.2-0.3-0.3-0.4-0.4
		s-0.4-0.2-0.6-0.2S121.7-65.1,121.5-65.1z"/>
	<path class="st2" d="M126.7-66.6h5.7v1.6h-3.8v1.9h3.5v1.6h-3.5v2h3.9v1.6h-5.7L126.7-66.6L126.7-66.6z"/>
	<path class="st2" d="M141-64.9h-2.8v7.2h-1.9v-7.2h-2.8v-1.6h7.4v1.6H141z"/>
	<path class="st2" d="M142.3-66.6h5.7v1.6h-3.8v1.9h3.5v1.6h-3.5v2h3.9v1.6h-5.7L142.3-66.6L142.3-66.6z"/>
	<path class="st2" d="M149.9-66.5c0.2,0,0.4-0.1,0.7-0.1s0.5-0.1,0.7-0.1s0.5,0,0.7,0s0.4,0,0.6,0c0.4,0,0.9,0,1.3,0.1
		c0.4,0.1,0.8,0.2,1.2,0.4c0.3,0.2,0.6,0.4,0.8,0.8c0.2,0.3,0.3,0.7,0.3,1.2c0,0.7-0.2,1.3-0.5,1.8c-0.4,0.5-0.8,0.8-1.5,0.9
		l0.7,0.4l2.2,3.3h-2.2l-2.2-3.4l-1-0.2v3.6h-1.9L149.9-66.5L149.9-66.5z M152.7-65.1c-0.2,0-0.4,0-0.6,0c-0.2,0-0.3,0-0.4,0v2.4
		h0.8c0.5,0,0.9-0.1,1.2-0.3s0.5-0.5,0.5-1c0-0.4-0.1-0.6-0.4-0.8C153.6-65,153.2-65.1,152.7-65.1z"/>
	<path class="st2" d="M125.5-52.1h-2.8v7.2h-1.9v-7.2H118v-1.6h7.4v1.6H125.5z"/>
	<path class="st2" d="M126.8-53.6c0.2,0,0.4-0.1,0.7-0.1s0.5-0.1,0.7-0.1s0.5,0,0.7,0s0.4,0,0.6,0c0.4,0,0.9,0,1.3,0.1
		c0.4,0.1,0.8,0.2,1.2,0.4c0.3,0.2,0.6,0.4,0.8,0.8c0.2,0.3,0.3,0.7,0.3,1.2c0,0.7-0.2,1.3-0.5,1.8c-0.4,0.5-0.8,0.8-1.5,0.9
		l0.7,0.4l2.2,3.3h-2.2l-2.2-3.4l-1-0.2v3.6h-1.9L126.8-53.6L126.8-53.6z M129.6-52.2c-0.2,0-0.4,0-0.6,0c-0.2,0-0.3,0-0.4,0v2.4
		h0.8c0.5,0,0.9-0.1,1.2-0.3s0.5-0.5,0.5-1c0-0.4-0.1-0.6-0.4-0.8C130.5-52.1,130.1-52.2,129.6-52.2z"/>
	<path class="st2" d="M140.3-53.7h1.8v5.6c0,0.6-0.1,1.1-0.2,1.5c-0.2,0.4-0.4,0.8-0.7,1c-0.3,0.3-0.7,0.5-1.1,0.6s-0.9,0.2-1.4,0.2
		c-1.2,0-2.1-0.3-2.7-0.8s-0.9-1.3-0.9-2.3v-5.8h1.9v5.5c0,0.7,0.1,1.1,0.4,1.4c0.3,0.3,0.7,0.4,1.3,0.4s1-0.1,1.2-0.4
		s0.4-0.7,0.4-1.4V-53.7z M136.1-54.9c0-0.2,0.1-0.4,0.2-0.5c0.2-0.1,0.4-0.2,0.8-0.2c0.4,0,0.6,0.1,0.8,0.2
		c0.2,0.1,0.2,0.3,0.2,0.5s-0.1,0.4-0.2,0.5s-0.4,0.2-0.8,0.2c-0.4,0-0.6-0.1-0.8-0.2S136.1-54.7,136.1-54.9z M139-54.9
		c0-0.2,0.1-0.4,0.2-0.5c0.2-0.1,0.4-0.2,0.8-0.2c0.4,0,0.6,0.1,0.8,0.2c0.2,0.1,0.2,0.3,0.2,0.5s-0.1,0.4-0.2,0.5
		c-0.2,0.1-0.4,0.2-0.8,0.2c-0.4,0-0.6-0.1-0.8-0.2S139-54.7,139-54.9z"/>
	<path class="st2" d="M150.5-51.6c0,0.2,0,0.4-0.1,0.6c-0.1,0.2-0.2,0.4-0.3,0.6c-0.1,0.2-0.3,0.3-0.5,0.5c-0.2,0.1-0.5,0.2-0.8,0.3
		v0.1c0.3,0,0.5,0.1,0.8,0.2c0.2,0.1,0.5,0.2,0.6,0.4c0.2,0.2,0.3,0.4,0.4,0.7c0.1,0.3,0.2,0.6,0.2,0.9c0,0.5-0.1,0.9-0.3,1.2
		s-0.5,0.6-0.8,0.8s-0.7,0.4-1.2,0.5s-0.9,0.2-1.4,0.2c-0.2,0-0.3,0-0.6,0s-0.5,0-0.8,0s-0.6,0-0.9-0.1c-0.3,0-0.6-0.1-0.8-0.1v-8.7
		c0.2,0,0.4-0.1,0.6-0.1c0.2,0,0.5,0,0.7-0.1c0.3,0,0.5,0,0.8,0s0.5,0,0.8,0c0.4,0,0.9,0,1.3,0.1c0.4,0.1,0.8,0.2,1.1,0.3
		s0.6,0.4,0.8,0.7S150.5-52.1,150.5-51.6z M146.4-50c0.1,0,0.3,0,0.4,0c0.2,0,0.3,0,0.4,0c0.4-0.1,0.6-0.3,0.9-0.4
		c0.2-0.2,0.4-0.4,0.4-0.8c0-0.2,0-0.4-0.1-0.5s-0.2-0.2-0.4-0.3s-0.3-0.1-0.5-0.2c-0.2,0-0.4,0-0.6,0c-0.2,0-0.5,0-0.7,0
		s-0.4,0-0.5,0v2.2H146.4z M147-46.3c0.2,0,0.5,0,0.7-0.1c0.2,0,0.4-0.1,0.6-0.2c0.2-0.1,0.3-0.2,0.4-0.4c0.1-0.1,0.1-0.3,0.1-0.5
		c0-0.3-0.1-0.5-0.2-0.6s-0.3-0.3-0.5-0.4c-0.2-0.1-0.4-0.1-0.6-0.2c-0.2,0-0.5,0-0.7,0h-1v2.3c0.1,0,0.1,0,0.2,0c0.1,0,0.2,0,0.3,0
		s0.2,0,0.4,0S146.9-46.3,147-46.3z"/>
	<path class="st2" d="M154.8-49.5l-0.8-1.3l0,0l0.2,1.3v4.6h-1.8v-8.8h1.3l3.6,4.7l0.7,1.3h0.1l-0.2-1.3v-4.6h1.8v8.8h-1.3
		L154.8-49.5z"/>
	<path class="st2" d="M161.8-53.7h5.7v1.6h-3.8v1.9h3.5v1.6h-3.5v2h3.9v1.6h-5.7L161.8-53.7L161.8-53.7z"/>
	<path class="st2" d="M169.3-53.6c0.2,0,0.4-0.1,0.7-0.1s0.5-0.1,0.7-0.1s0.5,0,0.7,0s0.4,0,0.6,0c0.4,0,0.9,0,1.3,0.1
		c0.4,0.1,0.8,0.2,1.2,0.4c0.3,0.2,0.6,0.4,0.8,0.8c0.2,0.3,0.3,0.7,0.3,1.2c0,0.7-0.2,1.3-0.5,1.8c-0.4,0.5-0.8,0.8-1.5,0.9
		l0.7,0.4l2.2,3.3h-2.2l-2.2-3.4l-1-0.2v3.6h-1.9L169.3-53.6L169.3-53.6z M172.2-52.2c-0.2,0-0.4,0-0.6,0c-0.2,0-0.3,0-0.4,0v2.4
		h0.8c0.5,0,0.9-0.1,1.2-0.3s0.5-0.5,0.5-1c0-0.4-0.1-0.6-0.4-0.8C173-52.1,172.7-52.2,172.2-52.2z"/>
</g>
</svg>
