<?xml version="1.0" encoding="utf-8"?>
<!-- Generator: Adobe Illustrator 24.2.0, SVG Export Plug-In . SVG Version: 6.00 Build 0)  -->
<svg version="1.1" id="Ebene_1" xmlns="http://www.w3.org/2000/svg" xmlns:xlink="http://www.w3.org/1999/xlink" x="0px" y="0px"
	 viewBox="0 0 180 85" style="enable-background:new 0 0 180 85;" xml:space="preserve">
<style type="text/css">
	.st0{fill:#305596;}
	.st1{fill:none;}
	.st2{fill:#FFFFFF;}
	.st3{enable-background:new    ;}
</style>
<rect x="-188.7" y="-58.5" transform="matrix(0.7071 -0.7071 0.7071 0.7071 -17.152 -76.1946)" width="176.3" height="82.3"/>
<g>
	<g>
		<path class="st0" d="M-148.7-502.9v2.7h-1.9v-8h2.8c0.6,0,1,0.1,1.5,0.2s0.7,0.3,1,0.6c0.3,0.2,0.5,0.5,0.6,0.8s0.2,0.7,0.2,1
			c0,0.4-0.1,0.8-0.2,1.1c-0.1,0.3-0.3,0.6-0.6,0.9c-0.3,0.2-0.6,0.4-1,0.6c-0.4,0.1-0.9,0.2-1.4,0.2h-1L-148.7-502.9L-148.7-502.9z
			 M-148.7-504.3h1c0.5,0,0.8-0.1,1-0.3c0.2-0.2,0.3-0.6,0.3-1c0-0.2,0-0.4-0.1-0.5s-0.1-0.3-0.2-0.4c-0.1-0.1-0.3-0.2-0.4-0.2
			s-0.4-0.1-0.6-0.1h-1V-504.3z"/>
		<path class="st0" d="M-141.1-503.2v3h-1.9v-8h2.6c0.6,0,1.1,0.1,1.5,0.2s0.7,0.3,1,0.5s0.4,0.5,0.6,0.8c0.1,0.3,0.2,0.6,0.2,0.9
			s0,0.5-0.1,0.7s-0.2,0.4-0.3,0.6s-0.3,0.4-0.5,0.5c-0.2,0.2-0.4,0.3-0.7,0.4c0.1,0.1,0.2,0.1,0.3,0.2s0.2,0.2,0.3,0.3l1.7,2.8
			h-1.7c-0.3,0-0.5-0.1-0.7-0.4l-1.3-2.3c-0.1-0.1-0.1-0.2-0.2-0.2c-0.1,0-0.2-0.1-0.3-0.1h-0.5L-141.1-503.2L-141.1-503.2z
			 M-141.1-504.5h0.7c0.3,0,0.5,0,0.6-0.1c0.2-0.1,0.3-0.2,0.4-0.3c0.1-0.1,0.2-0.2,0.2-0.4c0.1-0.2,0.1-0.3,0.1-0.5
			c0-0.4-0.1-0.6-0.3-0.8c-0.2-0.2-0.6-0.3-1.1-0.3h-0.7v2.4C-141.2-504.5-141.1-504.5-141.1-504.5z"/>
		<path class="st0" d="M-127.5-504.3c0,0.6-0.1,1.1-0.3,1.6c-0.2,0.5-0.5,0.9-0.8,1.3s-0.8,0.7-1.3,0.9c-0.5,0.2-1.1,0.3-1.7,0.3
			s-1.2-0.1-1.7-0.3c-0.5-0.2-1-0.5-1.3-0.9s-0.6-0.8-0.8-1.3s-0.3-1-0.3-1.6s0.1-1.1,0.3-1.6s0.5-0.9,0.8-1.3
			c0.4-0.4,0.8-0.7,1.3-0.9c0.5-0.2,1.1-0.3,1.7-0.3s1.2,0.1,1.7,0.3c0.5,0.2,0.9,0.5,1.3,0.9c0.4,0.4,0.6,0.8,0.8,1.3
			C-127.6-505.4-127.5-504.9-127.5-504.3z M-129.4-504.3c0-0.4-0.1-0.8-0.2-1.1s-0.2-0.6-0.4-0.8c-0.2-0.2-0.4-0.4-0.7-0.5
			s-0.6-0.2-1-0.2s-0.7,0.1-1,0.2s-0.5,0.3-0.7,0.5s-0.3,0.5-0.4,0.8s-0.2,0.7-0.2,1.1s0.1,0.8,0.2,1.1c0.1,0.3,0.2,0.6,0.4,0.8
			s0.4,0.4,0.7,0.5s0.6,0.2,1,0.2s0.7-0.1,1-0.2s0.5-0.3,0.7-0.5s0.3-0.5,0.4-0.8C-129.4-503.5-129.4-503.9-129.4-504.3z"/>
		<path class="st0" d="M-120.9-508.3v1.4h-3.3v2h2.7v1.4h-2.7v3.1h-1.9v-8h5.2C-120.9-508.4-120.9-508.3-120.9-508.3z"/>
		<path class="st0" d="M-120.7-501.1c0-0.1,0-0.3,0.1-0.4c0-0.1,0.1-0.2,0.2-0.3c0.1-0.1,0.2-0.2,0.3-0.2s0.2-0.1,0.4-0.1
			c0.1,0,0.3,0,0.4,0.1c0.1,0,0.2,0.1,0.3,0.2s0.2,0.2,0.2,0.3c0,0.1,0.1,0.2,0.1,0.4c0,0.2,0,0.3-0.1,0.4c0,0.1-0.1,0.2-0.2,0.3
			s-0.2,0.2-0.3,0.2s-0.2,0.1-0.4,0.1c-0.1,0-0.3,0-0.4-0.1c-0.1,0-0.2-0.1-0.3-0.2s-0.2-0.2-0.2-0.3S-120.7-501-120.7-501.1z"/>
		<path class="st0" d="M-143.3-490.3c0,0.6-0.1,1.1-0.3,1.6s-0.5,0.9-0.8,1.3s-0.8,0.6-1.3,0.8c-0.5,0.2-1.1,0.3-1.7,0.3h-3.1v-8
			h3.1c0.6,0,1.2,0.1,1.7,0.3c0.5,0.2,0.9,0.5,1.3,0.8c0.4,0.3,0.6,0.8,0.8,1.3S-143.3-490.9-143.3-490.3z M-145.2-490.3
			c0-0.4-0.1-0.8-0.2-1.1s-0.2-0.6-0.4-0.8c-0.2-0.2-0.4-0.4-0.7-0.5s-0.6-0.2-1-0.2h-1.2v5.2h1.2c0.4,0,0.7-0.1,1-0.2
			s0.5-0.3,0.7-0.5s0.3-0.5,0.4-0.8C-145.3-489.5-145.2-489.9-145.2-490.3z"/>
		<path class="st0" d="M-140-489.2v3h-1.9v-8h2.6c0.6,0,1.1,0.1,1.5,0.2s0.7,0.3,1,0.5s0.4,0.5,0.6,0.8c0.1,0.3,0.2,0.6,0.2,0.9
			s0,0.5-0.1,0.7s-0.2,0.4-0.3,0.6s-0.3,0.4-0.5,0.5c-0.2,0.2-0.4,0.3-0.7,0.4c0.1,0.1,0.2,0.1,0.3,0.2s0.2,0.2,0.3,0.3l1.7,2.8
			h-1.7c-0.3,0-0.5-0.1-0.7-0.4l-1.3-2.3c-0.1-0.1-0.1-0.2-0.2-0.2c-0.1,0-0.2-0.1-0.3-0.1L-140-489.2L-140-489.2z M-140-490.5h0.7
			c0.3,0,0.5,0,0.6-0.1c0.2-0.1,0.3-0.2,0.4-0.3c0.1-0.1,0.2-0.2,0.2-0.4c0.1-0.2,0.1-0.3,0.1-0.5c0-0.4-0.1-0.6-0.3-0.8
			c-0.2-0.2-0.6-0.3-1.1-0.3h-0.7v2.4C-140.1-490.5-140-490.5-140-490.5z"/>
		<path class="st0" d="M-134.3-487.1c0-0.1,0-0.3,0.1-0.4c0-0.1,0.1-0.2,0.2-0.3c0.1-0.1,0.2-0.2,0.3-0.2s0.2-0.1,0.4-0.1
			c0.1,0,0.3,0,0.4,0.1c0.1,0,0.2,0.1,0.3,0.2s0.2,0.2,0.2,0.3s0.1,0.2,0.1,0.4c0,0.2,0,0.3-0.1,0.4c0,0.1-0.1,0.2-0.2,0.3
			s-0.2,0.2-0.3,0.2s-0.2,0.1-0.4,0.1c-0.1,0-0.3,0-0.4-0.1c-0.1,0-0.2-0.1-0.3-0.2s-0.2-0.2-0.2-0.3S-134.3-487-134.3-487.1z"/>
		<path class="st0" d="M-148.7-474.9v2.7h-1.9v-8h2.8c0.6,0,1,0.1,1.5,0.2s0.7,0.3,1,0.6c0.3,0.2,0.5,0.5,0.6,0.8s0.2,0.7,0.2,1
			c0,0.4-0.1,0.8-0.2,1.1c-0.1,0.3-0.3,0.6-0.6,0.9c-0.3,0.2-0.6,0.4-1,0.6c-0.4,0.1-0.9,0.2-1.4,0.2L-148.7-474.9L-148.7-474.9z
			 M-148.7-476.3h1c0.5,0,0.8-0.1,1-0.3c0.2-0.2,0.3-0.6,0.3-1c0-0.2,0-0.4-0.1-0.5s-0.1-0.3-0.2-0.4c-0.1-0.1-0.3-0.2-0.4-0.2
			s-0.4-0.1-0.6-0.1h-1V-476.3z"/>
		<path class="st0" d="M-137.8-480.3v1.4h-3.3v1.9h2.5v1.4h-2.5v1.9h3.3v1.4h-5.2v-8C-143-480.3-137.8-480.3-137.8-480.3z"/>
		<path class="st0" d="M-130.4-480.3v1.5h-2.3v6.5h-1.9v-6.5h-2.3v-1.5H-130.4z"/>
		<path class="st0" d="M-123.9-480.3v1.4h-3.3v1.9h2.5v1.4h-2.5v1.9h3.3v1.4h-5.2v-8C-129.1-480.3-123.9-480.3-123.9-480.3z"/>
		<path class="st0" d="M-120.5-475.2v3h-1.9v-8h2.6c0.6,0,1.1,0.1,1.5,0.2s0.7,0.3,1,0.5s0.4,0.5,0.6,0.8c0.1,0.3,0.2,0.6,0.2,0.9
			s0,0.5-0.1,0.7s-0.2,0.4-0.3,0.6c-0.1,0.2-0.3,0.4-0.5,0.5c-0.2,0.2-0.4,0.3-0.7,0.4c0.1,0.1,0.2,0.1,0.3,0.2s0.2,0.2,0.3,0.3
			l1.7,2.8h-1.7c-0.3,0-0.5-0.1-0.7-0.4l-1.3-2.3c-0.1-0.1-0.1-0.2-0.2-0.2s-0.2-0.1-0.3-0.1L-120.5-475.2L-120.5-475.2z
			 M-120.5-476.5h0.7c0.3,0,0.5,0,0.6-0.1c0.2-0.1,0.3-0.2,0.4-0.3c0.1-0.1,0.2-0.2,0.2-0.4c0.1-0.2,0.1-0.3,0.1-0.5
			c0-0.4-0.1-0.6-0.3-0.8c-0.2-0.2-0.6-0.3-1.1-0.3h-0.7v2.4C-120.6-476.5-120.5-476.5-120.5-476.5z"/>
		<path class="st0" d="M-144.7-466.3v1.5h-2.3v6.5h-1.9v-6.5h-2.3v-1.5H-144.7z"/>
		<path class="st0" d="M-141.6-461.2v3h-1.9v-8h2.6c0.6,0,1.1,0.1,1.5,0.2s0.7,0.3,1,0.5s0.4,0.5,0.6,0.8c0.1,0.3,0.2,0.6,0.2,0.9
			s0,0.5-0.1,0.7s-0.2,0.4-0.3,0.6s-0.3,0.4-0.5,0.5c-0.2,0.2-0.4,0.3-0.7,0.4c0.1,0.1,0.2,0.1,0.3,0.2s0.2,0.2,0.3,0.3l1.7,2.8
			h-1.7c-0.3,0-0.5-0.1-0.7-0.4l-1.3-2.3c-0.1-0.1-0.1-0.2-0.2-0.2c-0.1,0-0.2-0.1-0.3-0.1L-141.6-461.2L-141.6-461.2z
			 M-141.6-462.5h0.7c0.3,0,0.5,0,0.6-0.1c0.2-0.1,0.3-0.2,0.4-0.3c0.1-0.1,0.2-0.2,0.2-0.4c0.1-0.2,0.1-0.3,0.1-0.5
			c0-0.4-0.1-0.6-0.3-0.8c-0.2-0.2-0.6-0.3-1.1-0.3h-0.7v2.4C-141.7-462.5-141.6-462.5-141.6-462.5z"/>
		<path class="st0" d="M-132.5-459.7c0.2,0,0.5,0,0.7-0.1s0.4-0.2,0.5-0.4c0.1-0.2,0.2-0.3,0.3-0.6s0.1-0.5,0.1-0.8v-4.7h1.9v4.7
			c0,0.5-0.1,0.9-0.2,1.4c-0.2,0.4-0.4,0.8-0.7,1.1c-0.3,0.3-0.7,0.5-1.1,0.7c-0.4,0.2-0.9,0.2-1.4,0.2s-1-0.1-1.4-0.2
			c-0.4-0.2-0.8-0.4-1.1-0.7c-0.3-0.3-0.5-0.7-0.7-1.1s-0.2-0.9-0.2-1.4v-4.7h1.9v4.7c0,0.3,0,0.5,0.1,0.8c0.1,0.2,0.2,0.4,0.3,0.6
			s0.3,0.3,0.5,0.4C-133-459.8-132.8-459.7-132.5-459.7z M-132.9-467.4c0,0.1,0,0.2-0.1,0.3c-0.1,0.1-0.1,0.2-0.2,0.3
			c-0.1,0.1-0.2,0.1-0.3,0.2c-0.1,0-0.2,0.1-0.3,0.1s-0.2,0-0.3-0.1c-0.1,0-0.2-0.1-0.3-0.2s-0.1-0.2-0.2-0.3
			c-0.1-0.1-0.1-0.2-0.1-0.3s0-0.2,0.1-0.3c0-0.1,0.1-0.2,0.2-0.3c0.1-0.1,0.2-0.1,0.3-0.2c0.1,0,0.2-0.1,0.3-0.1s0.2,0,0.3,0.1
			c0.1,0,0.2,0.1,0.3,0.2s0.1,0.2,0.2,0.3C-132.9-467.7-132.9-467.6-132.9-467.4z M-130.5-467.4c0,0.1,0,0.2-0.1,0.3
			c-0.1,0.1-0.1,0.2-0.2,0.3c-0.1,0.1-0.2,0.1-0.3,0.2s-0.2,0.1-0.3,0.1s-0.2,0-0.3-0.1s-0.2-0.1-0.3-0.2s-0.1-0.2-0.2-0.3
			c-0.1-0.1-0.1-0.2-0.1-0.3s0-0.2,0.1-0.3c0-0.1,0.1-0.2,0.2-0.3c0.1-0.1,0.2-0.1,0.3-0.2s0.2-0.1,0.3-0.1s0.2,0,0.3,0.1
			s0.2,0.1,0.3,0.2s0.1,0.2,0.2,0.3C-130.5-467.7-130.5-467.6-130.5-467.4z"/>
		<path class="st0" d="M-127.3-458.3v-8h2.9c0.6,0,1,0.1,1.4,0.2s0.7,0.2,1,0.4c0.2,0.2,0.4,0.4,0.5,0.7c0.1,0.3,0.2,0.6,0.2,0.9
			c0,0.2,0,0.4-0.1,0.5c-0.1,0.2-0.1,0.3-0.2,0.5c-0.1,0.1-0.3,0.3-0.4,0.4c-0.2,0.1-0.4,0.2-0.6,0.3c0.5,0.1,0.9,0.3,1.2,0.6
			s0.4,0.7,0.4,1.1c0,0.3-0.1,0.7-0.2,1s-0.3,0.5-0.6,0.8c-0.3,0.2-0.6,0.4-0.9,0.5c-0.4,0.1-0.8,0.2-1.3,0.2h-3.3V-458.3
			L-127.3-458.3z M-125.5-462.9h1c0.2,0,0.4,0,0.6,0s0.3-0.1,0.4-0.2s0.2-0.2,0.3-0.3s0.1-0.3,0.1-0.5s0-0.3-0.1-0.5
			c0-0.1-0.1-0.2-0.2-0.3c-0.1-0.1-0.2-0.1-0.4-0.2s-0.3,0-0.5,0h-1.1v2H-125.5z M-125.5-461.7v2h1.3c0.2,0,0.4,0,0.6-0.1
			s0.3-0.1,0.4-0.2s0.1-0.2,0.2-0.3c0-0.1,0-0.3,0-0.4s0-0.3-0.1-0.4c0-0.1-0.1-0.2-0.2-0.3c-0.1-0.1-0.2-0.1-0.4-0.2
			c-0.2,0-0.3-0.1-0.6-0.1C-124.3-461.7-125.5-461.7-125.5-461.7z"/>
		<path class="st0" d="M-118.4-466.3C-118.3-466.3-118.3-466.3-118.4-466.3c0.1,0,0.2,0,0.2,0.1l0.1,0.1l3.8,4.8c0-0.2,0-0.3,0-0.4
			s0-0.3,0-0.4v-4.2h1.6v8h-1c-0.1,0-0.3,0-0.4-0.1c-0.1,0-0.2-0.1-0.3-0.2l-3.8-4.8c0,0.1,0,0.3,0,0.4s0,0.3,0,0.4v4.3h-1.6v-8h1
			C-118.5-466.3-118.4-466.3-118.4-466.3z"/>
		<path class="st0" d="M-105.5-466.3v1.4h-3.3v1.9h2.5v1.4h-2.5v1.9h3.3v1.4h-5.2v-8C-110.7-466.3-105.5-466.3-105.5-466.3z"/>
		<path class="st0" d="M-102.1-461.2v3h-1.8v-8h2.6c0.6,0,1.1,0.1,1.5,0.2s0.7,0.3,1,0.5s0.4,0.5,0.6,0.8c0.1,0.3,0.2,0.6,0.2,0.9
			s0,0.5-0.1,0.7s-0.2,0.4-0.3,0.6c-0.1,0.2-0.3,0.4-0.5,0.5c-0.2,0.2-0.4,0.3-0.7,0.4c0.1,0.1,0.2,0.1,0.3,0.2s0.2,0.2,0.3,0.3
			l1.7,2.8H-99c-0.3,0-0.5-0.1-0.7-0.4l-1.3-2.3c-0.1-0.1-0.1-0.2-0.2-0.2s-0.2-0.1-0.3-0.1L-102.1-461.2L-102.1-461.2z
			 M-102.1-462.5h0.7c0.3,0,0.5,0,0.6-0.1c0.2-0.1,0.3-0.2,0.4-0.3c0.1-0.1,0.2-0.2,0.2-0.4c0.1-0.2,0.1-0.3,0.1-0.5
			c0-0.4-0.1-0.6-0.3-0.8c-0.2-0.2-0.6-0.3-1.1-0.3h-0.7v2.4C-102.2-462.5-102.1-462.5-102.1-462.5z"/>
	</g>
</g>
<g>
	<line class="st1" x1="-169.6" y1="-525.5" x2="-169.6" y2="-440.5"/>
	<rect x="-170.1" y="-525.5" width="1" height="85"/>
</g>
<g>
	<path d="M-267.8-309.6h6.9v4.6h-17.3l14-62.4h-6.3v-5h16.6l-2.4,9.6h0.4c1-1.4,2.1-2.7,3.3-4c1.2-1.3,2.6-2.4,4.1-3.4
		s3.1-1.8,4.9-2.3c1.8-0.6,3.6-0.8,5.7-0.8c3.4,0,6.3,1.2,8.5,3.5c2.2,2.3,3.3,6,3.3,11.1c0,4.7-0.8,9.2-2.3,13.6
		c-1.5,4.3-3.7,8.2-6.3,11.5c-2.7,3.3-5.8,6-9.4,8c-3.6,2-7.5,3-11.6,3c-1.1,0-2.1,0-2.9-0.1c-0.8-0.1-1.5-0.2-2.1-0.3
		c-0.6-0.2-1.2-0.3-1.8-0.5c-0.6-0.2-1.2-0.4-1.9-0.7L-267.8-309.6z M-242.8-367.3c-1.7,0-3.4,0.4-4.9,1.1c-1.6,0.7-3,1.7-4.2,2.7
		c-1.3,1.1-2.4,2.3-3.3,3.5c-0.9,1.3-1.6,2.5-2,3.6l-6,27.4c0.4,0.4,0.9,0.7,1.3,1c0.4,0.3,1,0.5,1.6,0.6s1.3,0.2,2.1,0.3
		c0.8,0.1,1.8,0.1,3,0.1c2.6,0,5.2-0.9,7.5-2.8s4.4-4.3,6.2-7.2s3.2-6.2,4.3-9.9c1.1-3.7,1.6-7.3,1.6-10.8c0-3.1-0.6-5.5-1.8-7.2
		C-238.6-366.6-240.5-367.3-242.8-367.3z"/>
	<path d="M-217.1-372.4h9.9l2.7-10.7h8.6l-2.5,10.7h12.6v5h-13.6l-7.3,28.1c-0.3,1.2-0.5,2.4-0.7,3.3c-0.1,1-0.2,2-0.2,3.1
		c0,2.9,1.6,4.3,4.9,4.3c1.7,0,3.6-0.4,5.7-1.2c2.1-0.8,4-1.9,5.6-3.3l2,3.7c-0.7,0.7-1.6,1.5-2.8,2.3c-1.2,0.8-2.6,1.5-4.1,2.2
		c-1.6,0.7-3.3,1.2-5.1,1.6c-1.9,0.4-3.8,0.6-5.8,0.6c-3,0-5.4-0.7-7.1-2.2s-2.5-3.4-2.5-5.7c0-1,0-2,0.1-3.1s0.2-2.2,0.6-3.4
		l7.6-30.3h-8.6C-217.1-367.4-217.1-372.4-217.1-372.4z"/>
</g>
<g>
	<g>
		<path class="st0" d="M-148.7-367.3v2.7h-1.9v-8h2.8c0.6,0,1,0.1,1.5,0.2c0.5,0.1,0.7,0.3,1,0.6c0.3,0.2,0.5,0.5,0.6,0.8
			c0.1,0.3,0.2,0.7,0.2,1c0,0.4-0.1,0.8-0.2,1.1c-0.1,0.3-0.3,0.6-0.6,0.9c-0.3,0.2-0.6,0.4-1,0.6c-0.4,0.1-0.9,0.2-1.4,0.2
			L-148.7-367.3L-148.7-367.3L-148.7-367.3z M-148.7-368.7h1c0.5,0,0.8-0.1,1-0.3c0.2-0.2,0.3-0.6,0.3-1c0-0.2,0-0.4-0.1-0.5
			s-0.1-0.3-0.2-0.4c-0.1-0.1-0.3-0.2-0.4-0.2s-0.4-0.1-0.6-0.1h-1V-368.7z"/>
		<path class="st0" d="M-141.1-367.6v3h-1.9v-8h2.6c0.6,0,1.1,0.1,1.5,0.2c0.4,0.1,0.7,0.3,1,0.5c0.3,0.2,0.4,0.5,0.6,0.8
			c0.1,0.3,0.2,0.6,0.2,0.9s0,0.5-0.1,0.7c-0.1,0.2-0.2,0.4-0.3,0.6s-0.3,0.4-0.5,0.5c-0.2,0.2-0.4,0.3-0.7,0.4
			c0.1,0.1,0.2,0.1,0.3,0.2s0.2,0.2,0.3,0.3l1.7,2.8h-1.7c-0.3,0-0.5-0.1-0.7-0.4l-1.3-2.3c-0.1-0.1-0.1-0.2-0.2-0.2
			c-0.1,0-0.2-0.1-0.3-0.1h-0.5L-141.1-367.6L-141.1-367.6z M-141.1-368.9h0.7c0.3,0,0.5,0,0.6-0.1c0.2-0.1,0.3-0.2,0.4-0.3
			c0.1-0.1,0.2-0.2,0.2-0.4c0.1-0.2,0.1-0.3,0.1-0.5c0-0.4-0.1-0.6-0.3-0.8c-0.2-0.2-0.6-0.3-1.1-0.3h-0.7v2.4
			C-141.2-368.9-141.1-368.9-141.1-368.9z"/>
		<path class="st0" d="M-127.5-368.7c0,0.6-0.1,1.1-0.3,1.6c-0.2,0.5-0.5,0.9-0.8,1.3s-0.8,0.7-1.3,0.9c-0.5,0.2-1.1,0.3-1.7,0.3
			s-1.2-0.1-1.7-0.3c-0.5-0.2-1-0.5-1.3-0.9s-0.6-0.8-0.8-1.3s-0.3-1-0.3-1.6s0.1-1.1,0.3-1.6s0.5-0.9,0.8-1.3
			c0.4-0.4,0.8-0.7,1.3-0.9c0.5-0.2,1.1-0.3,1.7-0.3s1.2,0.1,1.7,0.3c0.5,0.2,0.9,0.5,1.3,0.9c0.4,0.4,0.6,0.8,0.8,1.3
			C-127.6-369.8-127.5-369.3-127.5-368.7z M-129.4-368.7c0-0.4-0.1-0.8-0.2-1.1c-0.1-0.3-0.2-0.6-0.4-0.8c-0.2-0.2-0.4-0.4-0.7-0.5
			s-0.6-0.2-1-0.2s-0.7,0.1-1,0.2c-0.3,0.1-0.5,0.3-0.7,0.5c-0.2,0.2-0.3,0.5-0.4,0.8c-0.1,0.3-0.2,0.7-0.2,1.1
			c0,0.4,0.1,0.8,0.2,1.1c0.1,0.3,0.2,0.6,0.4,0.8c0.2,0.2,0.4,0.4,0.7,0.5s0.6,0.2,1,0.2s0.7-0.1,1-0.2s0.5-0.3,0.7-0.5
			c0.2-0.2,0.3-0.5,0.4-0.8C-129.4-367.9-129.4-368.3-129.4-368.7z"/>
		<path class="st0" d="M-120.9-372.7v1.4h-3.3v2h2.7v1.4h-2.7v3.1h-1.9v-8h5.2C-120.9-372.8-120.9-372.7-120.9-372.7z"/>
		<path class="st0" d="M-120.7-365.5c0-0.1,0-0.3,0.1-0.4c0-0.1,0.1-0.2,0.2-0.3s0.2-0.2,0.3-0.2s0.2-0.1,0.4-0.1
			c0.1,0,0.3,0,0.4,0.1c0.1,0,0.2,0.1,0.3,0.2c0.1,0.1,0.2,0.2,0.2,0.3s0.1,0.2,0.1,0.4c0,0.2,0,0.3-0.1,0.4c0,0.1-0.1,0.2-0.2,0.3
			s-0.2,0.2-0.3,0.2s-0.2,0.1-0.4,0.1c-0.1,0-0.3,0-0.4-0.1c-0.1,0-0.2-0.1-0.3-0.2c-0.1-0.1-0.2-0.2-0.2-0.3
			C-120.6-365.2-120.7-365.4-120.7-365.5z"/>
		<path class="st0" d="M-143.3-354.7c0,0.6-0.1,1.1-0.3,1.6s-0.5,0.9-0.8,1.3s-0.8,0.6-1.3,0.8c-0.5,0.2-1.1,0.3-1.7,0.3h-3.1v-8
			h3.1c0.6,0,1.2,0.1,1.7,0.3c0.5,0.2,0.9,0.5,1.3,0.8c0.4,0.3,0.6,0.8,0.8,1.3C-143.4-355.8-143.3-355.3-143.3-354.7z
			 M-145.2-354.7c0-0.4-0.1-0.8-0.2-1.1c-0.1-0.3-0.2-0.6-0.4-0.8c-0.2-0.2-0.4-0.4-0.7-0.5s-0.6-0.2-1-0.2h-1.2v5.2h1.2
			c0.4,0,0.7-0.1,1-0.2c0.3-0.1,0.5-0.3,0.7-0.5c0.2-0.2,0.3-0.5,0.4-0.8C-145.3-353.9-145.2-354.3-145.2-354.7z"/>
		<path class="st0" d="M-140-353.6v3h-1.9v-8h2.6c0.6,0,1.1,0.1,1.5,0.2c0.4,0.1,0.7,0.3,1,0.5c0.3,0.2,0.4,0.5,0.6,0.8
			c0.1,0.3,0.2,0.6,0.2,0.9s0,0.5-0.1,0.7c-0.1,0.2-0.2,0.4-0.3,0.6s-0.3,0.4-0.5,0.5c-0.2,0.2-0.4,0.3-0.7,0.4
			c0.1,0.1,0.2,0.1,0.3,0.2c0.1,0.1,0.2,0.2,0.3,0.3l1.7,2.8h-1.7c-0.3,0-0.5-0.1-0.7-0.4l-1.3-2.3c-0.1-0.1-0.1-0.2-0.2-0.2
			c-0.1,0-0.2-0.1-0.3-0.1L-140-353.6L-140-353.6z M-140-354.9h0.7c0.3,0,0.5,0,0.6-0.1c0.2-0.1,0.3-0.2,0.4-0.3
			c0.1-0.1,0.2-0.2,0.2-0.4c0.1-0.2,0.1-0.3,0.1-0.5c0-0.4-0.1-0.6-0.3-0.8c-0.2-0.2-0.6-0.3-1.1-0.3h-0.7v2.4
			C-140.1-354.9-140-354.9-140-354.9z"/>
		<path class="st0" d="M-134.3-351.5c0-0.1,0-0.3,0.1-0.4c0-0.1,0.1-0.2,0.2-0.3c0.1-0.1,0.2-0.2,0.3-0.2s0.2-0.1,0.4-0.1
			c0.1,0,0.3,0,0.4,0.1c0.1,0,0.2,0.1,0.3,0.2c0.1,0.1,0.2,0.2,0.2,0.3s0.1,0.2,0.1,0.4c0,0.2,0,0.3-0.1,0.4c0,0.1-0.1,0.2-0.2,0.3
			c-0.1,0.1-0.2,0.2-0.3,0.2s-0.2,0.1-0.4,0.1c-0.1,0-0.3,0-0.4-0.1c-0.1,0-0.2-0.1-0.3-0.2c-0.1-0.1-0.2-0.2-0.2-0.3
			C-134.2-351.2-134.3-351.4-134.3-351.5z"/>
		<path class="st0" d="M-148.7-339.3v2.7h-1.9v-8h2.8c0.6,0,1,0.1,1.5,0.2c0.5,0.1,0.7,0.3,1,0.6c0.3,0.2,0.5,0.5,0.6,0.8
			c0.1,0.3,0.2,0.7,0.2,1c0,0.4-0.1,0.8-0.2,1.1c-0.1,0.3-0.3,0.6-0.6,0.9c-0.3,0.2-0.6,0.4-1,0.6c-0.4,0.1-0.9,0.2-1.4,0.2
			L-148.7-339.3L-148.7-339.3z M-148.7-340.7h1c0.5,0,0.8-0.1,1-0.3c0.2-0.2,0.3-0.6,0.3-1c0-0.2,0-0.4-0.1-0.5s-0.1-0.3-0.2-0.4
			c-0.1-0.1-0.3-0.2-0.4-0.2s-0.4-0.1-0.6-0.1h-1V-340.7z"/>
		<path class="st0" d="M-137.8-344.7v1.4h-3.3v1.9h2.5v1.4h-2.5v1.9h3.3v1.4h-5.2v-8C-143-344.7-137.8-344.7-137.8-344.7z"/>
		<path class="st0" d="M-130.4-344.7v1.5h-2.3v6.5h-1.9v-6.5h-2.3v-1.5H-130.4z"/>
		<path class="st0" d="M-123.9-344.7v1.4h-3.3v1.9h2.5v1.4h-2.5v1.9h3.3v1.4h-5.2v-8C-129.1-344.7-123.9-344.7-123.9-344.7z"/>
		<path class="st0" d="M-120.5-339.6v3h-1.9v-8h2.6c0.6,0,1.1,0.1,1.5,0.2c0.4,0.1,0.7,0.3,1,0.5c0.3,0.2,0.4,0.5,0.6,0.8
			c0.1,0.3,0.2,0.6,0.2,0.9s0,0.5-0.1,0.7c-0.1,0.2-0.2,0.4-0.3,0.6s-0.3,0.4-0.5,0.5c-0.2,0.2-0.4,0.3-0.7,0.4
			c0.1,0.1,0.2,0.1,0.3,0.2c0.1,0.1,0.2,0.2,0.3,0.3l1.7,2.8h-1.7c-0.3,0-0.5-0.1-0.7-0.4l-1.3-2.3c-0.1-0.1-0.1-0.2-0.2-0.2
			s-0.2-0.1-0.3-0.1L-120.5-339.6L-120.5-339.6z M-120.5-340.9h0.7c0.3,0,0.5,0,0.6-0.1c0.2-0.1,0.3-0.2,0.4-0.3s0.2-0.2,0.2-0.4
			c0.1-0.2,0.1-0.3,0.1-0.5c0-0.4-0.1-0.6-0.3-0.8c-0.2-0.2-0.6-0.3-1.1-0.3h-0.7v2.4C-120.6-340.9-120.5-340.9-120.5-340.9z"/>
		<path class="st0" d="M-144.7-330.7v1.5h-2.3v6.5h-1.9v-6.5h-2.3v-1.5H-144.7z"/>
		<path class="st0" d="M-141.6-325.6v3h-1.9v-8h2.6c0.6,0,1.1,0.1,1.5,0.2c0.4,0.1,0.7,0.3,1,0.5c0.3,0.2,0.4,0.5,0.6,0.8
			c0.1,0.3,0.2,0.6,0.2,0.9s0,0.5-0.1,0.7c-0.1,0.2-0.2,0.4-0.3,0.6s-0.3,0.4-0.5,0.5c-0.2,0.2-0.4,0.3-0.7,0.4
			c0.1,0.1,0.2,0.1,0.3,0.2s0.2,0.2,0.3,0.3l1.7,2.8h-1.7c-0.3,0-0.5-0.1-0.7-0.4l-1.3-2.3c-0.1-0.1-0.1-0.2-0.2-0.2
			c-0.1,0-0.2-0.1-0.3-0.1L-141.6-325.6L-141.6-325.6z M-141.6-326.9h0.7c0.3,0,0.5,0,0.6-0.1c0.2-0.1,0.3-0.2,0.4-0.3
			c0.1-0.1,0.2-0.2,0.2-0.4c0.1-0.2,0.1-0.3,0.1-0.5c0-0.4-0.1-0.6-0.3-0.8c-0.2-0.2-0.6-0.3-1.1-0.3h-0.7v2.4
			C-141.7-326.9-141.6-326.9-141.6-326.9z"/>
		<path class="st0" d="M-132.5-324.1c0.2,0,0.5,0,0.7-0.1s0.4-0.2,0.5-0.4c0.1-0.2,0.2-0.3,0.3-0.6c0.1-0.3,0.1-0.5,0.1-0.8v-4.7
			h1.9v4.7c0,0.5-0.1,0.9-0.2,1.4c-0.2,0.4-0.4,0.8-0.7,1.1c-0.3,0.3-0.7,0.5-1.1,0.7c-0.4,0.2-0.9,0.2-1.4,0.2s-1-0.1-1.4-0.2
			c-0.4-0.2-0.8-0.4-1.1-0.7c-0.3-0.3-0.5-0.7-0.7-1.1c-0.2-0.4-0.2-0.9-0.2-1.4v-4.7h1.9v4.7c0,0.3,0,0.5,0.1,0.8
			c0.1,0.2,0.2,0.4,0.3,0.6s0.3,0.3,0.5,0.4C-133-324.2-132.8-324.1-132.5-324.1z M-132.9-331.8c0,0.1,0,0.2-0.1,0.3
			s-0.1,0.2-0.2,0.3c-0.1,0.1-0.2,0.1-0.3,0.2c-0.1,0-0.2,0.1-0.3,0.1s-0.2,0-0.3-0.1c-0.1,0-0.2-0.1-0.3-0.2
			c-0.1-0.1-0.1-0.2-0.2-0.3c-0.1-0.1-0.1-0.2-0.1-0.3s0-0.2,0.1-0.3c0-0.1,0.1-0.2,0.2-0.3c0.1-0.1,0.2-0.1,0.3-0.2
			c0.1,0,0.2-0.1,0.3-0.1s0.2,0,0.3,0.1c0.1,0,0.2,0.1,0.3,0.2c0.1,0.1,0.1,0.2,0.2,0.3C-132.9-332.1-132.9-332-132.9-331.8z
			 M-130.5-331.8c0,0.1,0,0.2-0.1,0.3s-0.1,0.2-0.2,0.3c-0.1,0.1-0.2,0.1-0.3,0.2s-0.2,0.1-0.3,0.1s-0.2,0-0.3-0.1s-0.2-0.1-0.3-0.2
			s-0.1-0.2-0.2-0.3c-0.1-0.1-0.1-0.2-0.1-0.3s0-0.2,0.1-0.3c0-0.1,0.1-0.2,0.2-0.3c0.1-0.1,0.2-0.1,0.3-0.2
			c0.1-0.1,0.2-0.1,0.3-0.1s0.2,0,0.3,0.1s0.2,0.1,0.3,0.2c0.1,0.1,0.1,0.2,0.2,0.3C-130.5-332.1-130.5-332-130.5-331.8z"/>
		<path class="st0" d="M-127.3-322.7v-8h2.9c0.6,0,1,0.1,1.4,0.2c0.4,0.1,0.7,0.2,1,0.4c0.2,0.2,0.4,0.4,0.5,0.7
			c0.1,0.3,0.2,0.6,0.2,0.9c0,0.2,0,0.4-0.1,0.5c-0.1,0.2-0.1,0.3-0.2,0.5c-0.1,0.1-0.3,0.3-0.4,0.4c-0.2,0.1-0.4,0.2-0.6,0.3
			c0.5,0.1,0.9,0.3,1.2,0.6c0.3,0.3,0.4,0.7,0.4,1.1c0,0.3-0.1,0.7-0.2,1c-0.1,0.3-0.3,0.5-0.6,0.8c-0.3,0.2-0.6,0.4-0.9,0.5
			c-0.4,0.1-0.8,0.2-1.3,0.2L-127.3-322.7L-127.3-322.7L-127.3-322.7z M-125.5-327.3h1c0.2,0,0.4,0,0.6,0s0.3-0.1,0.4-0.2
			c0.1-0.1,0.2-0.2,0.3-0.3c0.1-0.1,0.1-0.3,0.1-0.5c0-0.2,0-0.3-0.1-0.5c0-0.1-0.1-0.2-0.2-0.3s-0.2-0.1-0.4-0.2
			c-0.2-0.1-0.3,0-0.5,0h-1.1v2H-125.5z M-125.5-326.1v2h1.3c0.2,0,0.4,0,0.6-0.1s0.3-0.1,0.4-0.2s0.1-0.2,0.2-0.3
			c0-0.1,0-0.3,0-0.4c0-0.1,0-0.3-0.1-0.4c0-0.1-0.1-0.2-0.2-0.3s-0.2-0.1-0.4-0.2c-0.2,0-0.3-0.1-0.6-0.1
			C-124.3-326.1-125.5-326.1-125.5-326.1z"/>
		<path class="st0" d="M-118.4-330.7C-118.3-330.7-118.3-330.7-118.4-330.7c0.1,0,0.2,0,0.2,0.1l0.1,0.1l3.8,4.8c0-0.2,0-0.3,0-0.4
			s0-0.3,0-0.4v-4.2h1.6v8h-1c-0.1,0-0.3,0-0.4-0.1c-0.1,0-0.2-0.1-0.3-0.2l-3.8-4.8c0,0.1,0,0.3,0,0.4s0,0.3,0,0.4v4.3h-1.6v-8h1
			C-118.5-330.7-118.4-330.7-118.4-330.7z"/>
		<path class="st0" d="M-105.5-330.7v1.4h-3.3v1.9h2.5v1.4h-2.5v1.9h3.3v1.4h-5.2v-8C-110.7-330.7-105.5-330.7-105.5-330.7z"/>
		<path class="st0" d="M-102.1-325.6v3h-1.8v-8h2.6c0.6,0,1.1,0.1,1.5,0.2c0.4,0.1,0.7,0.3,1,0.5c0.3,0.2,0.4,0.5,0.6,0.8
			c0.1,0.3,0.2,0.6,0.2,0.9s0,0.5-0.1,0.7c-0.1,0.2-0.2,0.4-0.3,0.6s-0.3,0.4-0.5,0.5c-0.2,0.2-0.4,0.3-0.7,0.4
			c0.1,0.1,0.2,0.1,0.3,0.2c0.1,0.1,0.2,0.2,0.3,0.3l1.7,2.8H-99c-0.3,0-0.5-0.1-0.7-0.4l-1.3-2.3c-0.1-0.1-0.1-0.2-0.2-0.2
			s-0.2-0.1-0.3-0.1L-102.1-325.6L-102.1-325.6z M-102.1-326.9h0.7c0.3,0,0.5,0,0.6-0.1c0.2-0.1,0.3-0.2,0.4-0.3s0.2-0.2,0.2-0.4
			c0.1-0.2,0.1-0.3,0.1-0.5c0-0.4-0.1-0.6-0.3-0.8c-0.2-0.2-0.6-0.3-1.1-0.3h-0.7v2.4C-102.2-326.9-102.1-326.9-102.1-326.9z"/>
	</g>
</g>
<g>
	<line class="st1" x1="-169.6" y1="-389.9" x2="-169.6" y2="-304.9"/>
	<rect x="-170.1" y="-389.9" width="1" height="85"/>
</g>
<text transform="matrix(1 0 0 1 -269.3928 -461.6503)" style="font-family:'PTSerif-BoldItalic'; font-size:100.2624px;">pt</text>
<text transform="matrix(1 0 0 1 -82.0287 -499.756)" class="st0" style="font-family:'PTSans-CaptionBold'; font-size:12px;">Prof. </text>
<text transform="matrix(1 0 0 1 -82.0287 -488.756)" class="st0" style="font-family:'PTSans-CaptionBold'; font-size:12px;">Dr. </text>
<text transform="matrix(1 0 0 1 -82.0287 -477.7559)" class="st0" style="font-family:'PTSans-CaptionBold'; font-size:12px;">Peter </text>
<text transform="matrix(1 0 0 1 -82.0287 -466.7559)" class="st0" style="font-family:'PTSans-CaptionBold'; font-size:12px;">Trübner</text>
<g>
	<line class="st1" x1="-152" y1="-728" x2="-152" y2="-643"/>
	<rect x="-152.5" y="-728" width="1" height="85"/>
</g>
<text transform="matrix(1 0 0 1 -247.7404 -664.1556)" style="font-family:'PTSerif-Italic'; font-size:100.2624px;">pt</text>
<text transform="matrix(1 0 0 1 -822.9766 -664.1556)" style="font-family:'PTSerif-Italic'; font-size:100.2624px;">PT</text>
<g>
	<text transform="matrix(1 0 0 1 370.2346 -861.6578)" class="st0" style="font-family:'PTSans-CaptionBold'; font-size:13px;">Prof. </text>
	<text transform="matrix(1 0 0 1 370.2346 -848.6578)" class="st0" style="font-family:'PTSans-CaptionBold'; font-size:13px;">Dr. </text>
	<text transform="matrix(1 0 0 1 370.2346 -835.6578)" class="st0" style="font-family:'PTSans-CaptionBold'; font-size:13px;">Peter </text>
	<text transform="matrix(1 0 0 1 370.2346 -822.6578)" class="st0" style="font-family:'PTSans-CaptionBold'; font-size:13px;">Trübner</text>
</g>
<rect x="-35.1" y="-715.5" class="st0" width="55.4" height="52.5"/>
<g>
	<line class="st1" x1="-169.4" y1="-229.2" x2="-169.4" y2="-144.2"/>
	<rect x="-169.9" y="-229.2" width="1" height="85"/>
</g>
<g>
	<path d="M-263.4-152c1.1,0.2,2.3,0.6,3.6,1.2c1.2,0.6,2.3,1.2,3.2,1.8v3.8h-20.7l-1.3-1.3l13.2-61.7l-5.8-1.4v-3.4
		c1.1-0.5,2.4-0.9,4.1-1.4c1.7-0.4,3.4-0.8,5.2-1.2c1.8-0.3,3.6-0.6,5.3-0.8c1.7-0.2,3.3-0.3,4.6-0.3l2,1.2l-3.3,13.8h0.4
		c1.1-2.1,2.3-4,3.7-5.9c1.4-1.8,2.8-3.4,4.4-4.8c1.6-1.4,3.3-2.4,5.1-3.2c1.8-0.8,3.8-1.2,5.9-1.2c3.4,0,6.2,1.3,8.5,4
		c2.2,2.7,3.4,6.4,3.4,11.2c0,5.4-0.8,10.4-2.3,15c-1.5,4.6-3.6,8.5-6.3,11.8c-2.6,3.3-5.8,5.9-9.4,7.7c-3.6,1.8-7.6,2.8-11.8,2.8
		c-1.9,0-3.5-0.2-4.8-0.5c-1.2-0.3-2.5-0.8-3.9-1.6L-263.4-152z M-241.3-208.7c-1.4,0-2.8,0.5-4.1,1.6c-1.3,1-2.6,2.3-3.7,3.9
		c-1.1,1.5-2.2,3.2-3.1,5s-1.7,3.4-2.3,4.9l-4.4,21.8c0.9,0.6,1.7,1,2.6,1.3c0.8,0.3,2.1,0.4,3.7,0.4c2.3,0,4.4-0.9,6.5-2.7
		c2-1.8,3.8-4.1,5.3-7c1.5-2.9,2.7-6.1,3.5-9.7s1.3-7.2,1.3-10.7c0-2.8-0.4-4.9-1.3-6.4C-238.4-207.9-239.7-208.7-241.3-208.7z"/>
	<path d="M-215-213c1.3-0.8,2.7-1.5,4.2-2.1c1.5-0.6,3-1,4.5-1.4l1.6-7.6c0.5-0.4,1.2-0.8,2.2-1.2c1-0.4,2.1-0.7,3.3-1
		s2.4-0.6,3.6-0.9c1.2-0.3,2.3-0.5,3.3-0.6l2.1,1.2l-2.4,11h11.7c0.1,0.8,0.1,1.9-0.2,3.3c-0.2,1.3-0.6,2.4-1.2,3.3H-194l-5.8,25.8
		c-0.3,1.3-0.5,2.4-0.6,3.3c-0.1,1-0.2,1.8-0.2,2.6c0,1.7,0.4,3,1.3,3.8c0.9,0.8,2,1.2,3.5,1.2c1.7,0,3.2-0.2,4.7-0.6
		c1.5-0.4,2.9-1,4.2-1.7l1.3,2.6c-0.8,0.9-1.9,1.8-3.2,2.7c-1.3,0.9-2.8,1.7-4.5,2.5s-3.5,1.4-5.4,1.9s-3.9,0.7-5.9,0.7
		c-3.5,0-6-0.8-7.8-2.4c-1.7-1.6-2.6-3.8-2.6-6.6c0-1.5,0.1-3.2,0.4-4.9c0.3-1.7,0.5-3.2,0.8-4.4l5.8-26.6h-7.2v-3.9H-215z"/>
</g>
<g>
	<path class="st0" d="M-157.2-211.1c0.4-0.1,0.8-0.1,1.2-0.1s0.9-0.1,1.3-0.1c0.4,0,0.9,0,1.4,0.1c0.5,0.1,0.9,0.2,1.2,0.4
		c0.4,0.2,0.7,0.5,0.9,0.9c0.2,0.4,0.3,0.8,0.3,1.4c0,0.5-0.1,1-0.3,1.4c-0.2,0.4-0.5,0.7-0.8,0.9c-0.3,0.2-0.7,0.4-1.1,0.5
		c-0.4,0.1-0.9,0.2-1.3,0.2c0,0-0.1,0-0.2,0s-0.2,0-0.3,0s-0.2,0-0.3,0s-0.2,0-0.2,0v2.8h-1.8L-157.2-211.1L-157.2-211.1z
		 M-154.6-209.7c-0.2,0-0.3,0-0.5,0s-0.3,0-0.4,0v2.5c0,0,0.1,0,0.2,0s0.1,0,0.2,0s0.2,0,0.2,0c0.1,0,0.1,0,0.2,0c0.2,0,0.5,0,0.7,0
		s0.4-0.1,0.6-0.2c0.2-0.1,0.3-0.2,0.4-0.4c0.1-0.2,0.2-0.4,0.2-0.7s-0.1-0.5-0.2-0.6c-0.1-0.2-0.2-0.3-0.4-0.4
		c-0.2-0.1-0.4-0.1-0.6-0.2C-154.1-209.7-154.4-209.7-154.6-209.7z"/>
	<path class="st0" d="M-149.6-211.1c0.2,0,0.4-0.1,0.6-0.1c0.2,0,0.5-0.1,0.7-0.1s0.5,0,0.7,0s0.4,0,0.6,0c0.4,0,0.8,0,1.3,0.1
		c0.4,0.1,0.8,0.2,1.1,0.4c0.3,0.2,0.6,0.4,0.8,0.7c0.2,0.3,0.3,0.7,0.3,1.2c0,0.7-0.2,1.3-0.5,1.7s-0.8,0.7-1.4,0.9l0.6,0.4
		l2.1,3.2h-2.1l-2.1-3.3l-0.9-0.1v3.4h-1.8L-149.6-211.1L-149.6-211.1z M-146.8-209.7c-0.2,0-0.4,0-0.5,0c-0.2,0-0.3,0-0.4,0v2.3
		h0.8c0.5,0,0.9-0.1,1.2-0.3s0.4-0.5,0.4-1c0-0.4-0.1-0.6-0.4-0.8C-146-209.7-146.4-209.7-146.8-209.7z"/>
	<path class="st0" d="M-142-207c0-0.7,0.1-1.3,0.3-1.8s0.4-1,0.8-1.4c0.4-0.4,0.7-0.7,1.2-0.9c0.5-0.2,1-0.3,1.6-0.3
		s1.2,0.1,1.7,0.3s0.9,0.5,1.2,0.9c0.3,0.4,0.6,0.8,0.7,1.4c0.2,0.5,0.2,1.1,0.2,1.8s-0.1,1.3-0.3,1.8s-0.4,1-0.8,1.4
		c-0.4,0.4-0.7,0.7-1.2,0.9s-1,0.3-1.6,0.3s-1.2-0.1-1.7-0.3c-0.5-0.2-0.9-0.5-1.2-0.9c-0.3-0.4-0.6-0.8-0.7-1.4
		C-141.9-205.7-142-206.3-142-207z M-140.1-207c0,0.4,0,0.8,0.1,1.1s0.2,0.6,0.4,0.9c0.2,0.2,0.4,0.4,0.6,0.6
		c0.3,0.1,0.5,0.2,0.9,0.2c0.6,0,1.1-0.2,1.5-0.6c0.4-0.4,0.5-1.2,0.5-2.2c0-0.4,0-0.8-0.1-1.1c-0.1-0.3-0.2-0.6-0.4-0.9
		s-0.4-0.4-0.6-0.6s-0.6-0.2-0.9-0.2c-0.6,0-1.1,0.2-1.5,0.7C-139.9-208.7-140.1-208-140.1-207z"/>
	<path class="st0" d="M-132.6-211.2h5.4v1.6h-3.6v2h3.3v1.6h-3.3v3.3h-1.8V-211.2z"/>
	<path class="st0" d="M-126.8-203.6c0-0.3,0.1-0.5,0.3-0.7s0.4-0.3,0.8-0.3c0.3,0,0.6,0.1,0.8,0.3c0.2,0.2,0.3,0.4,0.3,0.7
		s-0.1,0.5-0.3,0.7c-0.2,0.2-0.4,0.3-0.8,0.3c-0.3,0-0.6-0.1-0.8-0.3C-126.7-203.1-126.8-203.3-126.8-203.6z"/>
	<path class="st0" d="M-157.2-200.2c0.2,0,0.4,0,0.6-0.1c0.2-0.1,0.5,0,0.7,0s0.5,0,0.7,0s0.4,0,0.6,0c0.8,0,1.5,0.1,2.1,0.3
		s1,0.5,1.4,0.9c0.4,0.4,0.6,0.8,0.8,1.3s0.3,1.1,0.3,1.7c0,0.6-0.1,1.1-0.2,1.6c-0.2,0.5-0.4,1-0.8,1.4c-0.4,0.4-0.8,0.7-1.4,1
		c-0.6,0.2-1.3,0.4-2.2,0.4c-0.1,0-0.3,0-0.6,0c-0.2,0-0.5,0-0.7,0c-0.3,0-0.5,0-0.7,0s-0.4,0-0.5,0v-8.5H-157.2z M-154.4-198.7
		c-0.2,0-0.4,0-0.6,0c-0.2,0-0.3,0-0.4,0v5.4c0,0,0.1,0,0.2,0s0.2,0,0.3,0s0.2,0,0.3,0s0.1,0,0.2,0c0.5,0,0.9-0.1,1.3-0.2
		c0.4-0.1,0.6-0.4,0.8-0.6c0.2-0.3,0.3-0.6,0.4-0.9s0.1-0.7,0.1-1s0-0.6-0.1-0.9s-0.2-0.6-0.4-0.9s-0.4-0.5-0.8-0.7
		S-153.9-198.7-154.4-198.7z"/>
	<path class="st0" d="M-148.5-200.1c0.2,0,0.4-0.1,0.6-0.1c0.2,0,0.5-0.1,0.7-0.1s0.5,0,0.7,0s0.4,0,0.6,0c0.4,0,0.8,0,1.3,0.1
		c0.4,0.1,0.8,0.2,1.1,0.4c0.3,0.2,0.6,0.4,0.8,0.7c0.2,0.3,0.3,0.7,0.3,1.2c0,0.7-0.2,1.3-0.5,1.7s-0.8,0.7-1.4,0.9l0.6,0.4
		l2.1,3.2h-2.1l-2.1-3.3l-0.9-0.1v3.4h-1.8L-148.5-200.1L-148.5-200.1z M-145.8-198.7c-0.2,0-0.4,0-0.5,0c-0.2,0-0.3,0-0.4,0v2.3
		h0.8c0.5,0,0.9-0.1,1.2-0.3s0.4-0.5,0.4-1c0-0.4-0.1-0.6-0.4-0.8C-145-198.7-145.3-198.7-145.8-198.7z"/>
	<path class="st0" d="M-140.5-192.6c0-0.3,0.1-0.5,0.3-0.7s0.4-0.3,0.8-0.3c0.3,0,0.6,0.1,0.8,0.3c0.2,0.2,0.3,0.4,0.3,0.7
		s-0.1,0.5-0.3,0.7s-0.4,0.3-0.8,0.3c-0.3,0-0.6-0.1-0.8-0.3S-140.5-192.3-140.5-192.6z"/>
	<path class="st0" d="M-157.2-189.1c0.4-0.1,0.8-0.1,1.2-0.1s0.9-0.1,1.3-0.1c0.4,0,0.9,0,1.4,0.1c0.5,0.1,0.9,0.2,1.2,0.4
		c0.4,0.2,0.7,0.5,0.9,0.9c0.2,0.4,0.3,0.8,0.3,1.4c0,0.5-0.1,1-0.3,1.4c-0.2,0.4-0.5,0.7-0.8,0.9s-0.7,0.4-1.1,0.5
		c-0.4,0.1-0.9,0.2-1.3,0.2c0,0-0.1,0-0.2,0s-0.2,0-0.3,0s-0.2,0-0.3,0s-0.2,0-0.2,0v2.8h-1.8L-157.2-189.1L-157.2-189.1z
		 M-154.6-187.7c-0.2,0-0.3,0-0.5,0s-0.3,0-0.4,0v2.5c0,0,0.1,0,0.2,0s0.1,0,0.2,0s0.2,0,0.2,0c0.1,0,0.1,0,0.2,0c0.2,0,0.5,0,0.7,0
		s0.4-0.1,0.6-0.2c0.2-0.1,0.3-0.2,0.4-0.4c0.1-0.2,0.2-0.4,0.2-0.7s-0.1-0.5-0.2-0.6c-0.1-0.2-0.2-0.3-0.4-0.4
		c-0.2-0.1-0.4-0.1-0.6-0.2C-154.1-187.7-154.4-187.7-154.6-187.7z"/>
	<path class="st0" d="M-149.6-189.2h5.4v1.6h-3.6v1.8h3.3v1.6h-3.3v1.9h3.7v1.6h-5.5L-149.6-189.2L-149.6-189.2z"/>
	<path class="st0" d="M-135.9-187.6h-2.7v6.8h-1.8v-6.8h-2.7v-1.6h7.1L-135.9-187.6L-135.9-187.6z"/>
	<path class="st0" d="M-134.6-189.2h5.4v1.6h-3.6v1.8h3.3v1.6h-3.3v1.9h3.7v1.6h-5.5L-134.6-189.2L-134.6-189.2z"/>
	<path class="st0" d="M-127.4-189.1c0.2,0,0.4-0.1,0.6-0.1s0.5-0.1,0.7-0.1s0.5,0,0.7,0s0.4,0,0.6,0c0.4,0,0.8,0,1.3,0.1
		c0.4,0.1,0.8,0.2,1.1,0.4c0.3,0.2,0.6,0.4,0.8,0.7c0.2,0.3,0.3,0.7,0.3,1.2c0,0.7-0.2,1.3-0.5,1.7c-0.3,0.4-0.8,0.7-1.4,0.9
		l0.6,0.4l2.1,3.2h-2.1l-2.1-3.3l-0.9-0.1v3.4h-1.8C-127.4-180.7-127.4-189.1-127.4-189.1z M-124.7-187.7c-0.2,0-0.4,0-0.5,0
		c-0.2,0-0.3,0-0.4,0v2.3h0.8c0.5,0,0.9-0.1,1.2-0.3c0.3-0.2,0.4-0.5,0.4-1c0-0.4-0.1-0.6-0.4-0.8
		C-123.9-187.7-124.2-187.7-124.7-187.7z"/>
	<path class="st0" d="M-150.8-176.6h-2.7v6.8h-1.8v-6.8h-2.7v-1.6h7.1L-150.8-176.6L-150.8-176.6z"/>
	<path class="st0" d="M-149.5-178.1c0.2,0,0.4-0.1,0.6-0.1c0.2,0,0.5-0.1,0.7-0.1s0.5,0,0.7,0s0.4,0,0.6,0c0.4,0,0.8,0,1.3,0.1
		c0.4,0.1,0.8,0.2,1.1,0.4c0.3,0.2,0.6,0.4,0.8,0.7s0.3,0.7,0.3,1.2c0,0.7-0.2,1.3-0.5,1.7c-0.3,0.4-0.8,0.7-1.4,0.9l0.6,0.4
		l2.1,3.2h-2.1l-2.1-3.3l-0.9-0.1v3.4h-1.8L-149.5-178.1L-149.5-178.1z M-146.8-176.7c-0.2,0-0.4,0-0.5,0c-0.2,0-0.3,0-0.4,0v2.3
		h0.8c0.5,0,0.9-0.1,1.2-0.3s0.4-0.5,0.4-1c0-0.4-0.1-0.6-0.4-0.8C-146-176.7-146.3-176.7-146.8-176.7z"/>
	<path class="st0" d="M-136.6-178.2h1.7v5.4c0,0.5-0.1,1-0.2,1.4c-0.2,0.4-0.4,0.7-0.7,1s-0.6,0.4-1,0.6c-0.4,0.1-0.8,0.2-1.3,0.2
		c-1.1,0-2-0.2-2.6-0.7s-0.9-1.2-0.9-2.2v-5.6h1.8v5.3c0,0.6,0.1,1.1,0.4,1.3c0.3,0.3,0.7,0.4,1.2,0.4s0.9-0.1,1.2-0.4
		c0.3-0.3,0.4-0.7,0.4-1.3L-136.6-178.2L-136.6-178.2z M-140.6-179.4c0-0.2,0.1-0.4,0.2-0.5c0.2-0.1,0.4-0.2,0.8-0.2
		c0.3,0,0.6,0.1,0.7,0.2c0.2,0.1,0.2,0.3,0.2,0.5s-0.1,0.4-0.2,0.5c-0.2,0.1-0.4,0.2-0.7,0.2c-0.4,0-0.6-0.1-0.8-0.2
		S-140.6-179.1-140.6-179.4z M-137.8-179.4c0-0.2,0.1-0.4,0.2-0.5c0.2-0.1,0.4-0.2,0.7-0.2c0.4,0,0.6,0.1,0.8,0.2
		c0.2,0.1,0.2,0.3,0.2,0.5s-0.1,0.4-0.2,0.5c-0.2,0.1-0.4,0.2-0.8,0.2c-0.3,0-0.6-0.1-0.7-0.2C-137.8-179-137.8-179.1-137.8-179.4z"
		/>
	<path class="st0" d="M-126.9-176.2c0,0.2,0,0.4-0.1,0.6s-0.2,0.4-0.3,0.6s-0.3,0.3-0.5,0.5s-0.5,0.2-0.8,0.3v0.1
		c0.3,0,0.5,0.1,0.7,0.2c0.2,0.1,0.4,0.2,0.6,0.4s0.3,0.4,0.4,0.6s0.2,0.5,0.2,0.9c0,0.4-0.1,0.8-0.3,1.1c-0.2,0.3-0.5,0.6-0.8,0.8
		c-0.3,0.2-0.7,0.3-1.1,0.4c-0.4,0.1-0.9,0.1-1.3,0.1c-0.1,0-0.3,0-0.6,0c-0.2,0-0.5,0-0.8,0s-0.5,0-0.8-0.1
		c-0.3-0.1-0.5-0.1-0.8-0.1v-8.3c0.2,0,0.4,0,0.6-0.1c0.2,0,0.4,0,0.7-0.1c0.2,0,0.5,0,0.8,0s0.5,0,0.8,0c0.4,0,0.8,0,1.2,0.1
		c0.4,0.1,0.8,0.2,1.1,0.3c0.3,0.2,0.6,0.4,0.8,0.6C-127-177-126.9-176.6-126.9-176.2z M-130.7-174.7c0.1,0,0.3,0,0.4,0s0.3,0,0.4,0
		c0.3-0.1,0.6-0.2,0.9-0.4c0.2-0.2,0.3-0.4,0.3-0.7c0-0.2,0-0.4-0.1-0.5c-0.1-0.1-0.2-0.2-0.4-0.3c-0.1-0.1-0.3-0.1-0.5-0.1
		s-0.4,0-0.6,0c-0.2,0-0.4,0-0.6,0c-0.2,0-0.3,0-0.5,0v2.1h0.7V-174.7z M-130.2-171.1c0.2,0,0.4,0,0.6-0.1c0.2-0.1,0.4-0.1,0.5-0.2
		c0.2-0.1,0.3-0.2,0.4-0.3c0.1-0.1,0.1-0.3,0.1-0.5c0-0.3-0.1-0.5-0.2-0.6c-0.1-0.2-0.3-0.3-0.4-0.3s-0.4-0.1-0.6-0.1
		c-0.2,0-0.4,0-0.7,0h-1v2.2c0,0,0.1,0,0.2,0s0.2,0,0.3,0s0.2,0,0.3,0C-130.3-171.1-130.2-171.1-130.2-171.1z"/>
	<path class="st0" d="M-122.7-174.2l-0.7-1.3h-0.1l0.2,1.3v4.4h-1.7v-8.5h1.3l3.5,4.5l0.7,1.2h0.1l-0.2-1.2v-4.4h1.7v8.5h-1.3
		L-122.7-174.2z"/>
	<path class="st0" d="M-116-178.2h5.4v1.6h-3.6v1.8h3.3v1.6h-3.3v1.9h3.7v1.6h-5.5V-178.2z"/>
	<path class="st0" d="M-108.8-178.1c0.2,0,0.4-0.1,0.6-0.1s0.5-0.1,0.7-0.1s0.5,0,0.7,0s0.4,0,0.6,0c0.4,0,0.8,0,1.3,0.1
		c0.4,0.1,0.8,0.2,1.1,0.4c0.3,0.2,0.6,0.4,0.8,0.7s0.3,0.7,0.3,1.2c0,0.7-0.2,1.3-0.5,1.7c-0.3,0.4-0.8,0.7-1.4,0.9l0.6,0.4
		l2.1,3.2h-2.1l-2.1-3.3l-0.9-0.1v3.4h-1.8C-108.8-169.7-108.8-178.1-108.8-178.1z M-106.1-176.7c-0.2,0-0.4,0-0.5,0
		c-0.2,0-0.3,0-0.4,0v2.3h0.8c0.5,0,0.9-0.1,1.2-0.3c0.3-0.2,0.4-0.5,0.4-1c0-0.4-0.1-0.6-0.4-0.8
		C-105.3-176.7-105.6-176.7-106.1-176.7z"/>
</g>
<g>
	<line class="st1" x1="105.5" y1="-0.4" x2="105.5" y2="84.6"/>
	<rect x="105" y="-0.4" width="1" height="85"/>
</g>
<g>
	<line class="st1" x1="106.5" y1="-365.4" x2="106.5" y2="-280.4"/>
	<rect x="106" y="-365.4" width="1" height="85"/>
</g>
<g>
	<path d="M19.8-291.1c1,0.2,2.1,0.5,3.2,1s2.1,1,2.8,1.6v3.4H7.3l-1.2-1.2L18-341.8l-5.2-1.3v-3.1c1-0.4,2.2-0.8,3.7-1.2
		s3.1-0.7,4.7-1c1.6-0.3,3.2-0.5,4.8-0.7c1.6-0.2,2.9-0.3,4.2-0.3l1.8,1.1l-3,12.5h0.4c1-1.9,2.1-3.6,3.3-5.3c1.2-1.7,2.6-3.1,4-4.3
		c1.4-1.2,2.9-2.2,4.6-2.9c1.7-0.7,3.4-1,5.3-1c3.1,0,5.6,1.2,7.6,3.6s3,5.8,3,10.1c0,4.9-0.7,9.4-2.1,13.5
		c-1.4,4.1-3.3,7.7-5.6,10.6c-2.4,3-5.2,5.3-8.5,6.9c-3.3,1.7-6.8,2.5-10.6,2.5c-1.7,0-3.2-0.1-4.3-0.4s-2.3-0.7-3.5-1.4L19.8-291.1
		z M39.6-342.1c-1.3,0-2.5,0.5-3.7,1.4s-2.3,2.1-3.3,3.5s-2,2.9-2.8,4.5s-1.6,3.1-2.1,4.4l-4,19.6c0.8,0.5,1.6,0.9,2.3,1.2
		c0.8,0.2,1.9,0.4,3.3,0.4c2.1,0,4-0.8,5.8-2.4c1.8-1.6,3.4-3.7,4.8-6.3c1.4-2.6,2.4-5.5,3.2-8.8c0.8-3.2,1.1-6.5,1.1-9.7
		c0-2.5-0.4-4.5-1.2-5.8C42.3-341.5,41.1-342.1,39.6-342.1z"/>
	<path d="M63.3-346c1.1-0.7,2.4-1.4,3.8-1.9s2.7-0.9,4.1-1.3l1.4-6.9c0.4-0.4,1.1-0.7,2-1c0.9-0.3,1.9-0.6,2.9-0.9
		c1.1-0.3,2.2-0.5,3.2-0.8c1.1-0.2,2.1-0.4,3-0.5l1.9,1.1l-2.2,9.9H94c0.1,0.7,0.1,1.7-0.1,2.9c-0.2,1.2-0.6,2.2-1,2.9H82.2
		L77-319.1c-0.2,1.1-0.4,2.1-0.5,3s-0.2,1.7-0.2,2.4c0,1.6,0.4,2.7,1.2,3.4c0.8,0.7,1.8,1.1,3.2,1.1c1.5,0,2.9-0.2,4.2-0.5
		c1.3-0.4,2.6-0.9,3.8-1.5l1.2,2.3c-0.7,0.8-1.7,1.6-2.9,2.4c-1.2,0.8-2.5,1.6-4,2.3c-1.5,0.7-3.1,1.2-4.8,1.7
		c-1.7,0.4-3.5,0.6-5.3,0.6c-3.1,0-5.4-0.7-7-2.2c-1.6-1.4-2.3-3.4-2.3-5.9c0-1.4,0.1-2.8,0.4-4.4c0.2-1.6,0.5-2.9,0.7-4l5.2-23.9
		h-6.5L63.3-346L63.3-346z"/>
</g>
<g>
	<g>
		<path class="st0" d="M119.7-351.3c0.4-0.1,0.8-0.1,1.3-0.2c0.5-0.1,1-0.1,1.4-0.1c0.5,0,1,0,1.5,0.1s0.9,0.2,1.3,0.4
			c0.4,0.2,0.7,0.5,1,0.9s0.4,0.9,0.4,1.6c0,0.6-0.1,1.1-0.3,1.5c-0.2,0.4-0.5,0.7-0.9,1c-0.4,0.3-0.8,0.4-1.2,0.6
			c-0.5,0.1-0.9,0.2-1.4,0.2c0,0-0.1,0-0.2,0s-0.2,0-0.3,0s-0.2,0-0.3,0c-0.1,0-0.2,0-0.2,0v3.1h-1.9v-9.1H119.7z M122.6-349.8
			c-0.2,0-0.4,0-0.5,0c-0.2,0-0.3,0-0.4,0.1v2.7c0,0,0.1,0,0.2,0s0.2,0,0.2,0h0.2c0.1,0,0.1,0,0.2,0c0.3,0,0.5,0,0.8-0.1
			c0.3,0,0.5-0.1,0.7-0.2s0.4-0.3,0.5-0.5c0.1-0.2,0.2-0.5,0.2-0.8c0-0.3-0.1-0.5-0.2-0.7c-0.1-0.2-0.3-0.3-0.4-0.4
			c-0.1-0.1-0.4-0.2-0.6-0.2S122.8-349.8,122.6-349.8z"/>
		<path class="st0" d="M128-351.3c0.2,0,0.4-0.1,0.7-0.1s0.5-0.1,0.7-0.1c0.3,0,0.5,0,0.7,0s0.5,0,0.7,0c0.5,0,0.9,0,1.4,0.1
			c0.4,0.1,0.8,0.2,1.2,0.4c0.4,0.2,0.6,0.5,0.9,0.8c0.3,0.3,0.3,0.8,0.3,1.3c0,0.7-0.2,1.4-0.6,1.8c-0.4,0.4-0.9,0.8-1.5,1l0.7,0.4
			l2.3,3.4h-2.2l-2.3-3.5l-1-0.2v3.7h-2V-351.3z M131-349.8c-0.2,0-0.4,0-0.6,0c-0.2,0-0.3,0-0.4,0v2.5h0.8c0.5,0,1-0.1,1.3-0.3
			c0.3-0.2,0.5-0.6,0.5-1.1c0-0.4-0.1-0.7-0.4-0.9C131.9-349.7,131.5-349.8,131-349.8z"/>
		<path class="st0" d="M136.2-346.8c0-0.7,0.1-1.4,0.3-2s0.5-1.1,0.8-1.5c0.4-0.4,0.8-0.7,1.3-0.9c0.5-0.2,1.1-0.3,1.8-0.3
			s1.3,0.1,1.8,0.3c0.5,0.2,1,0.6,1.3,1c0.4,0.4,0.6,0.9,0.8,1.5s0.3,1.2,0.3,1.9c0,0.7-0.1,1.4-0.3,2s-0.5,1.1-0.8,1.5
			s-0.8,0.7-1.3,0.9c-0.5,0.2-1.1,0.3-1.8,0.3s-1.3-0.1-1.8-0.3c-0.5-0.2-1-0.6-1.3-1c-0.4-0.4-0.6-0.9-0.8-1.5
			S136.2-346.1,136.2-346.8z M138.3-346.8c0,0.5,0,0.9,0.1,1.2c0.1,0.4,0.2,0.7,0.4,1c0.2,0.3,0.4,0.5,0.7,0.6s0.6,0.2,1,0.2
			c0.7,0,1.2-0.2,1.6-0.7c0.4-0.5,0.6-1.2,0.6-2.3c0-0.4,0-0.8-0.1-1.2s-0.2-0.7-0.4-1c-0.2-0.3-0.4-0.5-0.7-0.6
			c-0.3-0.2-0.6-0.2-1-0.2c-0.7,0-1.2,0.2-1.6,0.7C138.4-348.7,138.3-347.9,138.3-346.8z"/>
		<path class="st0" d="M146.4-351.4h5.9v1.7h-3.9v2.1h3.6v1.7h-3.6v3.6h-1.9v-9.1H146.4z"/>
		<path class="st0" d="M152.7-343.2c0-0.3,0.1-0.6,0.3-0.8c0.2-0.2,0.5-0.3,0.8-0.3s0.6,0.1,0.8,0.3c0.2,0.2,0.3,0.4,0.3,0.8
			c0,0.3-0.1,0.6-0.3,0.7c-0.2,0.1-0.5,0.3-0.8,0.3s-0.6-0.1-0.8-0.3C152.8-342.7,152.7-342.9,152.7-343.2z"/>
	</g>
	<g>
		<path class="st0" d="M119.7-336c0.2,0,0.4,0,0.7-0.1c0.2,0,0.5,0,0.8,0s0.5,0,0.8,0s0.5,0,0.7,0c0.9,0,1.6,0.1,2.2,0.3
			c0.6,0.2,1.1,0.5,1.5,1c0.4,0.4,0.7,0.9,0.9,1.5c0.2,0.6,0.3,1.2,0.3,1.8s-0.1,1.2-0.3,1.8c-0.2,0.6-0.5,1.1-0.9,1.5
			s-0.9,0.8-1.6,1.1c-0.6,0.3-1.4,0.4-2.4,0.4c-0.1,0-0.3,0-0.6,0s-0.5,0-0.8,0s-0.5,0-0.8,0c-0.2,0-0.4,0-0.5,0
			C119.7-326.7,119.7-336,119.7-336z M122.7-334.4c-0.2,0-0.4,0-0.6,0s-0.4,0-0.5,0v5.9c0,0,0.1,0,0.2,0s0.2,0,0.3,0s0.2,0,0.3,0
			c0.1,0,0.2,0,0.2,0c0.6,0,1-0.1,1.4-0.3c0.4-0.2,0.7-0.4,0.9-0.7c0.2-0.3,0.4-0.6,0.4-1c0.1-0.4,0.1-0.7,0.1-1.1
			c0-0.3,0-0.7-0.1-1c-0.1-0.3-0.2-0.7-0.4-0.9c-0.2-0.3-0.5-0.5-0.8-0.7C123.7-334.3,123.3-334.4,122.7-334.4z"/>
		<path class="st0" d="M129.2-335.9c0.2,0,0.4-0.1,0.7-0.1s0.5-0.1,0.7-0.1c0.3,0,0.5,0,0.7,0s0.5,0,0.7,0c0.5,0,0.9,0,1.4,0.1
			c0.4,0.1,0.8,0.2,1.2,0.4c0.4,0.2,0.6,0.5,0.9,0.8c0.3,0.3,0.3,0.8,0.3,1.3c0,0.7-0.2,1.4-0.6,1.8c-0.4,0.4-0.9,0.8-1.5,1l0.7,0.4
			l2.3,3.4h-2.2l-2.3-3.5l-1-0.2v3.7h-1.9L129.2-335.9L129.2-335.9z M132.1-334.4c-0.2,0-0.4,0-0.6,0c-0.2,0-0.3,0-0.4,0v2.5h0.8
			c0.5,0,1-0.1,1.3-0.3c0.3-0.2,0.5-0.6,0.5-1.1c0-0.4-0.1-0.7-0.4-0.9C133-334.3,132.6-334.4,132.1-334.4z"/>
		<path class="st0" d="M137.9-327.7c0-0.3,0.1-0.6,0.3-0.8c0.2-0.2,0.5-0.3,0.8-0.3s0.6,0.1,0.8,0.3c0.2,0.2,0.3,0.4,0.3,0.8
			c0,0.3-0.1,0.6-0.3,0.7c-0.2,0.1-0.5,0.3-0.8,0.3s-0.6-0.1-0.8-0.3C138-327.2,137.9-327.4,137.9-327.7z"/>
	</g>
	<g>
		<path class="st0" d="M119.7-320.5c0.4-0.1,0.8-0.1,1.3-0.2c0.5-0.1,1-0.1,1.4-0.1c0.5,0,1,0,1.5,0.1s0.9,0.2,1.3,0.4
			c0.4,0.2,0.7,0.5,1,0.9s0.4,0.9,0.4,1.6c0,0.6-0.1,1.1-0.3,1.5c-0.2,0.4-0.5,0.7-0.9,1c-0.4,0.3-0.8,0.4-1.2,0.6
			c-0.5,0.1-0.9,0.2-1.4,0.2c0,0-0.1,0-0.2,0s-0.2,0-0.3,0s-0.2,0-0.3,0c-0.1,0-0.2,0-0.2,0v3.1h-1.9v-9.1H119.7z M122.6-319
			c-0.2,0-0.4,0-0.5,0c-0.2,0-0.3,0-0.4,0.1v2.7c0,0,0.1,0,0.2,0s0.2,0,0.2,0h0.2c0.1,0,0.1,0,0.2,0c0.3,0,0.5,0,0.8-0.1
			c0.3,0,0.5-0.1,0.7-0.2s0.4-0.3,0.5-0.5c0.1-0.2,0.2-0.5,0.2-0.8c0-0.3-0.1-0.5-0.2-0.7c-0.1-0.2-0.3-0.3-0.4-0.4
			c-0.1-0.1-0.4-0.2-0.6-0.2S122.8-319,122.6-319z"/>
		<path class="st0" d="M128-320.6h5.9v1.7H130v2h3.6v1.7H130v2.1h4v1.7h-6V-320.6z"/>
		<path class="st0" d="M142.8-318.9H140v7.4h-2v-7.4h-2.9v-1.7h7.7V-318.9z"/>
		<path class="st0" d="M144.2-320.6h5.9v1.7h-3.9v2h3.6v1.7h-3.6v2.1h4v1.7h-5.9v-9.2H144.2z"/>
		<path class="st0" d="M152-320.5c0.2,0,0.4-0.1,0.7-0.1s0.5-0.1,0.7-0.1c0.3,0,0.5,0,0.7,0s0.5,0,0.7,0c0.5,0,0.9,0,1.4,0.1
			c0.4,0.1,0.8,0.2,1.2,0.4c0.4,0.2,0.6,0.5,0.9,0.8c0.2,0.3,0.3,0.8,0.3,1.3c0,0.7-0.2,1.4-0.6,1.8c-0.4,0.5-0.9,0.8-1.5,1l0.7,0.4
			l2.3,3.4h-2.2L155-315l-1-0.2v3.7h-2V-320.5z M154.9-319c-0.2,0-0.4,0-0.6,0c-0.2,0-0.3,0-0.4,0v2.5h0.8c0.5,0,1-0.1,1.3-0.3
			c0.3-0.2,0.5-0.6,0.5-1.1c0-0.4-0.1-0.7-0.4-0.9C155.8-318.9,155.4-319,154.9-319z"/>
	</g>
	<g>
		<path class="st0" d="M126.7-301.7h-2.9v7.4h-1.9v-7.4H119v-1.7h7.7V-301.7z"/>
		<path class="st0" d="M128.1-303.3c0.2,0,0.4-0.1,0.7-0.1s0.5-0.1,0.7-0.1c0.3,0,0.5,0,0.7,0s0.5,0,0.7,0c0.5,0,0.9,0,1.4,0.1
			c0.4,0.1,0.8,0.2,1.2,0.4c0.4,0.2,0.6,0.5,0.9,0.8c0.3,0.3,0.3,0.8,0.3,1.3c0,0.7-0.2,1.4-0.6,1.8c-0.4,0.4-0.9,0.8-1.5,1l0.7,0.4
			l2.3,3.4h-2.2l-2.4-3.6l-1-0.2v3.7h-1.9V-303.3z M131-301.9c-0.2,0-0.4,0-0.6,0c-0.2,0-0.3,0-0.4,0v2.5h0.8c0.5,0,1-0.1,1.3-0.3
			c0.3-0.2,0.5-0.6,0.5-1.1c0-0.4-0.1-0.7-0.4-0.9C131.9-301.8,131.5-301.9,131-301.9z"/>
		<path class="st0" d="M142-303.4h1.8v5.8c0,0.6-0.1,1.1-0.3,1.5s-0.4,0.8-0.7,1.1c-0.3,0.3-0.7,0.5-1.1,0.6s-0.9,0.2-1.4,0.2
			c-1.2,0-2.2-0.3-2.8-0.8s-1-1.3-1-2.4v-6.1h1.9v5.7c0,0.7,0.2,1.2,0.5,1.4c0.3,0.3,0.8,0.4,1.4,0.4c0.6,0,1-0.1,1.3-0.4
			s0.4-0.8,0.4-1.4L142-303.4L142-303.4z M137.7-304.7c0-0.2,0.1-0.4,0.3-0.6s0.4-0.2,0.8-0.2c0.4,0,0.6,0.1,0.8,0.2
			c0.2,0.1,0.3,0.3,0.3,0.6c0,0.2-0.1,0.4-0.3,0.5s-0.4,0.2-0.8,0.2c-0.4,0-0.7-0.1-0.8-0.2C137.9-304.3,137.7-304.5,137.7-304.7z
			 M140.7-304.7c0-0.2,0.1-0.4,0.3-0.6c0.2-0.1,0.4-0.2,0.8-0.2c0.4,0,0.7,0.1,0.8,0.2c0.2,0.1,0.3,0.3,0.3,0.6
			c0,0.2-0.1,0.4-0.3,0.5s-0.4,0.2-0.8,0.2c-0.4,0-0.6-0.1-0.8-0.2C140.8-304.3,140.7-304.5,140.7-304.7z"/>
		<path class="st0" d="M152.6-301.3c0,0.2,0,0.4-0.1,0.7c-0.1,0.2-0.2,0.4-0.3,0.6c-0.1,0.2-0.3,0.4-0.5,0.5s-0.5,0.2-0.8,0.3v0.1
			c0.3,0,0.6,0.1,0.8,0.2c0.2,0.1,0.5,0.2,0.7,0.4c0.2,0.2,0.3,0.4,0.4,0.7c0.1,0.3,0.2,0.6,0.2,0.9c0,0.5-0.1,0.9-0.3,1.2
			c-0.2,0.3-0.5,0.6-0.9,0.8c-0.4,0.2-0.8,0.4-1.2,0.5c-0.5,0.1-0.9,0.2-1.4,0.2c-0.2,0-0.4,0-0.6,0c-0.3,0-0.5,0-0.8,0
			s-0.6,0-0.9-0.1c-0.3,0-0.6-0.1-0.8-0.1v-9c0.2,0,0.4-0.1,0.6-0.1c0.2,0,0.5,0,0.7-0.1c0.3,0,0.5,0,0.8,0s0.6,0,0.8,0
			c0.5,0,0.9,0,1.3,0.1c0.4,0.1,0.8,0.2,1.2,0.4c0.3,0.2,0.6,0.4,0.8,0.7C152.5-302.1,152.6-301.8,152.6-301.3z M148.4-299.6
			c0.1,0,0.3,0,0.5,0s0.3,0,0.4,0c0.4-0.1,0.7-0.3,0.9-0.5c0.3-0.2,0.4-0.5,0.4-0.8c0-0.2,0-0.4-0.1-0.5s-0.2-0.2-0.4-0.3
			s-0.3-0.1-0.5-0.2c-0.2,0-0.4,0-0.6,0c-0.3,0-0.5,0-0.7,0s-0.4,0-0.5,0v2.3H148.4z M149-295.8c0.2,0,0.5,0,0.7-0.1
			c0.2,0,0.4-0.1,0.6-0.2c0.2-0.1,0.3-0.2,0.4-0.4c0.1-0.2,0.1-0.3,0.1-0.6c0-0.3-0.1-0.5-0.2-0.7c-0.1-0.2-0.3-0.3-0.5-0.4
			s-0.4-0.1-0.7-0.2c-0.3-0.1-0.5,0-0.7,0h-1.1v2.4c0.1,0,0.1,0,0.2,0c0.1,0,0.2,0,0.3,0s0.2,0,0.4,0
			C148.8-295.8,148.9-295.8,149-295.8z"/>
		<path class="st0" d="M157.1-299.1l-0.8-1.4h-0.1l0.2,1.4v4.7h-1.8v-9.2h1.4l3.8,4.8l0.7,1.3h0.1l-0.2-1.3v-4.8h1.8v9.2h-1.4
			L157.1-299.1z"/>
		<path class="st0" d="M164.3-303.4h5.9v1.7h-3.9v2h3.6v1.7h-3.6v2.1h4v1.7h-5.9v-9.2H164.3z"/>
		<path class="st0" d="M172.1-303.3c0.2,0,0.4-0.1,0.7-0.1s0.5-0.1,0.7-0.1c0.3,0,0.5,0,0.7,0s0.5,0,0.7,0c0.5,0,0.9,0,1.4,0.1
			c0.4,0.1,0.8,0.2,1.2,0.4c0.4,0.2,0.6,0.5,0.9,0.8c0.3,0.3,0.3,0.8,0.3,1.3c0,0.7-0.2,1.4-0.6,1.8c-0.4,0.4-0.9,0.8-1.5,1l0.7,0.4
			l2.3,3.4h-2.2l-2.3-3.5l-1-0.2v3.7h-1.9L172.1-303.3L172.1-303.3z M175.1-301.9c-0.2,0-0.4,0-0.6,0c-0.2,0-0.3,0-0.4,0v2.5h0.8
			c0.5,0,1-0.1,1.3-0.3c0.3-0.2,0.5-0.6,0.5-1.1c0-0.4-0.1-0.7-0.4-0.9C176-301.8,175.6-301.9,175.1-301.9z"/>
	</g>
</g>
<g>
	<line class="st1" x1="385.4" y1="-229.4" x2="385.4" y2="-144.4"/>
	<rect x="384.9" y="-229.4" width="1" height="85"/>
</g>
<g>
	<path d="M300.7-155.6c1,0.2,2.1,0.5,3.2,1s2.1,1,2.8,1.6v3.4h-18.6l-1.2-1.2l11.9-55.5l-5.2-1.3v-3.1c1-0.4,2.2-0.8,3.7-1.2
		c1.5-0.4,3.1-0.7,4.7-1s3.2-0.5,4.8-0.7c1.6-0.2,2.9-0.3,4.2-0.3l1.8,1.1l-3,12.5h0.4c1-1.9,2.1-3.6,3.3-5.3c1.2-1.7,2.6-3.1,4-4.3
		c1.4-1.2,2.9-2.2,4.6-2.9s3.4-1,5.3-1c3.1,0,5.6,1.2,7.6,3.6c2,2.4,3,5.8,3,10.1c0,4.9-0.7,9.4-2.1,13.5c-1.4,4.1-3.3,7.7-5.6,10.6
		c-2.4,3-5.2,5.3-8.5,6.9c-3.3,1.7-6.8,2.5-10.6,2.5c-1.7,0-3.2-0.1-4.3-0.4c-1.1-0.3-2.3-0.7-3.5-1.4L300.7-155.6z M320.5-206.6
		c-1.3,0-2.5,0.5-3.7,1.4c-1.2,0.9-2.3,2.1-3.3,3.5c-1,1.4-2,2.9-2.8,4.5c-0.9,1.6-1.6,3.1-2.1,4.4l-4,19.6c0.8,0.5,1.6,0.9,2.3,1.2
		c0.8,0.2,1.9,0.4,3.3,0.4c2.1,0,4-0.8,5.8-2.4c1.8-1.6,3.4-3.7,4.8-6.3c1.4-2.6,2.4-5.5,3.2-8.8c0.8-3.2,1.1-6.5,1.1-9.7
		c0-2.5-0.4-4.5-1.2-5.8C323.1-205.9,322-206.6,320.5-206.6z"/>
	<path d="M344.2-210.5c1.1-0.7,2.4-1.4,3.8-1.9s2.7-0.9,4.1-1.3l1.4-6.9c0.4-0.4,1.1-0.7,2-1s1.9-0.6,2.9-0.9
		c1.1-0.3,2.2-0.5,3.2-0.8c1.1-0.2,2.1-0.4,3-0.5l1.9,1.1l-2.2,9.9h10.6c0.1,0.7,0.1,1.7-0.1,2.9s-0.6,2.2-1,2.9h-10.6l-5.2,23.2
		c-0.2,1.1-0.4,2.1-0.5,3c-0.1,0.9-0.2,1.7-0.2,2.4c0,1.6,0.4,2.7,1.2,3.4c0.8,0.7,1.8,1.1,3.2,1.1c1.5,0,2.9-0.2,4.2-0.5
		c1.3-0.4,2.6-0.9,3.8-1.5l1.2,2.3c-0.7,0.8-1.7,1.6-2.9,2.4c-1.2,0.8-2.5,1.6-4,2.3c-1.5,0.7-3.1,1.2-4.8,1.7
		c-1.7,0.4-3.5,0.6-5.3,0.6c-3.1,0-5.4-0.7-7-2.2c-1.6-1.4-2.3-3.4-2.3-5.9c0-1.4,0.1-2.8,0.4-4.4c0.2-1.6,0.5-2.9,0.7-4l5.2-23.9
		h-6.5v-3.5H344.2z"/>
</g>
<rect x="395.9" y="-221.2" class="st0" width="68.7" height="68.7"/>
<g>
	<g>
		<path class="st2" d="M400.7-210.8c0.4-0.1,0.8-0.1,1.3-0.2c0.5-0.1,1-0.1,1.4-0.1c0.5,0,1,0,1.5,0.1c0.5,0.1,0.9,0.2,1.3,0.4
			c0.4,0.2,0.7,0.5,1,0.9c0.3,0.4,0.4,0.9,0.4,1.6c0,0.6-0.1,1.1-0.3,1.5c-0.2,0.4-0.5,0.7-0.9,1s-0.8,0.4-1.2,0.6
			c-0.5,0.1-0.9,0.2-1.4,0.2c0,0-0.1,0-0.2,0s-0.2,0-0.3,0s-0.2,0-0.3,0c-0.1,0-0.2,0-0.2,0v3.1h-1.9v-9.1H400.7z M403.6-209.4
			c-0.2,0-0.4,0-0.5,0c-0.2,0-0.3,0-0.4,0.1v2.7c0,0,0.1,0,0.2,0s0.2,0,0.2,0h0.2c0.1,0,0.1,0,0.2,0c0.3,0,0.5,0,0.8-0.1
			c0.3,0,0.5-0.1,0.7-0.2c0.2-0.1,0.4-0.3,0.5-0.5s0.2-0.5,0.2-0.8s-0.1-0.5-0.2-0.7s-0.3-0.3-0.4-0.4c-0.1-0.1-0.4-0.2-0.6-0.2
			S403.8-209.4,403.6-209.4z"/>
		<path class="st2" d="M409-210.8c0.2,0,0.4-0.1,0.7-0.1s0.5-0.1,0.7-0.1c0.3,0,0.5,0,0.7,0s0.5,0,0.7,0c0.5,0,0.9,0,1.4,0.1
			c0.4,0.1,0.8,0.2,1.2,0.4c0.4,0.2,0.6,0.5,0.9,0.8s0.3,0.8,0.3,1.3c0,0.7-0.2,1.4-0.6,1.8c-0.4,0.4-0.9,0.8-1.5,1l0.7,0.4l2.3,3.4
			h-2.2l-2.3-3.5l-1-0.2v3.7h-2V-210.8z M412-209.4c-0.2,0-0.4,0-0.6,0s-0.3,0-0.4,0v2.5h0.8c0.5,0,1-0.1,1.3-0.3
			c0.3-0.2,0.5-0.6,0.5-1.1c0-0.4-0.1-0.7-0.4-0.9C412.8-209.3,412.5-209.4,412-209.4z"/>
		<path class="st2" d="M417.2-206.4c0-0.7,0.1-1.4,0.3-2c0.2-0.6,0.5-1.1,0.8-1.5c0.4-0.4,0.8-0.7,1.3-0.9c0.5-0.2,1.1-0.3,1.8-0.3
			c0.7,0,1.3,0.1,1.8,0.3c0.5,0.2,1,0.6,1.3,1c0.4,0.4,0.6,0.9,0.8,1.5c0.2,0.6,0.3,1.2,0.3,1.9c0,0.7-0.1,1.4-0.3,2
			c-0.2,0.6-0.5,1.1-0.8,1.5c-0.3,0.4-0.8,0.7-1.3,0.9s-1.1,0.3-1.8,0.3c-0.7,0-1.3-0.1-1.8-0.3c-0.5-0.2-1-0.6-1.3-1
			c-0.4-0.4-0.6-0.9-0.8-1.5C417.3-205,417.2-205.7,417.2-206.4z M419.2-206.4c0,0.5,0,0.9,0.1,1.2c0.1,0.4,0.2,0.7,0.4,1
			c0.2,0.3,0.4,0.5,0.7,0.6c0.3,0.1,0.6,0.2,1,0.2c0.7,0,1.2-0.2,1.6-0.7s0.6-1.2,0.6-2.3c0-0.4,0-0.8-0.1-1.2s-0.2-0.7-0.4-1
			c-0.2-0.3-0.4-0.5-0.7-0.6c-0.3-0.2-0.6-0.2-1-0.2c-0.7,0-1.2,0.2-1.6,0.7C419.4-208.2,419.2-207.4,419.2-206.4z"/>
		<path class="st2" d="M427.3-210.9h5.9v1.7h-3.9v2.1h3.6v1.7h-3.6v3.6h-1.9v-9.1H427.3z"/>
		<path class="st2" d="M433.6-202.7c0-0.3,0.1-0.6,0.3-0.8c0.2-0.2,0.5-0.3,0.8-0.3s0.6,0.1,0.8,0.3c0.2,0.2,0.3,0.4,0.3,0.8
			c0,0.3-0.1,0.6-0.3,0.7c-0.2,0.1-0.5,0.3-0.8,0.3s-0.6-0.1-0.8-0.3C433.7-202.2,433.6-202.4,433.6-202.7z"/>
		<path class="st2" d="M400.7-197.9c0.2,0,0.4,0,0.7-0.1c0.2,0,0.5,0,0.8,0s0.5,0,0.8,0s0.5,0,0.7,0c0.9,0,1.6,0.1,2.2,0.3
			s1.1,0.5,1.5,1c0.4,0.4,0.7,0.9,0.9,1.5c0.2,0.6,0.3,1.2,0.3,1.8s-0.1,1.2-0.3,1.8c-0.2,0.6-0.5,1.1-0.9,1.5
			c-0.4,0.4-0.9,0.8-1.6,1.1c-0.6,0.3-1.4,0.4-2.4,0.4c-0.1,0-0.3,0-0.6,0s-0.5,0-0.8,0s-0.5,0-0.8,0c-0.2,0-0.4,0-0.5,0
			L400.7-197.9L400.7-197.9z M403.7-196.4c-0.2,0-0.4,0-0.6,0s-0.4,0-0.5,0v5.9c0,0,0.1,0,0.2,0s0.2,0,0.3,0s0.2,0,0.3,0
			c0.1,0,0.2,0,0.2,0c0.6,0,1-0.1,1.4-0.3c0.4-0.2,0.7-0.4,0.9-0.7c0.2-0.3,0.4-0.6,0.4-1c0.1-0.4,0.1-0.7,0.1-1.1
			c0-0.3,0-0.7-0.1-1s-0.2-0.7-0.4-0.9c-0.2-0.3-0.5-0.5-0.8-0.7C404.7-196.3,404.3-196.4,403.7-196.4z"/>
		<path class="st2" d="M410.2-197.8c0.2,0,0.4-0.1,0.7-0.1s0.5-0.1,0.7-0.1c0.3,0,0.5,0,0.7,0s0.5,0,0.7,0c0.5,0,0.9,0,1.4,0.1
			c0.4,0.1,0.8,0.2,1.2,0.4c0.4,0.2,0.6,0.5,0.9,0.8s0.3,0.8,0.3,1.3c0,0.7-0.2,1.4-0.6,1.8c-0.4,0.4-0.9,0.8-1.5,1l0.7,0.4l2.3,3.4
			h-2.2l-2.3-3.5l-1-0.2v3.7h-1.9v-9H410.2z M413.1-196.4c-0.2,0-0.4,0-0.6,0s-0.3,0-0.4,0v2.5h0.8c0.5,0,1-0.1,1.3-0.3
			c0.3-0.2,0.5-0.6,0.5-1.1c0-0.4-0.1-0.7-0.4-0.9C414-196.3,413.6-196.4,413.1-196.4z"/>
		<path class="st2" d="M418.9-189.7c0-0.3,0.1-0.6,0.3-0.8c0.2-0.2,0.5-0.3,0.8-0.3s0.6,0.1,0.8,0.3c0.2,0.2,0.3,0.4,0.3,0.8
			c0,0.3-0.1,0.6-0.3,0.7c-0.2,0.1-0.5,0.3-0.8,0.3s-0.6-0.1-0.8-0.3C419-189.2,418.9-189.4,418.9-189.7z"/>
		<path class="st2" d="M400.7-184.8c0.4-0.1,0.8-0.1,1.3-0.2s1-0.1,1.4-0.1c0.5,0,1,0,1.5,0.1c0.5,0.1,0.9,0.2,1.3,0.4
			c0.4,0.2,0.7,0.5,1,0.9c0.3,0.4,0.4,0.9,0.4,1.6c0,0.6-0.1,1.1-0.3,1.5c-0.2,0.4-0.5,0.7-0.9,1c-0.4,0.3-0.8,0.4-1.2,0.6
			c-0.5,0.1-0.9,0.2-1.4,0.2c0,0-0.1,0-0.2,0s-0.2,0-0.3,0s-0.2,0-0.3,0c-0.1,0-0.2,0-0.2,0v3.1h-1.9v-9.1H400.7z M403.6-183.4
			c-0.2,0-0.4,0-0.5,0c-0.2,0-0.3,0-0.4,0.1v2.7c0,0,0.1,0,0.2,0s0.2,0,0.2,0h0.2c0.1,0,0.1,0,0.2,0c0.3,0,0.5,0,0.8-0.1
			c0.3,0,0.5-0.1,0.7-0.2s0.4-0.3,0.5-0.5s0.2-0.5,0.2-0.8s-0.1-0.5-0.2-0.7s-0.3-0.3-0.4-0.4c-0.1-0.1-0.4-0.2-0.6-0.2
			S403.8-183.4,403.6-183.4z"/>
		<path class="st2" d="M409-184.9h5.9v1.7H411v2h3.6v1.7H411v2.1h4v1.7h-6V-184.9z"/>
		<path class="st2" d="M423.8-183.2h-2.9v7.4H419v-7.4h-2.9v-1.7h7.7L423.8-183.2L423.8-183.2z"/>
		<path class="st2" d="M425.2-184.9h5.9v1.7h-3.9v2h3.6v1.7h-3.6v2.1h4v1.7h-5.9v-9.2H425.2z"/>
		<path class="st2" d="M433-184.8c0.2,0,0.4-0.1,0.7-0.1s0.5-0.1,0.7-0.1c0.3,0,0.5,0,0.7,0s0.5,0,0.7,0c0.5,0,0.9,0,1.4,0.1
			c0.4,0.1,0.8,0.2,1.2,0.4c0.4,0.2,0.6,0.5,0.9,0.8c0.2,0.3,0.3,0.8,0.3,1.3c0,0.7-0.2,1.4-0.6,1.8c-0.4,0.5-0.9,0.8-1.5,1l0.7,0.4
			l2.3,3.4h-2.2l-2.3-3.5l-1-0.2v3.7h-2V-184.8z M435.9-183.4c-0.2,0-0.4,0-0.6,0s-0.3,0-0.4,0v2.5h0.8c0.5,0,1-0.1,1.3-0.3
			s0.5-0.6,0.5-1.1c0-0.4-0.1-0.7-0.4-0.9C436.8-183.3,436.4-183.4,435.9-183.4z"/>
		<path class="st2" d="M407.7-170.2h-2.9v7.4h-1.9v-7.4H400v-1.7h7.7V-170.2z"/>
		<path class="st2" d="M409-171.8c0.2,0,0.4-0.1,0.7-0.1s0.5-0.1,0.7-0.1c0.3,0,0.5,0,0.7,0s0.5,0,0.7,0c0.5,0,0.9,0,1.4,0.1
			c0.4,0.1,0.8,0.2,1.2,0.4c0.4,0.2,0.6,0.5,0.9,0.8s0.3,0.8,0.3,1.3c0,0.7-0.2,1.4-0.6,1.8c-0.4,0.4-0.9,0.8-1.5,1l0.7,0.4l2.3,3.4
			h-2.2l-2.3-3.5l-1-0.2v3.7h-2V-171.8z M412-170.4c-0.2,0-0.4,0-0.6,0s-0.3,0-0.4,0v2.5h0.8c0.5,0,1-0.1,1.3-0.3s0.5-0.6,0.5-1.1
			c0-0.4-0.1-0.7-0.4-0.9C412.9-170.3,412.5-170.4,412-170.4z"/>
		<path class="st2" d="M423-171.9h1.8v5.8c0,0.6-0.1,1.1-0.3,1.5c-0.2,0.4-0.4,0.8-0.7,1.1s-0.7,0.5-1.1,0.6
			c-0.4,0.1-0.9,0.2-1.4,0.2c-1.2,0-2.2-0.3-2.8-0.8c-0.6-0.5-1-1.3-1-2.4v-6h1.9v5.7c0,0.7,0.2,1.2,0.5,1.4
			c0.3,0.3,0.8,0.4,1.4,0.4s1-0.1,1.3-0.4s0.4-0.8,0.4-1.4L423-171.9L423-171.9z M418.7-173.2c0-0.2,0.1-0.4,0.3-0.6
			s0.4-0.2,0.8-0.2s0.6,0.1,0.8,0.2c0.2,0.1,0.3,0.3,0.3,0.6c0,0.2-0.1,0.4-0.3,0.5c-0.2,0.1-0.4,0.2-0.8,0.2s-0.7-0.1-0.8-0.2
			S418.7-173,418.7-173.2z M421.7-173.2c0-0.2,0.1-0.4,0.3-0.6c0.2-0.1,0.4-0.2,0.8-0.2s0.7,0.1,0.8,0.2c0.2,0.1,0.3,0.3,0.3,0.6
			c0,0.2-0.1,0.4-0.3,0.5c-0.2,0.1-0.4,0.2-0.8,0.2s-0.6-0.1-0.8-0.2C421.8-172.8,421.7-173,421.7-173.2z"/>
		<path class="st2" d="M433.6-169.8c0,0.2,0,0.4-0.1,0.7c-0.1,0.2-0.2,0.4-0.3,0.6c-0.1,0.2-0.3,0.4-0.5,0.5
			c-0.2,0.1-0.5,0.2-0.8,0.3v0.1c0.3,0,0.6,0.1,0.8,0.2c0.2,0.1,0.5,0.2,0.7,0.4s0.3,0.4,0.4,0.7c0.1,0.3,0.2,0.6,0.2,0.9
			c0,0.5-0.1,0.9-0.3,1.2s-0.5,0.6-0.9,0.8s-0.8,0.4-1.2,0.5c-0.5,0.1-0.9,0.2-1.4,0.2c-0.2,0-0.4,0-0.6,0c-0.3,0-0.5,0-0.8,0
			s-0.6,0-0.9-0.1c-0.3,0-0.6-0.1-0.8-0.1v-9c0.2,0,0.4-0.1,0.6-0.1s0.5,0,0.7-0.1c0.3,0,0.5,0,0.8,0s0.6,0,0.8,0
			c0.5,0,0.9,0,1.3,0.1c0.4,0.1,0.8,0.2,1.2,0.4c0.3,0.2,0.6,0.4,0.8,0.7C433.5-170.6,433.6-170.2,433.6-169.8z M429.4-168.1
			c0.1,0,0.3,0,0.5,0s0.3,0,0.4,0c0.4-0.1,0.7-0.3,0.9-0.5c0.3-0.2,0.4-0.5,0.4-0.8c0-0.2,0-0.4-0.1-0.5c-0.1-0.1-0.2-0.2-0.4-0.3
			c-0.2-0.1-0.3-0.1-0.5-0.2c-0.2,0-0.4,0-0.6,0c-0.3,0-0.5,0-0.7,0s-0.4,0-0.5,0v2.3H429.4z M430-164.2c0.2,0,0.5,0,0.7-0.1
			c0.2,0,0.4-0.1,0.6-0.2c0.2-0.1,0.3-0.2,0.4-0.4s0.1-0.3,0.1-0.6c0-0.3-0.1-0.5-0.2-0.7s-0.3-0.3-0.5-0.4
			c-0.2-0.1-0.4-0.1-0.7-0.2c-0.3-0.1-0.5,0-0.7,0h-1.1v2.4c0.1,0,0.1,0,0.2,0s0.2,0,0.3,0c0.1,0,0.2,0,0.4,0
			C429.8-164.2,429.9-164.2,430-164.2z"/>
		<path class="st2" d="M438.1-167.6l-0.8-1.4h-0.1l0.2,1.4v4.7h-1.8v-9.2h1.4l3.8,4.8l0.7,1.3h0.1l-0.2-1.3v-4.6h1.8v9.2h-1.4
			L438.1-167.6z"/>
		<path class="st2" d="M445.3-171.9h5.9v1.7h-3.9v2h3.6v1.7h-3.6v2.1h4v1.7h-5.9v-9.2H445.3z"/>
		<path class="st2" d="M453.1-171.8c0.2,0,0.4-0.1,0.7-0.1s0.5-0.1,0.7-0.1c0.3,0,0.5,0,0.7,0s0.5,0,0.7,0c0.5,0,0.9,0,1.4,0.1
			c0.4,0.1,0.8,0.2,1.2,0.4c0.4,0.2,0.6,0.5,0.9,0.8s0.3,0.8,0.3,1.3c0,0.7-0.2,1.4-0.6,1.8c-0.4,0.4-0.9,0.8-1.5,1l0.7,0.4l2.3,3.4
			h-2.2l-2.3-3.5l-1-0.2v3.7h-1.9v-9H453.1z M456.1-170.4c-0.2,0-0.4,0-0.6,0s-0.3,0-0.4,0v2.5h0.8c0.5,0,1-0.1,1.3-0.3
			s0.5-0.6,0.5-1.1c0-0.4-0.1-0.7-0.4-0.9C456.9-170.3,456.6-170.4,456.1-170.4z"/>
	</g>
</g>
<g>
	<line class="st1" x1="106.5" y1="-491.3" x2="106.5" y2="-406.3"/>
	<rect x="106" y="-491.3" width="1" height="85"/>
</g>
<g>
	<path d="M19.8-417c1,0.2,2.1,0.5,3.2,1s2.1,1,2.8,1.6v3.4H7.3l-1.2-1.2L18-467.7l-5.2-1.3v-3.1c1-0.4,2.2-0.8,3.7-1.2
		c1.5-0.4,3.1-0.7,4.7-1s3.2-0.5,4.8-0.7c1.6-0.2,2.9-0.3,4.2-0.3l1.8,1.1l-3,12.5h0.4c1-1.9,2.1-3.6,3.3-5.3c1.2-1.7,2.6-3.1,4-4.3
		c1.4-1.2,2.9-2.2,4.6-2.9c1.7-0.7,3.4-1,5.3-1c3.1,0,5.6,1.2,7.6,3.6s3,5.8,3,10.1c0,4.9-0.7,9.4-2.1,13.5
		c-1.4,4.1-3.3,7.7-5.6,10.6c-2.4,3-5.2,5.3-8.5,6.9c-3.3,1.7-6.8,2.5-10.6,2.5c-1.7,0-3.2-0.1-4.3-0.4s-2.3-0.7-3.5-1.4L19.8-417z
		 M39.6-468c-1.3,0-2.5,0.5-3.7,1.4s-2.3,2.1-3.3,3.5s-2,2.9-2.8,4.5c-0.9,1.6-1.6,3.1-2.1,4.4l-4,19.6c0.8,0.5,1.6,0.9,2.3,1.2
		c0.8,0.2,1.9,0.4,3.3,0.4c2.1,0,4-0.8,5.8-2.4c1.8-1.6,3.4-3.7,4.8-6.3c1.4-2.6,2.4-5.5,3.2-8.8c0.8-3.2,1.1-6.5,1.1-9.7
		c0-2.5-0.4-4.5-1.2-5.8C42.3-467.4,41.1-468,39.6-468z"/>
	<path d="M63.3-471.9c1.1-0.7,2.4-1.4,3.8-1.9s2.7-0.9,4.1-1.3l1.4-6.9c0.4-0.4,1.1-0.7,2-1s1.9-0.6,2.9-0.9
		c1.1-0.3,2.2-0.5,3.2-0.8c1.1-0.2,2.1-0.4,3-0.5l1.9,1.1l-2.2,9.9H94c0.1,0.7,0.1,1.7-0.1,2.9c-0.2,1.2-0.6,2.2-1,2.9H82.2L77-445
		c-0.2,1.1-0.4,2.1-0.5,3s-0.2,1.7-0.2,2.4c0,1.6,0.4,2.7,1.2,3.4c0.8,0.7,1.8,1.1,3.2,1.1c1.5,0,2.9-0.2,4.2-0.5
		c1.3-0.4,2.6-0.9,3.8-1.5l1.2,2.3c-0.7,0.8-1.7,1.6-2.9,2.4c-1.2,0.8-2.5,1.6-4,2.3c-1.5,0.7-3.1,1.2-4.8,1.7
		c-1.7,0.4-3.5,0.6-5.3,0.6c-3.1,0-5.4-0.7-7-2.2c-1.6-1.4-2.3-3.4-2.3-5.9c0-1.4,0.1-2.8,0.4-4.4c0.2-1.6,0.5-2.9,0.7-4l5.2-23.9
		h-6.5L63.3-471.9L63.3-471.9z"/>
</g>
<g>
	<text transform="matrix(1 0 0 1 119.1589 -467.7273)" class="st0" style="font-family:'PTSans-CaptionBold'; font-size:10px;">Prof. </text>
	<text transform="matrix(1 0 0 1 119.1589 -452.7273)" class="st0" style="font-family:'PTSans-CaptionBold'; font-size:10px;">Dr. </text>
	<text transform="matrix(1 0 0 1 119.1589 -437.7273)" class="st0" style="font-family:'PTSans-CaptionBold'; font-size:10px;">Peter </text>
	<text transform="matrix(1 0 0 1 119.1589 -422.7273)" class="st0" style="font-family:'PTSans-CaptionBold'; font-size:10px;">Trübner</text>
</g>
<g>
	<path class="st0" d="M116.7,15.3c0.4-0.1,0.8-0.1,1.3-0.2c0.5,0,0.9-0.1,1.4-0.1s0.9,0,1.4,0.1s0.9,0.2,1.3,0.4s0.7,0.5,0.9,0.9
		c0.2,0.4,0.4,0.9,0.4,1.5s-0.1,1-0.3,1.4c-0.2,0.4-0.5,0.7-0.8,0.9c-0.3,0.2-0.7,0.4-1.2,0.5c-0.4,0.1-0.9,0.2-1.4,0.2
		c0,0-0.1,0-0.2,0s-0.2,0-0.3,0c-0.1,0-0.2,0-0.3,0c-0.1,0-0.2,0-0.2,0v3h-1.9v-8.6H116.7z M119.5,16.7c-0.2,0-0.3,0-0.5,0
		s-0.3,0-0.4,0v2.6c0,0,0.1,0,0.2,0s0.2,0,0.2,0c0.1,0,0.2,0,0.2,0c0.1,0,0.1,0,0.2,0c0.2,0,0.5,0,0.7,0s0.5-0.1,0.6-0.2
		c0.2-0.1,0.3-0.3,0.5-0.4c0.1-0.2,0.2-0.4,0.2-0.8c0-0.3-0.1-0.5-0.2-0.6c-0.1-0.2-0.3-0.3-0.4-0.4s-0.4-0.2-0.6-0.2
		S119.7,16.7,119.5,16.7z"/>
	<path class="st0" d="M124.7,15.3c0.2,0,0.4-0.1,0.7-0.1s0.5-0.1,0.7-0.1s0.5,0,0.7,0s0.4,0,0.6,0c0.4,0,0.9,0,1.3,0.1
		c0.4,0.1,0.8,0.2,1.2,0.4c0.3,0.2,0.6,0.4,0.8,0.8c0.2,0.3,0.3,0.7,0.3,1.2c0,0.7-0.2,1.3-0.5,1.8c-0.4,0.5-0.8,0.8-1.5,0.9
		l0.7,0.4l2.2,3.3h-2.2l-2.2-3.4l-1-0.2V24h-1.9L124.7,15.3L124.7,15.3z M127.6,16.7c-0.2,0-0.4,0-0.6,0c-0.2,0-0.3,0-0.4,0v2.4h0.8
		c0.5,0,0.9-0.1,1.2-0.3c0.3-0.2,0.5-0.5,0.5-1c0-0.4-0.1-0.6-0.4-0.8C128.5,16.8,128.1,16.7,127.6,16.7z"/>
	<path class="st0" d="M132.6,19.6c0-0.7,0.1-1.4,0.3-1.9c0.2-0.6,0.4-1,0.8-1.4c0.3-0.4,0.8-0.7,1.3-0.9s1.1-0.3,1.7-0.3
		c0.7,0,1.3,0.1,1.8,0.3s0.9,0.5,1.3,0.9c0.3,0.4,0.6,0.9,0.8,1.4c0.2,0.5,0.3,1.2,0.3,1.9c0,0.7-0.1,1.4-0.3,1.9
		c-0.2,0.6-0.5,1-0.8,1.4c-0.4,0.4-0.8,0.7-1.3,0.9c-0.5,0.2-1.1,0.3-1.7,0.3c-0.7,0-1.3-0.1-1.8-0.3c-0.5-0.2-0.9-0.5-1.3-0.9
		c-0.4-0.4-0.6-0.9-0.8-1.4C132.7,21,132.6,20.3,132.6,19.6z M134.6,19.6c0,0.4,0,0.8,0.1,1.2c0.1,0.4,0.2,0.7,0.4,0.9
		c0.2,0.3,0.4,0.5,0.6,0.6c0.3,0.1,0.6,0.2,0.9,0.2c0.7,0,1.2-0.2,1.5-0.7c0.3-0.5,0.6-1.2,0.6-2.3c0-0.4,0-0.8-0.1-1.2
		c-0.1-0.4-0.2-0.7-0.4-0.9c-0.2-0.3-0.4-0.5-0.7-0.6c-0.3-0.1-0.6-0.2-1-0.2c-0.7,0-1.2,0.2-1.5,0.7
		C134.7,17.8,134.6,18.6,134.6,19.6z"/>
	<path class="st0" d="M142.5,15.2h5.7v1.6h-3.8v2h3.5v1.6h-3.5V24h-1.9V15.2z"/>
	<path class="st0" d="M148.5,23.2c0-0.3,0.1-0.6,0.3-0.7c0.2-0.2,0.5-0.3,0.8-0.3c0.3,0,0.6,0.1,0.8,0.3c0.2,0.2,0.3,0.4,0.3,0.7
		c0,0.3-0.1,0.5-0.3,0.7c-0.2,0.2-0.5,0.3-0.8,0.3c-0.3,0-0.6-0.1-0.8-0.3C148.6,23.7,148.5,23.4,148.5,23.2z"/>
	<path class="st0" d="M116.7,28.1c0.2,0,0.4,0,0.6-0.1c0.2,0,0.5,0,0.7,0c0.3,0,0.5,0,0.7,0s0.5,0,0.7,0c0.8,0,1.6,0.1,2.2,0.3
		c0.6,0.2,1.1,0.5,1.5,0.9s0.7,0.9,0.8,1.4s0.3,1.1,0.3,1.8c0,0.6-0.1,1.2-0.3,1.7c-0.2,0.6-0.5,1-0.8,1.5c-0.4,0.4-0.9,0.8-1.5,1
		c-0.6,0.3-1.4,0.4-2.3,0.4c-0.1,0-0.3,0-0.6,0c-0.2,0-0.5,0-0.8,0s-0.5,0-0.7,0s-0.4,0-0.5,0L116.7,28.1L116.7,28.1z M119.6,29.6
		c-0.2,0-0.4,0-0.6,0s-0.4,0-0.5,0v5.7c0,0,0.1,0,0.2,0s0.2,0,0.3,0c0.1,0,0.2,0,0.3,0c0.1,0,0.2,0,0.2,0c0.5,0,1-0.1,1.3-0.3
		c0.4-0.2,0.6-0.4,0.8-0.7c0.2-0.3,0.3-0.6,0.4-0.9c0.1-0.4,0.1-0.7,0.1-1.1c0-0.3,0-0.6-0.1-1c-0.1-0.3-0.2-0.6-0.4-0.9
		c-0.2-0.3-0.5-0.5-0.8-0.7S120.2,29.6,119.6,29.6z"/>
	<path class="st0" d="M125.9,28.2c0.2,0,0.4-0.1,0.7-0.1s0.5-0.1,0.7-0.1s0.5,0,0.7,0c0.2,0,0.4,0,0.6,0c0.4,0,0.9,0,1.3,0.1
		c0.4,0.1,0.8,0.2,1.2,0.4c0.3,0.2,0.6,0.4,0.8,0.8c0.2,0.3,0.3,0.7,0.3,1.2c0,0.7-0.2,1.3-0.5,1.8c-0.4,0.5-0.8,0.8-1.5,0.9
		l0.7,0.4l2.2,3.3h-2.2l-2.2-3.4l-1-0.2v3.6h-1.9L125.9,28.2L125.9,28.2z M128.7,29.6c-0.2,0-0.4,0-0.6,0c-0.2,0-0.3,0-0.4,0V32h0.8
		c0.5,0,0.9-0.1,1.2-0.3c0.3-0.2,0.5-0.5,0.5-1c0-0.4-0.1-0.6-0.4-0.8C129.6,29.7,129.2,29.6,128.7,29.6z"/>
	<path class="st0" d="M134.3,36c0-0.3,0.1-0.6,0.3-0.7c0.2-0.2,0.5-0.3,0.8-0.3c0.3,0,0.6,0.1,0.8,0.3c0.2,0.2,0.3,0.4,0.3,0.7
		s-0.1,0.5-0.3,0.7c-0.2,0.2-0.5,0.3-0.8,0.3c-0.3,0-0.6-0.1-0.8-0.3C134.4,36.6,134.3,36.3,134.3,36z"/>
	<path class="st0" d="M116.7,41.1c0.4-0.1,0.8-0.1,1.3-0.2c0.5,0,0.9-0.1,1.4-0.1s0.9,0,1.4,0.1s0.9,0.2,1.3,0.4s0.7,0.5,0.9,0.9
		c0.2,0.4,0.4,0.9,0.4,1.5s-0.1,1-0.3,1.4c-0.2,0.4-0.5,0.7-0.8,0.9s-0.7,0.4-1.2,0.5c-0.4,0.1-0.9,0.2-1.4,0.2c0,0-0.1,0-0.2,0
		s-0.2,0-0.3,0c-0.1,0-0.2,0-0.3,0c-0.1,0-0.2,0-0.2,0v3h-1.9v-8.6H116.7z M119.5,42.5c-0.2,0-0.3,0-0.5,0s-0.3,0-0.4,0v2.6
		c0,0,0.1,0,0.2,0s0.2,0,0.2,0c0.1,0,0.2,0,0.2,0c0.1,0,0.1,0,0.2,0c0.2,0,0.5,0,0.7,0s0.5-0.1,0.6-0.2c0.2-0.1,0.3-0.3,0.5-0.4
		c0.1-0.2,0.2-0.4,0.2-0.8c0-0.3-0.1-0.5-0.2-0.6c-0.1-0.2-0.3-0.3-0.4-0.4s-0.4-0.2-0.6-0.2S119.7,42.5,119.5,42.5z"/>
	<path class="st0" d="M124.7,41h5.7v1.6h-3.8v1.9h3.5v1.6h-3.5v2h3.9v1.6h-5.7L124.7,41L124.7,41z"/>
	<path class="st0" d="M139,42.6h-2.8v7.2h-1.9v-7.2h-2.8V41h7.4v1.6H139z"/>
	<path class="st0" d="M140.3,41h5.7v1.6h-3.8v1.9h3.5v1.6h-3.5v2h3.9v1.6h-5.7L140.3,41L140.3,41z"/>
	<path class="st0" d="M147.9,41.1c0.2,0,0.4-0.1,0.7-0.1c0.3,0,0.5-0.1,0.7-0.1c0.2,0,0.5,0,0.7,0c0.2,0,0.4,0,0.6,0
		c0.4,0,0.9,0,1.3,0.1s0.8,0.2,1.2,0.4c0.3,0.2,0.6,0.4,0.8,0.8c0.2,0.3,0.3,0.7,0.3,1.2c0,0.7-0.2,1.3-0.5,1.8
		c-0.4,0.5-0.8,0.8-1.5,0.9l0.7,0.4l2.2,3.3h-2.2l-2.2-3.4l-1-0.2v3.6h-1.9L147.9,41.1L147.9,41.1z M150.7,42.5c-0.2,0-0.4,0-0.6,0
		s-0.3,0-0.4,0V45h0.8c0.5,0,0.9-0.1,1.2-0.3c0.3-0.2,0.5-0.5,0.5-1c0-0.4-0.1-0.6-0.4-0.8C151.6,42.6,151.2,42.5,150.7,42.5z"/>
	<path class="st0" d="M123.5,55.5h-2.8v7.2h-1.9v-7.2H116v-1.6h7.4v1.6H123.5z"/>
	<path class="st0" d="M124.8,54c0.2,0,0.4-0.1,0.7-0.1s0.5-0.1,0.7-0.1s0.5,0,0.7,0s0.4,0,0.6,0c0.4,0,0.9,0,1.3,0.1
		c0.4,0.1,0.8,0.2,1.2,0.4c0.3,0.2,0.6,0.4,0.8,0.8c0.2,0.3,0.3,0.7,0.3,1.2c0,0.7-0.2,1.3-0.5,1.8c-0.4,0.5-0.8,0.8-1.5,0.9
		l0.7,0.4l2.2,3.3h-2.2l-2.2-3.4l-1-0.2v3.6h-1.9L124.8,54L124.8,54z M127.6,55.4c-0.2,0-0.4,0-0.6,0c-0.2,0-0.3,0-0.4,0v2.4h0.8
		c0.5,0,0.9-0.1,1.2-0.3c0.3-0.2,0.5-0.5,0.5-1c0-0.4-0.1-0.6-0.4-0.8C128.5,55.5,128.1,55.4,127.6,55.4z"/>
	<path class="st0" d="M138.3,53.9h1.8v5.6c0,0.6-0.1,1.1-0.2,1.5c-0.2,0.4-0.4,0.8-0.7,1c-0.3,0.3-0.7,0.5-1.1,0.6
		c-0.4,0.1-0.9,0.2-1.4,0.2c-1.2,0-2.1-0.3-2.7-0.8c-0.6-0.5-0.9-1.3-0.9-2.3v-5.8h1.9v5.5c0,0.7,0.1,1.1,0.4,1.4
		c0.3,0.3,0.7,0.4,1.3,0.4s1-0.1,1.2-0.4c0.2-0.3,0.4-0.7,0.4-1.4V53.9z M134.1,52.7c0-0.2,0.1-0.4,0.2-0.5c0.2-0.1,0.4-0.2,0.8-0.2
		s0.6,0.1,0.8,0.2c0.2,0.1,0.2,0.3,0.2,0.5s-0.1,0.4-0.2,0.5c-0.1,0.1-0.4,0.2-0.8,0.2c-0.4,0-0.6-0.1-0.8-0.2
		C134.1,53.1,134.1,52.9,134.1,52.7z M137,52.7c0-0.2,0.1-0.4,0.2-0.5c0.2-0.1,0.4-0.2,0.8-0.2s0.6,0.1,0.8,0.2
		c0.2,0.1,0.2,0.3,0.2,0.5s-0.1,0.4-0.2,0.5c-0.2,0.1-0.4,0.2-0.8,0.2c-0.4,0-0.6-0.1-0.8-0.2C137,53.1,137,52.9,137,52.7z"/>
	<path class="st0" d="M148.5,56c0,0.2,0,0.4-0.1,0.6c-0.1,0.2-0.2,0.4-0.3,0.6c-0.1,0.2-0.3,0.3-0.5,0.5c-0.2,0.1-0.5,0.2-0.8,0.3v0
		c0.3,0,0.5,0.1,0.8,0.2c0.2,0.1,0.5,0.2,0.6,0.4c0.2,0.2,0.3,0.4,0.4,0.7s0.2,0.6,0.2,0.9c0,0.5-0.1,0.9-0.3,1.2
		c-0.2,0.3-0.5,0.6-0.8,0.8c-0.3,0.2-0.7,0.4-1.2,0.5s-0.9,0.2-1.4,0.2c-0.2,0-0.3,0-0.6,0c-0.3,0-0.5,0-0.8,0c-0.3,0-0.6,0-0.9-0.1
		c-0.3,0-0.6-0.1-0.8-0.1V54c0.2,0,0.4-0.1,0.6-0.1c0.2,0,0.5,0,0.7-0.1c0.3,0,0.5,0,0.8,0c0.3,0,0.5,0,0.8,0c0.4,0,0.9,0,1.3,0.1
		c0.4,0.1,0.8,0.2,1.1,0.3c0.3,0.1,0.6,0.4,0.8,0.7C148.3,55.2,148.5,55.5,148.5,56z M144.4,57.5c0.1,0,0.3,0,0.4,0
		c0.2,0,0.3,0,0.4,0c0.4-0.1,0.6-0.3,0.9-0.4c0.2-0.2,0.4-0.4,0.4-0.8c0-0.2,0-0.4-0.1-0.5s-0.2-0.2-0.4-0.3
		c-0.2-0.1-0.3-0.1-0.5-0.2c-0.2,0-0.4,0-0.6,0c-0.2,0-0.5,0-0.7,0c-0.2,0-0.4,0-0.5,0v2.2H144.4z M145,61.3c0.2,0,0.5,0,0.7-0.1
		c0.2,0,0.4-0.1,0.6-0.2c0.2-0.1,0.3-0.2,0.4-0.4c0.1-0.1,0.1-0.3,0.1-0.5c0-0.3-0.1-0.5-0.2-0.6c-0.1-0.1-0.3-0.3-0.5-0.4
		c-0.2-0.1-0.4-0.1-0.6-0.2c-0.2,0-0.5,0-0.7,0h-1v2.3c0.1,0,0.1,0,0.2,0c0.1,0,0.2,0,0.3,0s0.2,0,0.4,0
		C144.9,61.2,144.9,61.3,145,61.3z"/>
	<path class="st0" d="M152.8,58.1l-0.8-1.3l0,0l0.2,1.3v4.6h-1.8v-8.8h1.3l3.6,4.7l0.7,1.3h0.1l-0.2-1.3V54h1.8v8.8h-1.3L152.8,58.1
		z"/>
	<path class="st0" d="M159.8,53.9h5.7v1.6h-3.8v1.9h3.5V59h-3.5v2h3.9v1.6h-5.7L159.8,53.9L159.8,53.9z"/>
	<path class="st0" d="M167.3,54c0.2,0,0.4-0.1,0.7-0.1c0.3,0,0.5-0.1,0.7-0.1c0.2,0,0.5,0,0.7,0c0.2,0,0.4,0,0.6,0
		c0.4,0,0.9,0,1.3,0.1c0.4,0.1,0.8,0.2,1.2,0.4c0.3,0.2,0.6,0.4,0.8,0.8c0.2,0.3,0.3,0.7,0.3,1.2c0,0.7-0.2,1.3-0.5,1.8
		c-0.4,0.5-0.8,0.8-1.5,0.9l0.7,0.4l2.2,3.3h-2.2l-2.2-3.4l-1-0.2v3.6h-1.9V54H167.3z M170.2,55.4c-0.2,0-0.4,0-0.6,0s-0.3,0-0.4,0
		v2.4h0.8c0.5,0,0.9-0.1,1.2-0.3c0.3-0.2,0.5-0.5,0.5-1c0-0.4-0.1-0.6-0.4-0.8C171,55.5,170.7,55.4,170.2,55.4z"/>
</g>
<g>
	<line class="st1" x1="105.5" y1="-229.8" x2="105.5" y2="-144.8"/>
	<rect x="105" y="-229.8" class="st2" width="1" height="85"/>
</g>
<path class="st2" d="M18.8-155.6c1,0.2,2.1,0.5,3.2,1s2.1,1,2.8,1.6v3.4H6.3l-1.2-1.2L17-206.2l-5.2-1.3v-3.1c1-0.4,2.2-0.8,3.7-1.2
	s3.1-0.7,4.7-1s3.2-0.5,4.8-0.7c1.6-0.2,2.9-0.3,4.2-0.3l1.8,1.1l-3,12.5h0.4c1-1.9,2.1-3.6,3.3-5.3s2.6-3.1,4-4.3
	c1.4-1.2,2.9-2.2,4.6-2.9c1.7-0.7,3.4-1,5.3-1c3.1,0,5.6,1.2,7.6,3.6c2,2.4,3,5.8,3,10.1c0,4.9-0.7,9.4-2.1,13.5
	c-1.4,4.1-3.3,7.7-5.6,10.6c-2.4,3-5.2,5.3-8.5,6.9c-3.3,1.7-6.8,2.5-10.6,2.5c-1.7,0-3.2-0.1-4.3-0.4s-2.3-0.7-3.5-1.4L18.8-155.6z
	 M38.6-206.6c-1.3,0-2.5,0.5-3.7,1.4c-1.2,0.9-2.3,2.1-3.3,3.5c-1,1.4-2,2.9-2.8,4.5c-0.9,1.6-1.6,3.1-2.1,4.4l-4,19.6
	c0.8,0.5,1.6,0.9,2.3,1.2c0.8,0.2,1.9,0.4,3.3,0.4c2.1,0,4-0.8,5.8-2.4c1.8-1.6,3.4-3.7,4.8-6.3c1.4-2.6,2.4-5.5,3.2-8.8
	c0.8-3.2,1.1-6.5,1.1-9.7c0-2.5-0.4-4.5-1.2-5.8C41.3-205.9,40.1-206.6,38.6-206.6z"/>
<path class="st2" d="M62.3-210.5c1.1-0.7,2.4-1.4,3.8-1.9s2.7-0.9,4.1-1.3l1.4-6.9c0.4-0.4,1.1-0.7,2-1s1.9-0.6,2.9-0.9
	c1.1-0.3,2.2-0.5,3.2-0.8c1.1-0.2,2.1-0.4,3-0.5l1.9,1.1l-2.2,9.9H93c0.1,0.7,0.1,1.7-0.1,2.9s-0.6,2.2-1,2.9H81.2L76-183.6
	c-0.2,1.1-0.4,2.1-0.5,3c-0.1,0.9-0.2,1.7-0.2,2.4c0,1.6,0.4,2.7,1.2,3.4c0.8,0.7,1.8,1.1,3.2,1.1c1.5,0,2.9-0.2,4.2-0.5
	c1.3-0.4,2.6-0.9,3.8-1.5l1.2,2.3c-0.7,0.8-1.7,1.6-2.9,2.4c-1.2,0.8-2.5,1.6-4,2.3s-3.1,1.2-4.8,1.7c-1.7,0.4-3.5,0.6-5.3,0.6
	c-3.1,0-5.4-0.7-7-2.2c-1.6-1.4-2.3-3.4-2.3-5.9c0-1.4,0.1-2.8,0.4-4.4c0.2-1.6,0.5-2.9,0.7-4l5.1-24h-6.5
	C62.3-206.9,62.3-210.5,62.3-210.5z"/>
<g>
	<path class="st2" d="M118.7-214.2c0.4-0.1,0.8-0.1,1.3-0.2c0.5,0,0.9-0.1,1.4-0.1s0.9,0,1.4,0.1c0.5,0.1,0.9,0.2,1.3,0.4
		s0.7,0.5,0.9,0.9c0.2,0.4,0.4,0.9,0.4,1.5c0,0.6-0.1,1-0.3,1.4c-0.2,0.4-0.5,0.7-0.8,0.9c-0.3,0.2-0.7,0.4-1.2,0.5
		c-0.4,0.1-0.9,0.2-1.4,0.2c0,0-0.1,0-0.2,0s-0.2,0-0.3,0c-0.1,0-0.2,0-0.3,0c-0.1,0-0.2,0-0.2,0v3h-1.9v-8.6H118.7z M121.5-212.7
		c-0.2,0-0.3,0-0.5,0s-0.3,0-0.4,0v2.6c0,0,0.1,0,0.2,0s0.2,0,0.2,0c0.1,0,0.2,0,0.2,0c0.1,0,0.1,0,0.2,0c0.2,0,0.5,0,0.7,0
		s0.5-0.1,0.6-0.2c0.2-0.1,0.3-0.3,0.5-0.4c0.1-0.2,0.2-0.4,0.2-0.8c0-0.3-0.1-0.5-0.2-0.6c-0.1-0.2-0.3-0.3-0.4-0.4
		c-0.1-0.1-0.4-0.2-0.6-0.2S121.7-212.7,121.5-212.7z"/>
	<path class="st2" d="M126.7-214.2c0.2,0,0.4-0.1,0.7-0.1s0.5-0.1,0.7-0.1s0.5,0,0.7,0s0.4,0,0.6,0c0.4,0,0.9,0,1.3,0.1
		c0.4,0.1,0.8,0.2,1.2,0.4c0.3,0.2,0.6,0.4,0.8,0.8c0.2,0.3,0.3,0.7,0.3,1.2c0,0.7-0.2,1.3-0.5,1.8c-0.4,0.5-0.8,0.8-1.5,0.9
		l0.7,0.4l2.2,3.3h-2.2l-2.2-3.4l-1-0.2v3.6h-1.9L126.7-214.2L126.7-214.2z M129.6-212.7c-0.2,0-0.4,0-0.6,0c-0.2,0-0.3,0-0.4,0v2.4
		h0.8c0.5,0,0.9-0.1,1.2-0.3c0.3-0.2,0.5-0.5,0.5-1c0-0.4-0.1-0.6-0.4-0.8C130.5-212.6,130.1-212.7,129.6-212.7z"/>
	<path class="st2" d="M134.6-209.9c0-0.7,0.1-1.4,0.3-1.9c0.2-0.6,0.4-1,0.8-1.4c0.3-0.4,0.8-0.7,1.3-0.9c0.5-0.2,1.1-0.3,1.7-0.3
		c0.7,0,1.3,0.1,1.8,0.3s0.9,0.5,1.3,0.9c0.3,0.4,0.6,0.9,0.8,1.4s0.3,1.2,0.3,1.9c0,0.7-0.1,1.4-0.3,1.9c-0.2,0.6-0.5,1-0.8,1.4
		c-0.4,0.4-0.8,0.7-1.3,0.9s-1.1,0.3-1.7,0.3c-0.7,0-1.3-0.1-1.8-0.3c-0.5-0.2-0.9-0.5-1.3-0.9c-0.4-0.4-0.6-0.9-0.8-1.4
		S134.6-209.2,134.6-209.9z M136.6-209.9c0,0.4,0,0.8,0.1,1.2s0.2,0.7,0.4,0.9c0.2,0.3,0.4,0.5,0.6,0.6c0.3,0.1,0.6,0.2,0.9,0.2
		c0.7,0,1.2-0.2,1.5-0.7s0.6-1.2,0.6-2.3c0-0.4,0-0.8-0.1-1.2c-0.1-0.4-0.2-0.7-0.4-0.9c-0.2-0.3-0.4-0.5-0.7-0.6
		c-0.3-0.1-0.6-0.2-1-0.2c-0.7,0-1.2,0.2-1.5,0.7S136.6-210.9,136.6-209.9z"/>
	<path class="st2" d="M144.5-214.3h5.7v1.6h-3.8v2h3.5v1.6h-3.5v3.5h-1.9V-214.3z"/>
	<path class="st2" d="M150.5-206.3c0-0.3,0.1-0.6,0.3-0.7c0.2-0.2,0.5-0.3,0.8-0.3s0.6,0.1,0.8,0.3c0.2,0.2,0.3,0.4,0.3,0.7
		c0,0.3-0.1,0.5-0.3,0.7s-0.5,0.3-0.8,0.3s-0.6-0.1-0.8-0.3C150.6-205.8,150.5-206,150.5-206.3z"/>
	<path class="st2" d="M118.7-201.4c0.2,0,0.4,0,0.6-0.1c0.2,0,0.5,0,0.7,0c0.3,0,0.5,0,0.7,0s0.5,0,0.7,0c0.8,0,1.6,0.1,2.2,0.3
		s1.1,0.5,1.5,0.9c0.4,0.4,0.7,0.9,0.8,1.4s0.3,1.1,0.3,1.8c0,0.6-0.1,1.2-0.3,1.7c-0.2,0.6-0.5,1-0.8,1.5c-0.4,0.4-0.9,0.8-1.5,1
		c-0.6,0.3-1.4,0.4-2.3,0.4c-0.1,0-0.3,0-0.6,0c-0.2,0-0.5,0-0.8,0s-0.5,0-0.7,0s-0.4,0-0.5,0L118.7-201.4L118.7-201.4z
		 M121.6-199.9c-0.2,0-0.4,0-0.6,0s-0.4,0-0.5,0v5.7c0,0,0.1,0,0.2,0s0.2,0,0.3,0c0.1,0,0.2,0,0.3,0c0.1,0,0.2,0,0.2,0
		c0.5,0,1-0.1,1.3-0.3c0.4-0.2,0.6-0.4,0.8-0.7c0.2-0.3,0.3-0.6,0.4-0.9c0.1-0.4,0.1-0.7,0.1-1.1c0-0.3,0-0.6-0.1-1
		c-0.1-0.3-0.2-0.6-0.4-0.9c-0.2-0.3-0.5-0.5-0.8-0.7S122.2-199.9,121.6-199.9z"/>
	<path class="st2" d="M127.9-201.3c0.2,0,0.4-0.1,0.7-0.1s0.5-0.1,0.7-0.1s0.5,0,0.7,0s0.4,0,0.6,0c0.4,0,0.9,0,1.3,0.1
		c0.4,0.1,0.8,0.2,1.2,0.4c0.3,0.2,0.6,0.4,0.8,0.8c0.2,0.3,0.3,0.7,0.3,1.2c0,0.7-0.2,1.3-0.5,1.8c-0.4,0.5-0.8,0.8-1.5,0.9
		l0.7,0.4l2.2,3.3h-2.2l-2.2-3.4l-1-0.2v3.6h-1.9L127.9-201.3L127.9-201.3z M130.7-199.9c-0.2,0-0.4,0-0.6,0c-0.2,0-0.3,0-0.4,0v2.4
		h0.8c0.5,0,0.9-0.1,1.2-0.3c0.3-0.2,0.5-0.5,0.5-1c0-0.4-0.1-0.6-0.4-0.8C131.6-199.8,131.2-199.9,130.7-199.9z"/>
	<path class="st2" d="M136.3-193.4c0-0.3,0.1-0.6,0.3-0.7c0.2-0.2,0.5-0.3,0.8-0.3s0.6,0.1,0.8,0.3c0.2,0.2,0.3,0.4,0.3,0.7
		s-0.1,0.5-0.3,0.7s-0.5,0.3-0.8,0.3s-0.6-0.1-0.8-0.3C136.4-192.9,136.3-193.1,136.3-193.4z"/>
	<path class="st2" d="M118.7-188.4c0.4-0.1,0.8-0.1,1.3-0.2c0.5,0,0.9-0.1,1.4-0.1s0.9,0,1.4,0.1c0.5,0.1,0.9,0.2,1.3,0.4
		s0.7,0.5,0.9,0.9c0.2,0.4,0.4,0.9,0.4,1.5c0,0.6-0.1,1-0.3,1.4c-0.2,0.4-0.5,0.7-0.8,0.9s-0.7,0.4-1.2,0.5
		c-0.4,0.1-0.9,0.2-1.4,0.2c0,0-0.1,0-0.2,0s-0.2,0-0.3,0c-0.1,0-0.2,0-0.3,0c-0.1,0-0.2,0-0.2,0v3h-1.9v-8.6H118.7z M121.5-187
		c-0.2,0-0.3,0-0.5,0s-0.3,0-0.4,0v2.6c0,0,0.1,0,0.2,0s0.2,0,0.2,0c0.1,0,0.2,0,0.2,0c0.1,0,0.1,0,0.2,0c0.2,0,0.5,0,0.7,0
		s0.5-0.1,0.6-0.2c0.2-0.1,0.3-0.3,0.5-0.4c0.1-0.2,0.2-0.4,0.2-0.8c0-0.3-0.1-0.5-0.2-0.6c-0.1-0.2-0.3-0.3-0.4-0.4
		c-0.1-0.1-0.4-0.2-0.6-0.2S121.7-187,121.5-187z"/>
	<path class="st2" d="M126.7-188.5h5.7v1.6h-3.8v1.9h3.5v1.6h-3.5v2h3.9v1.6h-5.7L126.7-188.5L126.7-188.5z"/>
	<path class="st2" d="M141-186.8h-2.8v7.2h-1.9v-7.2h-2.8v-1.6h7.4v1.6H141z"/>
	<path class="st2" d="M142.3-188.5h5.7v1.6h-3.8v1.9h3.5v1.6h-3.5v2h3.9v1.6h-5.7L142.3-188.5L142.3-188.5z"/>
	<path class="st2" d="M149.9-188.4c0.2,0,0.4-0.1,0.7-0.1s0.5-0.1,0.7-0.1s0.5,0,0.7,0s0.4,0,0.6,0c0.4,0,0.9,0,1.3,0.1
		c0.4,0.1,0.8,0.2,1.2,0.4c0.3,0.2,0.6,0.4,0.8,0.8c0.2,0.3,0.3,0.7,0.3,1.2c0,0.7-0.2,1.3-0.5,1.8c-0.4,0.5-0.8,0.8-1.5,0.9
		l0.7,0.4l2.2,3.3h-2.2l-2.2-3.4l-1-0.2v3.6h-1.9L149.9-188.4L149.9-188.4z M152.7-187c-0.2,0-0.4,0-0.6,0c-0.2,0-0.3,0-0.4,0v2.4
		h0.8c0.5,0,0.9-0.1,1.2-0.3s0.5-0.5,0.5-1c0-0.4-0.1-0.6-0.4-0.8C153.6-186.9,153.2-187,152.7-187z"/>
	<path class="st2" d="M125.5-174h-2.8v7.2h-1.9v-7.2H118v-1.6h7.4v1.6H125.5z"/>
	<path class="st2" d="M126.8-175.5c0.2,0,0.4-0.1,0.7-0.1s0.5-0.1,0.7-0.1s0.5,0,0.7,0s0.4,0,0.6,0c0.4,0,0.9,0,1.3,0.1
		c0.4,0.1,0.8,0.2,1.2,0.4c0.3,0.2,0.6,0.4,0.8,0.8c0.2,0.3,0.3,0.7,0.3,1.2c0,0.7-0.2,1.3-0.5,1.8c-0.4,0.5-0.8,0.8-1.5,0.9
		l0.7,0.4l2.2,3.3h-2.2l-2.2-3.4l-1-0.2v3.6h-1.9L126.8-175.5L126.8-175.5z M129.6-174.1c-0.2,0-0.4,0-0.6,0c-0.2,0-0.3,0-0.4,0v2.4
		h0.8c0.5,0,0.9-0.1,1.2-0.3c0.3-0.2,0.5-0.5,0.5-1c0-0.4-0.1-0.6-0.4-0.8C130.5-174,130.1-174.1,129.6-174.1z"/>
	<path class="st2" d="M140.3-175.6h1.8v5.6c0,0.6-0.1,1.1-0.2,1.5c-0.2,0.4-0.4,0.8-0.7,1c-0.3,0.3-0.7,0.5-1.1,0.6
		c-0.4,0.1-0.9,0.2-1.4,0.2c-1.2,0-2.1-0.3-2.7-0.8s-0.9-1.3-0.9-2.3v-5.8h1.9v5.5c0,0.7,0.1,1.1,0.4,1.4c0.3,0.3,0.7,0.4,1.3,0.4
		s1-0.1,1.2-0.4s0.4-0.7,0.4-1.4V-175.6z M136.1-176.8c0-0.2,0.1-0.4,0.2-0.5c0.2-0.1,0.4-0.2,0.8-0.2c0.4,0,0.6,0.1,0.8,0.2
		c0.2,0.1,0.2,0.3,0.2,0.5c0,0.2-0.1,0.4-0.2,0.5c-0.1,0.1-0.4,0.2-0.8,0.2c-0.4,0-0.6-0.1-0.8-0.2
		C136.1-176.4,136.1-176.6,136.1-176.8z M139-176.8c0-0.2,0.1-0.4,0.2-0.5c0.2-0.1,0.4-0.2,0.8-0.2c0.4,0,0.6,0.1,0.8,0.2
		c0.2,0.1,0.2,0.3,0.2,0.5c0,0.2-0.1,0.4-0.2,0.5c-0.2,0.1-0.4,0.2-0.8,0.2c-0.4,0-0.6-0.1-0.8-0.2C139-176.4,139-176.6,139-176.8z"
		/>
	<path class="st2" d="M150.5-173.5c0,0.2,0,0.4-0.1,0.6s-0.2,0.4-0.3,0.6c-0.1,0.2-0.3,0.3-0.5,0.5c-0.2,0.1-0.5,0.2-0.8,0.3v0.1
		c0.3,0,0.5,0.1,0.8,0.2c0.2,0.1,0.5,0.2,0.6,0.4c0.2,0.2,0.3,0.4,0.4,0.7c0.1,0.3,0.2,0.6,0.2,0.9c0,0.5-0.1,0.9-0.3,1.2
		c-0.2,0.3-0.5,0.6-0.8,0.8s-0.7,0.4-1.2,0.5c-0.5,0.1-0.9,0.2-1.4,0.2c-0.2,0-0.3,0-0.6,0s-0.5,0-0.8,0s-0.6,0-0.9-0.1
		c-0.3,0-0.6-0.1-0.8-0.1v-8.7c0.2,0,0.4-0.1,0.6-0.1c0.2,0,0.5,0,0.7-0.1c0.3,0,0.5,0,0.8,0s0.5,0,0.8,0c0.4,0,0.9,0,1.3,0.1
		c0.4,0.1,0.8,0.2,1.1,0.3c0.3,0.1,0.6,0.4,0.8,0.7C150.3-174.2,150.5-174,150.5-173.5z M146.4-171.9c0.1,0,0.3,0,0.4,0
		c0.2,0,0.3,0,0.4,0c0.4-0.1,0.6-0.3,0.9-0.4c0.2-0.2,0.4-0.4,0.4-0.8c0-0.2,0-0.4-0.1-0.5c-0.1-0.1-0.2-0.2-0.4-0.3
		c-0.2-0.1-0.3-0.1-0.5-0.2c-0.2,0-0.4,0-0.6,0c-0.2,0-0.5,0-0.7,0s-0.4,0-0.5,0v2.2H146.4z M147-168.2c0.2,0,0.5,0,0.7-0.1
		c0.2,0,0.4-0.1,0.6-0.2c0.2-0.1,0.3-0.2,0.4-0.4c0.1-0.1,0.1-0.3,0.1-0.5c0-0.3-0.1-0.5-0.2-0.6c-0.1-0.1-0.3-0.3-0.5-0.4
		s-0.4-0.1-0.6-0.2c-0.2,0-0.5,0-0.7,0h-1v2.3c0.1,0,0.1,0,0.2,0c0.1,0,0.2,0,0.3,0s0.2,0,0.4,0S146.9-168.2,147-168.2z"/>
	<path class="st2" d="M154.8-171.4l-0.8-1.3l0,0l0.2,1.3v4.6h-1.8v-8.8h1.3l3.6,4.7l0.7,1.3h0.1l-0.2-1.3v-4.6h1.8v8.8h-1.3
		L154.8-171.4z"/>
	<path class="st2" d="M161.8-175.6h5.7v1.6h-3.8v1.9h3.5v1.6h-3.5v2h3.9v1.6h-5.7L161.8-175.6L161.8-175.6z"/>
	<path class="st2" d="M169.3-175.5c0.2,0,0.4-0.1,0.7-0.1s0.5-0.1,0.7-0.1s0.5,0,0.7,0s0.4,0,0.6,0c0.4,0,0.9,0,1.3,0.1
		c0.4,0.1,0.8,0.2,1.2,0.4c0.3,0.2,0.6,0.4,0.8,0.8c0.2,0.3,0.3,0.7,0.3,1.2c0,0.7-0.2,1.3-0.5,1.8c-0.4,0.5-0.8,0.8-1.5,0.9
		l0.7,0.4l2.2,3.3h-2.2l-2.2-3.4l-1-0.2v3.6h-1.9L169.3-175.5L169.3-175.5z M172.2-174.1c-0.2,0-0.4,0-0.6,0c-0.2,0-0.3,0-0.4,0v2.4
		h0.8c0.5,0,0.9-0.1,1.2-0.3c0.3-0.2,0.5-0.5,0.5-1c0-0.4-0.1-0.6-0.4-0.8C173-174,172.7-174.1,172.2-174.1z"/>
</g>
<g class="st3">
	<path d="M23.4,74.5c2.1,0.3,4.2,1.1,6.3,2.2v2.5H15.5l-0.8-0.8l3.9-17.9L27,21.3l-5.5-0.8v-2.3c2-0.8,4.1-1.6,6.3-2.3
		c2.2-0.7,4.2-1,6.2-1l1.8,1.1L32,32h0.4c1.1-2.4,2.3-4.6,3.6-6.7c1.3-2,2.7-3.8,4.2-5.4c1.5-1.5,3.1-2.7,4.9-3.6
		c1.8-0.9,3.6-1.3,5.6-1.3c1.3,0,2.6,0.3,3.8,0.8c1.2,0.5,2.3,1.3,3.2,2.3c0.9,1.1,1.6,2.4,2.1,3.9c0.5,1.6,0.8,3.4,0.8,5.4
		c0,4.6-0.7,9-2.1,13.2c-1.4,4.2-3.3,7.9-5.7,11.1c-2.4,3.2-5.2,5.7-8.4,7.6c-3.2,1.9-6.6,2.8-10.3,2.8c-1,0-1.9,0-2.6-0.1
		c-0.7-0.1-1.4-0.2-1.9-0.3c-0.5-0.2-1.1-0.3-1.6-0.6c-0.5-0.2-1.1-0.5-1.7-0.8L23.4,74.5z M46.3,20.6c-1.7,0-3.4,0.7-5,2
		c-1.6,1.3-3,3-4.4,4.9c-1.4,1.9-2.6,3.9-3.6,6.1c-1.1,2.1-2,4-2.6,5.6l-3.5,17c0.8,0.7,1.7,1.2,2.7,1.6c0.9,0.3,2.4,0.5,4.5,0.5
		c2.4,0,4.7-0.9,6.8-2.7c2.1-1.8,4-4,5.6-6.8c1.6-2.8,2.9-5.8,3.8-9.2c0.9-3.4,1.4-6.7,1.4-10c0-2.9-0.5-5.1-1.5-6.7
		C49.5,21.4,48.1,20.6,46.3,20.6z"/>
	<path d="M68.3,18.4c1.2-0.7,2.5-1.3,3.8-1.9c1.4-0.6,2.7-1,4-1.3l1.4-6.8c0.8-0.7,1.8-1.2,2.9-1.8c1.1-0.5,2.3-1,3.5-1.5l1.9,1.1
		l-2.2,9.9h11.2c0.1,0.8,0.1,1.5,0,2.3c-0.1,0.8-0.4,1.6-0.9,2.3H82.8l-5.7,26c-0.2,1.1-0.4,2.1-0.5,3c-0.1,0.9-0.2,1.7-0.2,2.4
		c0,1.6,0.5,2.7,1.4,3.4c0.9,0.7,1.9,1.1,3,1.1c1.5,0,3.1-0.3,4.8-0.9c1.7-0.6,3.3-1.2,4.7-1.9l1,1.6c-0.5,0.8-1.4,1.6-2.4,2.3
		c-1.1,0.8-2.3,1.5-3.6,2.2c-1.4,0.7-2.8,1.2-4.2,1.6c-1.5,0.4-2.9,0.6-4.2,0.6c-2.6,0-4.7-0.6-6.2-1.8c-1.5-1.2-2.3-3.1-2.3-5.6
		c0-0.8,0.1-1.8,0.2-2.8c0.1-1,0.3-2.1,0.6-3.1l5.9-28.2h-6.8L68.3,18.4z"/>
</g>
<g>
	<line class="st1" x1="105.5" y1="-90.4" x2="105.5" y2="-5.4"/>
	<rect x="105" y="-90.4" width="1" height="85"/>
</g>
<g>
	<path class="st0" d="M118.7-74.7c0.4-0.1,0.8-0.1,1.3-0.2c0.5,0,0.9-0.1,1.4-0.1s0.9,0,1.4,0.1s0.9,0.2,1.3,0.4s0.7,0.5,0.9,0.9
		c0.2,0.4,0.4,0.9,0.4,1.5s-0.1,1-0.3,1.4c-0.2,0.4-0.5,0.7-0.8,0.9c-0.3,0.2-0.7,0.4-1.2,0.5c-0.4,0.1-0.9,0.2-1.4,0.2
		c0,0-0.1,0-0.2,0s-0.2,0-0.3,0c-0.1,0-0.2,0-0.3,0c-0.1,0-0.2,0-0.2,0v3h-1.9v-8.6H118.7z M121.5-73.3c-0.2,0-0.3,0-0.5,0
		s-0.3,0-0.4,0v2.6c0,0,0.1,0,0.2,0s0.2,0,0.2,0c0.1,0,0.2,0,0.2,0c0.1,0,0.1,0,0.2,0c0.2,0,0.5,0,0.7,0s0.5-0.1,0.6-0.2
		c0.2-0.1,0.3-0.3,0.5-0.4c0.1-0.2,0.2-0.4,0.2-0.8c0-0.3-0.1-0.5-0.2-0.6c-0.1-0.2-0.3-0.3-0.4-0.4s-0.4-0.2-0.6-0.2
		S121.7-73.3,121.5-73.3z"/>
	<path class="st0" d="M126.7-74.7c0.2,0,0.4-0.1,0.7-0.1s0.5-0.1,0.7-0.1s0.5,0,0.7,0s0.4,0,0.6,0c0.4,0,0.9,0,1.3,0.1
		c0.4,0.1,0.8,0.2,1.2,0.4c0.3,0.2,0.6,0.4,0.8,0.8c0.2,0.3,0.3,0.7,0.3,1.2c0,0.7-0.2,1.3-0.5,1.8c-0.4,0.5-0.8,0.8-1.5,0.9
		l0.7,0.4l2.2,3.3h-2.2l-2.2-3.4l-1-0.2v3.6h-1.9L126.7-74.7L126.7-74.7z M129.6-73.3c-0.2,0-0.4,0-0.6,0c-0.2,0-0.3,0-0.4,0v2.4
		h0.8c0.5,0,0.9-0.1,1.2-0.3s0.5-0.5,0.5-1c0-0.4-0.1-0.6-0.4-0.8C130.5-73.2,130.1-73.3,129.6-73.3z"/>
	<path class="st0" d="M134.6-70.4c0-0.7,0.1-1.4,0.3-1.9c0.2-0.6,0.4-1,0.8-1.4c0.3-0.4,0.8-0.7,1.3-0.9s1.1-0.3,1.7-0.3
		c0.7,0,1.3,0.1,1.8,0.3s0.9,0.5,1.3,0.9c0.3,0.4,0.6,0.9,0.8,1.4s0.3,1.2,0.3,1.9c0,0.7-0.1,1.4-0.3,1.9c-0.2,0.6-0.5,1-0.8,1.4
		c-0.4,0.4-0.8,0.7-1.3,0.9c-0.5,0.2-1.1,0.3-1.7,0.3c-0.7,0-1.3-0.1-1.8-0.3c-0.5-0.2-0.9-0.5-1.3-0.9s-0.6-0.9-0.8-1.4
		S134.6-69.7,134.6-70.4z M136.6-70.4c0,0.4,0,0.8,0.1,1.2c0.1,0.4,0.2,0.7,0.4,0.9c0.2,0.3,0.4,0.5,0.6,0.6
		c0.3,0.1,0.6,0.2,0.9,0.2c0.7,0,1.2-0.2,1.5-0.7s0.6-1.2,0.6-2.3c0-0.4,0-0.8-0.1-1.2s-0.2-0.7-0.4-0.9c-0.2-0.3-0.4-0.5-0.7-0.6
		c-0.3-0.1-0.6-0.2-1-0.2c-0.7,0-1.2,0.2-1.5,0.7S136.6-71.4,136.6-70.4z"/>
	<path class="st0" d="M144.5-74.8h5.7v1.6h-3.8v2h3.5v1.6h-3.5v3.6h-1.9V-74.8z"/>
	<path class="st0" d="M150.5-66.8c0-0.3,0.1-0.6,0.3-0.7c0.2-0.2,0.5-0.3,0.8-0.3s0.6,0.1,0.8,0.3s0.3,0.4,0.3,0.7
		c0,0.3-0.1,0.5-0.3,0.7s-0.5,0.3-0.8,0.3s-0.6-0.1-0.8-0.3C150.6-66.3,150.5-66.6,150.5-66.8z"/>
	<path class="st0" d="M118.7-61.9c0.2,0,0.4,0,0.6-0.1c0.2,0,0.5,0,0.7,0c0.3,0,0.5,0,0.7,0s0.5,0,0.7,0c0.8,0,1.6,0.1,2.2,0.3
		s1.1,0.5,1.5,0.9c0.4,0.4,0.7,0.9,0.8,1.4s0.3,1.1,0.3,1.8c0,0.6-0.1,1.2-0.3,1.7c-0.2,0.6-0.5,1-0.8,1.5c-0.4,0.4-0.9,0.8-1.5,1
		c-0.6,0.3-1.4,0.4-2.3,0.4c-0.1,0-0.3,0-0.6,0c-0.2,0-0.5,0-0.8,0s-0.5,0-0.7,0s-0.4,0-0.5,0L118.7-61.9L118.7-61.9z M121.6-60.4
		c-0.2,0-0.4,0-0.6,0s-0.4,0-0.5,0v5.7c0,0,0.1,0,0.2,0s0.2,0,0.3,0c0.1,0,0.2,0,0.3,0c0.1,0,0.2,0,0.2,0c0.5,0,1-0.1,1.3-0.3
		c0.4-0.2,0.6-0.4,0.8-0.7c0.2-0.3,0.3-0.6,0.4-0.9c0.1-0.4,0.1-0.7,0.1-1.1c0-0.3,0-0.6-0.1-1c-0.1-0.3-0.2-0.6-0.4-0.9
		c-0.2-0.3-0.5-0.5-0.8-0.7C122.5-60.5,122.2-60.4,121.6-60.4z"/>
	<path class="st0" d="M127.9-61.8c0.2,0,0.4-0.1,0.7-0.1s0.5-0.1,0.7-0.1s0.5,0,0.7,0s0.4,0,0.6,0c0.4,0,0.9,0,1.3,0.1
		c0.4,0.1,0.8,0.2,1.2,0.4c0.3,0.2,0.6,0.4,0.8,0.8c0.2,0.3,0.3,0.7,0.3,1.2c0,0.7-0.2,1.3-0.5,1.8c-0.4,0.5-0.8,0.8-1.5,0.9
		l0.7,0.4l2.2,3.3h-2.2l-2.2-3.4l-1-0.2v3.6h-1.9L127.9-61.8L127.9-61.8z M130.7-60.4c-0.2,0-0.4,0-0.6,0c-0.2,0-0.3,0-0.4,0v2.4
		h0.8c0.5,0,0.9-0.1,1.2-0.3s0.5-0.5,0.5-1c0-0.4-0.1-0.6-0.4-0.8C131.6-60.3,131.2-60.4,130.7-60.4z"/>
	<path class="st0" d="M136.3-54c0-0.3,0.1-0.6,0.3-0.7c0.2-0.2,0.5-0.3,0.8-0.3s0.6,0.1,0.8,0.3s0.3,0.4,0.3,0.7s-0.1,0.5-0.3,0.7
		s-0.5,0.3-0.8,0.3s-0.6-0.1-0.8-0.3C136.4-53.4,136.3-53.7,136.3-54z"/>
	<path class="st0" d="M118.7-48.9c0.4-0.1,0.8-0.1,1.3-0.2c0.5,0,0.9-0.1,1.4-0.1s0.9,0,1.4,0.1s0.9,0.2,1.3,0.4s0.7,0.5,0.9,0.9
		c0.2,0.4,0.4,0.9,0.4,1.5s-0.1,1-0.3,1.4c-0.2,0.4-0.5,0.7-0.8,0.9s-0.7,0.4-1.2,0.5c-0.4,0.1-0.9,0.2-1.4,0.2c0,0-0.1,0-0.2,0
		s-0.2,0-0.3,0c-0.1,0-0.2,0-0.3,0c-0.1,0-0.2,0-0.2,0v3h-1.9v-8.6H118.7z M121.5-47.5c-0.2,0-0.3,0-0.5,0s-0.3,0-0.4,0v2.6
		c0,0,0.1,0,0.2,0s0.2,0,0.2,0c0.1,0,0.2,0,0.2,0c0.1,0,0.1,0,0.2,0c0.2,0,0.5,0,0.7,0s0.5-0.1,0.6-0.2c0.2-0.1,0.3-0.3,0.5-0.4
		c0.1-0.2,0.2-0.4,0.2-0.8c0-0.3-0.1-0.5-0.2-0.6c-0.1-0.2-0.3-0.3-0.4-0.4s-0.4-0.2-0.6-0.2S121.7-47.5,121.5-47.5z"/>
	<path class="st0" d="M126.7-49h5.7v1.6h-3.8v1.9h3.5v1.6h-3.5v2h3.9v1.6h-5.7L126.7-49L126.7-49z"/>
	<path class="st0" d="M141-47.4h-2.8v7.2h-1.9v-7.2h-2.8V-49h7.4v1.6H141z"/>
	<path class="st0" d="M142.3-49h5.7v1.6h-3.8v1.9h3.5v1.6h-3.5v2h3.9v1.6h-5.7L142.3-49L142.3-49z"/>
	<path class="st0" d="M149.9-48.9c0.2,0,0.4-0.1,0.7-0.1s0.5-0.1,0.7-0.1s0.5,0,0.7,0s0.4,0,0.6,0c0.4,0,0.9,0,1.3,0.1
		c0.4,0.1,0.8,0.2,1.2,0.4c0.3,0.2,0.6,0.4,0.8,0.8c0.2,0.3,0.3,0.7,0.3,1.2c0,0.7-0.2,1.3-0.5,1.8c-0.4,0.5-0.8,0.8-1.5,0.9
		l0.7,0.4l2.2,3.3h-2.2l-2.2-3.4l-1-0.2v3.6h-1.9L149.9-48.9L149.9-48.9z M152.7-47.5c-0.2,0-0.4,0-0.6,0c-0.2,0-0.3,0-0.4,0v2.5
		h0.8c0.5,0,0.9-0.1,1.2-0.3s0.5-0.5,0.5-1c0-0.4-0.1-0.6-0.4-0.8C153.6-47.4,153.2-47.5,152.7-47.5z"/>
	<path class="st0" d="M125.5-34.5h-2.8v7.2h-1.9v-7.2H118v-1.6h7.4v1.6H125.5z"/>
	<path class="st0" d="M126.8-36c0.2,0,0.4-0.1,0.7-0.1s0.5-0.1,0.7-0.1s0.5,0,0.7,0s0.4,0,0.6,0c0.4,0,0.9,0,1.3,0.1
		c0.4,0.1,0.8,0.2,1.2,0.4c0.3,0.2,0.6,0.4,0.8,0.8c0.2,0.3,0.3,0.7,0.3,1.2c0,0.7-0.2,1.3-0.5,1.8c-0.4,0.5-0.8,0.8-1.5,0.9
		l0.7,0.4l2.2,3.3h-2.2l-2.2-3.4l-1-0.2v3.6h-1.9L126.8-36L126.8-36z M129.6-34.6c-0.2,0-0.4,0-0.6,0c-0.2,0-0.3,0-0.4,0v2.4h0.8
		c0.5,0,0.9-0.1,1.2-0.3s0.5-0.5,0.5-1c0-0.4-0.1-0.6-0.4-0.8C130.5-34.5,130.1-34.6,129.6-34.6z"/>
	<path class="st0" d="M140.3-36.1h1.8v5.6c0,0.6-0.1,1.1-0.2,1.5c-0.2,0.4-0.4,0.8-0.7,1c-0.3,0.3-0.7,0.5-1.1,0.6s-0.9,0.2-1.4,0.2
		c-1.2,0-2.1-0.3-2.7-0.8s-0.9-1.3-0.9-2.3v-5.8h1.9v5.5c0,0.7,0.1,1.1,0.4,1.4c0.3,0.3,0.7,0.4,1.3,0.4s1-0.1,1.2-0.4
		s0.4-0.7,0.4-1.4V-36.1z M136.1-37.3c0-0.2,0.1-0.4,0.2-0.5c0.2-0.1,0.4-0.2,0.8-0.2c0.4,0,0.6,0.1,0.8,0.2
		c0.2,0.1,0.2,0.3,0.2,0.5s-0.1,0.4-0.2,0.5s-0.4,0.2-0.8,0.2c-0.4,0-0.6-0.1-0.8-0.2S136.1-37.1,136.1-37.3z M139-37.3
		c0-0.2,0.1-0.4,0.2-0.5c0.2-0.1,0.4-0.2,0.8-0.2c0.4,0,0.6,0.1,0.8,0.2c0.2,0.1,0.2,0.3,0.2,0.5s-0.1,0.4-0.2,0.5
		c-0.2,0.1-0.4,0.2-0.8,0.2c-0.4,0-0.6-0.1-0.8-0.2S139-37.1,139-37.3z"/>
	<path class="st0" d="M150.5-34c0,0.2,0,0.4-0.1,0.6c-0.1,0.2-0.2,0.4-0.3,0.6c-0.1,0.2-0.3,0.3-0.5,0.5c-0.2,0.1-0.5,0.2-0.8,0.3v0
		c0.3,0,0.5,0.1,0.8,0.2c0.2,0.1,0.5,0.2,0.6,0.4c0.2,0.2,0.3,0.4,0.4,0.7c0.1,0.3,0.2,0.6,0.2,0.9c0,0.5-0.1,0.9-0.3,1.2
		s-0.5,0.6-0.8,0.8s-0.7,0.4-1.2,0.5s-0.9,0.2-1.4,0.2c-0.2,0-0.3,0-0.6,0s-0.5,0-0.8,0s-0.6,0-0.9-0.1c-0.3,0-0.6-0.1-0.8-0.1V-36
		c0.2,0,0.4-0.1,0.6-0.1c0.2,0,0.5,0,0.7-0.1c0.3,0,0.5,0,0.8,0s0.5,0,0.8,0c0.4,0,0.9,0,1.3,0.1c0.4,0.1,0.8,0.2,1.1,0.3
		s0.6,0.4,0.8,0.7S150.5-34.5,150.5-34z M146.4-32.5c0.1,0,0.3,0,0.4,0c0.2,0,0.3,0,0.4,0c0.4-0.1,0.6-0.3,0.9-0.4
		c0.2-0.2,0.4-0.4,0.4-0.8c0-0.2,0-0.4-0.1-0.5s-0.2-0.2-0.4-0.3s-0.3-0.1-0.5-0.2c-0.2,0-0.4,0-0.6,0c-0.2,0-0.5,0-0.7,0
		s-0.4,0-0.5,0v2.2H146.4z M147-28.7c0.2,0,0.5,0,0.7-0.1c0.2,0,0.4-0.1,0.6-0.2c0.2-0.1,0.3-0.2,0.4-0.4c0.1-0.1,0.1-0.3,0.1-0.5
		c0-0.3-0.1-0.5-0.2-0.6s-0.3-0.3-0.5-0.4c-0.2-0.1-0.4-0.1-0.6-0.2c-0.2,0-0.5,0-0.7,0h-1v2.3c0.1,0,0.1,0,0.2,0c0.1,0,0.2,0,0.3,0
		s0.2,0,0.4,0S146.9-28.7,147-28.7z"/>
	<path class="st0" d="M154.8-31.9l-0.8-1.3l0,0l0.2,1.3v4.6h-1.8v-8.8h1.3l3.6,4.7l0.7,1.3h0.1l-0.2-1.3V-36h1.8v8.8h-1.3
		L154.8-31.9z"/>
	<path class="st0" d="M161.8-36.1h5.7v1.6h-3.8v1.9h3.5v1.6h-3.5v2h3.9v1.6h-5.7L161.8-36.1L161.8-36.1z"/>
	<path class="st0" d="M169.3-36c0.2,0,0.4-0.1,0.7-0.1s0.5-0.1,0.7-0.1s0.5,0,0.7,0s0.4,0,0.6,0c0.4,0,0.9,0,1.3,0.1
		c0.4,0.1,0.8,0.2,1.2,0.4c0.3,0.2,0.6,0.4,0.8,0.8c0.2,0.3,0.3,0.7,0.3,1.2c0,0.7-0.2,1.3-0.5,1.8c-0.4,0.5-0.8,0.8-1.5,0.9
		l0.7,0.4l2.2,3.3h-2.2l-2.2-3.4l-1-0.2v3.6h-1.9L169.3-36L169.3-36z M172.2-34.6c-0.2,0-0.4,0-0.6,0c-0.2,0-0.3,0-0.4,0v2.4h0.8
		c0.5,0,0.9-0.1,1.2-0.3s0.5-0.5,0.5-1c0-0.4-0.1-0.6-0.4-0.8C173-34.5,172.7-34.6,172.2-34.6z"/>
</g>
<g class="st3">
	<path d="M18.4-15.5c2.1,0.3,4.2,1.1,6.3,2.2v2.5H10.5l-0.8-0.8l3.9-17.9L22-68.7l-5.5-0.8v-2.3c2-0.8,4.1-1.6,6.3-2.3
		c2.2-0.7,4.2-1,6.2-1l1.8,1.1L27-58h0.4c1.1-2.4,2.3-4.6,3.6-6.7c1.3-2,2.7-3.8,4.2-5.4c1.5-1.5,3.1-2.7,4.9-3.6
		c1.8-0.9,3.6-1.3,5.6-1.3c1.3,0,2.6,0.3,3.8,0.8c1.2,0.5,2.3,1.3,3.2,2.3c0.9,1.1,1.6,2.4,2.1,3.9c0.5,1.6,0.8,3.4,0.8,5.4
		c0,4.6-0.7,9-2.1,13.2c-1.4,4.2-3.3,7.9-5.7,11.1c-2.4,3.2-5.2,5.7-8.4,7.6c-3.2,1.9-6.6,2.8-10.3,2.8c-1,0-1.9,0-2.6-0.1
		c-0.7-0.1-1.4-0.2-1.9-0.3c-0.5-0.2-1.1-0.3-1.6-0.6c-0.5-0.2-1.1-0.5-1.7-0.8L18.4-15.5z M41.3-69.4c-1.7,0-3.4,0.7-5,2
		c-1.6,1.3-3,3-4.4,4.9c-1.4,1.9-2.6,3.9-3.6,6.1c-1.1,2.1-2,4-2.6,5.6l-3.5,17c0.8,0.7,1.7,1.2,2.7,1.6c0.9,0.3,2.4,0.5,4.5,0.5
		c2.4,0,4.7-0.9,6.8-2.7c2.1-1.8,4-4,5.6-6.8c1.6-2.8,2.9-5.8,3.8-9.2c0.9-3.4,1.4-6.7,1.4-10c0-2.9-0.5-5.1-1.5-6.7
		C44.5-68.6,43.1-69.4,41.3-69.4z"/>
	<path d="M63.3-71.6c1.2-0.7,2.5-1.3,3.8-1.9c1.4-0.6,2.7-1,4-1.3l1.4-6.8c0.8-0.7,1.8-1.2,2.9-1.8c1.1-0.5,2.3-1,3.5-1.5l1.9,1.1
		l-2.2,9.9h11.2c0.1,0.8,0.1,1.5,0,2.3c-0.1,0.8-0.4,1.6-0.9,2.3H77.8l-5.7,26c-0.2,1.1-0.4,2.1-0.5,3c-0.1,0.9-0.2,1.7-0.2,2.4
		c0,1.6,0.5,2.7,1.4,3.4c0.9,0.7,1.9,1.1,3,1.1c1.5,0,3.1-0.3,4.8-0.9c1.7-0.6,3.3-1.2,4.7-1.9l1,1.6c-0.5,0.8-1.4,1.6-2.4,2.3
		c-1.1,0.8-2.3,1.5-3.6,2.2c-1.4,0.7-2.8,1.2-4.2,1.6c-1.5,0.4-2.9,0.6-4.2,0.6c-2.6,0-4.7-0.6-6.2-1.8c-1.5-1.2-2.3-3.1-2.3-5.6
		c0-0.8,0.1-1.8,0.2-2.8c0.1-1,0.3-2.1,0.6-3.1l5.9-28.2h-6.8L63.3-71.6z"/>
</g>
</svg>
