<?xml version="1.0" encoding="utf-8"?>
<!-- Generator: Adobe Illustrator 24.2.0, SVG Export Plug-In . SVG Version: 6.00 Build 0)  -->
<svg version="1.1" id="Ebene_1" xmlns="http://www.w3.org/2000/svg" xmlns:xlink="http://www.w3.org/1999/xlink" x="0px" y="0px"
	 viewBox="0 0 185 85" style="enable-background:new 0 0 185 85;" xml:space="preserve">
<style type="text/css">
	.st0{fill:#52637F;}
</style>
<g>
	<path d="M12.7,79.8h6.9v4.6H2.3l14-62.4H10v-5h16.6l-2.4,9.6h0.4c1-1.4,2.1-2.7,3.3-4c1.2-1.3,2.6-2.4,4.1-3.4
		c1.5-1,3.1-1.8,4.9-2.3c1.8-0.6,3.6-0.8,5.7-0.8c3.4,0,6.3,1.2,8.5,3.5c2.2,2.3,3.3,6,3.3,11.1c0,4.7-0.8,9.2-2.3,13.6
		c-1.5,4.3-3.7,8.2-6.3,11.5c-2.7,3.3-5.8,6-9.4,8c-3.6,2-7.5,3-11.6,3c-1.1,0-2.1,0-2.9-0.1c-0.8-0.1-1.5-0.2-2.1-0.3
		c-0.6-0.2-1.2-0.3-1.8-0.5c-0.6-0.2-1.2-0.4-1.9-0.7L12.7,79.8z M37.7,22c-1.7,0-3.4,0.4-4.9,1.1c-1.6,0.7-3,1.7-4.2,2.7
		c-1.3,1.1-2.4,2.3-3.3,3.5c-0.9,1.3-1.6,2.5-2,3.6l-6,27.4c0.4,0.4,0.9,0.7,1.3,1s1,0.5,1.6,0.6c0.6,0.1,1.3,0.2,2.1,0.3
		c0.8,0.1,1.8,0.1,3,0.1c2.6,0,5.2-0.9,7.5-2.8s4.4-4.3,6.2-7.2c1.8-2.9,3.2-6.2,4.3-9.9c1.1-3.7,1.6-7.3,1.6-10.8
		c0-3.1-0.6-5.5-1.8-7.2S40,22,37.7,22z"/>
	<path d="M63.4,17h9.9l2.7-10.7h8.6L82.1,17h12.6v5H81l-7.3,28.1c-0.3,1.2-0.5,2.4-0.7,3.3c-0.1,1-0.2,2-0.2,3.1
		c0,2.9,1.6,4.3,4.9,4.3c1.7,0,3.6-0.4,5.7-1.2c2.1-0.8,4-1.9,5.6-3.3l2,3.7c-0.7,0.7-1.6,1.5-2.8,2.3c-1.2,0.8-2.6,1.5-4.1,2.2
		c-1.6,0.7-3.3,1.2-5.1,1.6c-1.9,0.4-3.8,0.6-5.8,0.6c-3,0-5.4-0.7-7.1-2.2c-1.7-1.5-2.5-3.4-2.5-5.7c0-1,0-2,0.1-3.1
		c0.1-1.1,0.2-2.2,0.6-3.4L71.9,22h-8.6V17z"/>
</g>
<g>
	<g>
		<path class="st0" d="M131.8,22v2.7h-1.9v-8h2.8c0.6,0,1,0.1,1.5,0.2s0.7,0.3,1,0.6c0.3,0.2,0.5,0.5,0.6,0.8c0.1,0.3,0.2,0.7,0.2,1
			c0,0.4-0.1,0.8-0.2,1.1c-0.1,0.3-0.3,0.6-0.6,0.9c-0.3,0.2-0.6,0.4-1,0.6c-0.4,0.1-0.9,0.2-1.4,0.2H131.8z M131.8,20.6h1
			c0.5,0,0.8-0.1,1-0.3c0.2-0.2,0.3-0.6,0.3-1c0-0.2,0-0.4-0.1-0.5c-0.1-0.1-0.1-0.3-0.2-0.4c-0.1-0.1-0.3-0.2-0.4-0.2
			s-0.4-0.1-0.6-0.1h-1V20.6z"/>
		<path class="st0" d="M139.4,21.7v3h-1.9v-8h2.6c0.6,0,1.1,0.1,1.5,0.2c0.4,0.1,0.7,0.3,1,0.5c0.3,0.2,0.4,0.5,0.6,0.8
			c0.1,0.3,0.2,0.6,0.2,0.9c0,0.3,0,0.5-0.1,0.7c-0.1,0.2-0.2,0.4-0.3,0.6c-0.1,0.2-0.3,0.4-0.5,0.5c-0.2,0.2-0.4,0.3-0.7,0.4
			c0.1,0.1,0.2,0.1,0.3,0.2s0.2,0.2,0.3,0.3l1.7,2.8h-1.7c-0.3,0-0.5-0.1-0.7-0.4l-1.3-2.3c-0.1-0.1-0.1-0.2-0.2-0.2
			c-0.1,0-0.2-0.1-0.3-0.1H139.4z M139.4,20.5h0.7c0.3,0,0.5,0,0.6-0.1c0.2-0.1,0.3-0.2,0.4-0.3c0.1-0.1,0.2-0.2,0.2-0.4
			c0.1-0.2,0.1-0.3,0.1-0.5c0-0.4-0.1-0.6-0.3-0.8c-0.2-0.2-0.6-0.3-1.1-0.3h-0.7V20.5z"/>
		<path class="st0" d="M153,20.7c0,0.6-0.1,1.1-0.3,1.6c-0.2,0.5-0.5,0.9-0.8,1.3s-0.8,0.7-1.3,0.9s-1.1,0.3-1.7,0.3
			s-1.2-0.1-1.7-0.3s-1-0.5-1.3-0.9s-0.6-0.8-0.8-1.3c-0.2-0.5-0.3-1-0.3-1.6c0-0.6,0.1-1.1,0.3-1.6c0.2-0.5,0.5-0.9,0.8-1.3
			c0.4-0.4,0.8-0.7,1.3-0.9s1.1-0.3,1.7-0.3s1.2,0.1,1.7,0.3s0.9,0.5,1.3,0.9s0.6,0.8,0.8,1.3C152.9,19.6,153,20.1,153,20.7z
			 M151.1,20.7c0-0.4-0.1-0.8-0.2-1.1s-0.2-0.6-0.4-0.8c-0.2-0.2-0.4-0.4-0.7-0.5c-0.3-0.1-0.6-0.2-1-0.2c-0.4,0-0.7,0.1-1,0.2
			c-0.3,0.1-0.5,0.3-0.7,0.5c-0.2,0.2-0.3,0.5-0.4,0.8s-0.2,0.7-0.2,1.1c0,0.4,0.1,0.8,0.2,1.1c0.1,0.3,0.2,0.6,0.4,0.8
			c0.2,0.2,0.4,0.4,0.7,0.5c0.3,0.1,0.6,0.2,1,0.2c0.4,0,0.7-0.1,1-0.2c0.3-0.1,0.5-0.3,0.7-0.5c0.2-0.2,0.3-0.5,0.4-0.8
			C151,21.5,151.1,21.1,151.1,20.7z"/>
		<path class="st0" d="M159.6,16.7v1.4h-3.3v2h2.7v1.4h-2.7v3.1h-1.9v-8H159.6z"/>
		<path class="st0" d="M159.8,23.8c0-0.1,0-0.3,0.1-0.4c0-0.1,0.1-0.2,0.2-0.3c0.1-0.1,0.2-0.2,0.3-0.2c0.1,0,0.2-0.1,0.4-0.1
			c0.1,0,0.3,0,0.4,0.1c0.1,0,0.2,0.1,0.3,0.2c0.1,0.1,0.2,0.2,0.2,0.3c0,0.1,0.1,0.2,0.1,0.4s0,0.3-0.1,0.4c0,0.1-0.1,0.2-0.2,0.3
			s-0.2,0.2-0.3,0.2c-0.1,0-0.2,0.1-0.4,0.1c-0.1,0-0.3,0-0.4-0.1c-0.1,0-0.2-0.1-0.3-0.2c-0.1-0.1-0.2-0.2-0.2-0.3
			S159.8,24,159.8,23.8z"/>
		<path class="st0" d="M137.2,34.7c0,0.6-0.1,1.1-0.3,1.6c-0.2,0.5-0.5,0.9-0.8,1.3s-0.8,0.6-1.3,0.8c-0.5,0.2-1.1,0.3-1.7,0.3h-3.1
			v-8h3.1c0.6,0,1.2,0.1,1.7,0.3c0.5,0.2,0.9,0.5,1.3,0.8s0.6,0.8,0.8,1.3C137.1,33.6,137.2,34.1,137.2,34.7z M135.3,34.7
			c0-0.4-0.1-0.8-0.2-1.1s-0.2-0.6-0.4-0.8c-0.2-0.2-0.4-0.4-0.7-0.5s-0.6-0.2-1-0.2h-1.2v5.2h1.2c0.4,0,0.7-0.1,1-0.2
			s0.5-0.3,0.7-0.5c0.2-0.2,0.3-0.5,0.4-0.8S135.3,35.1,135.3,34.7z"/>
		<path class="st0" d="M140.5,35.7v3h-1.9v-8h2.6c0.6,0,1.1,0.1,1.5,0.2c0.4,0.1,0.7,0.3,1,0.5c0.3,0.2,0.4,0.5,0.6,0.8
			c0.1,0.3,0.2,0.6,0.2,0.9c0,0.3,0,0.5-0.1,0.7c-0.1,0.2-0.2,0.4-0.3,0.6c-0.1,0.2-0.3,0.4-0.5,0.5c-0.2,0.2-0.4,0.3-0.7,0.4
			c0.1,0.1,0.2,0.1,0.3,0.2s0.2,0.2,0.3,0.3l1.7,2.8h-1.7c-0.3,0-0.5-0.1-0.7-0.4l-1.3-2.3c-0.1-0.1-0.1-0.2-0.2-0.2
			c-0.1,0-0.2-0.1-0.3-0.1H140.5z M140.5,34.5h0.7c0.3,0,0.5,0,0.6-0.1c0.2-0.1,0.3-0.2,0.4-0.3c0.1-0.1,0.2-0.2,0.2-0.4
			c0.1-0.2,0.1-0.3,0.1-0.5c0-0.4-0.1-0.6-0.3-0.8c-0.2-0.2-0.6-0.3-1.1-0.3h-0.7V34.5z"/>
		<path class="st0" d="M146.2,37.8c0-0.1,0-0.3,0.1-0.4c0-0.1,0.1-0.2,0.2-0.3c0.1-0.1,0.2-0.2,0.3-0.2c0.1,0,0.2-0.1,0.4-0.1
			c0.1,0,0.3,0,0.4,0.1c0.1,0,0.2,0.1,0.3,0.2c0.1,0.1,0.2,0.2,0.2,0.3c0,0.1,0.1,0.2,0.1,0.4s0,0.3-0.1,0.4c0,0.1-0.1,0.2-0.2,0.3
			s-0.2,0.2-0.3,0.2c-0.1,0-0.2,0.1-0.4,0.1c-0.1,0-0.3,0-0.4-0.1c-0.1,0-0.2-0.1-0.3-0.2c-0.1-0.1-0.2-0.2-0.2-0.3
			S146.2,38,146.2,37.8z"/>
		<path class="st0" d="M131.8,50v2.7h-1.9v-8h2.8c0.6,0,1,0.1,1.5,0.2s0.7,0.3,1,0.6c0.3,0.2,0.5,0.5,0.6,0.8c0.1,0.3,0.2,0.7,0.2,1
			c0,0.4-0.1,0.8-0.2,1.1c-0.1,0.3-0.3,0.6-0.6,0.9c-0.3,0.2-0.6,0.4-1,0.6c-0.4,0.1-0.9,0.2-1.4,0.2H131.8z M131.8,48.6h1
			c0.5,0,0.8-0.1,1-0.3c0.2-0.2,0.3-0.6,0.3-1c0-0.2,0-0.4-0.1-0.5c-0.1-0.1-0.1-0.3-0.2-0.4c-0.1-0.1-0.3-0.2-0.4-0.2
			s-0.4-0.1-0.6-0.1h-1V48.6z"/>
		<path class="st0" d="M142.7,44.7v1.4h-3.3V48h2.5v1.4h-2.5v1.9h3.3v1.4h-5.2v-8H142.7z"/>
		<path class="st0" d="M150.1,44.7v1.5h-2.3v6.5H146v-6.5h-2.3v-1.5H150.1z"/>
		<path class="st0" d="M156.6,44.7v1.4h-3.3V48h2.5v1.4h-2.5v1.9h3.3v1.4h-5.2v-8H156.6z"/>
		<path class="st0" d="M160,49.7v3h-1.9v-8h2.6c0.6,0,1.1,0.1,1.5,0.2c0.4,0.1,0.7,0.3,1,0.5c0.3,0.2,0.4,0.5,0.6,0.8
			c0.1,0.3,0.2,0.6,0.2,0.9c0,0.3,0,0.5-0.1,0.7c-0.1,0.2-0.2,0.4-0.3,0.6c-0.1,0.2-0.3,0.4-0.5,0.5c-0.2,0.2-0.4,0.3-0.7,0.4
			c0.1,0.1,0.2,0.1,0.3,0.2s0.2,0.2,0.3,0.3l1.7,2.8H163c-0.3,0-0.5-0.1-0.7-0.4L161,50c-0.1-0.1-0.1-0.2-0.2-0.2
			c-0.1,0-0.2-0.1-0.3-0.1H160z M160,48.5h0.7c0.3,0,0.5,0,0.6-0.1c0.2-0.1,0.3-0.2,0.4-0.3c0.1-0.1,0.2-0.2,0.2-0.4
			c0.1-0.2,0.1-0.3,0.1-0.5c0-0.4-0.1-0.6-0.3-0.8c-0.2-0.2-0.6-0.3-1.1-0.3H160V48.5z"/>
		<path class="st0" d="M135.7,58.7v1.5h-2.3v6.5h-1.9v-6.5h-2.3v-1.5H135.7z"/>
		<path class="st0" d="M138.9,63.7v3h-1.9v-8h2.6c0.6,0,1.1,0.1,1.5,0.2c0.4,0.1,0.7,0.3,1,0.5c0.3,0.2,0.4,0.5,0.6,0.8
			c0.1,0.3,0.2,0.6,0.2,0.9c0,0.3,0,0.5-0.1,0.7c-0.1,0.2-0.2,0.4-0.3,0.6c-0.1,0.2-0.3,0.4-0.5,0.5c-0.2,0.2-0.4,0.3-0.7,0.4
			c0.1,0.1,0.2,0.1,0.3,0.2s0.2,0.2,0.3,0.3l1.7,2.8h-1.7c-0.3,0-0.5-0.1-0.7-0.4l-1.3-2.3c-0.1-0.1-0.1-0.2-0.2-0.2
			c-0.1,0-0.2-0.1-0.3-0.1H138.9z M138.9,62.5h0.7c0.3,0,0.5,0,0.6-0.1c0.2-0.1,0.3-0.2,0.4-0.3c0.1-0.1,0.2-0.2,0.2-0.4
			c0.1-0.2,0.1-0.3,0.1-0.5c0-0.4-0.1-0.6-0.3-0.8c-0.2-0.2-0.6-0.3-1.1-0.3h-0.7V62.5z"/>
		<path class="st0" d="M147.9,65.2c0.2,0,0.5,0,0.7-0.1c0.2-0.1,0.4-0.2,0.5-0.4c0.1-0.2,0.2-0.3,0.3-0.6c0.1-0.2,0.1-0.5,0.1-0.8
			v-4.7h1.9v4.7c0,0.5-0.1,0.9-0.2,1.4c-0.2,0.4-0.4,0.8-0.7,1.1s-0.7,0.5-1.1,0.7c-0.4,0.2-0.9,0.2-1.4,0.2c-0.5,0-1-0.1-1.4-0.2
			c-0.4-0.2-0.8-0.4-1.1-0.7s-0.5-0.7-0.7-1.1c-0.2-0.4-0.2-0.9-0.2-1.4v-4.7h1.9v4.7c0,0.3,0,0.5,0.1,0.8c0.1,0.2,0.2,0.4,0.3,0.6
			c0.1,0.2,0.3,0.3,0.5,0.4C147.5,65.2,147.7,65.2,147.9,65.2z M147.6,57.5c0,0.1,0,0.2-0.1,0.3s-0.1,0.2-0.2,0.3
			c-0.1,0.1-0.2,0.1-0.3,0.2c-0.1,0-0.2,0.1-0.3,0.1c-0.1,0-0.2,0-0.3-0.1c-0.1,0-0.2-0.1-0.3-0.2s-0.1-0.2-0.2-0.3
			s-0.1-0.2-0.1-0.3c0-0.1,0-0.2,0.1-0.3c0-0.1,0.1-0.2,0.2-0.3c0.1-0.1,0.2-0.1,0.3-0.2c0.1,0,0.2-0.1,0.3-0.1c0.1,0,0.2,0,0.3,0.1
			c0.1,0,0.2,0.1,0.3,0.2c0.1,0.1,0.1,0.2,0.2,0.3C147.6,57.3,147.6,57.4,147.6,57.5z M150,57.5c0,0.1,0,0.2-0.1,0.3
			s-0.1,0.2-0.2,0.3c-0.1,0.1-0.2,0.1-0.3,0.2s-0.2,0.1-0.3,0.1s-0.2,0-0.3-0.1s-0.2-0.1-0.3-0.2c-0.1-0.1-0.1-0.2-0.2-0.3
			s-0.1-0.2-0.1-0.3c0-0.1,0-0.2,0.1-0.3c0-0.1,0.1-0.2,0.2-0.3c0.1-0.1,0.2-0.1,0.3-0.2s0.2-0.1,0.3-0.1s0.2,0,0.3,0.1
			s0.2,0.1,0.3,0.2c0.1,0.1,0.1,0.2,0.2,0.3C150,57.3,150,57.4,150,57.5z"/>
		<path class="st0" d="M153.1,66.7v-8h2.9c0.6,0,1,0.1,1.4,0.2s0.7,0.2,1,0.4c0.2,0.2,0.4,0.4,0.5,0.7c0.1,0.3,0.2,0.6,0.2,0.9
			c0,0.2,0,0.4-0.1,0.5c-0.1,0.2-0.1,0.3-0.2,0.5c-0.1,0.1-0.3,0.3-0.4,0.4c-0.2,0.1-0.4,0.2-0.6,0.3c0.5,0.1,0.9,0.3,1.2,0.6
			s0.4,0.7,0.4,1.1c0,0.3-0.1,0.7-0.2,1s-0.3,0.5-0.6,0.8c-0.3,0.2-0.6,0.4-0.9,0.5c-0.4,0.1-0.8,0.2-1.3,0.2H153.1z M155,62.1h1
			c0.2,0,0.4,0,0.6,0c0.2,0,0.3-0.1,0.4-0.2c0.1-0.1,0.2-0.2,0.3-0.3c0.1-0.1,0.1-0.3,0.1-0.5c0-0.2,0-0.3-0.1-0.5
			c0-0.1-0.1-0.2-0.2-0.3c-0.1-0.1-0.2-0.1-0.4-0.2s-0.3,0-0.5,0H155V62.1z M155,63.3v2h1.3c0.2,0,0.4,0,0.6-0.1
			c0.2-0.1,0.3-0.1,0.4-0.2c0.1-0.1,0.1-0.2,0.2-0.3c0-0.1,0-0.3,0-0.4c0-0.1,0-0.3-0.1-0.4c0-0.1-0.1-0.2-0.2-0.3
			c-0.1-0.1-0.2-0.1-0.4-0.2c-0.2,0-0.3-0.1-0.6-0.1H155z"/>
		<path class="st0" d="M162.1,58.7c0.1,0,0.1,0,0.1,0c0,0,0.1,0,0.1,0.1c0,0,0.1,0.1,0.1,0.1l3.8,4.8c0-0.2,0-0.3,0-0.4
			c0-0.1,0-0.3,0-0.4v-4.2h1.6v8h-1c-0.1,0-0.3,0-0.4-0.1c-0.1,0-0.2-0.1-0.3-0.2l-3.8-4.8c0,0.1,0,0.3,0,0.4c0,0.1,0,0.3,0,0.4v4.3
			h-1.6v-8h1C162,58.7,162,58.7,162.1,58.7z"/>
		<path class="st0" d="M174.9,58.7v1.4h-3.3V62h2.5v1.4h-2.5v1.9h3.3v1.4h-5.2v-8H174.9z"/>
		<path class="st0" d="M178.4,63.7v3h-1.9v-8h2.6c0.6,0,1.1,0.1,1.5,0.2c0.4,0.1,0.7,0.3,1,0.5c0.3,0.2,0.4,0.5,0.6,0.8
			c0.1,0.3,0.2,0.6,0.2,0.9c0,0.3,0,0.5-0.1,0.7c-0.1,0.2-0.2,0.4-0.3,0.6c-0.1,0.2-0.3,0.4-0.5,0.5c-0.2,0.2-0.4,0.3-0.7,0.4
			c0.1,0.1,0.2,0.1,0.3,0.2s0.2,0.2,0.3,0.3l1.7,2.8h-1.7c-0.3,0-0.5-0.1-0.7-0.4l-1.3-2.3c-0.1-0.1-0.1-0.2-0.2-0.2
			c-0.1,0-0.2-0.1-0.3-0.1H178.4z M178.4,62.5h0.7c0.3,0,0.5,0,0.6-0.1c0.2-0.1,0.3-0.2,0.4-0.3c0.1-0.1,0.2-0.2,0.2-0.4
			c0.1-0.2,0.1-0.3,0.1-0.5c0-0.4-0.1-0.6-0.3-0.8c-0.2-0.2-0.6-0.3-1.1-0.3h-0.7V62.5z"/>
	</g>
</g>
<rect x="110" width="1" height="85"/>
</svg>
