<?xml version="1.0" encoding="utf-8"?>
<!-- Generator: Adobe Illustrator 24.2.0, SVG Export Plug-In . SVG Version: 6.00 Build 0)  -->
<svg version="1.1" id="Ebene_1" xmlns="http://www.w3.org/2000/svg" xmlns:xlink="http://www.w3.org/1999/xlink" x="0px" y="0px"
	 viewBox="0 0 180 85" style="enable-background:new 0 0 180 85;" xml:space="preserve">
<style type="text/css">
	.st0{fill:#305596;}
	.st1{fill:none;}
	.st2{fill:#FFFFFF;}
</style>
<g>
	<g>
		<path class="st0" d="M-148.7-273.4v2.7h-1.9v-8h2.8c0.6,0,1,0.1,1.5,0.2c0.5,0.1,0.7,0.3,1,0.6c0.3,0.2,0.5,0.5,0.6,0.8
			c0.1,0.3,0.2,0.7,0.2,1c0,0.4-0.1,0.8-0.2,1.1c-0.1,0.3-0.3,0.6-0.6,0.9c-0.3,0.2-0.6,0.4-1,0.6c-0.4,0.1-0.9,0.2-1.4,0.2h-1
			L-148.7-273.4L-148.7-273.4z M-148.7-274.8h1c0.5,0,0.8-0.1,1-0.3c0.2-0.2,0.3-0.6,0.3-1c0-0.2,0-0.4-0.1-0.5
			c-0.1-0.1-0.1-0.3-0.2-0.4c-0.1-0.1-0.3-0.2-0.4-0.2s-0.4-0.1-0.6-0.1h-1V-274.8z"/>
		<path class="st0" d="M-141.1-273.7v3h-1.9v-8h2.6c0.6,0,1.1,0.1,1.5,0.2s0.7,0.3,1,0.5c0.3,0.2,0.4,0.5,0.6,0.8
			c0.1,0.3,0.2,0.6,0.2,0.9c0,0.3,0,0.5-0.1,0.7c-0.1,0.2-0.2,0.4-0.3,0.6c-0.1,0.2-0.3,0.4-0.5,0.5c-0.2,0.2-0.4,0.3-0.7,0.4
			c0.1,0.1,0.2,0.1,0.3,0.2s0.2,0.2,0.3,0.3l1.7,2.8h-1.7c-0.3,0-0.5-0.1-0.7-0.4l-1.3-2.3c-0.1-0.1-0.1-0.2-0.2-0.2
			c-0.1,0-0.2-0.1-0.3-0.1h-0.5L-141.1-273.7L-141.1-273.7z M-141.1-275h0.7c0.3,0,0.5,0,0.6-0.1c0.2-0.1,0.3-0.2,0.4-0.3
			c0.1-0.1,0.2-0.2,0.2-0.4c0.1-0.2,0.1-0.3,0.1-0.5c0-0.4-0.1-0.6-0.3-0.8c-0.2-0.2-0.6-0.3-1.1-0.3h-0.7v2.4
			C-141.2-275-141.1-275-141.1-275z"/>
		<path class="st0" d="M-127.5-274.8c0,0.6-0.1,1.1-0.3,1.6s-0.5,0.9-0.8,1.3s-0.8,0.7-1.3,0.9c-0.5,0.2-1.1,0.3-1.7,0.3
			s-1.2-0.1-1.7-0.3c-0.5-0.2-1-0.5-1.3-0.9s-0.6-0.8-0.8-1.3s-0.3-1-0.3-1.6s0.1-1.1,0.3-1.6s0.5-0.9,0.8-1.3
			c0.4-0.4,0.8-0.7,1.3-0.9c0.5-0.2,1.1-0.3,1.7-0.3s1.2,0.1,1.7,0.3c0.5,0.2,0.9,0.5,1.3,0.9c0.4,0.4,0.6,0.8,0.8,1.3
			C-127.6-275.9-127.5-275.4-127.5-274.8z M-129.4-274.8c0-0.4-0.1-0.8-0.2-1.1s-0.2-0.6-0.4-0.8c-0.2-0.2-0.4-0.4-0.7-0.5
			c-0.3-0.1-0.6-0.2-1-0.2s-0.7,0.1-1,0.2c-0.3,0.1-0.5,0.3-0.7,0.5c-0.2,0.2-0.3,0.5-0.4,0.8s-0.2,0.7-0.2,1.1s0.1,0.8,0.2,1.1
			c0.1,0.3,0.2,0.6,0.4,0.8s0.4,0.4,0.7,0.5s0.6,0.2,1,0.2s0.7-0.1,1-0.2s0.5-0.3,0.7-0.5s0.3-0.5,0.4-0.8
			C-129.4-274-129.4-274.4-129.4-274.8z"/>
		<path class="st0" d="M-120.9-278.8v1.4h-3.3v2h2.7v1.4h-2.7v3.1h-1.9v-8h5.2V-278.8z"/>
		<path class="st0" d="M-120.7-271.6c0-0.1,0-0.3,0.1-0.4c0-0.1,0.1-0.2,0.2-0.3c0.1-0.1,0.2-0.2,0.3-0.2s0.2-0.1,0.4-0.1
			c0.1,0,0.3,0,0.4,0.1c0.1,0,0.2,0.1,0.3,0.2s0.2,0.2,0.2,0.3c0,0.1,0.1,0.2,0.1,0.4c0,0.2,0,0.3-0.1,0.4c0,0.1-0.1,0.2-0.2,0.3
			s-0.2,0.2-0.3,0.2s-0.2,0.1-0.4,0.1c-0.1,0-0.3,0-0.4-0.1c-0.1,0-0.2-0.1-0.3-0.2s-0.2-0.2-0.2-0.3
			C-120.6-271.3-120.7-271.5-120.7-271.6z"/>
		<path class="st0" d="M-143.3-260.8c0,0.6-0.1,1.1-0.3,1.6s-0.5,0.9-0.8,1.3s-0.8,0.6-1.3,0.8c-0.5,0.2-1.1,0.3-1.7,0.3h-3.1v-8
			h3.1c0.6,0,1.2,0.1,1.7,0.3c0.5,0.2,0.9,0.5,1.3,0.8c0.4,0.3,0.6,0.8,0.8,1.3S-143.3-261.4-143.3-260.8z M-145.2-260.8
			c0-0.4-0.1-0.8-0.2-1.1s-0.2-0.6-0.4-0.8c-0.2-0.2-0.4-0.4-0.7-0.5c-0.3-0.1-0.6-0.2-1-0.2h-1.2v5.2h1.2c0.4,0,0.7-0.1,1-0.2
			s0.5-0.3,0.7-0.5s0.3-0.5,0.4-0.8C-145.3-260-145.2-260.4-145.2-260.8z"/>
		<path class="st0" d="M-140-259.7v3h-1.9v-8h2.6c0.6,0,1.1,0.1,1.5,0.2c0.4,0.1,0.7,0.3,1,0.5c0.3,0.2,0.4,0.5,0.6,0.8
			c0.1,0.3,0.2,0.6,0.2,0.9c0,0.3,0,0.5-0.1,0.7c-0.1,0.2-0.2,0.4-0.3,0.6c-0.1,0.2-0.3,0.4-0.5,0.5c-0.2,0.2-0.4,0.3-0.7,0.4
			c0.1,0.1,0.2,0.1,0.3,0.2s0.2,0.2,0.3,0.3l1.7,2.8h-1.7c-0.3,0-0.5-0.1-0.7-0.4l-1.3-2.3c-0.1-0.1-0.1-0.2-0.2-0.2
			c-0.1,0-0.2-0.1-0.3-0.1L-140-259.7L-140-259.7z M-140-261h0.7c0.3,0,0.5,0,0.6-0.1c0.2-0.1,0.3-0.2,0.4-0.3
			c0.1-0.1,0.2-0.2,0.2-0.4c0.1-0.2,0.1-0.3,0.1-0.5c0-0.4-0.1-0.6-0.3-0.8c-0.2-0.2-0.6-0.3-1.1-0.3h-0.7v2.4
			C-140.1-261-140-261-140-261z"/>
		<path class="st0" d="M-134.3-257.6c0-0.1,0-0.3,0.1-0.4c0-0.1,0.1-0.2,0.2-0.3c0.1-0.1,0.2-0.2,0.3-0.2s0.2-0.1,0.4-0.1
			c0.1,0,0.3,0,0.4,0.1c0.1,0,0.2,0.1,0.3,0.2s0.2,0.2,0.2,0.3s0.1,0.2,0.1,0.4c0,0.2,0,0.3-0.1,0.4c0,0.1-0.1,0.2-0.2,0.3
			s-0.2,0.2-0.3,0.2s-0.2,0.1-0.4,0.1c-0.1,0-0.3,0-0.4-0.1c-0.1,0-0.2-0.1-0.3-0.2s-0.2-0.2-0.2-0.3
			C-134.2-257.3-134.3-257.5-134.3-257.6z"/>
		<path class="st0" d="M-148.7-245.4v2.7h-1.9v-8h2.8c0.6,0,1,0.1,1.5,0.2c0.5,0.1,0.7,0.3,1,0.6c0.3,0.2,0.5,0.5,0.6,0.8
			s0.2,0.7,0.2,1c0,0.4-0.1,0.8-0.2,1.1c-0.1,0.3-0.3,0.6-0.6,0.9c-0.3,0.2-0.6,0.4-1,0.6c-0.4,0.1-0.9,0.2-1.4,0.2L-148.7-245.4
			L-148.7-245.4z M-148.7-246.8h1c0.5,0,0.8-0.1,1-0.3s0.3-0.6,0.3-1c0-0.2,0-0.4-0.1-0.5c-0.1-0.1-0.1-0.3-0.2-0.4
			c-0.1-0.1-0.3-0.2-0.4-0.2s-0.4-0.1-0.6-0.1h-1V-246.8z"/>
		<path class="st0" d="M-137.8-250.8v1.4h-3.3v1.9h2.5v1.4h-2.5v1.9h3.3v1.4h-5.2v-8C-143-250.8-137.8-250.8-137.8-250.8z"/>
		<path class="st0" d="M-130.4-250.8v1.5h-2.3v6.5h-1.9v-6.5h-2.3v-1.5H-130.4z"/>
		<path class="st0" d="M-123.9-250.8v1.4h-3.3v1.9h2.5v1.4h-2.5v1.9h3.3v1.4h-5.2v-8C-129.1-250.8-123.9-250.8-123.9-250.8z"/>
		<path class="st0" d="M-120.5-245.7v3h-1.9v-8h2.6c0.6,0,1.1,0.1,1.5,0.2c0.4,0.1,0.7,0.3,1,0.5c0.3,0.2,0.4,0.5,0.6,0.8
			c0.1,0.3,0.2,0.6,0.2,0.9s0,0.5-0.1,0.7s-0.2,0.4-0.3,0.6s-0.3,0.4-0.5,0.5c-0.2,0.2-0.4,0.3-0.7,0.4c0.1,0.1,0.2,0.1,0.3,0.2
			c0.1,0.1,0.2,0.2,0.3,0.3l1.7,2.8h-1.7c-0.3,0-0.5-0.1-0.7-0.4l-1.3-2.3c-0.1-0.1-0.1-0.2-0.2-0.2c-0.1,0-0.2-0.1-0.3-0.1
			L-120.5-245.7L-120.5-245.7z M-120.5-247h0.7c0.3,0,0.5,0,0.6-0.1c0.2-0.1,0.3-0.2,0.4-0.3c0.1-0.1,0.2-0.2,0.2-0.4
			c0.1-0.2,0.1-0.3,0.1-0.5c0-0.4-0.1-0.6-0.3-0.8s-0.6-0.3-1.1-0.3h-0.7v2.4C-120.6-247-120.5-247-120.5-247z"/>
		<path class="st0" d="M-144.7-236.8v1.5h-2.3v6.5h-1.9v-6.5h-2.3v-1.5C-151.2-236.8-144.7-236.8-144.7-236.8z"/>
		<path class="st0" d="M-141.6-231.7v3h-1.9v-8h2.6c0.6,0,1.1,0.1,1.5,0.2c0.4,0.1,0.7,0.3,1,0.5c0.3,0.2,0.4,0.5,0.6,0.8
			c0.1,0.3,0.2,0.6,0.2,0.9s0,0.5-0.1,0.7s-0.2,0.4-0.3,0.6s-0.3,0.4-0.5,0.5c-0.2,0.2-0.4,0.3-0.7,0.4c0.1,0.1,0.2,0.1,0.3,0.2
			c0.1,0.1,0.2,0.2,0.3,0.3l1.7,2.8h-1.7c-0.3,0-0.5-0.1-0.7-0.4l-1.3-2.3c-0.1-0.1-0.1-0.2-0.2-0.2c-0.1,0-0.2-0.1-0.3-0.1
			L-141.6-231.7L-141.6-231.7z M-141.6-233h0.7c0.3,0,0.5,0,0.6-0.1c0.2-0.1,0.3-0.2,0.4-0.3c0.1-0.1,0.2-0.2,0.2-0.4
			c0.1-0.2,0.1-0.3,0.1-0.5c0-0.4-0.1-0.6-0.3-0.8s-0.6-0.3-1.1-0.3h-0.7v2.4C-141.7-233-141.6-233-141.6-233z"/>
		<path class="st0" d="M-132.5-230.2c0.2,0,0.5,0,0.7-0.1c0.2-0.1,0.4-0.2,0.5-0.4c0.1-0.2,0.2-0.3,0.3-0.6c0.1-0.3,0.1-0.5,0.1-0.8
			v-4.7h1.9v4.7c0,0.5-0.1,0.9-0.2,1.4c-0.2,0.4-0.4,0.8-0.7,1.1c-0.3,0.3-0.7,0.5-1.1,0.7c-0.4,0.2-0.9,0.2-1.4,0.2s-1-0.1-1.4-0.2
			c-0.4-0.2-0.8-0.4-1.1-0.7c-0.3-0.3-0.5-0.7-0.7-1.1c-0.2-0.4-0.2-0.9-0.2-1.4v-4.7h1.9v4.7c0,0.3,0,0.5,0.1,0.8
			c0.1,0.2,0.2,0.4,0.3,0.6s0.3,0.3,0.5,0.4C-133-230.3-132.8-230.2-132.5-230.2z M-132.9-237.9c0,0.1,0,0.2-0.1,0.3
			c-0.1,0.1-0.1,0.2-0.2,0.3c-0.1,0.1-0.2,0.1-0.3,0.2c-0.1,0-0.2,0.1-0.3,0.1s-0.2,0-0.3-0.1c-0.1,0-0.2-0.1-0.3-0.2
			c-0.1-0.1-0.1-0.2-0.2-0.3c-0.1-0.1-0.1-0.2-0.1-0.3c0-0.1,0-0.2,0.1-0.3c0-0.1,0.1-0.2,0.2-0.3c0.1-0.1,0.2-0.1,0.3-0.2
			c0.1,0,0.2-0.1,0.3-0.1s0.2,0,0.3,0.1c0.1,0,0.2,0.1,0.3,0.2c0.1,0.1,0.1,0.2,0.2,0.3C-132.9-238.2-132.9-238.1-132.9-237.9z
			 M-130.5-237.9c0,0.1,0,0.2-0.1,0.3c-0.1,0.1-0.1,0.2-0.2,0.3c-0.1,0.1-0.2,0.1-0.3,0.2s-0.2,0.1-0.3,0.1s-0.2,0-0.3-0.1
			c-0.1-0.1-0.2-0.1-0.3-0.2c-0.1-0.1-0.1-0.2-0.2-0.3c-0.1-0.1-0.1-0.2-0.1-0.3c0-0.1,0-0.2,0.1-0.3c0-0.1,0.1-0.2,0.2-0.3
			c0.1-0.1,0.2-0.1,0.3-0.2c0.1-0.1,0.2-0.1,0.3-0.1s0.2,0,0.3,0.1c0.1,0.1,0.2,0.1,0.3,0.2c0.1,0.1,0.1,0.2,0.2,0.3
			C-130.5-238.2-130.5-238.1-130.5-237.9z"/>
		<path class="st0" d="M-127.3-228.8v-8h2.9c0.6,0,1,0.1,1.4,0.2s0.7,0.2,1,0.4c0.2,0.2,0.4,0.4,0.5,0.7s0.2,0.6,0.2,0.9
			c0,0.2,0,0.4-0.1,0.5c-0.1,0.2-0.1,0.3-0.2,0.5c-0.1,0.1-0.3,0.3-0.4,0.4c-0.2,0.1-0.4,0.2-0.6,0.3c0.5,0.1,0.9,0.3,1.2,0.6
			s0.4,0.7,0.4,1.1c0,0.3-0.1,0.7-0.2,1s-0.3,0.5-0.6,0.8c-0.3,0.2-0.6,0.4-0.9,0.5c-0.4,0.1-0.8,0.2-1.3,0.2h-3.3L-127.3-228.8
			L-127.3-228.8z M-125.5-233.4h1c0.2,0,0.4,0,0.6,0c0.2,0,0.3-0.1,0.4-0.2c0.1-0.1,0.2-0.2,0.3-0.3c0.1-0.1,0.1-0.3,0.1-0.5
			s0-0.3-0.1-0.5c0-0.1-0.1-0.2-0.2-0.3c-0.1-0.1-0.2-0.1-0.4-0.2s-0.3,0-0.5,0h-1.1v2H-125.5z M-125.5-232.2v2h1.3
			c0.2,0,0.4,0,0.6-0.1c0.2-0.1,0.3-0.1,0.4-0.2c0.1-0.1,0.1-0.2,0.2-0.3c0-0.1,0-0.3,0-0.4c0-0.1,0-0.3-0.1-0.4
			c0-0.1-0.1-0.2-0.2-0.3c-0.1-0.1-0.2-0.1-0.4-0.2c-0.2,0-0.3-0.1-0.6-0.1C-124.3-232.2-125.5-232.2-125.5-232.2z"/>
		<path class="st0" d="M-118.4-236.8c0.1,0,0.1,0,0.1,0s0.1,0,0.1,0.1l0.1,0.1l3.8,4.8c0-0.2,0-0.3,0-0.4s0-0.3,0-0.4v-4.2h1.6v8h-1
			c-0.1,0-0.3,0-0.4-0.1c-0.1,0-0.2-0.1-0.3-0.2l-3.8-4.8c0,0.1,0,0.3,0,0.4s0,0.3,0,0.4v4.3h-1.6v-8h1
			C-118.5-236.8-118.4-236.8-118.4-236.8z"/>
		<path class="st0" d="M-105.5-236.8v1.4h-3.3v1.9h2.5v1.4h-2.5v1.9h3.3v1.4h-5.2v-8C-110.7-236.8-105.5-236.8-105.5-236.8z"/>
		<path class="st0" d="M-102.1-231.7v3h-1.8v-8h2.6c0.6,0,1.1,0.1,1.5,0.2c0.4,0.1,0.7,0.3,1,0.5c0.3,0.2,0.4,0.5,0.6,0.8
			c0.1,0.3,0.2,0.6,0.2,0.9s0,0.5-0.1,0.7s-0.2,0.4-0.3,0.6s-0.3,0.4-0.5,0.5c-0.2,0.2-0.4,0.3-0.7,0.4c0.1,0.1,0.2,0.1,0.3,0.2
			c0.1,0.1,0.2,0.2,0.3,0.3l1.7,2.8H-99c-0.3,0-0.5-0.1-0.7-0.4l-1.3-2.3c-0.1-0.1-0.1-0.2-0.2-0.2c-0.1,0-0.2-0.1-0.3-0.1
			L-102.1-231.7L-102.1-231.7z M-102.1-233h0.7c0.3,0,0.5,0,0.6-0.1c0.2-0.1,0.3-0.2,0.4-0.3c0.1-0.1,0.2-0.2,0.2-0.4
			c0.1-0.2,0.1-0.3,0.1-0.5c0-0.4-0.1-0.6-0.3-0.8s-0.6-0.3-1.1-0.3h-0.7v2.4C-102.2-233-102.1-233-102.1-233z"/>
	</g>
</g>
<g>
	<line class="st1" x1="-169.6" y1="-296" x2="-169.6" y2="-211"/>
	<rect x="-170.1" y="-296" width="1" height="85"/>
</g>
<g>
	<path d="M-267.8-80.2h6.9v4.6h-17.3l14-62.4h-6.3v-5h16.6l-2.4,9.6h0.4c1-1.4,2.1-2.7,3.3-4c1.2-1.3,2.6-2.4,4.1-3.4
		s3.1-1.8,4.9-2.3c1.8-0.6,3.6-0.8,5.7-0.8c3.4,0,6.3,1.2,8.5,3.5c2.2,2.3,3.3,6,3.3,11.1c0,4.7-0.8,9.2-2.3,13.6
		c-1.5,4.3-3.7,8.2-6.3,11.5c-2.7,3.3-5.8,6-9.4,8c-3.6,2-7.5,3-11.6,3c-1.1,0-2.1,0-2.9-0.1c-0.8-0.1-1.5-0.2-2.1-0.3
		c-0.6-0.2-1.2-0.3-1.8-0.5c-0.6-0.2-1.2-0.4-1.9-0.7L-267.8-80.2z M-242.8-137.9c-1.7,0-3.4,0.4-4.9,1.1c-1.6,0.7-3,1.7-4.2,2.7
		c-1.3,1.1-2.4,2.3-3.3,3.5c-0.9,1.3-1.6,2.5-2,3.6l-6,27.4c0.4,0.4,0.9,0.7,1.3,1c0.4,0.3,1,0.5,1.6,0.6s1.3,0.2,2.1,0.3
		c0.8,0.1,1.8,0.1,3,0.1c2.6,0,5.2-0.9,7.5-2.8c2.3-1.9,4.4-4.3,6.2-7.2c1.8-2.9,3.2-6.2,4.3-9.9c1.1-3.7,1.6-7.3,1.6-10.8
		c0-3.1-0.6-5.5-1.8-7.2C-238.6-137.2-240.5-137.9-242.8-137.9z"/>
	<path d="M-217.1-143h9.9l2.7-10.7h8.6l-2.5,10.7h12.6v5h-13.6l-7.3,28.1c-0.3,1.2-0.5,2.4-0.7,3.3c-0.1,1-0.2,2-0.2,3.1
		c0,2.9,1.6,4.3,4.9,4.3c1.7,0,3.6-0.4,5.7-1.2c2.1-0.8,4-1.9,5.6-3.3l2,3.7c-0.7,0.7-1.6,1.5-2.8,2.3c-1.2,0.8-2.6,1.5-4.1,2.2
		c-1.6,0.7-3.3,1.2-5.1,1.6c-1.9,0.4-3.8,0.6-5.8,0.6c-3,0-5.4-0.7-7.1-2.2s-2.5-3.4-2.5-5.7c0-1,0-2,0.1-3.1
		c0.1-1.1,0.2-2.2,0.6-3.4l7.6-30.3h-8.6C-217.1-138-217.1-143-217.1-143z"/>
</g>
<g>
	<g>
		<path class="st0" d="M-148.7-137.9v2.7h-1.9v-8h2.8c0.6,0,1,0.1,1.5,0.2s0.7,0.3,1,0.6c0.3,0.2,0.5,0.5,0.6,0.8
			c0.1,0.3,0.2,0.7,0.2,1c0,0.4-0.1,0.8-0.2,1.1c-0.1,0.3-0.3,0.6-0.6,0.9c-0.3,0.2-0.6,0.4-1,0.6c-0.4,0.1-0.9,0.2-1.4,0.2h-1
			L-148.7-137.9L-148.7-137.9z M-148.7-139.3h1c0.5,0,0.8-0.1,1-0.3s0.3-0.6,0.3-1c0-0.2,0-0.4-0.1-0.5c-0.1-0.1-0.1-0.3-0.2-0.4
			c-0.1-0.1-0.3-0.2-0.4-0.2s-0.4-0.1-0.6-0.1h-1V-139.3z"/>
		<path class="st0" d="M-141.1-138.2v3h-1.9v-8h2.6c0.6,0,1.1,0.1,1.5,0.2c0.4,0.1,0.7,0.3,1,0.5s0.4,0.5,0.6,0.8
			c0.1,0.3,0.2,0.6,0.2,0.9s0,0.5-0.1,0.7s-0.2,0.4-0.3,0.6s-0.3,0.4-0.5,0.5c-0.2,0.2-0.4,0.3-0.7,0.4c0.1,0.1,0.2,0.1,0.3,0.2
			c0.1,0.1,0.2,0.2,0.3,0.3l1.7,2.8h-1.7c-0.3,0-0.5-0.1-0.7-0.4l-1.3-2.3c-0.1-0.1-0.1-0.2-0.2-0.2c-0.1,0-0.2-0.1-0.3-0.1h-0.5
			L-141.1-138.2L-141.1-138.2z M-141.1-139.5h0.7c0.3,0,0.5,0,0.6-0.1c0.2-0.1,0.3-0.2,0.4-0.3c0.1-0.1,0.2-0.2,0.2-0.4
			c0.1-0.2,0.1-0.3,0.1-0.5c0-0.4-0.1-0.6-0.3-0.8s-0.6-0.3-1.1-0.3h-0.7v2.4C-141.2-139.5-141.1-139.5-141.1-139.5z"/>
		<path class="st0" d="M-127.5-139.3c0,0.6-0.1,1.1-0.3,1.6s-0.5,0.9-0.8,1.3c-0.3,0.4-0.8,0.7-1.3,0.9s-1.1,0.3-1.7,0.3
			s-1.2-0.1-1.7-0.3s-1-0.5-1.3-0.9c-0.3-0.4-0.6-0.8-0.8-1.3s-0.3-1-0.3-1.6s0.1-1.1,0.3-1.6s0.5-0.9,0.8-1.3
			c0.4-0.4,0.8-0.7,1.3-0.9s1.1-0.3,1.7-0.3s1.2,0.1,1.7,0.3s0.9,0.5,1.3,0.9c0.4,0.4,0.6,0.8,0.8,1.3
			C-127.6-140.4-127.5-139.9-127.5-139.3z M-129.4-139.3c0-0.4-0.1-0.8-0.2-1.1s-0.2-0.6-0.4-0.8c-0.2-0.2-0.4-0.4-0.7-0.5
			c-0.3-0.1-0.6-0.2-1-0.2s-0.7,0.1-1,0.2c-0.3,0.1-0.5,0.3-0.7,0.5c-0.2,0.2-0.3,0.5-0.4,0.8c-0.1,0.3-0.2,0.7-0.2,1.1
			s0.1,0.8,0.2,1.1c0.1,0.3,0.2,0.6,0.4,0.8c0.2,0.2,0.4,0.4,0.7,0.5c0.3,0.1,0.6,0.2,1,0.2s0.7-0.1,1-0.2c0.3-0.1,0.5-0.3,0.7-0.5
			c0.2-0.2,0.3-0.5,0.4-0.8C-129.4-138.5-129.4-138.9-129.4-139.3z"/>
		<path class="st0" d="M-120.9-143.3v1.4h-3.3v2h2.7v1.4h-2.7v3.1h-1.9v-8h5.2V-143.3z"/>
		<path class="st0" d="M-120.7-136.1c0-0.1,0-0.3,0.1-0.4c0-0.1,0.1-0.2,0.2-0.3c0.1-0.1,0.2-0.2,0.3-0.2s0.2-0.1,0.4-0.1
			c0.1,0,0.3,0,0.4,0.1c0.1,0,0.2,0.1,0.3,0.2s0.2,0.2,0.2,0.3c0,0.1,0.1,0.2,0.1,0.4s0,0.3-0.1,0.4c0,0.1-0.1,0.2-0.2,0.3
			c-0.1,0.1-0.2,0.2-0.3,0.2s-0.2,0.1-0.4,0.1c-0.1,0-0.3,0-0.4-0.1c-0.1,0-0.2-0.1-0.3-0.2c-0.1-0.1-0.2-0.2-0.2-0.3
			C-120.6-135.8-120.7-136-120.7-136.1z"/>
		<path class="st0" d="M-143.3-125.3c0,0.6-0.1,1.1-0.3,1.6s-0.5,0.9-0.8,1.3c-0.3,0.4-0.8,0.6-1.3,0.8c-0.5,0.2-1.1,0.3-1.7,0.3
			h-3.1v-8h3.1c0.6,0,1.2,0.1,1.7,0.3c0.5,0.2,0.9,0.5,1.3,0.8s0.6,0.8,0.8,1.3C-143.4-126.4-143.3-125.9-143.3-125.3z
			 M-145.2-125.3c0-0.4-0.1-0.8-0.2-1.1c-0.1-0.3-0.2-0.6-0.4-0.8c-0.2-0.2-0.4-0.4-0.7-0.5s-0.6-0.2-1-0.2h-1.2v5.2h1.2
			c0.4,0,0.7-0.1,1-0.2c0.3-0.1,0.5-0.3,0.7-0.5c0.2-0.2,0.3-0.5,0.4-0.8C-145.3-124.5-145.2-124.9-145.2-125.3z"/>
		<path class="st0" d="M-140-124.2v3h-1.9v-8h2.6c0.6,0,1.1,0.1,1.5,0.2s0.7,0.3,1,0.5s0.4,0.5,0.6,0.8c0.1,0.3,0.2,0.6,0.2,0.9
			s0,0.5-0.1,0.7c-0.1,0.2-0.2,0.4-0.3,0.6s-0.3,0.4-0.5,0.5c-0.2,0.2-0.4,0.3-0.7,0.4c0.1,0.1,0.2,0.1,0.3,0.2
			c0.1,0.1,0.2,0.2,0.3,0.3l1.7,2.8h-1.7c-0.3,0-0.5-0.1-0.7-0.4l-1.3-2.3c-0.1-0.1-0.1-0.2-0.2-0.2c-0.1,0-0.2-0.1-0.3-0.1
			L-140-124.2L-140-124.2z M-140-125.5h0.7c0.3,0,0.5,0,0.6-0.1c0.2-0.1,0.3-0.2,0.4-0.3c0.1-0.1,0.2-0.2,0.2-0.4
			c0.1-0.2,0.1-0.3,0.1-0.5c0-0.4-0.1-0.6-0.3-0.8c-0.2-0.2-0.6-0.3-1.1-0.3h-0.7v2.4C-140.1-125.5-140-125.5-140-125.5z"/>
		<path class="st0" d="M-134.3-122.1c0-0.1,0-0.3,0.1-0.4c0-0.1,0.1-0.2,0.2-0.3c0.1-0.1,0.2-0.2,0.3-0.2s0.2-0.1,0.4-0.1
			c0.1,0,0.3,0,0.4,0.1c0.1,0,0.2,0.1,0.3,0.2c0.1,0.1,0.2,0.2,0.2,0.3s0.1,0.2,0.1,0.4c0,0.2,0,0.3-0.1,0.4c0,0.1-0.1,0.2-0.2,0.3
			s-0.2,0.2-0.3,0.2s-0.2,0.1-0.4,0.1c-0.1,0-0.3,0-0.4-0.1c-0.1,0-0.2-0.1-0.3-0.2s-0.2-0.2-0.2-0.3S-134.3-122-134.3-122.1z"/>
		<path class="st0" d="M-148.7-109.9v2.7h-1.9v-8h2.8c0.6,0,1,0.1,1.5,0.2c0.5,0.1,0.7,0.3,1,0.6c0.3,0.2,0.5,0.5,0.6,0.8
			c0.1,0.3,0.2,0.7,0.2,1c0,0.4-0.1,0.8-0.2,1.1c-0.1,0.3-0.3,0.6-0.6,0.9c-0.3,0.2-0.6,0.4-1,0.6c-0.4,0.1-0.9,0.2-1.4,0.2
			L-148.7-109.9L-148.7-109.9z M-148.7-111.3h1c0.5,0,0.8-0.1,1-0.3c0.2-0.2,0.3-0.6,0.3-1c0-0.2,0-0.4-0.1-0.5s-0.1-0.3-0.2-0.4
			c-0.1-0.1-0.3-0.2-0.4-0.2s-0.4-0.1-0.6-0.1h-1V-111.3z"/>
		<path class="st0" d="M-137.8-115.3v1.4h-3.3v1.9h2.5v1.4h-2.5v1.9h3.3v1.4h-5.2v-8C-143-115.3-137.8-115.3-137.8-115.3z"/>
		<path class="st0" d="M-130.4-115.3v1.5h-2.3v6.5h-1.9v-6.5h-2.3v-1.5H-130.4z"/>
		<path class="st0" d="M-123.9-115.3v1.4h-3.3v1.9h2.5v1.4h-2.5v1.9h3.3v1.4h-5.2v-8C-129.1-115.3-123.9-115.3-123.9-115.3z"/>
		<path class="st0" d="M-120.5-110.2v3h-1.9v-8h2.6c0.6,0,1.1,0.1,1.5,0.2c0.4,0.1,0.7,0.3,1,0.5c0.3,0.2,0.4,0.5,0.6,0.8
			c0.1,0.3,0.2,0.6,0.2,0.9s0,0.5-0.1,0.7c-0.1,0.2-0.2,0.4-0.3,0.6s-0.3,0.4-0.5,0.5c-0.2,0.2-0.4,0.3-0.7,0.4
			c0.1,0.1,0.2,0.1,0.3,0.2c0.1,0.1,0.2,0.2,0.3,0.3l1.7,2.8h-1.7c-0.3,0-0.5-0.1-0.7-0.4l-1.3-2.3c-0.1-0.1-0.1-0.2-0.2-0.2
			c-0.1,0-0.2-0.1-0.3-0.1L-120.5-110.2L-120.5-110.2z M-120.5-111.5h0.7c0.3,0,0.5,0,0.6-0.1c0.2-0.1,0.3-0.2,0.4-0.3
			c0.1-0.1,0.2-0.2,0.2-0.4c0.1-0.2,0.1-0.3,0.1-0.5c0-0.4-0.1-0.6-0.3-0.8c-0.2-0.2-0.6-0.3-1.1-0.3h-0.7v2.4
			C-120.6-111.5-120.5-111.5-120.5-111.5z"/>
		<path class="st0" d="M-144.7-101.3v1.5h-2.3v6.5h-1.9v-6.5h-2.3v-1.5C-151.2-101.3-144.7-101.3-144.7-101.3z"/>
		<path class="st0" d="M-141.6-96.2v3h-1.9v-8h2.6c0.6,0,1.1,0.1,1.5,0.2c0.4,0.1,0.7,0.3,1,0.5c0.3,0.2,0.4,0.5,0.6,0.8
			c0.1,0.3,0.2,0.6,0.2,0.9s0,0.5-0.1,0.7c-0.1,0.2-0.2,0.4-0.3,0.6s-0.3,0.4-0.5,0.5c-0.2,0.2-0.4,0.3-0.7,0.4
			c0.1,0.1,0.2,0.1,0.3,0.2s0.2,0.2,0.3,0.3l1.7,2.8h-1.7c-0.3,0-0.5-0.1-0.7-0.4l-1.3-2.3c-0.1-0.1-0.1-0.2-0.2-0.2
			c-0.1,0-0.2-0.1-0.3-0.1L-141.6-96.2L-141.6-96.2z M-141.6-97.5h0.7c0.3,0,0.5,0,0.6-0.1c0.2-0.1,0.3-0.2,0.4-0.3
			c0.1-0.1,0.2-0.2,0.2-0.4c0.1-0.2,0.1-0.3,0.1-0.5c0-0.4-0.1-0.6-0.3-0.8c-0.2-0.2-0.6-0.3-1.1-0.3h-0.7v2.4
			C-141.7-97.5-141.6-97.5-141.6-97.5z"/>
		<path class="st0" d="M-132.5-94.7c0.2,0,0.5,0,0.7-0.1s0.4-0.2,0.5-0.4c0.1-0.2,0.2-0.3,0.3-0.6s0.1-0.5,0.1-0.8v-4.7h1.9v4.7
			c0,0.5-0.1,0.9-0.2,1.4c-0.2,0.4-0.4,0.8-0.7,1.1s-0.7,0.5-1.1,0.7c-0.4,0.2-0.9,0.2-1.4,0.2s-1-0.1-1.4-0.2
			c-0.4-0.2-0.8-0.4-1.1-0.7s-0.5-0.7-0.7-1.1s-0.2-0.9-0.2-1.4v-4.7h1.9v4.7c0,0.3,0,0.5,0.1,0.8c0.1,0.2,0.2,0.4,0.3,0.6
			s0.3,0.3,0.5,0.4C-133-94.8-132.8-94.7-132.5-94.7z M-132.9-102.4c0,0.1,0,0.2-0.1,0.3s-0.1,0.2-0.2,0.3c-0.1,0.1-0.2,0.1-0.3,0.2
			c-0.1,0-0.2,0.1-0.3,0.1s-0.2,0-0.3-0.1c-0.1,0-0.2-0.1-0.3-0.2c-0.1-0.1-0.1-0.2-0.2-0.3s-0.1-0.2-0.1-0.3s0-0.2,0.1-0.3
			c0-0.1,0.1-0.2,0.2-0.3c0.1-0.1,0.2-0.1,0.3-0.2c0.1,0,0.2-0.1,0.3-0.1s0.2,0,0.3,0.1c0.1,0,0.2,0.1,0.3,0.2
			c0.1,0.1,0.1,0.2,0.2,0.3C-132.9-102.7-132.9-102.6-132.9-102.4z M-130.5-102.4c0,0.1,0,0.2-0.1,0.3s-0.1,0.2-0.2,0.3
			c-0.1,0.1-0.2,0.1-0.3,0.2c-0.1,0.1-0.2,0.1-0.3,0.1s-0.2,0-0.3-0.1s-0.2-0.1-0.3-0.2s-0.1-0.2-0.2-0.3s-0.1-0.2-0.1-0.3
			s0-0.2,0.1-0.3c0-0.1,0.1-0.2,0.2-0.3c0.1-0.1,0.2-0.1,0.3-0.2c0.1-0.1,0.2-0.1,0.3-0.1s0.2,0,0.3,0.1s0.2,0.1,0.3,0.2
			c0.1,0.1,0.1,0.2,0.2,0.3C-130.5-102.7-130.5-102.6-130.5-102.4z"/>
		<path class="st0" d="M-127.3-93.3v-8h2.9c0.6,0,1,0.1,1.4,0.2c0.4,0.1,0.7,0.2,1,0.4c0.2,0.2,0.4,0.4,0.5,0.7
			c0.1,0.3,0.2,0.6,0.2,0.9c0,0.2,0,0.4-0.1,0.5c-0.1,0.2-0.1,0.3-0.2,0.5c-0.1,0.1-0.3,0.3-0.4,0.4c-0.2,0.1-0.4,0.2-0.6,0.3
			c0.5,0.1,0.9,0.3,1.2,0.6c0.3,0.3,0.4,0.7,0.4,1.1c0,0.3-0.1,0.7-0.2,1s-0.3,0.5-0.6,0.8c-0.3,0.2-0.6,0.4-0.9,0.5
			c-0.4,0.1-0.8,0.2-1.3,0.2h-3.3L-127.3-93.3L-127.3-93.3z M-125.5-97.9h1c0.2,0,0.4,0,0.6,0c0.2,0,0.3-0.1,0.4-0.2
			c0.1-0.1,0.2-0.2,0.3-0.3s0.1-0.3,0.1-0.5c0-0.2,0-0.3-0.1-0.5c0-0.1-0.1-0.2-0.2-0.3c-0.1-0.1-0.2-0.1-0.4-0.2
			c-0.2-0.1-0.3,0-0.5,0h-1.1v2H-125.5z M-125.5-96.7v2h1.3c0.2,0,0.4,0,0.6-0.1c0.2-0.1,0.3-0.1,0.4-0.2c0.1-0.1,0.1-0.2,0.2-0.3
			c0-0.1,0-0.3,0-0.4s0-0.3-0.1-0.4c0-0.1-0.1-0.2-0.2-0.3c-0.1-0.1-0.2-0.1-0.4-0.2c-0.2,0-0.3-0.1-0.6-0.1
			C-124.3-96.7-125.5-96.7-125.5-96.7z"/>
		<path class="st0" d="M-118.4-101.3c0.1,0,0.1,0,0.1,0s0.1,0,0.1,0.1l0.1,0.1l3.8,4.8c0-0.2,0-0.3,0-0.4c0-0.1,0-0.3,0-0.4v-4.2
			h1.6v8h-1c-0.1,0-0.3,0-0.4-0.1c-0.1,0-0.2-0.1-0.3-0.2l-3.8-4.8c0,0.1,0,0.3,0,0.4c0,0.1,0,0.3,0,0.4v4.3h-1.6v-8h1
			C-118.5-101.3-118.4-101.3-118.4-101.3z"/>
		<path class="st0" d="M-105.5-101.3v1.4h-3.3v1.9h2.5v1.4h-2.5v1.9h3.3v1.4h-5.2v-8C-110.7-101.3-105.5-101.3-105.5-101.3z"/>
		<path class="st0" d="M-102.1-96.2v3h-1.8v-8h2.6c0.6,0,1.1,0.1,1.5,0.2c0.4,0.1,0.7,0.3,1,0.5c0.3,0.2,0.4,0.5,0.6,0.8
			c0.1,0.3,0.2,0.6,0.2,0.9s0,0.5-0.1,0.7c-0.1,0.2-0.2,0.4-0.3,0.6s-0.3,0.4-0.5,0.5c-0.2,0.2-0.4,0.3-0.7,0.4
			c0.1,0.1,0.2,0.1,0.3,0.2s0.2,0.2,0.3,0.3l1.7,2.8H-99c-0.3,0-0.5-0.1-0.7-0.4L-101-96c-0.1-0.1-0.1-0.2-0.2-0.2
			c-0.1,0-0.2-0.1-0.3-0.1L-102.1-96.2L-102.1-96.2z M-102.1-97.5h0.7c0.3,0,0.5,0,0.6-0.1c0.2-0.1,0.3-0.2,0.4-0.3
			c0.1-0.1,0.2-0.2,0.2-0.4c0.1-0.2,0.1-0.3,0.1-0.5c0-0.4-0.1-0.6-0.3-0.8c-0.2-0.2-0.6-0.3-1.1-0.3h-0.7v2.4
			C-102.2-97.5-102.1-97.5-102.1-97.5z"/>
	</g>
</g>
<g>
	<line class="st1" x1="-169.6" y1="-160.5" x2="-169.6" y2="-75.5"/>
	<rect x="-170.1" y="-160.5" width="1" height="85"/>
</g>
<text transform="matrix(1 0 0 1 -269.3928 -232.1693)" style="font-family:'PTSerif-BoldItalic'; font-size:100.2624px;">pt</text>
<text transform="matrix(1 0 0 1 -82.0287 -270.2749)"><tspan x="0" y="0" class="st0" style="font-family:'PTSans-CaptionBold'; font-size:12px;">Prof. </tspan><tspan x="0" y="11" class="st0" style="font-family:'PTSans-CaptionBold'; font-size:12px;">Dr. </tspan><tspan x="0" y="22" class="st0" style="font-family:'PTSans-CaptionBold'; font-size:12px;">Peter </tspan><tspan x="0" y="33" class="st0" style="font-family:'PTSans-CaptionBold'; font-size:12px;">Trübner</tspan></text>
<g>
	<line class="st1" x1="-152" y1="-498.6" x2="-152" y2="-413.6"/>
	<rect x="-152.5" y="-498.6" width="1" height="85"/>
</g>
<text transform="matrix(1 0 0 1 -247.7404 -434.6746)" style="font-family:'PTSerif-Italic'; font-size:100.2624px;">pt</text>
<text transform="matrix(1 0 0 1 -822.9766 -434.6746)" style="font-family:'PTSerif-Italic'; font-size:100.2624px;">PT</text>
<g>
	<text transform="matrix(1 0 0 1 370.2346 -632.1768)"><tspan x="0" y="0" class="st0" style="font-family:'PTSans-CaptionBold'; font-size:13px;">Prof. </tspan><tspan x="0" y="13" class="st0" style="font-family:'PTSans-CaptionBold'; font-size:13px;">Dr. </tspan><tspan x="0" y="26" class="st0" style="font-family:'PTSans-CaptionBold'; font-size:13px;">Peter </tspan><tspan x="0" y="39" class="st0" style="font-family:'PTSans-CaptionBold'; font-size:13px;">Trübner</tspan></text>
</g>
<rect x="-35.1" y="-486.1" class="st0" width="55.4" height="52.5"/>
<g>
	<line class="st1" x1="-169.4" y1="0.2" x2="-169.4" y2="85.2"/>
	<rect x="-169.9" y="0.2" width="1" height="85"/>
</g>
<g>
	<path d="M-263.4,77.4c1.1,0.2,2.3,0.6,3.6,1.2c1.2,0.6,2.3,1.2,3.2,1.8v3.8h-20.7l-1.3-1.3l13.2-61.7l-5.8-1.4v-3.4
		c1.1-0.5,2.4-0.9,4.1-1.4c1.7-0.4,3.4-0.8,5.2-1.2c1.8-0.3,3.6-0.6,5.3-0.8c1.7-0.2,3.3-0.3,4.6-0.3l2,1.2l-3.3,13.8h0.4
		c1.1-2.1,2.3-4,3.7-5.9c1.4-1.8,2.8-3.4,4.4-4.8c1.6-1.4,3.3-2.4,5.1-3.2c1.8-0.8,3.8-1.2,5.9-1.2c3.4,0,6.2,1.3,8.5,4
		c2.2,2.7,3.4,6.4,3.4,11.2c0,5.4-0.8,10.4-2.3,15c-1.5,4.6-3.6,8.5-6.3,11.8c-2.6,3.3-5.8,5.9-9.4,7.7c-3.6,1.8-7.6,2.8-11.8,2.8
		c-1.9,0-3.5-0.2-4.8-0.5c-1.2-0.3-2.5-0.8-3.9-1.6L-263.4,77.4z M-241.3,20.8c-1.4,0-2.8,0.5-4.1,1.6c-1.3,1-2.6,2.3-3.7,3.9
		c-1.1,1.5-2.2,3.2-3.1,5c-0.9,1.8-1.7,3.4-2.3,4.9l-4.4,21.8c0.9,0.6,1.7,1,2.6,1.3c0.8,0.3,2.1,0.4,3.7,0.4c2.3,0,4.4-0.9,6.5-2.7
		c2-1.8,3.8-4.1,5.3-7c1.5-2.9,2.7-6.1,3.5-9.7c0.8-3.6,1.3-7.2,1.3-10.7c0-2.8-0.4-4.9-1.3-6.4C-238.4,21.5-239.7,20.8-241.3,20.8z
		"/>
	<path d="M-215,16.5c1.3-0.8,2.7-1.5,4.2-2.1c1.5-0.6,3-1,4.5-1.4l1.6-7.6c0.5-0.4,1.2-0.8,2.2-1.2c1-0.4,2.1-0.7,3.3-1
		c1.2-0.3,2.4-0.6,3.6-0.9c1.2-0.3,2.3-0.5,3.3-0.6l2.1,1.2l-2.4,11h11.7c0.1,0.8,0.1,1.9-0.2,3.3c-0.2,1.3-0.6,2.4-1.2,3.3H-194
		l-5.8,25.8c-0.3,1.3-0.5,2.4-0.6,3.3c-0.1,1-0.2,1.8-0.2,2.6c0,1.7,0.4,3,1.3,3.8c0.9,0.8,2,1.2,3.5,1.2c1.7,0,3.2-0.2,4.7-0.6
		c1.5-0.4,2.9-1,4.2-1.7l1.3,2.6c-0.8,0.9-1.9,1.8-3.2,2.7c-1.3,0.9-2.8,1.7-4.5,2.5c-1.7,0.8-3.5,1.4-5.4,1.9
		c-1.9,0.5-3.9,0.7-5.9,0.7c-3.5,0-6-0.8-7.8-2.4c-1.7-1.6-2.6-3.8-2.6-6.6c0-1.5,0.1-3.2,0.4-4.9c0.3-1.7,0.5-3.2,0.8-4.4l5.8-26.6
		h-7.2V16.5z"/>
</g>
<g>
	<path class="st0" d="M-157.2,18.4c0.4-0.1,0.8-0.1,1.2-0.1c0.4,0,0.9-0.1,1.3-0.1c0.4,0,0.9,0,1.4,0.1c0.5,0.1,0.9,0.2,1.2,0.4
		c0.4,0.2,0.7,0.5,0.9,0.9c0.2,0.4,0.3,0.8,0.3,1.4c0,0.5-0.1,1-0.3,1.4c-0.2,0.4-0.5,0.7-0.8,0.9c-0.3,0.2-0.7,0.4-1.1,0.5
		c-0.4,0.1-0.9,0.2-1.3,0.2c0,0-0.1,0-0.2,0s-0.2,0-0.3,0c-0.1,0-0.2,0-0.3,0c-0.1,0-0.2,0-0.2,0v2.8h-1.8V18.4z M-154.6,19.7
		c-0.2,0-0.3,0-0.5,0c-0.2,0-0.3,0-0.4,0v2.5c0,0,0.1,0,0.2,0s0.1,0,0.2,0s0.2,0,0.2,0c0.1,0,0.1,0,0.2,0c0.2,0,0.5,0,0.7,0
		c0.2,0,0.4-0.1,0.6-0.2c0.2-0.1,0.3-0.2,0.4-0.4c0.1-0.2,0.2-0.4,0.2-0.7c0-0.3-0.1-0.5-0.2-0.6c-0.1-0.2-0.2-0.3-0.4-0.4
		s-0.4-0.1-0.6-0.2C-154.1,19.8-154.4,19.7-154.6,19.7z"/>
	<path class="st0" d="M-149.6,18.4c0.2,0,0.4-0.1,0.6-0.1c0.2,0,0.5-0.1,0.7-0.1c0.2,0,0.5,0,0.7,0c0.2,0,0.4,0,0.6,0
		c0.4,0,0.8,0,1.3,0.1c0.4,0.1,0.8,0.2,1.1,0.4c0.3,0.2,0.6,0.4,0.8,0.7s0.3,0.7,0.3,1.2c0,0.7-0.2,1.3-0.5,1.7s-0.8,0.7-1.4,0.9
		l0.6,0.4l2.1,3.2h-2.1l-2.1-3.3l-0.9-0.1v3.4h-1.8V18.4z M-146.8,19.7c-0.2,0-0.4,0-0.5,0c-0.2,0-0.3,0-0.4,0v2.3h0.8
		c0.5,0,0.9-0.1,1.2-0.3c0.3-0.2,0.4-0.5,0.4-1c0-0.4-0.1-0.6-0.4-0.8S-146.4,19.7-146.8,19.7z"/>
	<path class="st0" d="M-142,22.5c0-0.7,0.1-1.3,0.3-1.8s0.4-1,0.8-1.4s0.7-0.7,1.2-0.9c0.5-0.2,1-0.3,1.6-0.3c0.6,0,1.2,0.1,1.7,0.3
		c0.5,0.2,0.9,0.5,1.2,0.9c0.3,0.4,0.6,0.8,0.7,1.4c0.2,0.5,0.2,1.1,0.2,1.8c0,0.7-0.1,1.3-0.3,1.8c-0.2,0.5-0.4,1-0.8,1.4
		s-0.7,0.7-1.2,0.9c-0.5,0.2-1,0.3-1.6,0.3c-0.6,0-1.2-0.1-1.7-0.3s-0.9-0.5-1.2-0.9c-0.3-0.4-0.6-0.8-0.7-1.4
		C-141.9,23.7-142,23.1-142,22.5z M-140.1,22.5c0,0.4,0,0.8,0.1,1.1c0.1,0.3,0.2,0.6,0.4,0.9c0.2,0.2,0.4,0.4,0.6,0.6
		c0.3,0.1,0.5,0.2,0.9,0.2c0.6,0,1.1-0.2,1.5-0.6c0.4-0.4,0.5-1.2,0.5-2.2c0-0.4,0-0.8-0.1-1.1c-0.1-0.3-0.2-0.6-0.4-0.9
		s-0.4-0.4-0.6-0.6s-0.6-0.2-0.9-0.2c-0.6,0-1.1,0.2-1.5,0.7C-139.9,20.8-140.1,21.5-140.1,22.5z"/>
	<path class="st0" d="M-132.6,18.3h5.4v1.6h-3.6v2h3.3v1.6h-3.3v3.3h-1.8V18.3z"/>
	<path class="st0" d="M-126.8,25.9c0-0.3,0.1-0.5,0.3-0.7s0.4-0.3,0.8-0.3c0.3,0,0.6,0.1,0.8,0.3c0.2,0.2,0.3,0.4,0.3,0.7
		c0,0.3-0.1,0.5-0.3,0.7c-0.2,0.2-0.4,0.3-0.8,0.3c-0.3,0-0.6-0.1-0.8-0.3C-126.7,26.4-126.8,26.2-126.8,25.9z"/>
	<path class="st0" d="M-157.2,29.3c0.2,0,0.4,0,0.6-0.1s0.5,0,0.7,0c0.2,0,0.5,0,0.7,0c0.2,0,0.4,0,0.6,0c0.8,0,1.5,0.1,2.1,0.3
		c0.6,0.2,1,0.5,1.4,0.9s0.6,0.8,0.8,1.3c0.2,0.5,0.3,1.1,0.3,1.7c0,0.6-0.1,1.1-0.2,1.6c-0.2,0.5-0.4,1-0.8,1.4s-0.8,0.7-1.4,1
		c-0.6,0.2-1.3,0.4-2.2,0.4c-0.1,0-0.3,0-0.6,0c-0.2,0-0.5,0-0.7,0c-0.3,0-0.5,0-0.7,0c-0.2,0-0.4,0-0.5,0V29.3z M-154.4,30.7
		c-0.2,0-0.4,0-0.6,0c-0.2,0-0.3,0-0.4,0v5.4c0,0,0.1,0,0.2,0s0.2,0,0.3,0s0.2,0,0.3,0c0.1,0,0.1,0,0.2,0c0.5,0,0.9-0.1,1.3-0.2
		s0.6-0.4,0.8-0.6c0.2-0.3,0.3-0.6,0.4-0.9s0.1-0.7,0.1-1c0-0.3,0-0.6-0.1-0.9c-0.1-0.3-0.2-0.6-0.4-0.9c-0.2-0.3-0.4-0.5-0.8-0.7
		C-153.5,30.8-153.9,30.7-154.4,30.7z"/>
	<path class="st0" d="M-148.5,29.4c0.2,0,0.4-0.1,0.6-0.1c0.2,0,0.5-0.1,0.7-0.1c0.2,0,0.5,0,0.7,0c0.2,0,0.4,0,0.6,0
		c0.4,0,0.8,0,1.3,0.1c0.4,0.1,0.8,0.2,1.1,0.4c0.3,0.2,0.6,0.4,0.8,0.7s0.3,0.7,0.3,1.2c0,0.7-0.2,1.3-0.5,1.7s-0.8,0.7-1.4,0.9
		l0.6,0.4l2.1,3.2h-2.1l-2.1-3.3l-0.9-0.1v3.4h-1.8V29.4z M-145.8,30.7c-0.2,0-0.4,0-0.5,0c-0.2,0-0.3,0-0.4,0v2.3h0.8
		c0.5,0,0.9-0.1,1.2-0.3c0.3-0.2,0.4-0.5,0.4-1c0-0.4-0.1-0.6-0.4-0.8S-145.3,30.7-145.8,30.7z"/>
	<path class="st0" d="M-140.5,36.9c0-0.3,0.1-0.5,0.3-0.7s0.4-0.3,0.8-0.3c0.3,0,0.6,0.1,0.8,0.3c0.2,0.2,0.3,0.4,0.3,0.7
		c0,0.3-0.1,0.5-0.3,0.7c-0.2,0.2-0.4,0.3-0.8,0.3c-0.3,0-0.6-0.1-0.8-0.3C-140.4,37.4-140.5,37.2-140.5,36.9z"/>
	<path class="st0" d="M-157.2,40.4c0.4-0.1,0.8-0.1,1.2-0.1c0.4,0,0.9-0.1,1.3-0.1c0.4,0,0.9,0,1.4,0.1c0.5,0.1,0.9,0.2,1.2,0.4
		c0.4,0.2,0.7,0.5,0.9,0.9c0.2,0.4,0.3,0.8,0.3,1.4c0,0.5-0.1,1-0.3,1.4c-0.2,0.4-0.5,0.7-0.8,0.9c-0.3,0.2-0.7,0.4-1.1,0.5
		c-0.4,0.1-0.9,0.2-1.3,0.2c0,0-0.1,0-0.2,0s-0.2,0-0.3,0c-0.1,0-0.2,0-0.3,0c-0.1,0-0.2,0-0.2,0v2.8h-1.8V40.4z M-154.6,41.7
		c-0.2,0-0.3,0-0.5,0c-0.2,0-0.3,0-0.4,0v2.5c0,0,0.1,0,0.2,0s0.1,0,0.2,0s0.2,0,0.2,0c0.1,0,0.1,0,0.2,0c0.2,0,0.5,0,0.7,0
		c0.2,0,0.4-0.1,0.6-0.2c0.2-0.1,0.3-0.2,0.4-0.4c0.1-0.2,0.2-0.4,0.2-0.7c0-0.3-0.1-0.5-0.2-0.6c-0.1-0.2-0.2-0.3-0.4-0.4
		s-0.4-0.1-0.6-0.2C-154.1,41.8-154.4,41.7-154.6,41.7z"/>
	<path class="st0" d="M-149.6,40.3h5.4v1.6h-3.6v1.8h3.3v1.6h-3.3v1.9h3.7v1.6h-5.5V40.3z"/>
	<path class="st0" d="M-135.9,41.9h-2.7v6.8h-1.8v-6.8h-2.7v-1.6h7.1V41.9z"/>
	<path class="st0" d="M-134.6,40.3h5.4v1.6h-3.6v1.8h3.3v1.6h-3.3v1.9h3.7v1.6h-5.5V40.3z"/>
	<path class="st0" d="M-127.4,40.4c0.2,0,0.4-0.1,0.6-0.1c0.2,0,0.5-0.1,0.7-0.1c0.2,0,0.5,0,0.7,0c0.2,0,0.4,0,0.6,0
		c0.4,0,0.8,0,1.3,0.1c0.4,0.1,0.8,0.2,1.1,0.4c0.3,0.2,0.6,0.4,0.8,0.7s0.3,0.7,0.3,1.2c0,0.7-0.2,1.3-0.5,1.7s-0.8,0.7-1.4,0.9
		l0.6,0.4l2.1,3.2h-2.1l-2.1-3.3l-0.9-0.1v3.4h-1.8V40.4z M-124.7,41.7c-0.2,0-0.4,0-0.5,0c-0.2,0-0.3,0-0.4,0v2.3h0.8
		c0.5,0,0.9-0.1,1.2-0.3c0.3-0.2,0.4-0.5,0.4-1c0-0.4-0.1-0.6-0.4-0.8S-124.2,41.7-124.7,41.7z"/>
	<path class="st0" d="M-150.8,52.9h-2.7v6.8h-1.8v-6.8h-2.7v-1.6h7.1V52.9z"/>
	<path class="st0" d="M-149.5,51.4c0.2,0,0.4-0.1,0.6-0.1c0.2,0,0.5-0.1,0.7-0.1c0.2,0,0.5,0,0.7,0c0.2,0,0.4,0,0.6,0
		c0.4,0,0.8,0,1.3,0.1c0.4,0.1,0.8,0.2,1.1,0.4c0.3,0.2,0.6,0.4,0.8,0.7c0.2,0.3,0.3,0.7,0.3,1.2c0,0.7-0.2,1.3-0.5,1.7
		s-0.8,0.7-1.4,0.9l0.6,0.4l2.1,3.2h-2.1l-2.1-3.3l-0.9-0.1v3.4h-1.8V51.4z M-146.8,52.7c-0.2,0-0.4,0-0.5,0c-0.2,0-0.3,0-0.4,0v2.3
		h0.8c0.5,0,0.9-0.1,1.2-0.3c0.3-0.2,0.4-0.5,0.4-1c0-0.4-0.1-0.6-0.4-0.8S-146.3,52.7-146.8,52.7z"/>
	<path class="st0" d="M-136.6,51.3h1.7v5.4c0,0.5-0.1,1-0.2,1.4c-0.2,0.4-0.4,0.7-0.7,1c-0.3,0.3-0.6,0.4-1,0.6
		c-0.4,0.1-0.8,0.2-1.3,0.2c-1.1,0-2-0.2-2.6-0.7c-0.6-0.5-0.9-1.2-0.9-2.2v-5.6h1.8v5.3c0,0.6,0.1,1.1,0.4,1.3
		c0.3,0.3,0.7,0.4,1.2,0.4c0.5,0,0.9-0.1,1.2-0.4c0.3-0.3,0.4-0.7,0.4-1.3V51.3z M-140.6,50.1c0-0.2,0.1-0.4,0.2-0.5
		c0.2-0.1,0.4-0.2,0.8-0.2c0.3,0,0.6,0.1,0.7,0.2c0.2,0.1,0.2,0.3,0.2,0.5c0,0.2-0.1,0.4-0.2,0.5c-0.2,0.1-0.4,0.2-0.7,0.2
		c-0.4,0-0.6-0.1-0.8-0.2C-140.6,50.5-140.6,50.3-140.6,50.1z M-137.8,50.1c0-0.2,0.1-0.4,0.2-0.5c0.2-0.1,0.4-0.2,0.7-0.2
		c0.4,0,0.6,0.1,0.8,0.2c0.2,0.1,0.2,0.3,0.2,0.5c0,0.2-0.1,0.4-0.2,0.5c-0.2,0.1-0.4,0.2-0.8,0.2c-0.3,0-0.6-0.1-0.7-0.2
		C-137.8,50.5-137.8,50.3-137.8,50.1z"/>
	<path class="st0" d="M-126.9,53.3c0,0.2,0,0.4-0.1,0.6c-0.1,0.2-0.2,0.4-0.3,0.6s-0.3,0.3-0.5,0.5s-0.5,0.2-0.8,0.3v0.1
		c0.3,0,0.5,0.1,0.7,0.2c0.2,0.1,0.4,0.2,0.6,0.4c0.2,0.2,0.3,0.4,0.4,0.6c0.1,0.2,0.2,0.5,0.2,0.9c0,0.4-0.1,0.8-0.3,1.1
		s-0.5,0.6-0.8,0.8c-0.3,0.2-0.7,0.3-1.1,0.4c-0.4,0.1-0.9,0.1-1.3,0.1c-0.1,0-0.3,0-0.6,0c-0.2,0-0.5,0-0.8,0c-0.3,0-0.5,0-0.8-0.1
		s-0.5-0.1-0.8-0.1v-8.3c0.2,0,0.4,0,0.6-0.1c0.2,0,0.4,0,0.7-0.1c0.2,0,0.5,0,0.8,0c0.3,0,0.5,0,0.8,0c0.4,0,0.8,0,1.2,0.1
		c0.4,0.1,0.8,0.2,1.1,0.3c0.3,0.2,0.6,0.4,0.8,0.6C-127,52.5-126.9,52.9-126.9,53.3z M-130.7,54.8c0.1,0,0.3,0,0.4,0s0.3,0,0.4,0
		c0.3-0.1,0.6-0.2,0.9-0.4c0.2-0.2,0.3-0.4,0.3-0.7c0-0.2,0-0.4-0.1-0.5s-0.2-0.2-0.4-0.3c-0.1-0.1-0.3-0.1-0.5-0.1
		c-0.2,0-0.4,0-0.6,0c-0.2,0-0.4,0-0.6,0c-0.2,0-0.3,0-0.5,0v2.1H-130.7z M-130.2,58.4c0.2,0,0.4,0,0.6-0.1s0.4-0.1,0.5-0.2
		c0.2-0.1,0.3-0.2,0.4-0.3c0.1-0.1,0.1-0.3,0.1-0.5c0-0.3-0.1-0.5-0.2-0.6c-0.1-0.2-0.3-0.3-0.4-0.3s-0.4-0.1-0.6-0.1
		c-0.2,0-0.4,0-0.7,0h-1v2.2c0,0,0.1,0,0.2,0s0.2,0,0.3,0s0.2,0,0.3,0C-130.3,58.4-130.2,58.4-130.2,58.4z"/>
	<path class="st0" d="M-122.7,55.3l-0.7-1.3h-0.1l0.2,1.3v4.4h-1.7v-8.5h1.3l3.5,4.5l0.7,1.2h0.1l-0.2-1.2v-4.4h1.7v8.5h-1.3
		L-122.7,55.3z"/>
	<path class="st0" d="M-116,51.3h5.4v1.6h-3.6v1.8h3.3v1.6h-3.3v1.9h3.7v1.6h-5.5V51.3z"/>
	<path class="st0" d="M-108.8,51.4c0.2,0,0.4-0.1,0.6-0.1c0.2,0,0.5-0.1,0.7-0.1c0.2,0,0.5,0,0.7,0c0.2,0,0.4,0,0.6,0
		c0.4,0,0.8,0,1.3,0.1c0.4,0.1,0.8,0.2,1.1,0.4c0.3,0.2,0.6,0.4,0.8,0.7s0.3,0.7,0.3,1.2c0,0.7-0.2,1.3-0.5,1.7s-0.8,0.7-1.4,0.9
		l0.6,0.4l2.1,3.2h-2.1l-2.1-3.3l-0.9-0.1v3.4h-1.8V51.4z M-106.1,52.7c-0.2,0-0.4,0-0.5,0c-0.2,0-0.3,0-0.4,0v2.3h0.8
		c0.5,0,0.9-0.1,1.2-0.3c0.3-0.2,0.4-0.5,0.4-1c0-0.4-0.1-0.6-0.4-0.8S-105.6,52.7-106.1,52.7z"/>
</g>
<g>
	<line class="st2" x1="105.5" y1="-0.4" x2="105.5" y2="84.6"/>
	<rect x="105" y="-0.4" class="st2" width="1" height="85"/>
</g>
<path class="st2" d="M18.8,73.9c1,0.2,2.1,0.5,3.2,1c1.1,0.5,2.1,1,2.8,1.6v3.4H6.3l-1.2-1.2L17,23.2L11.8,22v-3.1
	c1-0.4,2.2-0.8,3.7-1.2c1.5-0.4,3.1-0.7,4.7-1c1.6-0.3,3.2-0.5,4.8-0.7c1.6-0.2,2.9-0.3,4.2-0.3l1.8,1.1l-3,12.5h0.4
	c1-1.9,2.1-3.6,3.3-5.3c1.2-1.7,2.6-3.1,4-4.3c1.4-1.2,2.9-2.2,4.6-2.9c1.7-0.7,3.4-1,5.3-1c3.1,0,5.6,1.2,7.6,3.6
	c2,2.4,3,5.8,3,10.1c0,4.9-0.7,9.4-2.1,13.5c-1.4,4.1-3.3,7.7-5.6,10.6c-2.4,3-5.2,5.3-8.5,6.9c-3.3,1.7-6.8,2.5-10.6,2.5
	c-1.7,0-3.2-0.1-4.3-0.4c-1.1-0.3-2.3-0.7-3.5-1.4L18.8,73.9z M38.6,22.9c-1.3,0-2.5,0.5-3.7,1.4c-1.2,0.9-2.3,2.1-3.3,3.5
	c-1,1.4-2,2.9-2.8,4.5s-1.6,3.1-2.1,4.4l-4,19.6c0.8,0.5,1.6,0.9,2.3,1.2c0.8,0.2,1.9,0.4,3.3,0.4c2.1,0,4-0.8,5.8-2.4
	c1.8-1.6,3.4-3.7,4.8-6.3c1.4-2.6,2.4-5.5,3.2-8.8c0.8-3.2,1.1-6.5,1.1-9.7c0-2.5-0.4-4.5-1.2-5.8C41.3,23.5,40.1,22.9,38.6,22.9z"
	/>
<path class="st2" d="M62.3,19c1.1-0.7,2.4-1.4,3.8-1.9c1.4-0.5,2.7-0.9,4.1-1.3L71.6,9c0.4-0.4,1.1-0.7,2-1c0.9-0.3,1.9-0.6,2.9-0.9
	c1.1-0.3,2.2-0.5,3.2-0.8c1.1-0.2,2.1-0.4,3-0.5l1.9,1.1l-2.2,9.9H93c0.1,0.7,0.1,1.7-0.1,2.9c-0.2,1.2-0.6,2.2-1,2.9H81.2L76,45.9
	c-0.2,1.1-0.4,2.1-0.5,3c-0.1,0.9-0.2,1.7-0.2,2.4c0,1.6,0.4,2.7,1.2,3.4c0.8,0.7,1.8,1.1,3.2,1.1c1.5,0,2.9-0.2,4.2-0.5
	c1.3-0.4,2.6-0.9,3.8-1.5l1.2,2.3c-0.7,0.8-1.7,1.6-2.9,2.4c-1.2,0.8-2.5,1.6-4,2.3c-1.5,0.7-3.1,1.2-4.8,1.7
	c-1.7,0.4-3.5,0.6-5.3,0.6c-3.1,0-5.4-0.7-7-2.2c-1.6-1.4-2.3-3.4-2.3-5.9c0-1.4,0.1-2.8,0.4-4.4c0.2-1.6,0.5-2.9,0.7-4l5.2-23.9
	h-6.5V19z"/>
<g>
	<line class="st1" x1="106.5" y1="-135.9" x2="106.5" y2="-50.9"/>
	<rect x="106" y="-135.9" width="1" height="85"/>
</g>
<g>
	<path d="M19.8-61.7c1,0.2,2.1,0.5,3.2,1c1.1,0.5,2.1,1,2.8,1.6v3.4H7.3l-1.2-1.2L18-112.3l-5.2-1.3v-3.1c1-0.4,2.2-0.8,3.7-1.2
		c1.5-0.4,3.1-0.7,4.7-1c1.6-0.3,3.2-0.5,4.8-0.7c1.6-0.2,2.9-0.3,4.2-0.3l1.8,1.1l-3,12.5h0.4c1-1.9,2.1-3.6,3.3-5.3
		c1.2-1.7,2.6-3.1,4-4.3c1.4-1.2,2.9-2.2,4.6-2.9c1.7-0.7,3.4-1,5.3-1c3.1,0,5.6,1.2,7.6,3.6c2,2.4,3,5.8,3,10.1
		c0,4.9-0.7,9.4-2.1,13.5c-1.4,4.1-3.3,7.7-5.6,10.6c-2.4,3-5.2,5.3-8.5,6.9c-3.3,1.7-6.8,2.5-10.6,2.5c-1.7,0-3.2-0.1-4.3-0.4
		c-1.1-0.3-2.3-0.7-3.5-1.4L19.8-61.7z M39.6-112.6c-1.3,0-2.5,0.5-3.7,1.4c-1.2,0.9-2.3,2.1-3.3,3.5c-1,1.4-2,2.9-2.8,4.5
		s-1.6,3.1-2.1,4.4l-4,19.6c0.8,0.5,1.6,0.9,2.3,1.2c0.8,0.2,1.9,0.4,3.3,0.4c2.1,0,4-0.8,5.8-2.4c1.8-1.6,3.4-3.7,4.8-6.3
		c1.4-2.6,2.4-5.5,3.2-8.8c0.8-3.2,1.1-6.5,1.1-9.7c0-2.5-0.4-4.5-1.2-5.8C42.3-112,41.1-112.6,39.6-112.6z"/>
	<path d="M63.3-116.5c1.1-0.7,2.4-1.4,3.8-1.9c1.4-0.5,2.7-0.9,4.1-1.3l1.4-6.9c0.4-0.4,1.1-0.7,2-1c0.9-0.3,1.9-0.6,2.9-0.9
		c1.1-0.3,2.2-0.5,3.2-0.8c1.1-0.2,2.1-0.4,3-0.5l1.9,1.1l-2.2,9.9H94c0.1,0.7,0.1,1.7-0.1,2.9c-0.2,1.2-0.6,2.2-1,2.9H82.2L77-89.7
		c-0.2,1.1-0.4,2.1-0.5,3c-0.1,0.9-0.2,1.7-0.2,2.4c0,1.6,0.4,2.7,1.2,3.4c0.8,0.7,1.8,1.1,3.2,1.1c1.5,0,2.9-0.2,4.2-0.5
		c1.3-0.4,2.6-0.9,3.8-1.5l1.2,2.3c-0.7,0.8-1.7,1.6-2.9,2.4c-1.2,0.8-2.5,1.6-4,2.3c-1.5,0.7-3.1,1.2-4.8,1.7
		c-1.7,0.4-3.5,0.6-5.3,0.6c-3.1,0-5.4-0.7-7-2.2c-1.6-1.4-2.3-3.4-2.3-5.9c0-1.4,0.1-2.8,0.4-4.4c0.2-1.6,0.5-2.9,0.7-4l5.2-23.9
		h-6.5V-116.5z"/>
</g>
<g>
	<g>
		<path class="st0" d="M119.7-121.8c0.4-0.1,0.8-0.1,1.3-0.2s1-0.1,1.4-0.1c0.5,0,1,0,1.5,0.1c0.5,0.1,0.9,0.2,1.3,0.4
			c0.4,0.2,0.7,0.5,1,0.9s0.4,0.9,0.4,1.6c0,0.6-0.1,1.1-0.3,1.5c-0.2,0.4-0.5,0.7-0.9,1c-0.4,0.3-0.8,0.4-1.2,0.6
			c-0.5,0.1-0.9,0.2-1.4,0.2c0,0-0.1,0-0.2,0c-0.1,0-0.2,0-0.3,0s-0.2,0-0.3,0c-0.1,0-0.2,0-0.2,0v3.1h-1.9V-121.8z M122.6-120.3
			c-0.2,0-0.4,0-0.5,0c-0.2,0-0.3,0-0.4,0.1v2.7c0,0,0.1,0,0.2,0c0.1,0,0.2,0,0.2,0s0.2,0,0.2,0c0.1,0,0.1,0,0.2,0
			c0.3,0,0.5,0,0.8-0.1c0.3,0,0.5-0.1,0.7-0.2c0.2-0.1,0.4-0.3,0.5-0.5c0.1-0.2,0.2-0.5,0.2-0.8c0-0.3-0.1-0.5-0.2-0.7
			s-0.3-0.3-0.4-0.4s-0.4-0.2-0.6-0.2S122.8-120.3,122.6-120.3z"/>
		<path class="st0" d="M128-121.8c0.2,0,0.4-0.1,0.7-0.1s0.5-0.1,0.7-0.1c0.3,0,0.5,0,0.7,0c0.2,0,0.5,0,0.7,0c0.5,0,0.9,0,1.4,0.1
			c0.4,0.1,0.8,0.2,1.2,0.4c0.4,0.2,0.6,0.5,0.9,0.8s0.3,0.8,0.3,1.3c0,0.7-0.2,1.4-0.6,1.8s-0.9,0.8-1.5,1l0.7,0.4l2.3,3.4h-2.2
			l-2.3-3.5l-1-0.2v3.7H128V-121.8z M131-120.3c-0.2,0-0.4,0-0.6,0c-0.2,0-0.3,0-0.4,0v2.5h0.8c0.5,0,1-0.1,1.3-0.3s0.5-0.6,0.5-1.1
			c0-0.4-0.1-0.7-0.4-0.9C131.9-120.2,131.5-120.3,131-120.3z"/>
		<path class="st0" d="M136.2-117.4c0-0.7,0.1-1.4,0.3-2s0.5-1.1,0.8-1.5c0.4-0.4,0.8-0.7,1.3-0.9c0.5-0.2,1.1-0.3,1.8-0.3
			c0.7,0,1.3,0.1,1.8,0.3s1,0.6,1.3,1c0.4,0.4,0.6,0.9,0.8,1.5c0.2,0.6,0.3,1.2,0.3,1.9c0,0.7-0.1,1.4-0.3,2
			c-0.2,0.6-0.5,1.1-0.8,1.5s-0.8,0.7-1.3,0.9c-0.5,0.2-1.1,0.3-1.8,0.3c-0.7,0-1.3-0.1-1.8-0.3s-1-0.6-1.3-1
			c-0.4-0.4-0.6-0.9-0.8-1.5C136.3-116,136.2-116.7,136.2-117.4z M138.3-117.4c0,0.5,0,0.9,0.1,1.2c0.1,0.4,0.2,0.7,0.4,1
			c0.2,0.3,0.4,0.5,0.7,0.6c0.3,0.1,0.6,0.2,1,0.2c0.7,0,1.2-0.2,1.6-0.7c0.4-0.5,0.6-1.2,0.6-2.3c0-0.4,0-0.8-0.1-1.2
			s-0.2-0.7-0.4-1c-0.2-0.3-0.4-0.5-0.7-0.6c-0.3-0.2-0.6-0.2-1-0.2c-0.7,0-1.2,0.2-1.6,0.7C138.4-119.2,138.3-118.4,138.3-117.4z"
			/>
		<path class="st0" d="M146.4-121.9h5.9v1.7h-3.9v2.1h3.6v1.7h-3.6v3.6h-1.9V-121.9z"/>
		<path class="st0" d="M152.7-113.7c0-0.3,0.1-0.6,0.3-0.8c0.2-0.2,0.5-0.3,0.8-0.3c0.3,0,0.6,0.1,0.8,0.3c0.2,0.2,0.3,0.4,0.3,0.8
			c0,0.3-0.1,0.6-0.3,0.7s-0.5,0.3-0.8,0.3c-0.3,0-0.6-0.1-0.8-0.3S152.7-113.4,152.7-113.7z"/>
	</g>
	<g>
		<path class="st0" d="M119.7-106.5c0.2,0,0.4,0,0.7-0.1c0.2,0,0.5,0,0.8,0c0.3,0,0.5,0,0.8,0c0.3,0,0.5,0,0.7,0
			c0.9,0,1.6,0.1,2.2,0.3c0.6,0.2,1.1,0.5,1.5,1c0.4,0.4,0.7,0.9,0.9,1.5c0.2,0.6,0.3,1.2,0.3,1.8c0,0.6-0.1,1.2-0.3,1.8
			c-0.2,0.6-0.5,1.1-0.9,1.5s-0.9,0.8-1.6,1.1c-0.6,0.3-1.4,0.4-2.4,0.4c-0.1,0-0.3,0-0.6,0s-0.5,0-0.8,0c-0.3,0-0.5,0-0.8,0
			c-0.2,0-0.4,0-0.5,0V-106.5z M122.7-104.9c-0.2,0-0.4,0-0.6,0c-0.2,0-0.4,0-0.5,0v5.9c0,0,0.1,0,0.2,0c0.1,0,0.2,0,0.3,0
			s0.2,0,0.3,0c0.1,0,0.2,0,0.2,0c0.6,0,1-0.1,1.4-0.3c0.4-0.2,0.7-0.4,0.9-0.7c0.2-0.3,0.4-0.6,0.4-1c0.1-0.4,0.1-0.7,0.1-1.1
			c0-0.3,0-0.7-0.1-1c-0.1-0.3-0.2-0.7-0.4-0.9c-0.2-0.3-0.5-0.5-0.8-0.7C123.7-104.8,123.3-104.9,122.7-104.9z"/>
		<path class="st0" d="M129.2-106.4c0.2,0,0.4-0.1,0.7-0.1s0.5-0.1,0.7-0.1c0.3,0,0.5,0,0.7,0c0.2,0,0.5,0,0.7,0
			c0.5,0,0.9,0,1.4,0.1c0.4,0.1,0.8,0.2,1.2,0.4c0.4,0.2,0.6,0.5,0.9,0.8s0.3,0.8,0.3,1.3c0,0.7-0.2,1.4-0.6,1.8s-0.9,0.8-1.5,1
			l0.7,0.4l2.3,3.4h-2.2l-2.3-3.5l-1-0.2v3.7h-1.9V-106.4z M132.1-104.9c-0.2,0-0.4,0-0.6,0c-0.2,0-0.3,0-0.4,0v2.5h0.8
			c0.5,0,1-0.1,1.3-0.3s0.5-0.6,0.5-1.1c0-0.4-0.1-0.7-0.4-0.9C133-104.8,132.6-104.9,132.1-104.9z"/>
		<path class="st0" d="M137.9-98.3c0-0.3,0.1-0.6,0.3-0.8c0.2-0.2,0.5-0.3,0.8-0.3c0.3,0,0.6,0.1,0.8,0.3c0.2,0.2,0.3,0.4,0.3,0.8
			c0,0.3-0.1,0.6-0.3,0.7s-0.5,0.3-0.8,0.3c-0.3,0-0.6-0.1-0.8-0.3S137.9-98,137.9-98.3z"/>
	</g>
	<g>
		<path class="st0" d="M119.7-91c0.4-0.1,0.8-0.1,1.3-0.2s1-0.1,1.4-0.1c0.5,0,1,0,1.5,0.1c0.5,0.1,0.9,0.2,1.3,0.4
			c0.4,0.2,0.7,0.5,1,0.9s0.4,0.9,0.4,1.6c0,0.6-0.1,1.1-0.3,1.5c-0.2,0.4-0.5,0.7-0.9,1c-0.4,0.3-0.8,0.4-1.2,0.6
			c-0.5,0.1-0.9,0.2-1.4,0.2c0,0-0.1,0-0.2,0c-0.1,0-0.2,0-0.3,0s-0.2,0-0.3,0c-0.1,0-0.2,0-0.2,0v3.1h-1.9V-91z M122.6-89.6
			c-0.2,0-0.4,0-0.5,0c-0.2,0-0.3,0-0.4,0.1v2.7c0,0,0.1,0,0.2,0c0.1,0,0.2,0,0.2,0s0.2,0,0.2,0c0.1,0,0.1,0,0.2,0
			c0.3,0,0.5,0,0.8-0.1c0.3,0,0.5-0.1,0.7-0.2c0.2-0.1,0.4-0.3,0.5-0.5c0.1-0.2,0.2-0.5,0.2-0.8c0-0.3-0.1-0.5-0.2-0.7
			s-0.3-0.3-0.4-0.4s-0.4-0.2-0.6-0.2S122.8-89.6,122.6-89.6z"/>
		<path class="st0" d="M128-91.1h5.9v1.7H130v2h3.6v1.7H130v2.1h4v1.7H128V-91.1z"/>
		<path class="st0" d="M142.8-89.4H140v7.4H138v-7.4h-2.9v-1.7h7.7V-89.4z"/>
		<path class="st0" d="M144.2-91.1h5.9v1.7h-3.9v2h3.6v1.7h-3.6v2.1h4v1.7h-5.9V-91.1z"/>
		<path class="st0" d="M152-91c0.2,0,0.4-0.1,0.7-0.1s0.5-0.1,0.7-0.1c0.3,0,0.5,0,0.7,0c0.2,0,0.5,0,0.7,0c0.5,0,0.9,0,1.4,0.1
			c0.4,0.1,0.8,0.2,1.2,0.4c0.4,0.2,0.6,0.5,0.9,0.8c0.2,0.3,0.3,0.8,0.3,1.3c0,0.7-0.2,1.4-0.6,1.8c-0.4,0.5-0.9,0.8-1.5,1l0.7,0.4
			l2.3,3.4h-2.2l-2.3-3.5l-1-0.2v3.7H152V-91z M154.9-89.6c-0.2,0-0.4,0-0.6,0c-0.2,0-0.3,0-0.4,0v2.5h0.8c0.5,0,1-0.1,1.3-0.3
			s0.5-0.6,0.5-1.1c0-0.4-0.1-0.7-0.4-0.9C155.8-89.5,155.4-89.6,154.9-89.6z"/>
	</g>
	<g>
		<path class="st0" d="M126.7-72.3h-2.9v7.4h-1.9v-7.4H119V-74h7.7V-72.3z"/>
		<path class="st0" d="M128.1-73.9c0.2,0,0.4-0.1,0.7-0.1s0.5-0.1,0.7-0.1c0.3,0,0.5,0,0.7,0c0.2,0,0.5,0,0.7,0c0.5,0,0.9,0,1.4,0.1
			c0.4,0.1,0.8,0.2,1.2,0.4c0.4,0.2,0.6,0.5,0.9,0.8s0.3,0.8,0.3,1.3c0,0.7-0.2,1.4-0.6,1.8s-0.9,0.8-1.5,1l0.7,0.4l2.3,3.4h-2.2
			l-2.3-3.5l-1-0.2v3.7h-1.9V-73.9z M131-72.4c-0.2,0-0.4,0-0.6,0c-0.2,0-0.3,0-0.4,0v2.5h0.8c0.5,0,1-0.1,1.3-0.3s0.5-0.6,0.5-1.1
			c0-0.4-0.1-0.7-0.4-0.9C131.9-72.3,131.5-72.4,131-72.4z"/>
		<path class="st0" d="M142-74h1.8v5.8c0,0.6-0.1,1.1-0.3,1.5c-0.2,0.4-0.4,0.8-0.7,1.1s-0.7,0.5-1.1,0.6s-0.9,0.2-1.4,0.2
			c-1.2,0-2.2-0.3-2.8-0.8c-0.6-0.5-1-1.3-1-2.4V-74h1.9v5.7c0,0.7,0.2,1.2,0.5,1.4c0.3,0.3,0.8,0.4,1.4,0.4c0.6,0,1-0.1,1.3-0.4
			c0.3-0.3,0.4-0.8,0.4-1.4V-74z M137.7-75.2c0-0.2,0.1-0.4,0.3-0.6s0.4-0.2,0.8-0.2c0.4,0,0.6,0.1,0.8,0.2s0.3,0.3,0.3,0.6
			c0,0.2-0.1,0.4-0.3,0.5s-0.4,0.2-0.8,0.2c-0.4,0-0.7-0.1-0.8-0.2S137.7-75,137.7-75.2z M140.7-75.2c0-0.2,0.1-0.4,0.3-0.6
			c0.2-0.1,0.4-0.2,0.8-0.2c0.4,0,0.7,0.1,0.8,0.2c0.2,0.1,0.3,0.3,0.3,0.6c0,0.2-0.1,0.4-0.3,0.5c-0.2,0.1-0.4,0.2-0.8,0.2
			c-0.4,0-0.6-0.1-0.8-0.2C140.8-74.8,140.7-75,140.7-75.2z"/>
		<path class="st0" d="M152.6-71.8c0,0.2,0,0.4-0.1,0.7c-0.1,0.2-0.2,0.4-0.3,0.6c-0.1,0.2-0.3,0.4-0.5,0.5
			c-0.2,0.1-0.5,0.2-0.8,0.3v0.1c0.3,0,0.6,0.1,0.8,0.2s0.5,0.2,0.7,0.4c0.2,0.2,0.3,0.4,0.4,0.7c0.1,0.3,0.2,0.6,0.2,0.9
			c0,0.5-0.1,0.9-0.3,1.2s-0.5,0.6-0.9,0.8s-0.8,0.4-1.2,0.5c-0.5,0.1-0.9,0.2-1.4,0.2c-0.2,0-0.4,0-0.6,0c-0.3,0-0.5,0-0.8,0
			c-0.3,0-0.6,0-0.9-0.1c-0.3,0-0.6-0.1-0.8-0.1v-9c0.2,0,0.4-0.1,0.6-0.1c0.2,0,0.5,0,0.7-0.1c0.3,0,0.5,0,0.8,0c0.3,0,0.6,0,0.8,0
			c0.5,0,0.9,0,1.3,0.1c0.4,0.1,0.8,0.2,1.2,0.4c0.3,0.2,0.6,0.4,0.8,0.7S152.6-72.3,152.6-71.8z M148.4-70.2c0.1,0,0.3,0,0.5,0
			s0.3,0,0.4,0c0.4-0.1,0.7-0.3,0.9-0.5c0.3-0.2,0.4-0.5,0.4-0.8c0-0.2,0-0.4-0.1-0.5s-0.2-0.2-0.4-0.3s-0.3-0.1-0.5-0.2
			c-0.2,0-0.4,0-0.6,0c-0.3,0-0.5,0-0.7,0c-0.2,0-0.4,0-0.5,0v2.3H148.4z M149-66.3c0.2,0,0.5,0,0.7-0.1c0.2,0,0.4-0.1,0.6-0.2
			s0.3-0.2,0.4-0.4c0.1-0.2,0.1-0.3,0.1-0.6c0-0.3-0.1-0.5-0.2-0.7c-0.1-0.2-0.3-0.3-0.5-0.4c-0.2-0.1-0.4-0.1-0.7-0.2s-0.5,0-0.7,0
			h-1.1v2.4c0.1,0,0.1,0,0.2,0c0.1,0,0.2,0,0.3,0c0.1,0,0.2,0,0.4,0C148.8-66.3,148.9-66.3,149-66.3z"/>
		<path class="st0" d="M157.1-69.6l-0.8-1.4h-0.1l0.2,1.4v4.7h-1.8V-74h1.4l3.8,4.8l0.7,1.3h0.1l-0.2-1.3V-74h1.8v9.2h-1.4
			L157.1-69.6z"/>
		<path class="st0" d="M164.3-74h5.9v1.7h-3.9v2h3.6v1.7h-3.6v2.1h4v1.7h-5.9V-74z"/>
		<path class="st0" d="M172.1-73.9c0.2,0,0.4-0.1,0.7-0.1s0.5-0.1,0.7-0.1c0.3,0,0.5,0,0.7,0c0.2,0,0.5,0,0.7,0c0.5,0,0.9,0,1.4,0.1
			c0.4,0.1,0.8,0.2,1.2,0.4c0.4,0.2,0.6,0.5,0.9,0.8s0.3,0.8,0.3,1.3c0,0.7-0.2,1.4-0.6,1.8s-0.9,0.8-1.5,1l0.7,0.4l2.3,3.4h-2.2
			l-2.3-3.5l-1-0.2v3.7h-1.9V-73.9z M175.1-72.4c-0.2,0-0.4,0-0.6,0c-0.2,0-0.3,0-0.4,0v2.5h0.8c0.5,0,1-0.1,1.3-0.3
			s0.5-0.6,0.5-1.1c0-0.4-0.1-0.7-0.4-0.9C176-72.3,175.6-72.4,175.1-72.4z"/>
	</g>
</g>
<g>
	<line class="st1" x1="385.4" y1="0.1" x2="385.4" y2="85.1"/>
	<rect x="384.9" y="0.1" width="1" height="85"/>
</g>
<g>
	<path d="M300.7,73.9c1,0.2,2.1,0.5,3.2,1c1.1,0.5,2.1,1,2.8,1.6v3.4h-18.6l-1.2-1.2l11.9-55.5l-5.2-1.3v-3.1c1-0.4,2.2-0.8,3.7-1.2
		c1.5-0.4,3.1-0.7,4.7-1c1.6-0.3,3.2-0.5,4.8-0.7c1.6-0.2,2.9-0.3,4.2-0.3l1.8,1.1l-3,12.5h0.4c1-1.9,2.1-3.6,3.3-5.3
		c1.2-1.7,2.6-3.1,4-4.3c1.4-1.2,2.9-2.2,4.6-2.9c1.7-0.7,3.4-1,5.3-1c3.1,0,5.6,1.2,7.6,3.6c2,2.4,3,5.8,3,10.1
		c0,4.9-0.7,9.4-2.1,13.5c-1.4,4.1-3.3,7.7-5.6,10.6c-2.4,3-5.2,5.3-8.5,6.9c-3.3,1.7-6.8,2.5-10.6,2.5c-1.7,0-3.2-0.1-4.3-0.4
		c-1.1-0.3-2.3-0.7-3.5-1.4L300.7,73.9z M320.5,22.9c-1.3,0-2.5,0.5-3.7,1.4c-1.2,0.9-2.3,2.1-3.3,3.5c-1,1.4-2,2.9-2.8,4.5
		s-1.6,3.1-2.1,4.4l-4,19.6c0.8,0.5,1.6,0.9,2.3,1.2c0.8,0.2,1.9,0.4,3.3,0.4c2.1,0,4-0.8,5.8-2.4c1.8-1.6,3.4-3.7,4.8-6.3
		c1.4-2.6,2.4-5.5,3.2-8.8c0.8-3.2,1.1-6.5,1.1-9.7c0-2.5-0.4-4.5-1.2-5.8C323.1,23.5,322,22.9,320.5,22.9z"/>
	<path d="M344.2,19c1.1-0.7,2.4-1.4,3.8-1.9c1.4-0.5,2.7-0.9,4.1-1.3l1.4-6.9c0.4-0.4,1.1-0.7,2-1c0.9-0.3,1.9-0.6,2.9-0.9
		c1.1-0.3,2.2-0.5,3.2-0.8c1.1-0.2,2.1-0.4,3-0.5l1.9,1.1l-2.2,9.9h10.6c0.1,0.7,0.1,1.7-0.1,2.9c-0.2,1.2-0.6,2.2-1,2.9h-10.6
		l-5.2,23.2c-0.2,1.1-0.4,2.1-0.5,3c-0.1,0.9-0.2,1.7-0.2,2.4c0,1.6,0.4,2.7,1.2,3.4c0.8,0.7,1.8,1.1,3.2,1.1c1.5,0,2.9-0.2,4.2-0.5
		c1.3-0.4,2.6-0.9,3.8-1.5l1.2,2.3c-0.7,0.8-1.7,1.6-2.9,2.4c-1.2,0.8-2.5,1.6-4,2.3c-1.5,0.7-3.1,1.2-4.8,1.7
		c-1.7,0.4-3.5,0.6-5.3,0.6c-3.1,0-5.4-0.7-7-2.2c-1.6-1.4-2.3-3.4-2.3-5.9c0-1.4,0.1-2.8,0.4-4.4c0.2-1.6,0.5-2.9,0.7-4l5.2-23.9
		h-6.5V19z"/>
</g>
<rect x="395.9" y="8.2" class="st0" width="68.7" height="68.7"/>
<g>
	<g>
		<path class="st2" d="M400.7,18.7c0.4-0.1,0.8-0.1,1.3-0.2s1-0.1,1.4-0.1c0.5,0,1,0,1.5,0.1c0.5,0.1,0.9,0.2,1.3,0.4
			c0.4,0.2,0.7,0.5,1,0.9s0.4,0.9,0.4,1.6c0,0.6-0.1,1.1-0.3,1.5c-0.2,0.4-0.5,0.7-0.9,1c-0.4,0.3-0.8,0.4-1.2,0.6
			c-0.5,0.1-0.9,0.2-1.4,0.2c0,0-0.1,0-0.2,0c-0.1,0-0.2,0-0.3,0s-0.2,0-0.3,0c-0.1,0-0.2,0-0.2,0v3.1h-1.9V18.7z M403.6,20.1
			c-0.2,0-0.4,0-0.5,0c-0.2,0-0.3,0-0.4,0.1v2.7c0,0,0.1,0,0.2,0c0.1,0,0.2,0,0.2,0s0.2,0,0.2,0c0.1,0,0.1,0,0.2,0
			c0.3,0,0.5,0,0.8-0.1c0.3,0,0.5-0.1,0.7-0.2c0.2-0.1,0.4-0.3,0.5-0.5c0.1-0.2,0.2-0.5,0.2-0.8c0-0.3-0.1-0.5-0.2-0.7
			s-0.3-0.3-0.4-0.4s-0.4-0.2-0.6-0.2S403.8,20.1,403.6,20.1z"/>
		<path class="st2" d="M409,18.7c0.2,0,0.4-0.1,0.7-0.1s0.5-0.1,0.7-0.1c0.3,0,0.5,0,0.7,0c0.2,0,0.5,0,0.7,0c0.5,0,0.9,0,1.4,0.1
			c0.4,0.1,0.8,0.2,1.2,0.4c0.4,0.2,0.6,0.5,0.9,0.8s0.3,0.8,0.3,1.3c0,0.7-0.2,1.4-0.6,1.8s-0.9,0.8-1.5,1l0.7,0.4l2.3,3.4h-2.2
			l-2.3-3.5l-1-0.2v3.7H409V18.7z M412,20.1c-0.2,0-0.4,0-0.6,0c-0.2,0-0.3,0-0.4,0v2.5h0.8c0.5,0,1-0.1,1.3-0.3s0.5-0.6,0.5-1.1
			c0-0.4-0.1-0.7-0.4-0.9C412.8,20.2,412.5,20.1,412,20.1z"/>
		<path class="st2" d="M417.2,23.1c0-0.7,0.1-1.4,0.3-2s0.5-1.1,0.8-1.5c0.4-0.4,0.8-0.7,1.3-0.9c0.5-0.2,1.1-0.3,1.8-0.3
			c0.7,0,1.3,0.1,1.8,0.3s1,0.6,1.3,1c0.4,0.4,0.6,0.9,0.8,1.5c0.2,0.6,0.3,1.2,0.3,1.9c0,0.7-0.1,1.4-0.3,2
			c-0.2,0.6-0.5,1.1-0.8,1.5s-0.8,0.7-1.3,0.9c-0.5,0.2-1.1,0.3-1.8,0.3c-0.7,0-1.3-0.1-1.8-0.3s-1-0.6-1.3-1
			c-0.4-0.4-0.6-0.9-0.8-1.5C417.3,24.5,417.2,23.8,417.2,23.1z M419.2,23.1c0,0.5,0,0.9,0.1,1.2c0.1,0.4,0.2,0.7,0.4,1
			c0.2,0.3,0.4,0.5,0.7,0.6c0.3,0.1,0.6,0.2,1,0.2c0.7,0,1.2-0.2,1.6-0.7c0.4-0.5,0.6-1.2,0.6-2.3c0-0.4,0-0.8-0.1-1.2
			s-0.2-0.7-0.4-1c-0.2-0.3-0.4-0.5-0.7-0.6c-0.3-0.2-0.6-0.2-1-0.2c-0.7,0-1.2,0.2-1.6,0.7C419.4,21.3,419.2,22.1,419.2,23.1z"/>
		<path class="st2" d="M427.3,18.6h5.9v1.7h-3.9v2.1h3.6v1.7h-3.6v3.6h-1.9V18.6z"/>
		<path class="st2" d="M433.6,26.8c0-0.3,0.1-0.6,0.3-0.8c0.2-0.2,0.5-0.3,0.8-0.3c0.3,0,0.6,0.1,0.8,0.3c0.2,0.2,0.3,0.4,0.3,0.8
			c0,0.3-0.1,0.6-0.3,0.7s-0.5,0.3-0.8,0.3c-0.3,0-0.6-0.1-0.8-0.3S433.6,27.1,433.6,26.8z"/>
		<path class="st2" d="M400.7,31.6c0.2,0,0.4,0,0.7-0.1c0.2,0,0.5,0,0.8,0c0.3,0,0.5,0,0.8,0c0.3,0,0.5,0,0.7,0
			c0.9,0,1.6,0.1,2.2,0.3c0.6,0.2,1.1,0.5,1.5,1c0.4,0.4,0.7,0.9,0.9,1.5c0.2,0.6,0.3,1.2,0.3,1.8c0,0.6-0.1,1.2-0.3,1.8
			c-0.2,0.6-0.5,1.1-0.9,1.5s-0.9,0.8-1.6,1.1c-0.6,0.3-1.4,0.4-2.4,0.4c-0.1,0-0.3,0-0.6,0s-0.5,0-0.8,0c-0.3,0-0.5,0-0.8,0
			c-0.2,0-0.4,0-0.5,0V31.6z M403.7,33.1c-0.2,0-0.4,0-0.6,0c-0.2,0-0.4,0-0.5,0v5.9c0,0,0.1,0,0.2,0c0.1,0,0.2,0,0.3,0s0.2,0,0.3,0
			c0.1,0,0.2,0,0.2,0c0.6,0,1-0.1,1.4-0.3c0.4-0.2,0.7-0.4,0.9-0.7c0.2-0.3,0.4-0.6,0.4-1c0.1-0.4,0.1-0.7,0.1-1.1
			c0-0.3,0-0.7-0.1-1c-0.1-0.3-0.2-0.7-0.4-0.9c-0.2-0.3-0.5-0.5-0.8-0.7C404.7,33.2,404.3,33.1,403.7,33.1z"/>
		<path class="st2" d="M410.2,31.7c0.2,0,0.4-0.1,0.7-0.1s0.5-0.1,0.7-0.1c0.3,0,0.5,0,0.7,0c0.2,0,0.5,0,0.7,0c0.5,0,0.9,0,1.4,0.1
			c0.4,0.1,0.8,0.2,1.2,0.4c0.4,0.2,0.6,0.5,0.9,0.8s0.3,0.8,0.3,1.3c0,0.7-0.2,1.4-0.6,1.8s-0.9,0.8-1.5,1l0.7,0.4l2.3,3.4h-2.2
			l-2.3-3.5l-1-0.2v3.7h-1.9V31.7z M413.1,33.1c-0.2,0-0.4,0-0.6,0c-0.2,0-0.3,0-0.4,0v2.5h0.8c0.5,0,1-0.1,1.3-0.3s0.5-0.6,0.5-1.1
			c0-0.4-0.1-0.7-0.4-0.9C414,33.2,413.6,33.1,413.1,33.1z"/>
		<path class="st2" d="M418.9,39.8c0-0.3,0.1-0.6,0.3-0.8c0.2-0.2,0.5-0.3,0.8-0.3c0.3,0,0.6,0.1,0.8,0.3c0.2,0.2,0.3,0.4,0.3,0.8
			c0,0.3-0.1,0.6-0.3,0.7s-0.5,0.3-0.8,0.3c-0.3,0-0.6-0.1-0.8-0.3S418.9,40.1,418.9,39.8z"/>
		<path class="st2" d="M400.7,44.7c0.4-0.1,0.8-0.1,1.3-0.2s1-0.1,1.4-0.1c0.5,0,1,0,1.5,0.1c0.5,0.1,0.9,0.2,1.3,0.4
			c0.4,0.2,0.7,0.5,1,0.9s0.4,0.9,0.4,1.6c0,0.6-0.1,1.1-0.3,1.5c-0.2,0.4-0.5,0.7-0.9,1c-0.4,0.3-0.8,0.4-1.2,0.6
			c-0.5,0.1-0.9,0.2-1.4,0.2c0,0-0.1,0-0.2,0c-0.1,0-0.2,0-0.3,0s-0.2,0-0.3,0c-0.1,0-0.2,0-0.2,0v3.1h-1.9V44.7z M403.6,46.1
			c-0.2,0-0.4,0-0.5,0c-0.2,0-0.3,0-0.4,0.1v2.7c0,0,0.1,0,0.2,0c0.1,0,0.2,0,0.2,0s0.2,0,0.2,0c0.1,0,0.1,0,0.2,0
			c0.3,0,0.5,0,0.8-0.1c0.3,0,0.5-0.1,0.7-0.2c0.2-0.1,0.4-0.3,0.5-0.5c0.1-0.2,0.2-0.5,0.2-0.8c0-0.3-0.1-0.5-0.2-0.7
			s-0.3-0.3-0.4-0.4s-0.4-0.2-0.6-0.2S403.8,46.1,403.6,46.1z"/>
		<path class="st2" d="M409,44.6h5.9v1.7h-3.9v2h3.6v1.7h-3.6V52h4v1.7H409V44.6z"/>
		<path class="st2" d="M423.8,46.3h-2.9v7.4H419v-7.4h-2.9v-1.7h7.7V46.3z"/>
		<path class="st2" d="M425.2,44.6h5.9v1.7h-3.9v2h3.6v1.7h-3.6V52h4v1.7h-5.9V44.6z"/>
		<path class="st2" d="M433,44.7c0.2,0,0.4-0.1,0.7-0.1s0.5-0.1,0.7-0.1c0.3,0,0.5,0,0.7,0c0.2,0,0.5,0,0.7,0c0.5,0,0.9,0,1.4,0.1
			c0.4,0.1,0.8,0.2,1.2,0.4c0.4,0.2,0.6,0.5,0.9,0.8c0.2,0.3,0.3,0.8,0.3,1.3c0,0.7-0.2,1.4-0.6,1.8c-0.4,0.5-0.9,0.8-1.5,1l0.7,0.4
			l2.3,3.4h-2.2l-2.3-3.5l-1-0.2v3.7H433V44.7z M435.9,46.1c-0.2,0-0.4,0-0.6,0c-0.2,0-0.3,0-0.4,0v2.5h0.8c0.5,0,1-0.1,1.3-0.3
			s0.5-0.6,0.5-1.1c0-0.4-0.1-0.7-0.4-0.9C436.8,46.2,436.4,46.1,435.9,46.1z"/>
		<path class="st2" d="M407.7,59.3h-2.9v7.4h-1.9v-7.4H400v-1.7h7.7V59.3z"/>
		<path class="st2" d="M409,57.7c0.2,0,0.4-0.1,0.7-0.1s0.5-0.1,0.7-0.1c0.3,0,0.5,0,0.7,0c0.2,0,0.5,0,0.7,0c0.5,0,0.9,0,1.4,0.1
			c0.4,0.1,0.8,0.2,1.2,0.4c0.4,0.2,0.6,0.5,0.9,0.8s0.3,0.8,0.3,1.3c0,0.7-0.2,1.4-0.6,1.8s-0.9,0.8-1.5,1l0.7,0.4l2.3,3.4h-2.2
			l-2.3-3.5l-1-0.2v3.7H409V57.7z M412,59.1c-0.2,0-0.4,0-0.6,0c-0.2,0-0.3,0-0.4,0v2.5h0.8c0.5,0,1-0.1,1.3-0.3s0.5-0.6,0.5-1.1
			c0-0.4-0.1-0.7-0.4-0.9C412.9,59.2,412.5,59.1,412,59.1z"/>
		<path class="st2" d="M423,57.6h1.8v5.8c0,0.6-0.1,1.1-0.3,1.5c-0.2,0.4-0.4,0.8-0.7,1.1s-0.7,0.5-1.1,0.6s-0.9,0.2-1.4,0.2
			c-1.2,0-2.2-0.3-2.8-0.8c-0.6-0.5-1-1.3-1-2.4v-6.1h1.9v5.7c0,0.7,0.2,1.2,0.5,1.4c0.3,0.3,0.8,0.4,1.4,0.4c0.6,0,1-0.1,1.3-0.4
			c0.3-0.3,0.4-0.8,0.4-1.4V57.6z M418.7,56.3c0-0.2,0.1-0.4,0.3-0.6s0.4-0.2,0.8-0.2c0.4,0,0.6,0.1,0.8,0.2s0.3,0.3,0.3,0.6
			c0,0.2-0.1,0.4-0.3,0.5s-0.4,0.2-0.8,0.2c-0.4,0-0.7-0.1-0.8-0.2S418.7,56.5,418.7,56.3z M421.7,56.3c0-0.2,0.1-0.4,0.3-0.6
			c0.2-0.1,0.4-0.2,0.8-0.2c0.4,0,0.7,0.1,0.8,0.2c0.2,0.1,0.3,0.3,0.3,0.6c0,0.2-0.1,0.4-0.3,0.5c-0.2,0.1-0.4,0.2-0.8,0.2
			c-0.4,0-0.6-0.1-0.8-0.2C421.8,56.7,421.7,56.5,421.7,56.3z"/>
		<path class="st2" d="M433.6,59.7c0,0.2,0,0.4-0.1,0.7c-0.1,0.2-0.2,0.4-0.3,0.6c-0.1,0.2-0.3,0.4-0.5,0.5
			c-0.2,0.1-0.5,0.2-0.8,0.3v0.1c0.3,0,0.6,0.1,0.8,0.2s0.5,0.2,0.7,0.4c0.2,0.2,0.3,0.4,0.4,0.7c0.1,0.3,0.2,0.6,0.2,0.9
			c0,0.5-0.1,0.9-0.3,1.2s-0.5,0.6-0.9,0.8s-0.8,0.4-1.2,0.5c-0.5,0.1-0.9,0.2-1.4,0.2c-0.2,0-0.4,0-0.6,0c-0.3,0-0.5,0-0.8,0
			c-0.3,0-0.6,0-0.9-0.1c-0.3,0-0.6-0.1-0.8-0.1v-9c0.2,0,0.4-0.1,0.6-0.1c0.2,0,0.5,0,0.7-0.1c0.3,0,0.5,0,0.8,0c0.3,0,0.6,0,0.8,0
			c0.5,0,0.9,0,1.3,0.1c0.4,0.1,0.8,0.2,1.2,0.4c0.3,0.2,0.6,0.4,0.8,0.7S433.6,59.2,433.6,59.7z M429.4,61.4c0.1,0,0.3,0,0.5,0
			s0.3,0,0.4,0c0.4-0.1,0.7-0.3,0.9-0.5c0.3-0.2,0.4-0.5,0.4-0.8c0-0.2,0-0.4-0.1-0.5s-0.2-0.2-0.4-0.3s-0.3-0.1-0.5-0.2
			c-0.2,0-0.4,0-0.6,0c-0.3,0-0.5,0-0.7,0c-0.2,0-0.4,0-0.5,0v2.3H429.4z M430,65.2c0.2,0,0.5,0,0.7-0.1c0.2,0,0.4-0.1,0.6-0.2
			s0.3-0.2,0.4-0.4c0.1-0.2,0.1-0.3,0.1-0.6c0-0.3-0.1-0.5-0.2-0.7c-0.1-0.2-0.3-0.3-0.5-0.4c-0.2-0.1-0.4-0.1-0.7-0.2s-0.5,0-0.7,0
			h-1.1v2.4c0.1,0,0.1,0,0.2,0c0.1,0,0.2,0,0.3,0c0.1,0,0.2,0,0.4,0C429.8,65.2,429.9,65.2,430,65.2z"/>
		<path class="st2" d="M438.1,61.9l-0.8-1.4h-0.1l0.2,1.4v4.7h-1.8v-9.2h1.4l3.8,4.8l0.7,1.3h0.1l-0.2-1.3v-4.8h1.8v9.2h-1.4
			L438.1,61.9z"/>
		<path class="st2" d="M445.3,57.6h5.9v1.7h-3.9v2h3.6v1.7h-3.6V65h4v1.7h-5.9V57.6z"/>
		<path class="st2" d="M453.1,57.7c0.2,0,0.4-0.1,0.7-0.1s0.5-0.1,0.7-0.1c0.3,0,0.5,0,0.7,0c0.2,0,0.5,0,0.7,0c0.5,0,0.9,0,1.4,0.1
			c0.4,0.1,0.8,0.2,1.2,0.4c0.4,0.2,0.6,0.5,0.9,0.8s0.3,0.8,0.3,1.3c0,0.7-0.2,1.4-0.6,1.8s-0.9,0.8-1.5,1l0.7,0.4l2.3,3.4h-2.2
			l-2.3-3.5l-1-0.2v3.7h-1.9V57.7z M456.1,59.1c-0.2,0-0.4,0-0.6,0c-0.2,0-0.3,0-0.4,0v2.5h0.8c0.5,0,1-0.1,1.3-0.3s0.5-0.6,0.5-1.1
			c0-0.4-0.1-0.7-0.4-0.9C456.9,59.2,456.6,59.1,456.1,59.1z"/>
	</g>
</g>
<g>
	<line class="st1" x1="106.5" y1="-261.8" x2="106.5" y2="-176.8"/>
	<rect x="106" y="-261.8" width="1" height="85"/>
</g>
<g>
	<path d="M19.8-187.6c1,0.2,2.1,0.5,3.2,1c1.1,0.5,2.1,1,2.8,1.6v3.4H7.3l-1.2-1.2L18-238.2l-5.2-1.3v-3.1c1-0.4,2.2-0.8,3.7-1.2
		c1.5-0.4,3.1-0.7,4.7-1c1.6-0.3,3.2-0.5,4.8-0.7c1.6-0.2,2.9-0.3,4.2-0.3l1.8,1.1l-3,12.5h0.4c1-1.9,2.1-3.6,3.3-5.3
		c1.2-1.7,2.6-3.1,4-4.3c1.4-1.2,2.9-2.2,4.6-2.9c1.7-0.7,3.4-1,5.3-1c3.1,0,5.6,1.2,7.6,3.6c2,2.4,3,5.8,3,10.1
		c0,4.9-0.7,9.4-2.1,13.5c-1.4,4.1-3.3,7.7-5.6,10.6c-2.4,3-5.2,5.3-8.5,6.9c-3.3,1.7-6.8,2.5-10.6,2.5c-1.7,0-3.2-0.1-4.3-0.4
		c-1.1-0.3-2.3-0.7-3.5-1.4L19.8-187.6z M39.6-238.5c-1.3,0-2.5,0.5-3.7,1.4c-1.2,0.9-2.3,2.1-3.3,3.5c-1,1.4-2,2.9-2.8,4.5
		c-0.9,1.6-1.6,3.1-2.1,4.4l-4,19.6c0.8,0.5,1.6,0.9,2.3,1.2c0.8,0.2,1.9,0.4,3.3,0.4c2.1,0,4-0.8,5.8-2.4c1.8-1.6,3.4-3.7,4.8-6.3
		c1.4-2.6,2.4-5.5,3.2-8.8c0.8-3.2,1.1-6.5,1.1-9.7c0-2.5-0.4-4.5-1.2-5.8C42.3-237.9,41.1-238.5,39.6-238.5z"/>
	<path d="M63.3-242.4c1.1-0.7,2.4-1.4,3.8-1.9c1.4-0.5,2.7-0.9,4.1-1.3l1.4-6.9c0.4-0.4,1.1-0.7,2-1c0.9-0.3,1.9-0.6,2.9-0.9
		c1.1-0.3,2.2-0.5,3.2-0.8c1.1-0.2,2.1-0.4,3-0.5l1.9,1.1l-2.2,9.9H94c0.1,0.7,0.1,1.7-0.1,2.9c-0.2,1.2-0.6,2.2-1,2.9H82.2
		L77-215.6c-0.2,1.1-0.4,2.1-0.5,3c-0.1,0.9-0.2,1.7-0.2,2.4c0,1.6,0.4,2.7,1.2,3.4c0.8,0.7,1.8,1.1,3.2,1.1c1.5,0,2.9-0.2,4.2-0.5
		c1.3-0.4,2.6-0.9,3.8-1.5l1.2,2.3c-0.7,0.8-1.7,1.6-2.9,2.4c-1.2,0.8-2.5,1.6-4,2.3c-1.5,0.7-3.1,1.2-4.8,1.7
		c-1.7,0.4-3.5,0.6-5.3,0.6c-3.1,0-5.4-0.7-7-2.2c-1.6-1.4-2.3-3.4-2.3-5.9c0-1.4,0.1-2.8,0.4-4.4c0.2-1.6,0.5-2.9,0.7-4l5.2-23.9
		h-6.5V-242.4z"/>
</g>
<g>
	<text transform="matrix(1 0 0 1 119.1589 -238.2463)"><tspan x="0" y="0" class="st0" style="font-family:'PTSans-CaptionBold'; font-size:10px;">Prof. </tspan><tspan x="0" y="15" class="st0" style="font-family:'PTSans-CaptionBold'; font-size:10px;">Dr. </tspan><tspan x="0" y="30" class="st0" style="font-family:'PTSans-CaptionBold'; font-size:10px;">Peter </tspan><tspan x="0" y="45" class="st0" style="font-family:'PTSans-CaptionBold'; font-size:10px;">Trübner</tspan></text>
</g>
<g>
	<path class="st2" d="M118.7,15.3c0.4-0.1,0.8-0.1,1.3-0.2c0.5,0,0.9-0.1,1.4-0.1c0.5,0,0.9,0,1.4,0.1c0.5,0.1,0.9,0.2,1.3,0.4
		c0.4,0.2,0.7,0.5,0.9,0.9c0.2,0.4,0.4,0.9,0.4,1.5c0,0.6-0.1,1-0.3,1.4c-0.2,0.4-0.5,0.7-0.8,0.9c-0.3,0.2-0.7,0.4-1.2,0.5
		c-0.4,0.1-0.9,0.2-1.4,0.2c0,0-0.1,0-0.2,0c-0.1,0-0.2,0-0.3,0c-0.1,0-0.2,0-0.3,0c-0.1,0-0.2,0-0.2,0v3h-1.9V15.3z M121.5,16.7
		c-0.2,0-0.3,0-0.5,0c-0.2,0-0.3,0-0.4,0v2.6c0,0,0.1,0,0.2,0s0.2,0,0.2,0c0.1,0,0.2,0,0.2,0c0.1,0,0.1,0,0.2,0c0.2,0,0.5,0,0.7,0
		c0.2,0,0.5-0.1,0.6-0.2c0.2-0.1,0.3-0.3,0.5-0.4c0.1-0.2,0.2-0.4,0.2-0.8c0-0.3-0.1-0.5-0.2-0.6c-0.1-0.2-0.3-0.3-0.4-0.4
		s-0.4-0.2-0.6-0.2S121.7,16.7,121.5,16.7z"/>
	<path class="st2" d="M126.7,15.3c0.2,0,0.4-0.1,0.7-0.1s0.5-0.1,0.7-0.1c0.2,0,0.5,0,0.7,0c0.2,0,0.4,0,0.6,0c0.4,0,0.9,0,1.3,0.1
		c0.4,0.1,0.8,0.2,1.2,0.4c0.3,0.2,0.6,0.4,0.8,0.8c0.2,0.3,0.3,0.7,0.3,1.2c0,0.7-0.2,1.3-0.5,1.8c-0.4,0.5-0.8,0.8-1.5,0.9
		l0.7,0.4l2.2,3.3h-2.2l-2.2-3.4l-1-0.2V24h-1.9V15.3z M129.6,16.7c-0.2,0-0.4,0-0.6,0c-0.2,0-0.3,0-0.4,0v2.4h0.8
		c0.5,0,0.9-0.1,1.2-0.3s0.5-0.5,0.5-1c0-0.4-0.1-0.6-0.4-0.8C130.5,16.8,130.1,16.7,129.6,16.7z"/>
	<path class="st2" d="M134.6,19.6c0-0.7,0.1-1.4,0.3-1.9c0.2-0.6,0.4-1,0.8-1.4c0.3-0.4,0.8-0.7,1.3-0.9c0.5-0.2,1.1-0.3,1.7-0.3
		c0.7,0,1.3,0.1,1.8,0.3c0.5,0.2,0.9,0.5,1.3,0.9c0.3,0.4,0.6,0.9,0.8,1.4s0.3,1.2,0.3,1.9c0,0.7-0.1,1.4-0.3,1.9
		c-0.2,0.6-0.5,1-0.8,1.4c-0.4,0.4-0.8,0.7-1.3,0.9c-0.5,0.2-1.1,0.3-1.7,0.3c-0.7,0-1.3-0.1-1.8-0.3c-0.5-0.2-0.9-0.5-1.3-0.9
		s-0.6-0.9-0.8-1.4S134.6,20.3,134.6,19.6z M136.6,19.6c0,0.4,0,0.8,0.1,1.2c0.1,0.4,0.2,0.7,0.4,0.9c0.2,0.3,0.4,0.5,0.6,0.6
		c0.3,0.1,0.6,0.2,0.9,0.2c0.7,0,1.2-0.2,1.5-0.7s0.6-1.2,0.6-2.3c0-0.4,0-0.8-0.1-1.2c-0.1-0.4-0.2-0.7-0.4-0.9
		c-0.2-0.3-0.4-0.5-0.7-0.6c-0.3-0.1-0.6-0.2-1-0.2c-0.7,0-1.2,0.2-1.5,0.7S136.6,18.6,136.6,19.6z"/>
	<path class="st2" d="M144.5,15.2h5.7v1.6h-3.8v2h3.5v1.6h-3.5V24h-1.9V15.2z"/>
	<path class="st2" d="M150.5,23.2c0-0.3,0.1-0.6,0.3-0.7c0.2-0.2,0.5-0.3,0.8-0.3c0.3,0,0.6,0.1,0.8,0.3s0.3,0.4,0.3,0.7
		c0,0.3-0.1,0.5-0.3,0.7c-0.2,0.2-0.5,0.3-0.8,0.3c-0.3,0-0.6-0.1-0.8-0.3C150.6,23.7,150.5,23.4,150.5,23.2z"/>
	<path class="st2" d="M118.7,28.1c0.2,0,0.4,0,0.6-0.1c0.2,0,0.5,0,0.7,0c0.3,0,0.5,0,0.7,0c0.2,0,0.5,0,0.7,0
		c0.8,0,1.6,0.1,2.2,0.3c0.6,0.2,1.1,0.5,1.5,0.9c0.4,0.4,0.7,0.9,0.8,1.4s0.3,1.1,0.3,1.8c0,0.6-0.1,1.2-0.3,1.7
		c-0.2,0.6-0.5,1-0.8,1.5c-0.4,0.4-0.9,0.8-1.5,1c-0.6,0.3-1.4,0.4-2.3,0.4c-0.1,0-0.3,0-0.6,0c-0.2,0-0.5,0-0.8,0
		c-0.3,0-0.5,0-0.7,0c-0.2,0-0.4,0-0.5,0V28.1z M121.6,29.6c-0.2,0-0.4,0-0.6,0c-0.2,0-0.4,0-0.5,0v5.7c0,0,0.1,0,0.2,0
		c0.1,0,0.2,0,0.3,0c0.1,0,0.2,0,0.3,0c0.1,0,0.2,0,0.2,0c0.5,0,1-0.1,1.3-0.3c0.4-0.2,0.6-0.4,0.8-0.7c0.2-0.3,0.3-0.6,0.4-0.9
		c0.1-0.4,0.1-0.7,0.1-1.1c0-0.3,0-0.6-0.1-1c-0.1-0.3-0.2-0.6-0.4-0.9c-0.2-0.3-0.5-0.5-0.8-0.7S122.2,29.6,121.6,29.6z"/>
	<path class="st2" d="M127.9,28.2c0.2,0,0.4-0.1,0.7-0.1s0.5-0.1,0.7-0.1c0.2,0,0.5,0,0.7,0c0.2,0,0.4,0,0.6,0c0.4,0,0.9,0,1.3,0.1
		c0.4,0.1,0.8,0.2,1.2,0.4c0.3,0.2,0.6,0.4,0.8,0.8c0.2,0.3,0.3,0.7,0.3,1.2c0,0.7-0.2,1.3-0.5,1.8c-0.4,0.5-0.8,0.8-1.5,0.9
		l0.7,0.4l2.2,3.3h-2.2l-2.2-3.4l-1-0.2v3.6h-1.9V28.2z M130.7,29.6c-0.2,0-0.4,0-0.6,0c-0.2,0-0.3,0-0.4,0v2.4h0.8
		c0.5,0,0.9-0.1,1.2-0.3s0.5-0.5,0.5-1c0-0.4-0.1-0.6-0.4-0.8C131.6,29.7,131.2,29.6,130.7,29.6z"/>
	<path class="st2" d="M136.3,36c0-0.3,0.1-0.6,0.3-0.7c0.2-0.2,0.5-0.3,0.8-0.3c0.3,0,0.6,0.1,0.8,0.3s0.3,0.4,0.3,0.7
		c0,0.3-0.1,0.5-0.3,0.7c-0.2,0.2-0.5,0.3-0.8,0.3c-0.3,0-0.6-0.1-0.8-0.3C136.4,36.6,136.3,36.3,136.3,36z"/>
	<path class="st2" d="M118.7,41.1c0.4-0.1,0.8-0.1,1.3-0.2c0.5,0,0.9-0.1,1.4-0.1c0.5,0,0.9,0,1.4,0.1c0.5,0.1,0.9,0.2,1.3,0.4
		c0.4,0.2,0.7,0.5,0.9,0.9c0.2,0.4,0.4,0.9,0.4,1.5c0,0.6-0.1,1-0.3,1.4c-0.2,0.4-0.5,0.7-0.8,0.9c-0.3,0.2-0.7,0.4-1.2,0.5
		c-0.4,0.1-0.9,0.2-1.4,0.2c0,0-0.1,0-0.2,0c-0.1,0-0.2,0-0.3,0c-0.1,0-0.2,0-0.3,0c-0.1,0-0.2,0-0.2,0v3h-1.9V41.1z M121.5,42.5
		c-0.2,0-0.3,0-0.5,0c-0.2,0-0.3,0-0.4,0v2.6c0,0,0.1,0,0.2,0s0.2,0,0.2,0c0.1,0,0.2,0,0.2,0c0.1,0,0.1,0,0.2,0c0.2,0,0.5,0,0.7,0
		c0.2,0,0.5-0.1,0.6-0.2c0.2-0.1,0.3-0.3,0.5-0.4c0.1-0.2,0.2-0.4,0.2-0.8c0-0.3-0.1-0.5-0.2-0.6c-0.1-0.2-0.3-0.3-0.4-0.4
		s-0.4-0.2-0.6-0.2S121.7,42.5,121.5,42.5z"/>
	<path class="st2" d="M126.7,41h5.7v1.6h-3.8v1.9h3.5v1.6h-3.5v2h3.9v1.6h-5.7V41z"/>
	<path class="st2" d="M141,42.6h-2.8v7.2h-1.9v-7.2h-2.8V41h7.4V42.6z"/>
	<path class="st2" d="M142.3,41h5.7v1.6h-3.8v1.9h3.5v1.6h-3.5v2h3.9v1.6h-5.7V41z"/>
	<path class="st2" d="M149.9,41.1c0.2,0,0.4-0.1,0.7-0.1s0.5-0.1,0.7-0.1c0.2,0,0.5,0,0.7,0c0.2,0,0.4,0,0.6,0c0.4,0,0.9,0,1.3,0.1
		c0.4,0.1,0.8,0.2,1.2,0.4c0.3,0.2,0.6,0.4,0.8,0.8c0.2,0.3,0.3,0.7,0.3,1.2c0,0.7-0.2,1.3-0.5,1.8c-0.4,0.5-0.8,0.8-1.5,0.9
		l0.7,0.4l2.2,3.3h-2.2l-2.2-3.4l-1-0.2v3.6h-1.9V41.1z M152.7,42.5c-0.2,0-0.4,0-0.6,0c-0.2,0-0.3,0-0.4,0V45h0.8
		c0.5,0,0.9-0.1,1.2-0.3s0.5-0.5,0.5-1c0-0.4-0.1-0.6-0.4-0.8C153.6,42.6,153.2,42.5,152.7,42.5z"/>
	<path class="st2" d="M125.5,55.5h-2.8v7.2h-1.9v-7.2h-2.8v-1.6h7.4V55.5z"/>
	<path class="st2" d="M126.8,54c0.2,0,0.4-0.1,0.7-0.1s0.5-0.1,0.7-0.1c0.2,0,0.5,0,0.7,0c0.2,0,0.4,0,0.6,0c0.4,0,0.9,0,1.3,0.1
		c0.4,0.1,0.8,0.2,1.2,0.4c0.3,0.2,0.6,0.4,0.8,0.8c0.2,0.3,0.3,0.7,0.3,1.2c0,0.7-0.2,1.3-0.5,1.8c-0.4,0.5-0.8,0.8-1.5,0.9
		l0.7,0.4l2.2,3.3h-2.2l-2.2-3.4l-1-0.2v3.6h-1.9V54z M129.6,55.4c-0.2,0-0.4,0-0.6,0c-0.2,0-0.3,0-0.4,0v2.4h0.8
		c0.5,0,0.9-0.1,1.2-0.3s0.5-0.5,0.5-1c0-0.4-0.1-0.6-0.4-0.8C130.5,55.5,130.1,55.4,129.6,55.4z"/>
	<path class="st2" d="M140.3,53.9h1.8v5.6c0,0.6-0.1,1.1-0.2,1.5c-0.2,0.4-0.4,0.8-0.7,1c-0.3,0.3-0.7,0.5-1.1,0.6s-0.9,0.2-1.4,0.2
		c-1.2,0-2.1-0.3-2.7-0.8s-0.9-1.3-0.9-2.3v-5.8h1.9v5.5c0,0.7,0.1,1.1,0.4,1.4c0.3,0.3,0.7,0.4,1.3,0.4c0.6,0,1-0.1,1.2-0.4
		s0.4-0.7,0.4-1.4V53.9z M136.1,52.7c0-0.2,0.1-0.4,0.2-0.5c0.2-0.1,0.4-0.2,0.8-0.2c0.4,0,0.6,0.1,0.8,0.2c0.2,0.1,0.2,0.3,0.2,0.5
		c0,0.2-0.1,0.4-0.2,0.5s-0.4,0.2-0.8,0.2c-0.4,0-0.6-0.1-0.8-0.2S136.1,52.9,136.1,52.7z M139,52.7c0-0.2,0.1-0.4,0.2-0.5
		c0.2-0.1,0.4-0.2,0.8-0.2c0.4,0,0.6,0.1,0.8,0.2c0.2,0.1,0.2,0.3,0.2,0.5c0,0.2-0.1,0.4-0.2,0.5c-0.2,0.1-0.4,0.2-0.8,0.2
		c-0.4,0-0.6-0.1-0.8-0.2S139,52.9,139,52.7z"/>
	<path class="st2" d="M150.5,56c0,0.2,0,0.4-0.1,0.6c-0.1,0.2-0.2,0.4-0.3,0.6c-0.1,0.2-0.3,0.3-0.5,0.5c-0.2,0.1-0.5,0.2-0.8,0.3
		V58c0.3,0,0.5,0.1,0.8,0.2c0.2,0.1,0.5,0.2,0.6,0.4c0.2,0.2,0.3,0.4,0.4,0.7c0.1,0.3,0.2,0.6,0.2,0.9c0,0.5-0.1,0.9-0.3,1.2
		c-0.2,0.3-0.5,0.6-0.8,0.8s-0.7,0.4-1.2,0.5s-0.9,0.2-1.4,0.2c-0.2,0-0.3,0-0.6,0s-0.5,0-0.8,0c-0.3,0-0.6,0-0.9-0.1
		c-0.3,0-0.6-0.1-0.8-0.1v-8.7c0.2,0,0.4-0.1,0.6-0.1c0.2,0,0.5,0,0.7-0.1c0.3,0,0.5,0,0.8,0c0.3,0,0.5,0,0.8,0c0.4,0,0.9,0,1.3,0.1
		c0.4,0.1,0.8,0.2,1.1,0.3s0.6,0.4,0.8,0.7S150.5,55.5,150.5,56z M146.4,57.5c0.1,0,0.3,0,0.4,0c0.2,0,0.3,0,0.4,0
		c0.4-0.1,0.6-0.3,0.9-0.4c0.2-0.2,0.4-0.4,0.4-0.8c0-0.2,0-0.4-0.1-0.5c-0.1-0.1-0.2-0.2-0.4-0.3c-0.2-0.1-0.3-0.1-0.5-0.2
		c-0.2,0-0.4,0-0.6,0c-0.2,0-0.5,0-0.7,0c-0.2,0-0.4,0-0.5,0v2.2H146.4z M147,61.3c0.2,0,0.5,0,0.7-0.1c0.2,0,0.4-0.1,0.6-0.2
		c0.2-0.1,0.3-0.2,0.4-0.4c0.1-0.1,0.1-0.3,0.1-0.5c0-0.3-0.1-0.5-0.2-0.6s-0.3-0.3-0.5-0.4c-0.2-0.1-0.4-0.1-0.6-0.2
		c-0.2,0-0.5,0-0.7,0h-1v2.3c0.1,0,0.1,0,0.2,0c0.1,0,0.2,0,0.3,0s0.2,0,0.4,0S146.9,61.3,147,61.3z"/>
	<path class="st2" d="M154.8,58.1l-0.8-1.3H154l0.2,1.3v4.6h-1.8v-8.8h1.3l3.6,4.7l0.7,1.3h0.1l-0.2-1.3v-4.6h1.8v8.8h-1.3
		L154.8,58.1z"/>
	<path class="st2" d="M161.8,53.9h5.7v1.6h-3.8v1.9h3.5v1.6h-3.5v2h3.9v1.6h-5.7V53.9z"/>
	<path class="st2" d="M169.3,54c0.2,0,0.4-0.1,0.7-0.1s0.5-0.1,0.7-0.1c0.2,0,0.5,0,0.7,0c0.2,0,0.4,0,0.6,0c0.4,0,0.9,0,1.3,0.1
		c0.4,0.1,0.8,0.2,1.2,0.4c0.3,0.2,0.6,0.4,0.8,0.8c0.2,0.3,0.3,0.7,0.3,1.2c0,0.7-0.2,1.3-0.5,1.8c-0.4,0.5-0.8,0.8-1.5,0.9
		l0.7,0.4l2.2,3.3h-2.2l-2.2-3.4l-1-0.2v3.6h-1.9V54z M172.2,55.4c-0.2,0-0.4,0-0.6,0c-0.2,0-0.3,0-0.4,0v2.4h0.8
		c0.5,0,0.9-0.1,1.2-0.3s0.5-0.5,0.5-1c0-0.4-0.1-0.6-0.4-0.8C173,55.5,172.7,55.4,172.2,55.4z"/>
</g>
</svg>
