<?xml version="1.0" encoding="utf-8"?>
<!-- Generator: Adobe Illustrator 24.2.0, SVG Export Plug-In . SVG Version: 6.00 Build 0)  -->
<svg version="1.1" id="Ebene_1" xmlns="http://www.w3.org/2000/svg" xmlns:xlink="http://www.w3.org/1999/xlink" x="0px" y="0px"
	 viewBox="0 0 165 85" style="enable-background:new 0 0 165 85;" xml:space="preserve">
<style type="text/css">
	.st0{fill:#305596;}
	.st1{fill:#FFFFFF;}
</style>
<g>
	<text transform="matrix(1 0 0 1 362.7346 -861.6578)" class="st0" style="font-family:'PTSans-CaptionBold'; font-size:13px;">Prof. </text>
	<text transform="matrix(1 0 0 1 362.7346 -848.6578)" class="st0" style="font-family:'PTSans-CaptionBold'; font-size:13px;">Dr. </text>
	<text transform="matrix(1 0 0 1 362.7346 -835.6578)" class="st0" style="font-family:'PTSans-CaptionBold'; font-size:13px;">Peter </text>
	<text transform="matrix(1 0 0 1 362.7346 -822.6578)" class="st0" style="font-family:'PTSans-CaptionBold'; font-size:13px;">Trübner</text>
</g>
<g>
	<line x1="90.2" y1="-0.7" x2="90.2" y2="85"/>
	<rect x="89.7" y="-0.7" width="1" height="85.7"/>
</g>
<g>
	<path d="M16,72.1c0.9,0.2,1.8,0.4,2.8,0.9c0.9,0.4,1.8,0.9,2.4,1.4v2.9H5.3l-1-1l10.2-47.6L10,27.5v-2.7c0.9-0.3,1.9-0.7,3.2-1
		c1.3-0.3,2.7-0.6,4-0.9c1.4-0.3,2.8-0.4,4.1-0.6c1.4-0.2,2.5-0.3,3.6-0.3l1.5,0.9L24,33.8h0.3c0.9-1.6,1.8-3.1,2.8-4.6
		c1-1.5,2.2-2.7,3.4-3.7c1.2-1,2.5-1.9,4-2.5c1.5-0.6,2.9-0.9,4.6-0.9c2.7,0,4.8,1,6.5,3.1c1.7,2.1,2.6,5,2.6,8.7
		c0,4.2-0.6,8.1-1.8,11.6c-1.2,3.5-2.8,6.6-4.8,9.1c-2.1,2.6-4.5,4.6-7.3,5.9c-2.8,1.5-5.8,2.1-9.1,2.1c-1.5,0-2.8-0.1-3.7-0.3
		c-0.9-0.3-2-0.6-3-1.2L16,72.1z M33.1,28.3c-1.1,0-2.1,0.4-3.2,1.2c-1,0.8-2,1.8-2.8,3c-0.9,1.2-1.7,2.5-2.4,3.9
		c-0.8,1.4-1.4,2.7-1.8,3.8L19.4,57c0.7,0.4,1.4,0.8,2,1c0.7,0.2,1.6,0.3,2.8,0.3c1.8,0,3.4-0.7,5-2.1c1.5-1.4,2.9-3.2,4.1-5.4
		c1.2-2.2,2.1-4.7,2.8-7.6c0.7-2.8,0.9-5.6,0.9-8.3c0-2.1-0.3-3.9-1-5C35.4,28.9,34.4,28.3,33.1,28.3z"/>
	<path d="M53.4,24.9c0.9-0.6,2.1-1.2,3.3-1.6c1.2-0.4,2.3-0.8,3.5-1.1l1.2-5.9c0.3-0.3,0.9-0.6,1.7-0.9c0.8-0.3,1.6-0.5,2.5-0.8
		c0.9-0.3,1.9-0.4,2.8-0.7c0.9-0.2,1.8-0.3,2.6-0.4l1.6,0.9L70.7,23h9.1c0.1,0.6,0.1,1.5-0.1,2.5c-0.2,1-0.5,1.9-0.9,2.5h-9.2
		l-4.5,20.1c-0.2,0.9-0.3,1.8-0.4,2.6c-0.1,0.8-0.2,1.5-0.2,2.1c0,1.4,0.3,2.3,1,2.9c0.7,0.6,1.5,0.9,2.8,0.9c1.3,0,2.5-0.2,3.6-0.4
		c1.1-0.3,2.2-0.8,3.3-1.3l1,2c-0.6,0.7-1.5,1.4-2.5,2.1c-1,0.7-2.1,1.4-3.4,2c-1.3,0.6-2.7,1-4.1,1.5c-1.5,0.3-3,0.5-4.6,0.5
		c-2.7,0-4.6-0.6-6-1.9c-1.4-1.2-2-2.9-2-5.1c0-1.2,0.1-2.4,0.3-3.8c0.2-1.4,0.4-2.5,0.6-3.4L59,28h-5.6
		C53.4,28,53.4,24.9,53.4,24.9z"/>
</g>
<g>
	<path class="st0" d="M103.4,14.9c0.4-0.1,0.8-0.1,1.3-0.2c0.5,0,0.9-0.1,1.4-0.1s0.9,0,1.4,0.1s0.9,0.2,1.3,0.4
		c0.4,0.2,0.7,0.5,0.9,0.9c0.2,0.4,0.4,0.9,0.4,1.5s-0.1,1-0.3,1.4c-0.2,0.4-0.5,0.7-0.8,0.9c-0.3,0.2-0.7,0.4-1.2,0.5
		c-0.4,0.1-0.9,0.2-1.4,0.2c0,0-0.1,0-0.2,0s-0.2,0-0.3,0c-0.1,0-0.2,0-0.3,0c-0.1,0-0.2,0-0.2,0v3h-1.9v-8.6H103.4z M106.2,16.4
		c-0.2,0-0.3,0-0.5,0s-0.3,0-0.4,0V19c0,0,0.1,0,0.2,0s0.2,0,0.2,0c0.1,0,0.2,0,0.2,0c0.1,0,0.1,0,0.2,0c0.2,0,0.5,0,0.7,0
		s0.5-0.1,0.6-0.2c0.2-0.1,0.3-0.3,0.5-0.4c0.1-0.2,0.2-0.4,0.2-0.8c0-0.3-0.1-0.5-0.2-0.6c-0.1-0.2-0.3-0.3-0.4-0.4
		s-0.4-0.2-0.6-0.2S106.4,16.4,106.2,16.4z"/>
	<path class="st0" d="M111.4,14.9c0.2,0,0.4-0.1,0.7-0.1s0.5-0.1,0.7-0.1s0.5,0,0.7,0s0.4,0,0.6,0c0.4,0,0.9,0,1.3,0.1
		c0.4,0.1,0.8,0.2,1.2,0.4c0.3,0.2,0.6,0.4,0.8,0.8c0.2,0.3,0.3,0.7,0.3,1.2c0,0.7-0.2,1.3-0.5,1.8c-0.4,0.5-0.8,0.8-1.5,0.9
		l0.7,0.4l2.2,3.3h-2.2l-2.2-3.4l-1-0.2v3.6h-1.9L111.4,14.9L111.4,14.9z M114.3,16.4c-0.2,0-0.4,0-0.6,0c-0.2,0-0.3,0-0.4,0v2.4
		h0.8c0.5,0,0.9-0.1,1.2-0.3s0.5-0.5,0.5-1c0-0.4-0.1-0.6-0.4-0.8C115.2,16.5,114.8,16.4,114.3,16.4z"/>
	<path class="st0" d="M119.3,19.2c0-0.7,0.1-1.4,0.3-1.9c0.2-0.6,0.4-1,0.8-1.4c0.3-0.4,0.8-0.7,1.3-0.9c0.5-0.2,1.1-0.3,1.7-0.3
		c0.7,0,1.3,0.1,1.8,0.3c0.5,0.2,0.9,0.5,1.3,0.9c0.3,0.4,0.6,0.9,0.8,1.4s0.3,1.2,0.3,1.9c0,0.7-0.1,1.4-0.3,1.9
		c-0.2,0.6-0.5,1-0.8,1.4c-0.4,0.4-0.8,0.7-1.3,0.9c-0.5,0.2-1.1,0.3-1.7,0.3c-0.7,0-1.3-0.1-1.8-0.3c-0.5-0.2-0.9-0.5-1.3-0.9
		s-0.6-0.9-0.8-1.4S119.3,19.9,119.3,19.2z M121.3,19.2c0,0.4,0,0.8,0.1,1.2c0.1,0.4,0.2,0.7,0.4,0.9c0.2,0.3,0.4,0.5,0.6,0.6
		c0.3,0.1,0.6,0.2,0.9,0.2c0.7,0,1.2-0.2,1.5-0.7s0.6-1.2,0.6-2.3c0-0.4,0-0.8-0.1-1.2c-0.1-0.4-0.2-0.7-0.4-0.9
		c-0.2-0.3-0.4-0.5-0.7-0.6s-0.6-0.2-1-0.2c-0.7,0-1.2,0.2-1.5,0.7S121.3,18.2,121.3,19.2z"/>
	<path class="st0" d="M129.2,14.8h5.7v1.6h-3.8v2h3.5V20h-3.5v3.5h-1.9V14.8z"/>
	<path class="st0" d="M135.2,22.8c0-0.3,0.1-0.6,0.3-0.7c0.2-0.2,0.5-0.3,0.8-0.3s0.6,0.1,0.8,0.3s0.3,0.4,0.3,0.7
		c0,0.3-0.1,0.5-0.3,0.7s-0.5,0.3-0.8,0.3s-0.6-0.1-0.8-0.3C135.3,23.3,135.2,23.1,135.2,22.8z"/>
	<path class="st0" d="M103.4,27.7c0.2,0,0.4,0,0.6-0.1c0.2,0,0.5,0,0.7,0c0.3,0,0.5,0,0.7,0s0.5,0,0.7,0c0.8,0,1.6,0.1,2.2,0.3
		c0.6,0.2,1.1,0.5,1.5,0.9s0.7,0.9,0.8,1.4s0.3,1.1,0.3,1.8c0,0.6-0.1,1.2-0.3,1.7c-0.2,0.6-0.5,1-0.8,1.5c-0.4,0.4-0.9,0.8-1.5,1
		c-0.6,0.3-1.4,0.4-2.3,0.4c-0.1,0-0.3,0-0.6,0c-0.2,0-0.5,0-0.8,0s-0.5,0-0.7,0s-0.4,0-0.5,0L103.4,27.7L103.4,27.7z M106.3,29.2
		c-0.2,0-0.4,0-0.6,0s-0.4,0-0.5,0v5.7c0,0,0.1,0,0.2,0s0.2,0,0.3,0c0.1,0,0.2,0,0.3,0c0.1,0,0.2,0,0.2,0c0.5,0,1-0.1,1.3-0.3
		c0.4-0.2,0.6-0.4,0.8-0.7c0.2-0.3,0.3-0.6,0.4-0.9c0.1-0.4,0.1-0.7,0.1-1.1c0-0.3,0-0.6-0.1-1c-0.1-0.3-0.2-0.6-0.4-0.9
		c-0.2-0.3-0.5-0.5-0.8-0.7S106.9,29.2,106.3,29.2z"/>
	<path class="st0" d="M112.6,27.8c0.2,0,0.4-0.1,0.7-0.1s0.5-0.1,0.7-0.1s0.5,0,0.7,0s0.4,0,0.6,0c0.4,0,0.9,0,1.3,0.1
		c0.4,0.1,0.8,0.2,1.2,0.4c0.3,0.2,0.6,0.4,0.8,0.8c0.2,0.3,0.3,0.7,0.3,1.2c0,0.7-0.2,1.3-0.5,1.8c-0.4,0.5-0.8,0.8-1.5,0.9
		l0.7,0.4l2.2,3.3h-2.2l-2.2-3.4l-1-0.2v3.6h-1.9L112.6,27.8L112.6,27.8z M115.4,29.2c-0.2,0-0.4,0-0.6,0c-0.2,0-0.3,0-0.4,0v2.4
		h0.8c0.5,0,0.9-0.1,1.2-0.3s0.5-0.5,0.5-1c0-0.4-0.1-0.6-0.4-0.8C116.3,29.3,115.9,29.2,115.4,29.2z"/>
	<path class="st0" d="M121,35.7c0-0.3,0.1-0.6,0.3-0.7c0.2-0.2,0.5-0.3,0.8-0.3s0.6,0.1,0.8,0.3s0.3,0.4,0.3,0.7
		c0,0.3-0.1,0.5-0.3,0.7s-0.5,0.3-0.8,0.3s-0.6-0.1-0.8-0.3C121.1,36.2,121,36,121,35.7z"/>
	<path class="st0" d="M103.4,40.7c0.4-0.1,0.8-0.1,1.3-0.2c0.5,0,0.9-0.1,1.4-0.1s0.9,0,1.4,0.1s0.9,0.2,1.3,0.4
		c0.4,0.2,0.7,0.5,0.9,0.9c0.2,0.4,0.4,0.9,0.4,1.5s-0.1,1-0.3,1.4c-0.2,0.4-0.5,0.7-0.8,0.9s-0.7,0.4-1.2,0.5
		c-0.4,0.1-0.9,0.2-1.4,0.2c0,0-0.1,0-0.2,0s-0.2,0-0.3,0c-0.1,0-0.2,0-0.3,0c-0.1,0-0.2,0-0.2,0v3h-1.9v-8.6H103.4z M106.2,42.1
		c-0.2,0-0.3,0-0.5,0s-0.3,0-0.4,0v2.6c0,0,0.1,0,0.2,0s0.2,0,0.2,0c0.1,0,0.2,0,0.2,0c0.1,0,0.1,0,0.2,0c0.2,0,0.5,0,0.7,0
		s0.5-0.1,0.6-0.2c0.2-0.1,0.3-0.3,0.5-0.4c0.1-0.2,0.2-0.4,0.2-0.8c0-0.3-0.1-0.5-0.2-0.6c-0.1-0.2-0.3-0.3-0.4-0.4
		s-0.4-0.2-0.6-0.2S106.4,42.1,106.2,42.1z"/>
	<path class="st0" d="M111.4,40.6h5.7v1.6h-3.8v1.9h3.5v1.6h-3.5v2h3.9v1.6h-5.7L111.4,40.6L111.4,40.6z"/>
	<path class="st0" d="M125.7,42.3h-2.8v7.2H121v-7.2h-2.8v-1.6h7.4v1.6H125.7z"/>
	<path class="st0" d="M127,40.6h5.7v1.6h-3.8v1.9h3.5v1.6h-3.5v2h3.9v1.6h-5.7L127,40.6L127,40.6z"/>
	<path class="st0" d="M134.6,40.7c0.2,0,0.4-0.1,0.7-0.1s0.5-0.1,0.7-0.1s0.5,0,0.7,0s0.4,0,0.6,0c0.4,0,0.9,0,1.3,0.1
		c0.4,0.1,0.8,0.2,1.2,0.4c0.3,0.2,0.6,0.4,0.8,0.8c0.2,0.3,0.3,0.7,0.3,1.2c0,0.7-0.2,1.3-0.5,1.8c-0.4,0.5-0.8,0.8-1.5,0.9
		l0.7,0.4l2.2,3.3h-2.2l-2.2-3.4l-1-0.2v3.6h-1.9L134.6,40.7L134.6,40.7z M137.4,42.1c-0.2,0-0.4,0-0.6,0c-0.2,0-0.3,0-0.4,0v2.4
		h0.8c0.5,0,0.9-0.1,1.2-0.3s0.5-0.5,0.5-1c0-0.4-0.1-0.6-0.4-0.8C138.3,42.2,137.9,42.1,137.4,42.1z"/>
	<path class="st0" d="M110.2,55.1h-2.8v7.2h-1.9v-7.2h-2.8v-1.6h7.4v1.6H110.2z"/>
	<path class="st0" d="M111.5,53.6c0.2,0,0.4-0.1,0.7-0.1s0.5-0.1,0.7-0.1s0.5,0,0.7,0s0.4,0,0.6,0c0.4,0,0.9,0,1.3,0.1
		c0.4,0.1,0.8,0.2,1.2,0.4c0.3,0.2,0.6,0.4,0.8,0.8c0.2,0.3,0.3,0.7,0.3,1.2c0,0.7-0.2,1.3-0.5,1.8c-0.4,0.5-0.8,0.8-1.5,0.9
		l0.7,0.4l2.2,3.3h-2.2l-2.2-3.4l-1-0.2v3.6h-1.9L111.5,53.6L111.5,53.6z M114.3,55c-0.2,0-0.4,0-0.6,0c-0.2,0-0.3,0-0.4,0v2.4h0.8
		c0.5,0,0.9-0.1,1.2-0.3s0.5-0.5,0.5-1c0-0.4-0.1-0.6-0.4-0.8C115.2,55.1,114.8,55,114.3,55z"/>
	<path class="st0" d="M125,53.5h1.8v5.6c0,0.6-0.1,1.1-0.2,1.5c-0.2,0.4-0.4,0.8-0.7,1c-0.3,0.3-0.7,0.5-1.1,0.6s-0.9,0.2-1.4,0.2
		c-1.2,0-2.1-0.3-2.7-0.8s-0.9-1.3-0.9-2.3v-5.8h1.9V59c0,0.7,0.1,1.1,0.4,1.4c0.3,0.3,0.7,0.4,1.3,0.4s1-0.1,1.2-0.4
		s0.4-0.7,0.4-1.4V53.5z M120.8,52.3c0-0.2,0.1-0.4,0.2-0.5c0.2-0.1,0.4-0.2,0.8-0.2c0.4,0,0.6,0.1,0.8,0.2c0.2,0.1,0.2,0.3,0.2,0.5
		s-0.1,0.4-0.2,0.5s-0.4,0.2-0.8,0.2c-0.4,0-0.6-0.1-0.8-0.2S120.8,52.5,120.8,52.3z M123.7,52.3c0-0.2,0.1-0.4,0.2-0.5
		c0.2-0.1,0.4-0.2,0.8-0.2c0.4,0,0.6,0.1,0.8,0.2c0.2,0.1,0.2,0.3,0.2,0.5s-0.1,0.4-0.2,0.5c-0.2,0.1-0.4,0.2-0.8,0.2
		c-0.4,0-0.6-0.1-0.8-0.2S123.7,52.5,123.7,52.3z"/>
	<path class="st0" d="M135.2,55.6c0,0.2,0,0.4-0.1,0.6c-0.1,0.2-0.2,0.4-0.3,0.6c-0.1,0.2-0.3,0.3-0.5,0.5c-0.2,0.1-0.5,0.2-0.8,0.3
		v0.1c0.3,0,0.5,0.1,0.8,0.2c0.2,0.1,0.5,0.2,0.6,0.4c0.2,0.2,0.3,0.4,0.4,0.7c0.1,0.3,0.2,0.6,0.2,0.9c0,0.5-0.1,0.9-0.3,1.2
		s-0.5,0.6-0.8,0.8s-0.7,0.4-1.2,0.5s-0.9,0.2-1.4,0.2c-0.2,0-0.3,0-0.6,0s-0.5,0-0.8,0s-0.6,0-0.9-0.1c-0.3,0-0.6-0.1-0.8-0.1v-8.7
		c0.2,0,0.4-0.1,0.6-0.1c0.2,0,0.5,0,0.7-0.1c0.3,0,0.5,0,0.8,0s0.5,0,0.8,0c0.4,0,0.9,0,1.3,0.1c0.4,0.1,0.8,0.2,1.1,0.3
		s0.6,0.4,0.8,0.7S135.2,55.1,135.2,55.6z M131.1,57.2c0.1,0,0.3,0,0.4,0c0.2,0,0.3,0,0.4,0c0.4-0.1,0.6-0.3,0.9-0.4
		c0.2-0.2,0.4-0.4,0.4-0.8c0-0.2,0-0.4-0.1-0.5s-0.2-0.2-0.4-0.3s-0.3-0.1-0.5-0.2c-0.2,0-0.4,0-0.6,0c-0.2,0-0.5,0-0.7,0
		s-0.4,0-0.5,0v2.2H131.1z M131.7,60.9c0.2,0,0.5,0,0.7-0.1c0.2,0,0.4-0.1,0.6-0.2c0.2-0.1,0.3-0.2,0.4-0.4c0.1-0.1,0.1-0.3,0.1-0.5
		c0-0.3-0.1-0.5-0.2-0.6s-0.3-0.3-0.5-0.4c-0.2-0.1-0.4-0.1-0.6-0.2c-0.2,0-0.5,0-0.7,0h-1v2.3c0.1,0,0.1,0,0.2,0c0.1,0,0.2,0,0.3,0
		s0.2,0,0.4,0S131.6,60.9,131.7,60.9z"/>
	<path class="st0" d="M139.5,57.7l-0.8-1.3l0,0l0.2,1.3v4.6h-1.8v-8.8h1.3l3.6,4.7l0.7,1.3h0.1l-0.2-1.3v-4.6h1.8v8.8h-1.3
		L139.5,57.7z"/>
	<path class="st0" d="M146.5,53.5h5.7v1.6h-3.8V57h3.5v1.6h-3.5v2h3.9v1.6h-5.7L146.5,53.5L146.5,53.5z"/>
	<path class="st0" d="M154,53.6c0.2,0,0.4-0.1,0.7-0.1s0.5-0.1,0.7-0.1s0.5,0,0.7,0s0.4,0,0.6,0c0.4,0,0.9,0,1.3,0.1
		c0.4,0.1,0.8,0.2,1.2,0.4c0.3,0.2,0.6,0.4,0.8,0.8c0.2,0.3,0.3,0.7,0.3,1.2c0,0.7-0.2,1.3-0.5,1.8c-0.4,0.5-0.8,0.8-1.5,0.9L159,59
		l2.2,3.3H159l-2.2-3.4l-1-0.2v3.6h-1.9L154,53.6L154,53.6z M156.9,55c-0.2,0-0.4,0-0.6,0c-0.2,0-0.3,0-0.4,0v2.4h0.8
		c0.5,0,0.9-0.1,1.2-0.3s0.5-0.5,0.5-1c0-0.4-0.1-0.6-0.4-0.8C157.7,55.1,157.4,55,156.9,55z"/>
</g>
<g>
	<line class="st1" x1="278.2" y1="-0.7" x2="278.2" y2="85"/>
	<rect x="277.7" y="-0.7" class="st1" width="1" height="85.7"/>
</g>
<g>
	<path class="st1" d="M204,72.1c0.9,0.2,1.8,0.4,2.8,0.9c0.9,0.4,1.8,0.9,2.4,1.4v2.9h-15.9l-1-1l10.2-47.6l-4.5-1.1v-2.7
		c0.9-0.3,1.9-0.7,3.2-1c1.3-0.3,2.7-0.6,4-0.9c1.4-0.3,2.8-0.4,4.1-0.6c1.4-0.2,2.5-0.3,3.6-0.3l1.5,0.9l-2.6,10.7h0.3
		c0.9-1.6,1.8-3.1,2.8-4.6c1-1.5,2.2-2.7,3.4-3.7c1.2-1,2.5-1.9,4-2.5c1.5-0.6,2.9-0.9,4.6-0.9c2.7,0,4.8,1,6.5,3.1
		c1.7,2.1,2.6,5,2.6,8.7c0,4.2-0.6,8.1-1.8,11.6c-1.2,3.5-2.8,6.6-4.8,9.1c-2.1,2.6-4.5,4.6-7.3,5.9c-2.8,1.5-5.8,2.1-9.1,2.1
		c-1.5,0-2.8-0.1-3.7-0.3c-0.9-0.3-2-0.6-3-1.2L204,72.1z M221,28.3c-1.1,0-2.1,0.4-3.2,1.2s-2,1.8-2.8,3c-0.9,1.2-1.7,2.5-2.4,3.9
		c-0.8,1.4-1.4,2.7-1.8,3.8L207.4,57c0.7,0.4,1.4,0.8,2,1c0.7,0.2,1.6,0.3,2.8,0.3c1.8,0,3.4-0.7,5-2.1s2.9-3.2,4.1-5.4
		c1.2-2.2,2.1-4.7,2.8-7.6c0.7-2.8,0.9-5.6,0.9-8.3c0-2.1-0.3-3.9-1-5C223.3,28.9,222.3,28.3,221,28.3z"/>
	<path class="st1" d="M241.4,24.9c0.9-0.6,2.1-1.2,3.3-1.6c1.2-0.4,2.3-0.8,3.5-1.1l1.2-5.9c0.3-0.3,0.9-0.6,1.7-0.9
		s1.6-0.5,2.5-0.8c0.9-0.3,1.9-0.4,2.8-0.7c0.9-0.2,1.8-0.3,2.6-0.4l1.6,0.9l-1.9,8.5h9.1c0.1,0.6,0.1,1.5-0.1,2.5
		c-0.2,1-0.5,1.9-0.9,2.5h-9.2l-4.5,20.1c-0.2,0.9-0.3,1.8-0.4,2.6s-0.2,1.5-0.2,2.1c0,1.4,0.3,2.3,1,2.9c0.7,0.6,1.5,0.9,2.8,0.9
		c1.3,0,2.5-0.2,3.6-0.4c1.1-0.3,2.2-0.8,3.3-1.3l1,2c-0.6,0.7-1.5,1.4-2.5,2.1c-1,0.7-2.1,1.4-3.4,2c-1.3,0.6-2.7,1-4.1,1.5
		c-1.5,0.3-3,0.5-4.6,0.5c-2.7,0-4.6-0.6-6-1.9c-1.4-1.2-2-2.9-2-5.1c0-1.2,0.1-2.4,0.3-3.8c0.2-1.4,0.4-2.5,0.6-3.4L247,28h-5.6
		C241.4,28,241.4,24.9,241.4,24.9z"/>
</g>
<g>
	<path class="st1" d="M291.4,14.9c0.4-0.1,0.8-0.1,1.3-0.2c0.5,0,0.9-0.1,1.4-0.1s0.9,0,1.4,0.1s0.9,0.2,1.3,0.4
		c0.4,0.2,0.7,0.5,0.9,0.9c0.2,0.4,0.4,0.9,0.4,1.5s-0.1,1-0.3,1.4c-0.2,0.4-0.5,0.7-0.8,0.9c-0.3,0.2-0.7,0.4-1.2,0.5
		c-0.4,0.1-0.9,0.2-1.4,0.2c0,0-0.1,0-0.2,0s-0.2,0-0.3,0c-0.1,0-0.2,0-0.3,0s-0.2,0-0.2,0v3h-1.9v-8.6H291.4z M294.2,16.4
		c-0.2,0-0.3,0-0.5,0c-0.2,0-0.3,0-0.4,0V19c0,0,0.1,0,0.2,0s0.2,0,0.2,0c0.1,0,0.2,0,0.2,0c0.1,0,0.1,0,0.2,0c0.2,0,0.5,0,0.7,0
		c0.2,0,0.5-0.1,0.6-0.2c0.2-0.1,0.3-0.3,0.5-0.4c0.1-0.2,0.2-0.4,0.2-0.8c0-0.3-0.1-0.5-0.2-0.6c-0.1-0.2-0.3-0.3-0.4-0.4
		c-0.1-0.1-0.4-0.2-0.6-0.2C294.7,16.4,294.4,16.4,294.2,16.4z"/>
	<path class="st1" d="M299.4,14.9c0.2,0,0.4-0.1,0.7-0.1c0.3,0,0.5-0.1,0.7-0.1c0.2,0,0.5,0,0.7,0c0.2,0,0.4,0,0.6,0
		c0.4,0,0.9,0,1.3,0.1s0.8,0.2,1.2,0.4c0.3,0.2,0.6,0.4,0.8,0.8c0.2,0.3,0.3,0.7,0.3,1.2c0,0.7-0.2,1.3-0.5,1.8
		c-0.4,0.5-0.8,0.8-1.5,0.9l0.7,0.4l2.2,3.3h-2.2l-2.2-3.4l-1-0.2v3.6h-1.9v-8.7H299.4z M302.3,16.4c-0.2,0-0.4,0-0.6,0
		s-0.3,0-0.4,0v2.4h0.8c0.5,0,0.9-0.1,1.2-0.3c0.3-0.2,0.5-0.5,0.5-1c0-0.4-0.1-0.6-0.4-0.8C303.2,16.5,302.8,16.4,302.3,16.4z"/>
	<path class="st1" d="M307.3,19.2c0-0.7,0.1-1.4,0.3-1.9c0.2-0.6,0.4-1,0.8-1.4c0.3-0.4,0.8-0.7,1.3-0.9c0.5-0.2,1.1-0.3,1.7-0.3
		c0.7,0,1.3,0.1,1.8,0.3c0.5,0.2,0.9,0.5,1.3,0.9c0.3,0.4,0.6,0.9,0.8,1.4c0.2,0.5,0.3,1.2,0.3,1.9c0,0.7-0.1,1.4-0.3,1.9
		c-0.2,0.6-0.5,1-0.8,1.4c-0.4,0.4-0.8,0.7-1.3,0.9c-0.5,0.2-1.1,0.3-1.7,0.3c-0.7,0-1.3-0.1-1.8-0.3c-0.5-0.2-0.9-0.5-1.3-0.9
		c-0.4-0.4-0.6-0.9-0.8-1.4C307.4,20.6,307.3,19.9,307.3,19.2z M309.3,19.2c0,0.4,0,0.8,0.1,1.2c0.1,0.4,0.2,0.7,0.4,0.9
		c0.2,0.3,0.4,0.5,0.6,0.6c0.3,0.1,0.6,0.2,0.9,0.2c0.7,0,1.2-0.2,1.5-0.7c0.3-0.5,0.6-1.2,0.6-2.3c0-0.4,0-0.8-0.1-1.2
		c-0.1-0.4-0.2-0.7-0.4-0.9c-0.2-0.3-0.4-0.5-0.7-0.6c-0.3-0.1-0.6-0.2-1-0.2c-0.7,0-1.2,0.2-1.5,0.7
		C309.4,17.4,309.3,18.2,309.3,19.2z"/>
	<path class="st1" d="M317.2,14.8h5.7v1.6h-3.8v2h3.5V20h-3.5v3.5h-1.9V14.8z"/>
	<path class="st1" d="M323.2,22.8c0-0.3,0.1-0.6,0.3-0.7c0.2-0.2,0.5-0.3,0.8-0.3c0.3,0,0.6,0.1,0.8,0.3c0.2,0.2,0.3,0.4,0.3,0.7
		c0,0.3-0.1,0.5-0.3,0.7c-0.2,0.2-0.5,0.3-0.8,0.3c-0.3,0-0.6-0.1-0.8-0.3C323.3,23.3,323.2,23.1,323.2,22.8z"/>
	<path class="st1" d="M291.4,27.7c0.2,0,0.4,0,0.6-0.1c0.2,0,0.5,0,0.7,0c0.3,0,0.5,0,0.7,0c0.2,0,0.5,0,0.7,0
		c0.8,0,1.6,0.1,2.2,0.3c0.6,0.2,1.1,0.5,1.5,0.9s0.7,0.9,0.8,1.4s0.3,1.1,0.3,1.8c0,0.6-0.1,1.2-0.3,1.7c-0.2,0.6-0.5,1-0.8,1.5
		c-0.4,0.4-0.9,0.8-1.5,1c-0.6,0.3-1.4,0.4-2.3,0.4c-0.1,0-0.3,0-0.6,0c-0.2,0-0.5,0-0.8,0c-0.3,0-0.5,0-0.7,0c-0.2,0-0.4,0-0.5,0
		V27.7L291.4,27.7z M294.3,29.2c-0.2,0-0.4,0-0.6,0c-0.2,0-0.4,0-0.5,0v5.7c0,0,0.1,0,0.2,0s0.2,0,0.3,0c0.1,0,0.2,0,0.3,0
		s0.2,0,0.2,0c0.5,0,1-0.1,1.3-0.3c0.4-0.2,0.6-0.4,0.8-0.7c0.2-0.3,0.3-0.6,0.4-0.9c0.1-0.4,0.1-0.7,0.1-1.1c0-0.3,0-0.6-0.1-1
		c-0.1-0.3-0.2-0.6-0.4-0.9c-0.2-0.3-0.5-0.5-0.8-0.7C295.2,29.1,294.9,29.2,294.3,29.2z"/>
	<path class="st1" d="M300.6,27.8c0.2,0,0.4-0.1,0.7-0.1c0.3,0,0.5-0.1,0.7-0.1c0.2,0,0.5,0,0.7,0c0.2,0,0.4,0,0.6,0
		c0.4,0,0.9,0,1.3,0.1s0.8,0.2,1.2,0.4c0.3,0.2,0.6,0.4,0.8,0.8c0.2,0.3,0.3,0.7,0.3,1.2c0,0.7-0.2,1.3-0.5,1.8
		c-0.4,0.5-0.8,0.8-1.5,0.9l0.7,0.4l2.2,3.3h-2.2l-2.2-3.4l-1-0.2v3.6h-1.9v-8.7H300.6z M303.4,29.2c-0.2,0-0.4,0-0.6,0
		c-0.2,0-0.3,0-0.4,0v2.4h0.8c0.5,0,0.9-0.1,1.2-0.3c0.3-0.2,0.5-0.5,0.5-1c0-0.4-0.1-0.6-0.4-0.8C304.3,29.3,303.9,29.2,303.4,29.2
		z"/>
	<path class="st1" d="M309,35.7c0-0.3,0.1-0.6,0.3-0.7c0.2-0.2,0.5-0.3,0.8-0.3c0.3,0,0.6,0.1,0.8,0.3c0.2,0.2,0.3,0.4,0.3,0.7
		c0,0.3-0.1,0.5-0.3,0.7c-0.2,0.2-0.5,0.3-0.8,0.3c-0.3,0-0.6-0.1-0.8-0.3C309.1,36.2,309,36,309,35.7z"/>
	<path class="st1" d="M291.4,40.7c0.4-0.1,0.8-0.1,1.3-0.2c0.5,0,0.9-0.1,1.4-0.1s0.9,0,1.4,0.1s0.9,0.2,1.3,0.4
		c0.4,0.2,0.7,0.5,0.9,0.9c0.2,0.4,0.4,0.9,0.4,1.5s-0.1,1-0.3,1.4c-0.2,0.4-0.5,0.7-0.8,0.9c-0.3,0.2-0.7,0.4-1.2,0.5
		c-0.4,0.1-0.9,0.2-1.4,0.2c0,0-0.1,0-0.2,0s-0.2,0-0.3,0c-0.1,0-0.2,0-0.3,0s-0.2,0-0.2,0v3h-1.9v-8.6H291.4z M294.2,42.1
		c-0.2,0-0.3,0-0.5,0c-0.2,0-0.3,0-0.4,0v2.6c0,0,0.1,0,0.2,0s0.2,0,0.2,0c0.1,0,0.2,0,0.2,0c0.1,0,0.1,0,0.2,0c0.2,0,0.5,0,0.7,0
		c0.2,0,0.5-0.1,0.6-0.2c0.2-0.1,0.3-0.3,0.5-0.4c0.1-0.2,0.2-0.4,0.2-0.8c0-0.3-0.1-0.5-0.2-0.6c-0.1-0.2-0.3-0.3-0.4-0.4
		c-0.1-0.1-0.4-0.2-0.6-0.2C294.7,42.1,294.4,42.1,294.2,42.1z"/>
	<path class="st1" d="M299.4,40.6h5.7v1.6h-3.8v1.9h3.5v1.6h-3.5v2h3.9v1.6h-5.7v-8.7H299.4z"/>
	<path class="st1" d="M313.7,42.3h-2.8v7.2H309v-7.2h-2.8v-1.6h7.4v1.6H313.7z"/>
	<path class="st1" d="M315,40.6h5.7v1.6h-3.8v1.9h3.5v1.6h-3.5v2h3.9v1.6h-5.7v-8.7H315z"/>
	<path class="st1" d="M322.6,40.7c0.2,0,0.4-0.1,0.7-0.1c0.3,0,0.5-0.1,0.7-0.1c0.2,0,0.5,0,0.7,0c0.2,0,0.4,0,0.6,0
		c0.4,0,0.9,0,1.3,0.1c0.4,0.1,0.8,0.2,1.2,0.4c0.3,0.2,0.6,0.4,0.8,0.8c0.2,0.3,0.3,0.7,0.3,1.2c0,0.7-0.2,1.3-0.5,1.8
		c-0.4,0.5-0.8,0.8-1.5,0.9l0.7,0.4l2.2,3.3h-2.2l-2.2-3.4l-1-0.2v3.6h-1.9v-8.7H322.6z M325.4,42.1c-0.2,0-0.4,0-0.6,0
		c-0.2,0-0.3,0-0.4,0v2.4h0.8c0.5,0,0.9-0.1,1.2-0.3c0.3-0.2,0.5-0.5,0.5-1c0-0.4-0.1-0.6-0.4-0.8C326.3,42.2,325.9,42.1,325.4,42.1
		z"/>
	<path class="st1" d="M298.2,55.1h-2.8v7.2h-1.9v-7.2h-2.8v-1.6h7.4v1.6H298.2z"/>
	<path class="st1" d="M299.5,53.6c0.2,0,0.4-0.1,0.7-0.1c0.3,0,0.5-0.1,0.7-0.1c0.2,0,0.5,0,0.7,0c0.2,0,0.4,0,0.6,0
		c0.4,0,0.9,0,1.3,0.1s0.8,0.2,1.2,0.4c0.3,0.2,0.6,0.4,0.8,0.8c0.2,0.3,0.3,0.7,0.3,1.2c0,0.7-0.2,1.3-0.5,1.8
		c-0.4,0.5-0.8,0.8-1.5,0.9l0.7,0.4l2.2,3.3h-2.2l-2.2-3.4l-1-0.2v3.6h-1.9v-8.7H299.5z M302.3,55c-0.2,0-0.4,0-0.6,0s-0.3,0-0.4,0
		v2.4h0.8c0.5,0,0.9-0.1,1.2-0.3c0.3-0.2,0.5-0.5,0.5-1c0-0.4-0.1-0.6-0.4-0.8C303.2,55.1,302.8,55,302.3,55z"/>
	<path class="st1" d="M313,53.5h1.8v5.6c0,0.6-0.1,1.1-0.2,1.5c-0.2,0.4-0.4,0.8-0.7,1c-0.3,0.3-0.7,0.5-1.1,0.6
		c-0.4,0.1-0.9,0.2-1.4,0.2c-1.2,0-2.1-0.3-2.7-0.8c-0.6-0.5-0.9-1.3-0.9-2.3v-5.8h1.9V59c0,0.7,0.1,1.1,0.4,1.4
		c0.3,0.3,0.7,0.4,1.3,0.4s1-0.1,1.2-0.4c0.2-0.3,0.4-0.7,0.4-1.4V53.5z M308.8,52.3c0-0.2,0.1-0.4,0.2-0.5c0.2-0.1,0.4-0.2,0.8-0.2
		c0.4,0,0.6,0.1,0.8,0.2c0.2,0.1,0.2,0.3,0.2,0.5s-0.1,0.4-0.2,0.5c-0.1,0.1-0.4,0.2-0.8,0.2s-0.6-0.1-0.8-0.2
		C308.8,52.7,308.8,52.5,308.8,52.3z M311.7,52.3c0-0.2,0.1-0.4,0.2-0.5c0.2-0.1,0.4-0.2,0.8-0.2c0.4,0,0.6,0.1,0.8,0.2
		c0.2,0.1,0.2,0.3,0.2,0.5s-0.1,0.4-0.2,0.5c-0.2,0.1-0.4,0.2-0.8,0.2s-0.6-0.1-0.8-0.2C311.7,52.7,311.7,52.5,311.7,52.3z"/>
	<path class="st1" d="M323.2,55.6c0,0.2,0,0.4-0.1,0.6c-0.1,0.2-0.2,0.4-0.3,0.6c-0.1,0.2-0.3,0.3-0.5,0.5c-0.2,0.1-0.5,0.2-0.8,0.3
		v0.1c0.3,0,0.5,0.1,0.8,0.2c0.2,0.1,0.5,0.2,0.6,0.4c0.2,0.2,0.3,0.4,0.4,0.7c0.1,0.3,0.2,0.6,0.2,0.9c0,0.5-0.1,0.9-0.3,1.2
		c-0.2,0.3-0.5,0.6-0.8,0.8c-0.3,0.2-0.7,0.4-1.2,0.5s-0.9,0.2-1.4,0.2c-0.2,0-0.3,0-0.6,0c-0.3,0-0.5,0-0.8,0c-0.3,0-0.6,0-0.9-0.1
		c-0.3,0-0.6-0.1-0.8-0.1v-8.7c0.2,0,0.4-0.1,0.6-0.1s0.5,0,0.7-0.1c0.3,0,0.5,0,0.8,0c0.3,0,0.5,0,0.8,0c0.4,0,0.9,0,1.3,0.1
		s0.8,0.2,1.1,0.3c0.3,0.1,0.6,0.4,0.8,0.7C323,54.9,323.2,55.1,323.2,55.6z M319.1,57.2c0.1,0,0.3,0,0.4,0c0.2,0,0.3,0,0.4,0
		c0.4-0.1,0.6-0.3,0.9-0.4c0.2-0.2,0.4-0.4,0.4-0.8c0-0.2,0-0.4-0.1-0.5s-0.2-0.2-0.4-0.3c-0.2-0.1-0.3-0.1-0.5-0.2
		c-0.2,0-0.4,0-0.6,0s-0.5,0-0.7,0c-0.2,0-0.4,0-0.5,0v2.2H319.1z M319.7,60.9c0.2,0,0.5,0,0.7-0.1c0.2,0,0.4-0.1,0.6-0.2
		c0.2-0.1,0.3-0.2,0.4-0.4c0.1-0.1,0.1-0.3,0.1-0.5c0-0.3-0.1-0.5-0.2-0.6c-0.1-0.1-0.3-0.3-0.5-0.4c-0.2-0.1-0.4-0.1-0.6-0.2
		c-0.2,0-0.5,0-0.7,0h-1v2.3c0.1,0,0.1,0,0.2,0s0.2,0,0.3,0s0.2,0,0.4,0C319.6,60.8,319.6,60.9,319.7,60.9z"/>
	<path class="st1" d="M327.5,57.7l-0.8-1.3l0,0l0.2,1.3v4.6h-1.8v-8.8h1.3l3.6,4.7l0.7,1.3h0.1l-0.2-1.3v-4.6h1.8v8.8h-1.3
		L327.5,57.7z"/>
	<path class="st1" d="M334.5,53.5h5.7v1.6h-3.8V57h3.5v1.6h-3.5v2h3.9v1.6h-5.7v-8.7H334.5z"/>
	<path class="st1" d="M342,53.6c0.2,0,0.4-0.1,0.7-0.1c0.3,0,0.5-0.1,0.7-0.1c0.2,0,0.5,0,0.7,0c0.2,0,0.4,0,0.6,0
		c0.4,0,0.9,0,1.3,0.1s0.8,0.2,1.2,0.4c0.3,0.2,0.6,0.4,0.8,0.8c0.2,0.3,0.3,0.7,0.3,1.2c0,0.7-0.2,1.3-0.5,1.8
		c-0.4,0.5-0.8,0.8-1.5,0.9L347,59l2.2,3.3H347l-2.2-3.4l-1-0.2v3.6h-1.9L342,53.6L342,53.6z M344.9,55c-0.2,0-0.4,0-0.6,0
		c-0.2,0-0.3,0-0.4,0v2.4h0.8c0.5,0,0.9-0.1,1.2-0.3c0.3-0.2,0.5-0.5,0.5-1c0-0.4-0.1-0.6-0.4-0.8S345.4,55,344.9,55z"/>
</g>
</svg>
